<?xml version="1.0" encoding="UTF-8"?>
<svg height="100%" width="100%" xmlns="http://www.w3.org/2000/svg">
	<defs>
		<font horiz-adv-x="222" id="web">
			<font-face alphabetic="0" ascent="984" descent="-236" font-family="" panose-1="2 11 5 4 2 2 2 2 2 4"/>
			<missing-glyph d="M0 718H512V0H0ZM50 667V50H462V667ZM259 609Q313 609 348 572T383 478Q383 440 368 414T319 357Q285 326 278 311Q271 294 271 234H225L223 253Q223 310 240 339Q256 366 286 395Q307 414 319 432T332 474Q332 508 309 533T256 559Q222 559 201 535T174 464L124 472Q131 539 165 574T259 609ZM222 184H278V117H222Z" horiz-adv-x="512"/>
			<glyph d="" horiz-adv-x="278" unicode=" "/>
			<glyph d="M82 714H177V494L152 183H107L82 494ZM131 125Q156 125 175 105T194 58Q194 33 175 13T131 -6Q104 -6 85 13T66 60Q66 86 85 105T131 125Z" horiz-adv-x="259" unicode="!"/>
			<glyph d="M109 714H177V456H109ZM249 714H317V456H249Z" horiz-adv-x="426" unicode="&quot;"/>
			<glyph d="M223 714H293L251 506H416L458 714H527L485 506H576V442H473L441 281H533V217H427L384 0H315L358 217H193L150 0H81L124 217H33V281H137L169 442H77V506H182ZM238 442L207 281H372L403 442Z" horiz-adv-x="609" unicode="#"/>
			<glyph d="M221 737H269V668Q352 663 404 610T457 478H379Q379 532 348 568T269 606V379Q347 362 392 337T456 277T475 192Q475 144 450 104T378 41T269 15V-61H221V15Q121 24 71 75T16 229H94Q94 163 126 124T221 76V314Q120 332 76 375T32 493Q32 567 84 615T221 668ZM221 606Q170 604 140 574T110 492Q110 451 134 428T221 390ZM269 302V75Q328 78 362 109T397 192Q397 233 368 259T269 302Z" horiz-adv-x="493" unicode="$"/>
			<glyph d="M643 722H720L308 -22H229ZM254 714Q334 714 374 663T415 521Q415 433 373 382T253 332Q175 332 133 381T92 522Q92 612 134 663T254 714ZM254 659Q211 659 189 621T167 520Q167 462 187 424T253 387Q298 387 319 425T340 520Q340 576 320 617T254 659ZM695 368Q775 368 815 317T856 175Q856 87 814 36T694 -14Q616 -14 574 35T533 176Q533 266 575 317T695 368ZM695 313Q652 313 630 275T608 174Q608 116 628 78T694 41Q739 41 760 79T781 174Q781 230 761 271T695 313Z" horiz-adv-x="948" unicode="%"/>
			<glyph d="M282 714Q357 714 406 673T455 568Q455 459 321 383L450 226Q471 286 473 337H554Q547 273 539 245T506 161L645 0H534L458 88Q427 42 372 15T255 -12Q146 -12 90 43Q33 100 33 184Q33 251 72 302T200 399L167 444Q143 476 132 505T121 567Q121 608 141 641T198 694T282 714ZM288 639Q255 639 230 618T206 563Q206 539 219 514T275 439Q329 473 349 501T370 563Q370 595 347 617T288 639ZM247 345Q179 307 151 271T123 185Q123 151 142 123T192 79T259 63Q306 63 345 85T411 148Z" horiz-adv-x="630" unicode="&amp;"/>
			<glyph d="M105 714H173V456H105Z" horiz-adv-x="278" unicode="'"/>
			<glyph d="M205 821H270Q202 714 170 602T138 360Q138 226 169 114T270 -108H205Q120 25 84 134T48 360Q48 478 89 599T205 821Z" horiz-adv-x="270" unicode="("/>
			<glyph d="M0 821H65Q146 697 184 585T222 353Q222 233 181 114T65 -108H0Q68 -1 100 110T132 353Q132 485 100 599T0 821Z" horiz-adv-x="270" unicode=")"/>
			<glyph d="M148 714H201V601L308 641L328 593L219 555L285 464L244 433L175 529L110 433L65 464L130 555L24 593L42 641L148 601Z" horiz-adv-x="352" unicode="*"/>
			<glyph d="M266 506H334V287H552V219H334V0H266V219H48V287H266Z" horiz-adv-x="600" unicode="+"/>
			<glyph d="M136 125Q167 125 186 99T206 27Q206 -39 175 -84T86 -139V-88Q116 -81 133 -57T151 -3Q143 -5 135 -5Q111 -5 91 13T72 56Q72 86 90 105T136 125Z" horiz-adv-x="278" unicode=","/>
			<glyph d="M50 318H339V238H50Z" horiz-adv-x="389" unicode="-"/>
			<glyph d="M140 125Q165 125 184 105T203 58Q203 33 184 13T140 -6Q113 -6 94 13T75 60Q75 86 94 105T140 125Z" horiz-adv-x="278" unicode="."/>
			<glyph d="M278 731H351L55 -17H-18Z" horiz-adv-x="333" unicode="/"/>
			<glyph d="M278 709Q395 709 455 631Q514 554 514 348Q514 143 455 66Q395 -12 278 -12Q159 -12 101 67Q42 146 42 348Q42 551 101 630Q161 709 278 709ZM277 634Q209 634 170 576Q132 518 132 349Q132 180 169 122Q207 63 278 63Q357 63 391 131Q424 196 424 355Q424 427 416 484T382 580Q345 634 277 634Z" horiz-adv-x="556" unicode="0"/>
			<glyph d="M296 709H361V0H276V508H92V576H95Q185 576 234 608T296 709Z" horiz-adv-x="556" unicode="1"/>
			<glyph d="M284 709Q349 709 399 684T478 613T506 505Q506 432 465 373Q425 314 291 237Q212 191 177 154T135 75H499V0H36Q44 92 81 155Q121 222 225 284Q346 356 382 402Q416 445 416 505Q416 561 376 597T279 634Q215 634 178 586T141 465V458H56L55 476Q55 545 83 598T163 680T284 709Z" horiz-adv-x="556" unicode="2"/>
			<glyph d="M269 709Q370 709 427 658T484 520Q484 476 458 438T386 378V376Q448 362 481 317T514 204Q514 139 483 90T397 14T271 -12Q163 -12 98 48T34 216V219H120Q123 144 163 103T271 63Q337 63 380 101T424 200Q424 263 382 299T270 336Q248 336 222 333V405Q230 404 254 404Q317 404 356 436T395 520Q395 573 360 603T269 634Q207 634 171 593T134 480H49Q54 590 111 649T269 709Z" horiz-adv-x="556" unicode="3"/>
			<glyph d="M353 709H421V241H517V166H421V0H341V166H30V248ZM339 588L103 241H341V588Z" horiz-adv-x="556" unicode="4"/>
			<glyph d="M120 697H470V622H184L146 418L148 416Q171 441 204 454T280 467Q348 467 400 437T480 353T509 225Q509 157 478 103T390 18T261 -12Q199 -12 148 12T67 83T35 190V191H120Q124 135 165 99T269 63Q335 63 377 108T419 231Q419 278 398 314T340 371T259 392Q184 392 127 325L54 329Z" horiz-adv-x="556" unicode="5"/>
			<glyph d="M301 709Q389 709 441 661T501 528H416Q409 579 377 606T297 634Q215 634 171 566T125 365L127 363Q185 456 304 456Q367 456 416 427T493 345T521 227Q521 126 459 56Q396 -12 284 -12Q163 -12 101 73T40 330Q40 514 106 611T301 709ZM287 381Q221 381 181 336T141 221Q141 151 181 107T288 63Q351 63 391 107T431 220Q431 294 392 337T287 381Z" horiz-adv-x="556" unicode="6"/>
			<glyph d="M48 697H507V624Q399 516 322 342Q247 170 235 0H140Q152 166 223 324T420 617H48Z" horiz-adv-x="556" unicode="7"/>
			<glyph d="M273 709Q373 709 430 659T488 528Q488 482 462 443T390 381Q452 362 484 317T516 204Q516 140 486 91T402 15T281 -12Q171 -12 105 46T40 204Q40 268 72 314T164 381Q118 400 91 440T65 528Q65 581 92 622T167 686T273 709ZM278 634Q224 634 189 603T155 525Q155 474 189 442T281 411Q334 411 366 442T398 525Q398 577 366 605T278 634ZM279 336Q216 336 173 298T130 200Q130 138 172 100T281 63Q344 63 385 102T426 201Q426 238 406 269T352 318T279 336Z" horiz-adv-x="556" unicode="8"/>
			<glyph d="M273 709Q396 709 456 625T516 370Q516 175 455 81T270 -12Q177 -12 121 35T55 171H140Q147 120 182 91T270 63Q348 63 386 130T430 337L428 339Q403 293 359 267T263 241Q159 241 99 305T40 478Q40 545 69 597T152 679T273 709ZM268 634Q204 634 167 588T130 466Q130 427 149 392T200 336T270 316Q312 316 345 337T396 393T415 472Q415 542 376 588T268 634Z" horiz-adv-x="556" unicode="9"/>
			<glyph d="M139 523Q165 523 184 503T203 456Q203 431 183 411T139 391Q112 391 93 411T75 458Q75 485 94 504T139 523ZM139 125Q165 125 184 105T203 58Q203 33 183 13T139 -6Q112 -6 93 13T75 60Q75 86 94 105T139 125Z" horiz-adv-x="278" unicode=":"/>
			<glyph d="M139 523Q165 523 184 503T203 456Q203 431 183 411T139 391Q112 391 93 411T75 458Q75 485 94 504T139 523ZM136 125Q167 125 186 99T206 27Q206 -39 175 -84T86 -139V-88Q116 -81 133 -57T151 -3Q143 -5 135 -5Q111 -5 91 13T72 56Q72 86 90 105T136 125Z" horiz-adv-x="278" unicode=";"/>
			<glyph d="M554 514V446L129 253L554 60V-8L46 222V284Z" horiz-adv-x="600" unicode="&lt;"/>
			<glyph d="M48 388H552V320H48ZM48 186H552V118H48Z" horiz-adv-x="600" unicode="="/>
			<glyph d="M46 514L554 284V222L46 -8V60L471 253L46 446Z" horiz-adv-x="600" unicode="&gt;"/>
			<glyph d="M278 731Q374 731 431 677T489 531Q489 481 468 441T396 354Q357 319 345 299Q328 274 322 254T316 204V174H231V217Q231 266 250 303T319 386Q371 433 385 465Q399 494 399 527Q399 586 367 621T278 656Q212 656 176 612T140 491H54V502Q54 600 115 665Q175 731 278 731ZM274 125Q299 125 318 105T337 58Q337 33 318 13T274 -6Q247 -6 228 13T209 60Q209 86 228 105T274 125Z" horiz-adv-x="556" unicode="?"/>
			<glyph d="M456 725Q569 725 665 669T817 517T873 308Q873 254 851 200T785 110T678 74Q623 74 595 94T568 146H566Q537 107 497 88T402 69Q331 69 289 103T247 202Q247 265 291 299Q316 317 352 328T460 347Q500 351 518 355T547 371T557 407Q557 450 530 468T453 486Q403 486 375 462T344 396H265Q269 470 320 509T460 548Q636 548 636 406V170Q636 134 671 134Q704 134 733 153T781 212T800 308Q800 404 753 484T628 610T456 657Q363 657 283 609T157 482T111 308Q111 213 158 132T283 3T451 -44Q547 -44 636 -6L657 -64Q566 -109 451 -109Q343 -109 248 -53T96 98T39 308Q39 421 95 517T247 669T456 725ZM556 318Q550 309 530 304T475 294Q429 288 399 280T348 256T327 208Q327 172 350 151T414 131Q475 131 515 163T556 248Z" horiz-adv-x="912" unicode="@"/>
			<glyph d="M272 714H377L656 0H551L473 215H171L91 0H-7ZM322 628L201 295H443L324 628Z" horiz-adv-x="648" unicode="A"/>
			<glyph d="M78 714H383Q516 714 562 660Q610 608 610 539Q610 482 582 440T504 379V377Q569 363 604 317T640 205Q640 148 612 101T535 27T427 0H78ZM173 634V407H368Q441 407 478 434T515 521Q515 579 482 606T369 634ZM173 327V80H415Q473 80 509 114T545 208Q545 267 504 297T386 327Z" horiz-adv-x="685" unicode="B"/>
			<glyph d="M381 731Q499 731 579 669T675 499H580Q564 572 511 611T380 651Q306 651 251 614T167 512T138 362Q138 224 202 143T381 63Q469 63 524 119T587 269H682Q667 132 586 57T373 -17Q220 -17 131 84Q43 185 43 355Q43 522 134 626Q226 731 381 731Z" horiz-adv-x="722" unicode="C"/>
			<glyph d="M78 714H329Q492 714 579 627T666 374Q666 187 580 93T329 0H78ZM173 634V80H334Q444 80 507 151T571 361Q571 501 513 567T338 634Z" horiz-adv-x="704" unicode="D"/>
			<glyph d="M78 714H571V634H173V407H544V327H173V80H574V0H78Z" horiz-adv-x="611" unicode="E"/>
			<glyph d="M78 714H547V634H173V407H501V327H173V0H78Z" horiz-adv-x="574" unicode="F"/>
			<glyph d="M383 731Q511 731 592 669T690 494H595Q581 570 526 610T383 651Q307 651 251 612T167 505T138 348Q138 226 206 144Q272 63 383 63Q450 63 502 91T583 169T612 285V296H384V376H697V0H637L612 89Q573 39 513 11T383 -17Q238 -17 140 87Q43 191 43 343Q43 513 134 622Q226 731 383 731Z" horiz-adv-x="759" unicode="G"/>
			<glyph d="M78 714H173V407H549V714H644V0H549V327H173V0H78Z" horiz-adv-x="722" unicode="H"/>
			<glyph d="M82 714H177V0H82Z" horiz-adv-x="259" unicode="I"/>
			<glyph d="M346 714H441V175Q441 88 387 35T230 -17Q134 -17 78 34Q22 84 22 210V235H117V211Q117 126 145 94T232 63Q290 63 318 94T346 188Z" horiz-adv-x="519" unicode="J"/>
			<glyph d="M78 714H173V358L535 714H658L357 426L670 0H550L292 361L173 250V0H78Z" horiz-adv-x="667" unicode="K"/>
			<glyph d="M78 714H173V80H551V0H78Z" horiz-adv-x="556" unicode="L"/>
			<glyph d="M78 714H208L432 114H434L659 714H789V0H699V594H697L474 0H393L170 594H168V0H78Z" horiz-adv-x="867" unicode="M"/>
			<glyph d="M78 714H179L555 135H557V714H647V0H543L170 573H168V0H78Z" horiz-adv-x="725" unicode="N"/>
			<glyph d="M380 731Q485 731 562 681T681 546T722 357Q722 249 679 164T559 31T380 -17Q276 -17 198 32T79 167T38 357Q38 464 79 549T198 682T380 731ZM379 651Q301 651 245 612T161 506T133 357Q133 271 163 204T250 100T380 63Q456 63 512 101T597 205T627 357Q627 441 598 507T513 612T379 651Z" horiz-adv-x="760" unicode="O"/>
			<glyph d="M78 714H396Q495 714 552 660T610 503Q610 400 553 346T402 292H173V0H78ZM173 634V372H369Q438 372 476 405T515 503Q515 634 363 634Z" horiz-adv-x="648" unicode="P"/>
			<glyph d="M380 731Q486 731 563 681T681 547T722 357Q722 275 695 200T614 73L708 -2L660 -62L551 26Q480 -17 380 -17Q276 -17 198 32T79 167T38 357Q38 464 79 549T198 682T380 731ZM379 651Q301 651 245 612T161 506T133 357Q133 271 163 204T250 100T380 63Q431 63 479 83L400 146L450 204L545 128Q585 168 606 227T627 357Q627 441 598 507T513 612T379 651Z" horiz-adv-x="760" unicode="Q"/>
			<glyph d="M78 714H418Q513 714 572 664T631 527Q631 456 600 410T507 346V344Q544 337 566 317T601 260T616 157Q618 95 627 60T656 0H550Q542 11 539 20T533 55L529 133Q527 189 505 246Q482 304 408 305H173V0H78ZM173 634V385H376Q536 385 536 512Q536 570 503 602T413 634Z" horiz-adv-x="685" unicode="R"/>
			<glyph d="M318 731Q438 731 509 671T581 505H491Q475 651 314 651Q237 651 195 619T154 529Q154 490 190 460Q225 434 383 402Q500 378 555 329T611 196Q611 96 529 40Q448 -17 332 -17Q246 -17 179 12T75 98T37 235H127Q128 154 185 108T335 63Q422 63 469 96T516 193Q516 228 497 252T435 294T315 327Q162 357 111 401Q59 447 59 522Q59 586 92 633T185 706T318 731Z" horiz-adv-x="648" unicode="S"/>
			<glyph d="M2 714H573V634H335V0H240V634H2Z" horiz-adv-x="574" unicode="T"/>
			<glyph d="M74 714H169V254Q169 165 220 114T367 63Q458 63 505 114T553 254V714H648V253Q648 126 576 54T367 -17Q222 -17 148 53T74 253Z" horiz-adv-x="722" unicode="U"/>
			<glyph d="M-1 714H102L306 95H308L514 714H613L359 0H251Z" horiz-adv-x="611" unicode="V"/>
			<glyph d="M12 714H109L249 120H251L411 714H514L672 120H674L819 714H914L723 0H624L461 600H459L294 0H195Z" horiz-adv-x="926" unicode="W"/>
			<glyph d="M13 714H127L305 435L491 714H597L361 367L612 0H496L304 295L106 0H-1L248 367Z" horiz-adv-x="611" unicode="X"/>
			<glyph d="M2 714H115L329 374L538 714H646L373 292V0H278V292Z" horiz-adv-x="648" unicode="Y"/>
			<glyph d="M56 714H578V634L135 80H590V0H22V80L466 634H56Z" horiz-adv-x="611" unicode="Z"/>
			<glyph d="M48 821H235V753H128V-40H235V-108H48Z" horiz-adv-x="245" unicode="["/>
			<glyph d="M-18 731H55L351 -17H278Z" horiz-adv-x="333" unicode="\"/>
			<glyph d="M10 821H197V-108H10V-40H117V753H10Z" horiz-adv-x="245" unicode="]"/>
			<glyph d="M268 697H332L550 264H480L299 624L121 264H50Z" horiz-adv-x="600" unicode="^"/>
			<glyph d="M0 -75H500V-125H0Z" horiz-adv-x="500" unicode="_"/>
			<glyph d="M-23 732H86L172 589H108Z" unicode="`"/>
			<glyph d="M276 529Q380 529 424 492T469 390V92Q469 63 496 63Q509 63 522 68V2Q497 -12 461 -12Q426 -12 407 8T389 68Q321 -12 207 -12Q127 -12 81 26T36 133Q36 203 81 243Q123 284 290 305Q345 312 365 326T385 369Q385 412 357 433T270 454Q207 454 175 430T141 356H56Q60 442 116 485T276 529ZM384 267Q361 251 324 246L237 233Q180 225 153 202T126 139Q126 103 152 83T226 63Q273 63 309 79T364 122T384 178Z" horiz-adv-x="537" unicode="a"/>
			<glyph d="M67 714H152V447H154Q174 487 216 508T319 529Q392 529 445 494T528 397T557 257Q557 178 528 117T446 22T321 -12Q270 -12 225 8T154 69H152V0H67ZM306 454Q233 454 191 400T149 259Q149 169 192 116T312 63Q385 63 426 115T467 263Q467 347 423 400T306 454Z" horiz-adv-x="593" unicode="b"/>
			<glyph d="M280 529Q375 529 434 483T503 351H415Q405 401 371 427T287 454Q209 454 167 401T126 252Q126 166 166 114T277 63Q338 63 374 96T419 189H506Q492 92 433 40T278 -12Q165 -12 100 59T36 252Q36 336 65 398T150 495T280 529Z" horiz-adv-x="537" unicode="c"/>
			<glyph d="M441 714H526V0H441V70H439Q419 31 375 9T274 -12Q203 -12 149 22T65 118T36 260Q36 339 64 400T145 495T271 529Q323 529 369 507T439 448H441ZM280 454Q207 454 166 400T126 254Q126 170 169 116T286 63Q361 63 402 116T444 258Q444 347 400 400T280 454Z" horiz-adv-x="593" unicode="d"/>
			<glyph d="M279 529Q390 529 452 449Q513 370 513 243V233H126V227Q126 152 169 107T287 63Q343 63 376 89T421 164H505Q488 79 430 33T284 -12Q203 -12 147 24Q93 60 64 125T36 262Q36 377 104 452Q173 529 279 529ZM273 454Q213 454 172 414T126 308H423Q419 371 377 412T273 454Z" horiz-adv-x="549" unicode="e"/>
			<glyph d="M241 722Q254 722 271 719T297 714V640Q279 647 249 647Q184 647 184 591V517H284V442H184V0H99V442H12V517H99V598Q99 656 135 689T241 722Z" horiz-adv-x="296" unicode="f"/>
			<glyph d="M274 529Q327 529 367 506T429 443H430V517H510V39Q510 -210 271 -210Q180 -210 120 -170T56 -58H141Q143 -97 182 -119T275 -142Q350 -142 390 -92T430 56V88H428Q408 45 364 19T267 -6Q198 -6 145 27T64 119T36 256Q36 335 64 397T146 494T274 529ZM278 454Q207 454 166 403T126 266Q126 174 164 121T272 69Q342 69 384 124T426 269Q426 353 387 403T278 454Z" horiz-adv-x="574" unicode="g"/>
			<glyph d="M64 714H149V441H151Q169 482 213 505T314 529Q406 529 449 482T492 344V0H407V353Q407 397 379 425T301 454Q230 454 189 410T149 295V0H64Z" horiz-adv-x="556" unicode="h"/>
			<glyph d="M111 722Q135 722 152 704T169 660Q169 636 152 618T111 600Q87 600 70 618T53 662Q53 687 70 704T111 722ZM69 517H154V0H69Z" unicode="i"/>
			<glyph d="M111 722Q135 722 152 704T169 660Q169 636 152 618T111 600Q87 600 70 618T53 662Q53 687 70 704T111 722ZM69 517H154V-69Q154 -131 122 -164T30 -198Q5 -198 -14 -194V-121Q-5 -123 14 -123Q36 -123 48 -117Q58 -112 63 -98T69 -56Z" unicode="j"/>
			<glyph d="M64 714H149V291L385 517H499L294 329L514 0H406L229 270L149 196V0H64Z" horiz-adv-x="514" unicode="k"/>
			<glyph d="M68 714H153V0H68Z" horiz-adv-x="221" unicode="l"/>
			<glyph d="M313 529Q369 529 405 506T455 441Q481 483 524 506T618 529Q703 529 746 490T789 382V0H704V343Q704 399 680 426T604 454Q542 454 505 417T469 325V0H384V343Q384 399 360 426T287 454Q247 454 215 434Q186 416 167 382T149 324V0H64V517H144V441H146Q204 529 313 529Z" horiz-adv-x="853" unicode="m"/>
			<glyph d="M314 529Q406 529 449 482T492 344V0H407V353Q407 397 379 425T301 454Q230 454 189 410T149 295V0H64V517H144V435H146Q174 483 215 506T314 529Z" horiz-adv-x="556" unicode="n"/>
			<glyph d="M287 529Q365 529 421 494T508 398T538 258Q538 179 507 117T419 22T287 -12Q212 -12 155 21T67 115T36 258Q36 340 66 401T153 495T287 529ZM286 454Q241 454 204 430T147 361T126 258Q126 200 146 156T203 87T287 63Q333 63 370 87T427 156T448 258Q448 316 427 360T369 429T286 454Z" horiz-adv-x="574" unicode="o"/>
			<glyph d="M319 529Q393 529 446 494T528 398T557 257Q557 178 528 117T446 22T321 -12Q270 -12 225 8T154 69H152V-198H67V517H152V447H154Q174 487 217 508T319 529ZM306 454Q231 454 190 400T149 259Q149 169 192 116T312 63Q385 63 426 115T467 263Q467 347 423 400T306 454Z" horiz-adv-x="593" unicode="p"/>
			<glyph d="M271 529Q323 529 369 507T439 448H441V517H526V-198H441V70H439Q419 31 375 9T274 -12Q203 -12 149 22T65 118T36 260Q36 339 64 400T146 495T271 529ZM280 454Q207 454 166 400T126 254Q126 170 169 116T286 63Q361 63 402 116T444 258Q444 347 400 400T280 454Z" horiz-adv-x="593" unicode="q"/>
			<glyph d="M321 529H333V439Q238 439 192 388T146 231V0H61V517H141V408H143Q173 470 216 499T321 529Z" horiz-adv-x="333" unicode="r"/>
			<glyph d="M236 529Q339 529 390 489T447 367H362V368Q358 409 326 431T242 454Q191 454 161 436T132 388Q132 360 157 342T237 312L317 294Q394 277 432 242T470 151Q470 75 411 31T250 -12Q150 -12 92 32T31 163H116Q117 115 153 89T255 63Q317 63 348 82T380 140Q380 175 348 195Q318 214 219 235Q121 256 81 289T42 382Q42 449 96 489T236 529Z" horiz-adv-x="500" unicode="s"/>
			<glyph d="M97 672H182V517H285V442H182V118Q182 78 208 77Q242 75 261 75H285V0H215Q168 0 142 10T107 44T97 108V442H9V517H97Z" horiz-adv-x="315" unicode="t"/>
			<glyph d="M64 517H149V165Q149 119 177 91T254 63Q327 63 367 106T407 222V517H492V0H412V82H410Q357 -12 242 -12Q64 -12 64 172Z" horiz-adv-x="556" unicode="u"/>
			<glyph d="M14 517H109L254 86H256L397 517H486L297 0H206Z" horiz-adv-x="500" unicode="v"/>
			<glyph d="M17 517H111L228 94H230L334 517H427L536 94H537L653 517H741L577 1L576 0H486L380 411H379L275 0H183Z" horiz-adv-x="758" unicode="w"/>
			<glyph d="M23 517H132L255 337H256L385 517H487L309 279L509 0H400L256 214L112 0H9L203 272Z" horiz-adv-x="518" unicode="x"/>
			<glyph d="M8 517H104L255 94H257L402 517H492L272 -55Q249 -116 228 -148T181 -194T117 -207Q82 -207 58 -198V-120Q63 -121 78 -126T108 -132Q161 -132 180 -80L213 3Z" horiz-adv-x="500" unicode="y"/>
			<glyph d="M42 517H444V459L128 75H458V0H22V65L334 442H42Z" horiz-adv-x="480" unicode="z"/>
			<glyph d="M237 821H309V761H259Q235 761 223 739T211 678V488Q211 443 186 406T124 358V355Q162 347 186 310T211 224V35Q211 -4 223 -26T259 -48H309V-108H237Q211 -108 186 -91T146 -45T131 20V209Q131 254 108 287T48 322V390Q84 391 107 426T131 505V693Q131 727 146 756T186 803T237 821Z" horiz-adv-x="319" unicode="{"/>
			<glyph d="M77 786H145V-214H77Z" unicode="|"/>
			<glyph d="M10 821H77Q106 821 131 804T172 757T188 693V505Q188 459 211 425T271 390V322Q235 321 211 286T188 208V20Q188 -16 172 -45T132 -91T82 -108H10V-48H59Q83 -48 95 -26T108 35V224Q108 271 133 307T195 355V358Q157 366 132 402T108 488V676Q108 761 59 761H10Z" horiz-adv-x="319" unicode="}"/>
			<glyph d="M495 319L531 269Q501 224 472 203T406 183Q381 183 356 192T299 219Q235 255 189 255Q164 255 144 237T105 179L69 229Q113 315 194 315Q226 315 266 300L322 275Q386 243 407 243Q441 243 471 285Z" horiz-adv-x="600" unicode="~"/>
			<glyph d="" horiz-adv-x="278" unicode=" "/>
			<glyph d="M128 522Q155 522 174 502T193 456Q193 430 173 410T128 391Q103 391 84 411T65 458Q65 483 84 502T128 522ZM107 333H152L177 22V-198H82V22Z" horiz-adv-x="259" unicode="¡"/>
			<glyph d="M234 737H281V659Q355 653 400 613T453 503H376Q367 543 343 565T281 593V251Q323 258 347 286T379 361H456Q444 282 399 237T281 185V93H234V185Q144 192 93 253T42 416Q42 521 93 586T234 659ZM234 591Q179 582 150 536T121 416Q121 347 151 302T234 251Z" horiz-adv-x="496" unicode="¢"/>
			<glyph d="M286 731Q399 731 460 666T522 483V473H437Q435 563 398 609T291 656Q251 656 218 638T166 591T148 524Q148 489 158 459T200 372H359V327H222Q242 288 242 251Q242 201 217 159T126 64L128 62Q171 81 190 86T233 91Q288 91 354 68Q389 58 412 58Q434 58 458 68T501 95L544 29Q489 -17 398 -17Q360 -17 298 3Q238 24 194 24Q142 24 94 -11L47 55Q101 92 129 138T157 233Q157 270 132 327H47V372H105Q58 448 58 528Q58 586 88 632T170 705T286 731Z" horiz-adv-x="556" unicode="£"/>
			<glyph d="M481 605L531 554L476 499Q501 473 514 434T528 351Q528 308 514 269T476 201L531 145L484 98L428 156Q367 101 280 101Q189 101 128 155L73 97L25 145L80 203Q54 235 41 272T28 349Q28 392 41 430T82 497L25 555L74 604L130 548Q159 572 199 585T281 599Q319 599 358 585T424 549ZM280 524Q235 524 196 500T135 437T113 349Q113 301 135 261T196 199T280 176Q324 176 361 199T421 263T443 351Q443 397 421 436T362 500T280 524Z" horiz-adv-x="556" unicode="¤"/>
			<glyph d="M0 714H109L283 361L452 714H556L378 369H471V309H345L327 276V234H471V174H327V0H232V174H91V234H232V276L214 309H91V369H183Z" horiz-adv-x="556" unicode="¥"/>
			<glyph d="M77 661H145V411H77ZM77 161H145V-89H77Z" unicode="¦"/>
			<glyph d="M281 731Q367 731 415 682T465 546H380Q379 596 351 626T279 656Q234 656 209 633T184 570Q184 537 213 507T314 442Q440 379 479 330Q516 283 516 229Q516 183 488 142T412 82Q471 38 471 -38Q471 -84 446 -120T379 -177T284 -198Q198 -198 144 -148T83 -9H168Q169 -61 200 -92T282 -123Q324 -123 353 -100T383 -40Q383 -1 339 34T190 126Q108 170 71 216T35 325Q35 370 66 409T142 463Q118 490 107 514T96 569Q96 616 121 653T189 710T281 731ZM190 420Q156 408 136 383T117 329Q117 292 143 263Q166 237 256 189Q313 158 362 124Q397 139 415 163T434 217Q434 244 411 273Q386 305 306 349Q229 392 190 420Z" horiz-adv-x="551" unicode="§"/>
			<glyph d="M18 718Q41 718 58 700T75 657Q75 634 58 616T18 598Q-6 598 -22 616T-39 659Q-39 683 -22 700T18 718ZM203 718Q226 718 243 700T261 657Q261 633 244 615T203 598Q179 598 162 616T146 659Q146 683 163 700T203 718Z" unicode="¨"/>
			<glyph d="M401 731Q502 731 588 682T725 547T776 359Q776 254 725 168T588 32T401 -17Q299 -17 212 32T75 168T24 359Q24 462 75 547T213 682T401 731ZM401 676Q314 676 243 634T132 519T92 359Q92 269 132 195T243 80T401 38Q486 38 556 80T667 195T708 359Q708 447 667 519T556 634T401 676ZM410 585Q484 585 535 545T598 433H535Q527 476 493 503T411 530Q339 530 299 482T259 359Q259 312 278 271T332 207T413 183Q463 183 495 211T535 285H599Q583 213 532 170T413 128Q346 128 296 157T218 239T191 357Q191 424 217 475T293 556T410 585Z" horiz-adv-x="800" unicode="©"/>
			<glyph d="M187 709Q251 709 284 686T317 625V472Q317 455 318 445T322 432T336 430Q347 430 353 432V388Q334 380 310 380Q264 380 259 425Q214 380 142 380Q89 380 57 404T25 469Q25 512 55 536T134 567Q216 576 240 583Q260 589 260 610Q260 636 242 647T183 659Q142 659 122 645T100 603H40Q42 652 80 680T187 709ZM257 546Q248 540 231 536T167 525Q126 519 109 506T93 471Q93 450 107 440T155 430Q203 430 230 449T257 500Z" horiz-adv-x="378" unicode="ª"/>
			<glyph d="M202 442V356L102 278L202 200V114L50 234V322ZM398 442V356L298 278L398 200V114L246 234V322Z" horiz-adv-x="463" unicode="«"/>
			<glyph d="M407 732Q509 732 595 681T731 545T782 357Q782 255 731 169T595 32T407 -18Q305 -18 219 32T82 169T32 357Q32 459 82 545T219 681T407 732ZM407 607Q339 607 281 573T190 482T157 357Q157 289 190 231T281 140T407 107Q475 107 532 140T623 231T657 357Q657 425 623 482T532 573T407 607ZM407 482Q459 482 495 445T532 357Q532 305 495 268T407 232Q355 232 318 268T282 357Q282 409 318 445T407 482Z" horiz-adv-x="814" unicode="¬"/>
			<glyph d="M50 318H339V238H50Z" horiz-adv-x="389" unicode="­"/>
			<glyph d="M143 727Q181 727 213 708T263 658T282 586Q282 547 263 515T213 464T143 446Q104 446 72 464T22 515T4 586Q4 626 22 658T72 708T143 727ZM143 702Q95 702 63 669T32 586Q32 536 63 503T143 471Q191 471 222 503T253 586Q253 636 222 669T143 702ZM84 665H161Q184 665 196 653T209 622Q209 606 203 597T185 583Q199 579 202 568T207 537T215 507H181Q178 517 177 535T171 561T151 569H115V507H84ZM115 639V593H155Q178 593 178 616Q178 628 172 633T153 639Z" horiz-adv-x="286" unicode="®"/>
			<glyph d="M-59 682H282V627H-59Z" unicode="¯"/>
			<glyph d="M200 709Q239 709 272 689T324 636T344 565Q344 526 325 493T273 440T200 421Q160 421 127 440T75 492T56 565Q56 605 75 638T128 690T200 709ZM200 659Q160 659 133 631T106 565Q106 526 132 498T200 471Q241 471 267 499T294 565Q294 604 267 631T200 659Z" horiz-adv-x="400" unicode="°"/>
			<glyph d="M266 505H334V339H552V271H334V104H266V271H48V339H266ZM48 68H552V0H48Z" horiz-adv-x="600" unicode="±"/>
			<glyph d="M194 709Q261 709 297 676T333 583Q333 542 316 514T263 458Q244 442 206 419L183 404Q129 370 117 333H331V277H37Q38 320 46 346T76 397T143 450L203 488Q234 507 248 529T262 585Q262 614 242 633T194 652Q156 652 134 626T113 555H45Q45 629 84 669T194 709Z" horiz-adv-x="376" unicode="²"/>
			<glyph d="M192 709Q251 709 288 679T325 597Q325 564 306 539T251 504Q294 497 318 470T342 400Q342 338 297 303T185 268Q113 268 72 306T30 413H100Q100 371 123 347T185 324Q223 324 248 344T274 401Q274 435 248 454T179 474H155V526H180Q212 526 235 543T259 589Q259 620 240 636T189 653Q150 653 129 629T109 566H43Q44 633 84 671T192 709Z" horiz-adv-x="376" unicode="³"/>
			<glyph d="M136 732H245L114 589H50Z" unicode="´"/>
			<glyph d="M67 517H152V164Q152 119 180 91T255 63Q327 63 367 107T407 222V517H492V0H412V82H410Q382 36 341 12T253 -12Q223 -12 196 -3T154 23H152V-198H67Z" horiz-adv-x="556" unicode="µ"/>
			<glyph d="M271 714H515V-155H447V659H325V-155H257V322Q160 324 104 378Q48 433 48 508Q48 604 109 659T271 714Z" horiz-adv-x="600" unicode="¶"/>
			<glyph d="M139 375Q166 375 184 355T203 311Q203 286 184 266T140 247Q114 247 94 266T75 311Q75 338 94 356T139 375Z" horiz-adv-x="278" unicode="·"/>
			<glyph d="M102 0H144L102 -53L104 -55Q118 -48 137 -48Q174 -48 197 -68T221 -121Q221 -163 187 -186T97 -210Q51 -210 5 -191L23 -147Q56 -160 88 -160Q115 -160 130 -152T146 -129Q146 -115 133 -106T99 -98Q78 -98 58 -106L41 -78Z" unicode="¸"/>
			<glyph d="M183 702H240V279H172V572H64V624H78Q132 624 154 640T183 702Z" horiz-adv-x="376" unicode="¹"/>
			<glyph d="M192 709Q268 709 313 663T359 543Q359 467 314 423T193 380Q117 380 71 424T25 543Q25 617 70 663T192 709ZM191 659Q146 659 119 629T93 543Q93 491 119 460T193 430Q241 430 266 460T291 542Q291 600 265 629T191 659Z" horiz-adv-x="384" unicode="º"/>
			<glyph d="M65 442L217 322V234L65 114V200L165 278L65 356ZM261 442L413 322V234L261 114V200L361 278L261 356Z" horiz-adv-x="463" unicode="»"/>
			<glyph d="M575 722H641L229 -22H161ZM184 703H241V280H173V573H64V625H79Q133 625 155 641T184 703ZM619 423H683V149H747V94H683V0H617V94H416V152ZM617 335L478 149H617Z" horiz-adv-x="784" unicode="¼"/>
			<glyph d="M575 722H641L229 -22H161ZM184 703H241V280H173V573H64V625H79Q133 625 155 641T184 703ZM660 432Q727 432 763 399T799 306Q799 265 782 237T729 181Q710 165 672 142L649 127Q595 93 583 56H797V0H503Q504 43 512 69T542 120T609 173L669 211Q700 230 714 252T728 308Q728 337 708 356T660 375Q622 375 600 349T579 278H511Q511 352 550 392T660 432Z" horiz-adv-x="863" unicode="½"/>
			<glyph d="M600 722H666L254 -22H186ZM192 712Q251 712 288 682T325 600Q325 567 306 542T251 507Q294 500 318 473T342 403Q342 341 297 306T185 271Q113 271 72 309T30 416H100Q100 374 123 350T185 327Q223 327 248 347T274 404Q274 438 248 457T179 477H155V529H180Q212 529 235 546T259 592Q259 623 240 639T189 656Q150 656 129 632T109 569H43Q44 636 84 674T192 712ZM624 423H688V149H752V94H688V0H622V94H421V152ZM622 335L483 149H622Z" horiz-adv-x="805" unicode="¾"/>
			<glyph d="M283 522Q310 522 329 502T348 456Q348 430 328 410T283 391Q258 391 239 411T220 458Q220 483 239 502T283 522ZM241 339H326V318Q326 261 309 222Q291 185 235 132Q188 88 173 58T158 -6Q158 -66 190 -100T279 -135Q345 -135 381 -91T418 30H503V28Q503 -43 474 -97T395 -180T279 -210Q183 -210 125 -156T68 -10Q68 38 86 76T161 167Q209 210 226 242Q241 272 241 323Z" horiz-adv-x="556" unicode="¿"/>
			<glyph d="M272 714H377L656 0H551L473 215H171L91 0H-7ZM322 628L201 295H443L324 628ZM178 922H287L373 779H309Z" horiz-adv-x="648" unicode="À"/>
			<glyph d="M272 714H377L656 0H551L473 215H171L91 0H-7ZM322 628L201 295H443L324 628ZM358 922H467L336 779H272Z" horiz-adv-x="648" unicode="Á"/>
			<glyph d="M272 714H377L656 0H551L473 215H171L91 0H-7ZM322 628L201 295H443L324 628ZM279 922H372L476 779H392L323 875L253 779H176Z" horiz-adv-x="648" unicode="Â"/>
			<glyph d="M272 714H377L656 0H551L473 215H171L91 0H-7ZM322 628L201 295H443L324 628ZM446 907H498Q490 858 465 827T397 796Q380 796 364 801T321 816Q316 819 310 820T301 824Q273 835 256 835Q239 835 226 823T207 793H155Q179 903 261 903Q290 903 335 883Q382 863 400 863Q432 863 446 907Z" horiz-adv-x="648" unicode="Ã"/>
			<glyph d="M272 714H377L656 0H551L473 215H171L91 0H-7ZM322 628L201 295H443L324 628ZM232 907Q255 907 272 889T289 846Q289 823 272 805T232 787Q208 787 191 805T175 848Q175 872 192 889T232 907ZM417 907Q440 907 457 889T475 846Q475 822 458 804T417 787Q393 787 376 805T360 848Q360 872 377 889T417 907Z" horiz-adv-x="648" unicode="Ä"/>
			<glyph d="M272 714H377L656 0H551L473 215H171L91 0H-7ZM322 628L201 295H443L324 628ZM324 973Q370 973 403 940T437 861Q437 814 404 781T324 749Q277 749 244 781T211 861Q211 908 244 940T324 973ZM323 928Q296 928 276 908T257 860Q257 831 276 811T324 792Q353 792 372 812T391 860Q391 888 371 908T323 928Z" horiz-adv-x="648" unicode="Å"/>
			<glyph d="M354 714H889V634H538V407H868V327H538V80H895V0H448V208H202L100 0H-7ZM407 634L239 288H448V634Z" horiz-adv-x="926" unicode="Æ"/>
			<glyph d="M381 731Q499 731 579 669T675 499H580Q564 572 511 611T380 651Q306 651 251 614T167 512T138 362Q138 224 202 143T381 63Q469 63 524 119T587 269H682Q667 134 589 60T381 -16L352 -53L354 -55Q368 -48 387 -48Q423 -48 447 -68T471 -121Q471 -162 436 -186T347 -210Q304 -210 255 -191L273 -147Q306 -160 338 -160Q365 -160 380 -152T396 -129Q396 -115 383 -106T349 -98Q328 -98 308 -106L291 -78L340 -15Q198 -3 120 97Q43 197 43 355Q43 466 85 551T203 684T381 731Z" horiz-adv-x="722" unicode="Ç"/>
			<glyph d="M78 714H571V634H173V407H544V327H173V80H574V0H78ZM166 922H275L361 779H297Z" horiz-adv-x="611" unicode="È"/>
			<glyph d="M78 714H571V634H173V407H544V327H173V80H574V0H78ZM356 922H465L334 779H270Z" horiz-adv-x="611" unicode="É"/>
			<glyph d="M78 714H571V634H173V407H544V327H173V80H574V0H78ZM272 922H365L469 779H385L316 875L246 779H169Z" horiz-adv-x="611" unicode="Ê"/>
			<glyph d="M78 714H571V634H173V407H544V327H173V80H574V0H78ZM226 907Q249 907 266 889T283 846Q283 823 266 805T226 787Q202 787 185 805T169 848Q169 872 186 889T226 907ZM411 907Q434 907 451 889T469 846Q469 822 452 804T411 787Q387 787 370 805T354 848Q354 872 371 889T411 907Z" horiz-adv-x="611" unicode="Ë"/>
			<glyph d="M82 714H177V0H82ZM-18 922H91L177 779H113Z" horiz-adv-x="259" unicode="Ì"/>
			<glyph d="M82 714H177V0H82ZM166 922H275L144 779H80Z" horiz-adv-x="259" unicode="Í"/>
			<glyph d="M82 714H177V0H82ZM84 922H177L281 779H197L128 875L58 779H-19Z" horiz-adv-x="259" unicode="Î"/>
			<glyph d="M82 714H177V0H82ZM37 905Q60 905 77 887T94 844Q94 821 77 803T37 785Q13 785 -3 803T-20 846Q-20 870 -3 887T37 905ZM222 905Q245 905 262 887T280 844Q280 820 263 802T222 785Q198 785 181 803T165 846Q165 870 182 887T222 905Z" horiz-adv-x="259" unicode="Ï"/>
			<glyph d="M78 714H329Q492 714 579 627T666 374Q666 187 580 93T329 0H78V341H8V405H78ZM173 634V405H387V341H173V80H334Q444 80 507 151T571 361Q571 501 513 567T338 634Z" horiz-adv-x="704" unicode="Ð"/>
			<glyph d="M78 714H179L555 135H557V714H647V0H543L170 573H168V0H78ZM484 907H536Q528 858 503 827T435 796Q418 796 402 801T359 816Q354 819 348 820T339 824Q311 835 294 835Q277 835 264 823T245 793H193Q217 903 299 903Q328 903 373 883Q420 863 438 863Q470 863 484 907Z" horiz-adv-x="725" unicode="Ñ"/>
			<glyph d="M380 731Q485 731 562 681T681 546T722 357Q722 249 679 164T559 31T380 -17Q276 -17 198 32T79 167T38 357Q38 464 79 549T198 682T380 731ZM379 651Q301 651 245 612T161 506T133 357Q133 271 163 204T250 100T380 63Q456 63 512 101T597 205T627 357Q627 441 598 507T513 612T379 651ZM229 922H338L424 779H360Z" horiz-adv-x="760" unicode="Ò"/>
			<glyph d="M380 731Q485 731 562 681T681 546T722 357Q722 249 679 164T559 31T380 -17Q276 -17 198 32T79 167T38 357Q38 464 79 549T198 682T380 731ZM379 651Q301 651 245 612T161 506T133 357Q133 271 163 204T250 100T380 63Q456 63 512 101T597 205T627 357Q627 441 598 507T513 612T379 651ZM419 922H528L397 779H333Z" horiz-adv-x="760" unicode="Ó"/>
			<glyph d="M380 731Q485 731 562 681T681 546T722 357Q722 249 679 164T559 31T380 -17Q276 -17 198 32T79 167T38 357Q38 464 79 549T198 682T380 731ZM379 651Q301 651 245 612T161 506T133 357Q133 271 163 204T250 100T380 63Q456 63 512 101T597 205T627 357Q627 441 598 507T513 612T379 651ZM335 922H428L532 779H448L379 875L309 779H232Z" horiz-adv-x="760" unicode="Ô"/>
			<glyph d="M380 731Q485 731 562 681T681 546T722 357Q722 249 679 164T559 31T380 -17Q276 -17 198 32T79 167T38 357Q38 464 79 549T198 682T380 731ZM379 651Q301 651 245 612T161 506T133 357Q133 271 163 204T250 100T380 63Q456 63 512 101T597 205T627 357Q627 441 598 507T513 612T379 651ZM502 907H554Q546 858 521 827T453 796Q436 796 420 801T377 816Q372 819 366 820T357 824Q329 835 312 835Q295 835 282 823T263 793H211Q235 903 317 903Q346 903 391 883Q438 863 456 863Q488 863 502 907Z" horiz-adv-x="760" unicode="Õ"/>
			<glyph d="M380 731Q485 731 562 681T681 546T722 357Q722 249 679 164T559 31T380 -17Q276 -17 198 32T79 167T38 357Q38 464 79 549T198 682T380 731ZM379 651Q301 651 245 612T161 506T133 357Q133 271 163 204T250 100T380 63Q456 63 512 101T597 205T627 357Q627 441 598 507T513 612T379 651ZM288 907Q311 907 328 889T345 846Q345 823 328 805T288 787Q264 787 247 805T231 848Q231 872 248 889T288 907ZM473 907Q496 907 513 889T531 846Q531 822 514 804T473 787Q449 787 432 805T416 848Q416 872 433 889T473 907Z" horiz-adv-x="760" unicode="Ö"/>
			<glyph d="M120 482L300 302L480 482L528 434L349 254L529 72L481 24L300 206L119 24L70 72L252 254L71 434Z" horiz-adv-x="600" unicode="×"/>
			<glyph d="M380 731Q521 731 612 643L691 730L723 700L641 610Q680 560 701 496T722 357Q722 249 679 164T558 31T380 -17Q244 -17 151 69L70 -20L37 10L121 102Q80 152 59 217T38 357Q38 519 131 625T380 731ZM379 651Q264 651 198 566Q133 481 133 357Q133 247 183 170L551 577H552Q519 614 476 632T379 651ZM579 541L210 134Q274 63 380 63Q494 63 561 146Q627 229 627 357Q627 409 614 456T579 541Z" horiz-adv-x="760" unicode="Ø"/>
			<glyph d="M74 714H169V254Q169 165 220 114T367 63Q458 63 505 114T553 254V714H648V253Q648 126 576 54T367 -17Q222 -17 148 53T74 253ZM211 922H320L406 779H342Z" horiz-adv-x="722" unicode="Ù"/>
			<glyph d="M74 714H169V254Q169 165 220 114T367 63Q458 63 505 114T553 254V714H648V253Q648 126 576 54T367 -17Q222 -17 148 53T74 253ZM401 922H510L379 779H315Z" horiz-adv-x="722" unicode="Ú"/>
			<glyph d="M74 714H169V254Q169 165 220 114T367 63Q458 63 505 114T553 254V714H648V253Q648 126 576 54T367 -17Q222 -17 148 53T74 253ZM317 922H410L514 779H430L361 875L291 779H214Z" horiz-adv-x="722" unicode="Û"/>
			<glyph d="M74 714H169V254Q169 165 220 114T367 63Q458 63 505 114T553 254V714H648V253Q648 126 576 54T367 -17Q222 -17 148 53T74 253ZM270 907Q293 907 310 889T327 846Q327 823 310 805T270 787Q246 787 229 805T213 848Q213 872 230 889T270 907ZM455 907Q478 907 495 889T513 846Q513 822 496 804T455 787Q431 787 414 805T398 848Q398 872 415 889T455 907Z" horiz-adv-x="722" unicode="Ü"/>
			<glyph d="M2 714H115L329 374L538 714H646L373 292V0H278V292ZM366 922H475L344 779H280Z" horiz-adv-x="648" unicode="Ý"/>
			<glyph d="M78 714H173V600H391Q493 600 551 545T610 388Q610 286 553 232T396 178H173V0H78ZM173 520V258H363Q515 258 515 388Q515 520 363 520Z" horiz-adv-x="648" unicode="Þ"/>
			<glyph d="M262 731Q347 731 407 683Q469 633 469 556Q469 435 365 401V399Q426 392 463 341T501 220Q501 152 471 99T389 17T270 -12Q245 -12 227 -8V66Q239 63 257 63Q330 63 370 103T411 209Q411 264 394 296T340 344T236 359H227V427H247Q309 427 344 457T379 543Q379 589 347 622T268 656Q204 656 176 621T149 521V0H64V528Q64 587 88 633T157 705T262 731Z" horiz-adv-x="556" unicode="ß"/>
			<glyph d="M276 529Q380 529 424 492T469 390V92Q469 63 496 63Q509 63 522 68V2Q497 -12 461 -12Q426 -12 407 8T389 68Q321 -12 207 -12Q127 -12 81 26T36 133Q36 203 81 243Q123 284 290 305Q345 312 365 326T385 369Q385 412 357 433T270 454Q207 454 175 430T141 356H56Q60 442 116 485T276 529ZM384 267Q361 251 324 246L237 233Q180 225 153 202T126 139Q126 103 152 83T226 63Q273 63 309 79T364 122T384 178ZM122 732H231L317 589H253Z" horiz-adv-x="537" unicode="à"/>
			<glyph d="M276 529Q380 529 424 492T469 390V92Q469 63 496 63Q509 63 522 68V2Q497 -12 461 -12Q426 -12 407 8T389 68Q321 -12 207 -12Q127 -12 81 26T36 133Q36 203 81 243Q123 284 290 305Q345 312 365 326T385 369Q385 412 357 433T270 454Q207 454 175 430T141 356H56Q60 442 116 485T276 529ZM384 267Q361 251 324 246L237 233Q180 225 153 202T126 139Q126 103 152 83T226 63Q273 63 309 79T364 122T384 178ZM308 732H417L286 589H222Z" horiz-adv-x="537" unicode="á"/>
			<glyph d="M276 529Q380 529 424 492T469 390V92Q469 63 496 63Q509 63 522 68V2Q497 -12 461 -12Q426 -12 407 8T389 68Q321 -12 207 -12Q127 -12 81 26T36 133Q36 203 81 243Q123 284 290 305Q345 312 365 326T385 369Q385 412 357 433T270 454Q207 454 175 430T141 356H56Q60 442 116 485T276 529ZM384 267Q361 251 324 246L237 233Q180 225 153 202T126 139Q126 103 152 83T226 63Q273 63 309 79T364 122T384 178ZM226 732H319L423 589H339L270 685L200 589H123Z" horiz-adv-x="537" unicode="â"/>
			<glyph d="M276 529Q380 529 424 492T469 390V92Q469 63 496 63Q509 63 522 68V2Q497 -12 461 -12Q426 -12 407 8T389 68Q321 -12 207 -12Q127 -12 81 26T36 133Q36 203 81 243Q123 284 290 305Q345 312 365 326T385 369Q385 412 357 433T270 454Q207 454 175 430T141 356H56Q60 442 116 485T276 529ZM384 267Q361 251 324 246L237 233Q180 225 153 202T126 139Q126 103 152 83T226 63Q273 63 309 79T364 122T384 178ZM393 717H445Q437 668 412 637T344 606Q327 606 311 611T268 626Q263 629 257 630T248 634Q220 645 203 645Q186 645 173 633T154 603H102Q126 713 208 713Q237 713 282 693Q329 673 347 673Q379 673 393 717Z" horiz-adv-x="537" unicode="ã"/>
			<glyph d="M276 529Q380 529 424 492T469 390V92Q469 63 496 63Q509 63 522 68V2Q497 -12 461 -12Q426 -12 407 8T389 68Q321 -12 207 -12Q127 -12 81 26T36 133Q36 203 81 243Q123 284 290 305Q345 312 365 326T385 369Q385 412 357 433T270 454Q207 454 175 430T141 356H56Q60 442 116 485T276 529ZM384 267Q361 251 324 246L237 233Q180 225 153 202T126 139Q126 103 152 83T226 63Q273 63 309 79T364 122T384 178ZM179 718Q202 718 219 700T236 657Q236 634 219 616T179 598Q155 598 138 616T122 659Q122 683 139 700T179 718ZM364 718Q387 718 404 700T422 657Q422 633 405 615T364 598Q340 598 323 616T307 659Q307 683 324 700T364 718Z" horiz-adv-x="537" unicode="ä"/>
			<glyph d="M276 529Q380 529 424 492T469 390V92Q469 63 496 63Q509 63 522 68V2Q497 -12 461 -12Q426 -12 407 8T389 68Q321 -12 207 -12Q127 -12 81 26T36 133Q36 203 81 243Q123 284 290 305Q345 312 365 326T385 369Q385 412 357 433T270 454Q207 454 175 430T141 356H56Q60 442 116 485T276 529ZM384 267Q361 251 324 246L237 233Q180 225 153 202T126 139Q126 103 152 83T226 63Q273 63 309 79T364 122T384 178ZM272 788Q318 788 351 755T385 676Q385 629 352 596T272 564Q225 564 192 596T159 676Q159 723 192 755T272 788ZM271 743Q244 743 224 723T205 675Q205 646 224 626T272 607Q301 607 320 627T339 675Q339 703 319 723T271 743Z" horiz-adv-x="537" unicode="å"/>
			<glyph d="M275 528Q411 528 448 453Q471 488 514 508T613 528Q846 528 846 232H467Q468 152 509 107T622 62Q673 62 707 88T753 162H840Q821 78 762 32T616 -13Q546 -13 498 12T429 88Q400 38 343 12T211 -13Q128 -13 82 24T36 132Q36 249 160 279Q224 295 292 305Q348 313 367 327T387 373Q387 413 359 433T271 453Q206 453 175 429T141 355H56Q60 441 116 484T275 528ZM612 453Q549 453 508 414T467 307H756Q754 372 715 412T612 453ZM387 266Q369 256 349 250T287 240Q184 226 156 204Q126 180 126 138Q126 102 152 82T226 62Q273 62 309 78T366 122T387 177Z" horiz-adv-x="870" unicode="æ"/>
			<glyph d="M280 529Q376 529 434 483T503 351H415Q405 401 371 427T287 454Q209 454 167 401T126 252Q126 166 166 114T277 63Q338 63 374 96T419 189H506Q492 95 437 44T293 -10L260 -53L262 -55Q274 -48 295 -48Q332 -48 355 -68T379 -121Q379 -163 344 -186T255 -210Q208 -210 163 -191L181 -147Q216 -160 246 -160Q272 -160 288 -152T304 -129Q304 -116 290 -107T257 -98Q239 -98 216 -106L199 -78L252 -10H251Q149 -2 92 68T36 252Q36 336 65 398T150 495T280 529Z" horiz-adv-x="537" unicode="ç"/>
			<glyph d="M279 529Q390 529 452 449Q513 370 513 243V233H126V227Q126 152 169 107T287 63Q343 63 376 89T421 164H505Q488 79 430 33T284 -12Q203 -12 147 24Q93 60 64 125T36 262Q36 377 104 452Q173 529 279 529ZM273 454Q213 454 172 414T126 308H423Q419 371 377 412T273 454ZM131 732H240L326 589H262Z" horiz-adv-x="549" unicode="è"/>
			<glyph d="M279 529Q390 529 452 449Q513 370 513 243V233H126V227Q126 152 169 107T287 63Q343 63 376 89T421 164H505Q488 79 430 33T284 -12Q203 -12 147 24Q93 60 64 125T36 262Q36 377 104 452Q173 529 279 529ZM273 454Q213 454 172 414T126 308H423Q419 371 377 412T273 454ZM317 732H426L295 589H231Z" horiz-adv-x="549" unicode="é"/>
			<glyph d="M279 529Q390 529 452 449Q513 370 513 243V233H126V227Q126 152 169 107T287 63Q343 63 376 89T421 164H505Q488 79 430 33T284 -12Q203 -12 147 24Q93 60 64 125T36 262Q36 377 104 452Q173 529 279 529ZM273 454Q213 454 172 414T126 308H423Q419 371 377 412T273 454ZM235 732H328L432 589H348L279 685L209 589H132Z" horiz-adv-x="549" unicode="ê"/>
			<glyph d="M279 529Q390 529 452 449Q513 370 513 243V233H126V227Q126 152 169 107T287 63Q343 63 376 89T421 164H505Q488 79 430 33T284 -12Q203 -12 147 24Q93 60 64 125T36 262Q36 377 104 452Q173 529 279 529ZM273 454Q213 454 172 414T126 308H423Q419 371 377 412T273 454ZM188 718Q211 718 228 700T245 657Q245 634 228 616T188 598Q164 598 147 616T131 659Q131 683 148 700T188 718ZM373 718Q396 718 413 700T431 657Q431 633 414 615T373 598Q349 598 332 616T316 659Q316 683 333 700T373 718Z" horiz-adv-x="549" unicode="ë"/>
			<glyph d="M69 517H154V0H69ZM-38 732H71L157 589H93Z" unicode="ì"/>
			<glyph d="M69 517H154V0H69ZM148 732H257L126 589H62Z" unicode="í"/>
			<glyph d="M69 517H154V0H69ZM66 732H159L263 589H179L110 685L40 589H-37Z" unicode="î"/>
			<glyph d="M69 517H154V0H69ZM19 718Q42 718 59 700T76 657Q76 634 59 616T19 598Q-5 598 -21 616T-38 659Q-38 683 -21 700T19 718ZM204 718Q227 718 244 700T262 657Q262 633 245 615T204 598Q180 598 163 616T147 659Q147 683 164 700T204 718Z" unicode="ï"/>
			<glyph d="M247 731L287 703L324 675L444 731L479 694L364 641Q450 572 494 475T538 258Q538 179 507 117T419 22T287 -12Q212 -12 155 21T67 116T36 257Q36 365 102 435Q168 506 272 506Q361 506 411 450H413Q393 493 359 534T291 601L176 547L138 587L248 638Q212 667 177 686ZM281 431Q208 431 167 384T126 258Q126 200 146 156T203 87T287 63Q333 63 370 87T427 156T448 257Q448 336 404 383T281 431Z" horiz-adv-x="574" unicode="ð"/>
			<glyph d="M314 529Q406 529 449 482T492 344V0H407V353Q407 397 379 425T301 454Q230 454 189 410T149 295V0H64V517H144V435H146Q174 483 215 506T314 529ZM402 717H454Q446 668 421 637T353 606Q336 606 320 611T277 626Q272 629 266 630T257 634Q229 645 212 645Q195 645 182 633T163 603H111Q135 713 217 713Q246 713 291 693Q338 673 356 673Q388 673 402 717Z" horiz-adv-x="556" unicode="ñ"/>
			<glyph d="M287 529Q365 529 421 494T508 398T538 258Q538 179 507 117T419 22T287 -12Q212 -12 155 21T67 115T36 258Q36 340 66 401T153 495T287 529ZM286 454Q241 454 204 430T147 361T126 258Q126 200 146 156T203 87T287 63Q333 63 370 87T427 156T448 258Q448 316 427 360T369 429T286 454ZM136 732H245L331 589H267Z" horiz-adv-x="574" unicode="ò"/>
			<glyph d="M287 529Q365 529 421 494T508 398T538 258Q538 179 507 117T419 22T287 -12Q212 -12 155 21T67 115T36 258Q36 340 66 401T153 495T287 529ZM286 454Q241 454 204 430T147 361T126 258Q126 200 146 156T203 87T287 63Q333 63 370 87T427 156T448 258Q448 316 427 360T369 429T286 454ZM326 732H435L304 589H240Z" horiz-adv-x="574" unicode="ó"/>
			<glyph d="M287 529Q365 529 421 494T508 398T538 258Q538 179 507 117T419 22T287 -12Q212 -12 155 21T67 115T36 258Q36 340 66 401T153 495T287 529ZM286 454Q241 454 204 430T147 361T126 258Q126 200 146 156T203 87T287 63Q333 63 370 87T427 156T448 258Q448 316 427 360T369 429T286 454ZM242 732H335L439 589H355L286 685L216 589H139Z" horiz-adv-x="574" unicode="ô"/>
			<glyph d="M287 529Q365 529 421 494T508 398T538 258Q538 179 507 117T419 22T287 -12Q212 -12 155 21T67 115T36 258Q36 340 66 401T153 495T287 529ZM286 454Q241 454 204 430T147 361T126 258Q126 200 146 156T203 87T287 63Q333 63 370 87T427 156T448 258Q448 316 427 360T369 429T286 454ZM409 717H461Q453 668 428 637T360 606Q343 606 327 611T284 626Q279 629 273 630T264 634Q236 645 219 645Q202 645 189 633T170 603H118Q142 713 224 713Q253 713 298 693Q345 673 363 673Q395 673 409 717Z" horiz-adv-x="574" unicode="õ"/>
			<glyph d="M287 529Q365 529 421 494T508 398T538 258Q538 179 507 117T419 22T287 -12Q212 -12 155 21T67 115T36 258Q36 340 66 401T153 495T287 529ZM286 454Q241 454 204 430T147 361T126 258Q126 200 146 156T203 87T287 63Q333 63 370 87T427 156T448 258Q448 316 427 360T369 429T286 454ZM195 718Q218 718 235 700T252 657Q252 634 235 616T195 598Q171 598 154 616T138 659Q138 683 155 700T195 718ZM380 718Q403 718 420 700T438 657Q438 633 421 615T380 598Q356 598 339 616T323 659Q323 683 340 700T380 718Z" horiz-adv-x="574" unicode="ö"/>
			<glyph d="M300 523Q325 523 344 504T364 459Q364 435 344 415T301 395Q275 395 255 414T236 459Q236 484 255 503T300 523ZM48 287H552V219H48ZM300 111Q326 111 345 92T364 47Q364 23 344 3T301 -17Q275 -17 255 2T236 47Q236 73 255 92T300 111Z" horiz-adv-x="600" unicode="÷"/>
			<glyph d="M513 535L540 509L480 443Q538 373 538 258Q538 179 507 117T419 22T287 -12Q188 -12 122 45L62 -22L34 2L96 71Q36 143 36 258Q36 339 67 400T154 495T287 529Q392 529 455 470ZM286 454Q241 454 204 429T147 360T126 258Q126 190 156 137L397 406H398Q355 454 286 454ZM420 377L179 108Q223 63 287 63Q333 63 370 87T427 155T448 258Q448 322 420 377Z" horiz-adv-x="574" unicode="ø"/>
			<glyph d="M64 517H149V165Q149 119 177 91T254 63Q327 63 367 106T407 222V517H492V0H412V82H410Q357 -12 242 -12Q64 -12 64 172ZM128 732H237L323 589H259Z" horiz-adv-x="556" unicode="ù"/>
			<glyph d="M64 517H149V165Q149 119 177 91T254 63Q327 63 367 106T407 222V517H492V0H412V82H410Q357 -12 242 -12Q64 -12 64 172ZM314 732H423L292 589H228Z" horiz-adv-x="556" unicode="ú"/>
			<glyph d="M64 517H149V165Q149 119 177 91T254 63Q327 63 367 106T407 222V517H492V0H412V82H410Q357 -12 242 -12Q64 -12 64 172ZM232 732H325L429 589H345L276 685L206 589H129Z" horiz-adv-x="556" unicode="û"/>
			<glyph d="M64 517H149V165Q149 119 177 91T254 63Q327 63 367 106T407 222V517H492V0H412V82H410Q357 -12 242 -12Q64 -12 64 172ZM185 718Q208 718 225 700T242 657Q242 634 225 616T185 598Q161 598 144 616T128 659Q128 683 145 700T185 718ZM370 718Q393 718 410 700T428 657Q428 633 411 615T370 598Q346 598 329 616T313 659Q313 683 330 700T370 718Z" horiz-adv-x="556" unicode="ü"/>
			<glyph d="M8 517H104L255 94H257L402 517H492L272 -55Q249 -116 228 -148T181 -194T117 -207Q82 -207 58 -198V-120Q63 -121 78 -126T108 -132Q161 -132 180 -80L213 3ZM291 732H400L269 589H205Z" horiz-adv-x="500" unicode="ý"/>
			<glyph d="M67 714H152V447H154Q174 487 216 508T319 529Q392 529 446 494T528 397T557 257Q557 178 528 117T446 22T321 -12Q270 -12 225 8T154 69H152V-198H67ZM306 454Q231 454 190 400T149 259Q149 169 192 116T312 63Q385 63 426 115T467 263Q467 347 424 400T306 454Z" horiz-adv-x="593" unicode="þ"/>
			<glyph d="M8 517H104L255 94H257L402 517H492L272 -55Q249 -116 228 -148T181 -194T117 -207Q82 -207 58 -198V-120Q63 -121 78 -126T108 -132Q161 -132 180 -80L213 3ZM162 718Q185 718 202 700T219 657Q219 634 202 616T162 598Q138 598 121 616T105 659Q105 683 122 700T162 718ZM347 718Q370 718 387 700T405 657Q405 633 388 615T347 598Q323 598 306 616T290 659Q290 683 307 700T347 718Z" horiz-adv-x="500" unicode="ÿ"/>
			<glyph d="M69 517H154V0H69Z" unicode="ı"/>
			<glyph d="M78 714H173V384L401 544V468L173 308V80H551V0H78V240L-1 184V260L78 316Z" horiz-adv-x="556" unicode="Ł"/>
			<glyph d="M68 714H153V460L223 516V445L153 389V0H68V321L-2 266V337L68 393Z" horiz-adv-x="221" unicode="ł"/>
			<glyph d="M373 731Q431 731 480 710T549 655H551V714H1028V634H646V407H996V327H646V80H1034V0H551V69H549Q522 28 472 5T365 -17Q263 -17 189 31T76 163T38 355Q38 466 78 551T195 684T373 731ZM373 651Q297 651 242 611T160 502T133 351Q133 267 162 201T245 99T372 63Q421 63 462 81T527 132T551 202V515Q551 560 529 585Q504 613 464 632T373 651Z" horiz-adv-x="1071" unicode="Œ"/>
			<glyph d="M271 529Q342 529 384 507T450 438Q476 482 525 505T633 529Q744 529 804 457T865 252Q865 240 864 233H489V227Q489 155 529 109T638 63Q689 63 726 90T778 164H859Q808 -12 638 -12Q493 -12 450 90Q427 39 381 13T271 -12Q161 -12 98 61T36 259Q36 383 98 456T271 529ZM271 454Q204 454 165 398T126 249Q126 167 165 115T271 63Q341 63 378 114T415 260Q415 454 271 454ZM632 454Q569 454 529 414T489 308H774Q774 375 735 414T632 454Z" horiz-adv-x="889" unicode="œ"/>
			<glyph d="M318 731Q438 731 509 671T581 505H491Q475 651 314 651Q237 651 195 619T154 529Q154 490 190 460Q225 434 383 402Q500 378 555 329T611 196Q611 96 529 40Q448 -17 332 -17Q246 -17 179 12T75 98T37 235H127Q128 154 185 108T335 63Q422 63 469 96T516 193Q516 228 497 252T435 294T315 327Q162 357 111 401Q59 447 59 522Q59 586 92 633T185 706T318 731ZM174 922H258L327 826L397 922H474L371 779H278Z" horiz-adv-x="648" unicode="Š"/>
			<glyph d="M236 529Q339 529 390 489T447 367H362V368Q358 409 326 431T242 454Q191 454 161 436T132 388Q132 360 157 342T237 312L317 294Q394 277 432 242T470 151Q470 75 411 31T250 -12Q150 -12 92 32T31 163H116Q117 115 153 89T255 63Q317 63 348 82T380 140Q380 175 348 195Q318 214 219 235Q121 256 81 289T42 382Q42 449 96 489T236 529ZM99 732H183L252 636L322 732H399L296 589H203Z" horiz-adv-x="500" unicode="š"/>
			<glyph d="M2 714H115L329 374L538 714H646L373 292V0H278V292ZM235 907Q258 907 275 889T292 846Q292 823 275 805T235 787Q211 787 194 805T178 848Q178 872 195 889T235 907ZM420 907Q443 907 460 889T478 846Q478 822 461 804T420 787Q396 787 379 805T363 848Q363 872 380 889T420 907Z" horiz-adv-x="648" unicode="Ÿ"/>
			<glyph d="M56 714H578V634L135 80H590V0H22V80L466 634H56ZM161 922H245L314 826L384 922H461L358 779H265Z" horiz-adv-x="611" unicode="Ž"/>
			<glyph d="M42 517H444V459L128 75H458V0H22V65L334 442H42ZM91 732H175L244 636L314 732H391L288 589H195Z" horiz-adv-x="480" unicode="ž"/>
			<glyph d="M425 714H492L478 639H418Q370 639 358 589L326 449H428L414 381H314L260 75Q235 -68 193 -117Q153 -165 73 -165H3L17 -90H51Q97 -90 120 -72T150 -17L226 381H134L147 449H238L264 584Q290 714 425 714Z" horiz-adv-x="500" unicode="ƒ"/>
			<glyph d="M64 732H157L261 589H177L108 685L38 589H-39Z" unicode="ˆ"/>
			<glyph d="M-39 732H45L114 636L184 732H261L158 589H65Z" unicode="ˇ"/>
			<glyph d="M-59 682H282V627H-59Z" unicode="ˉ"/>
			<glyph d="M-45 729H5Q29 646 117 646Q153 646 176 664T216 729H267Q254 662 213 626T109 591Q-26 591 -45 729Z" unicode="˘"/>
			<glyph d="M112 907Q135 907 152 889T169 847Q169 823 152 805T112 788Q88 788 71 806T54 848Q54 873 71 890T112 907Z" unicode="˙"/>
			<glyph d="M111 773Q157 773 190 740T224 661Q224 614 191 581T111 549Q64 549 31 581T-2 661Q-2 708 31 740T111 773ZM110 728Q83 728 63 708T44 660Q44 631 63 611T111 592Q140 592 159 612T178 660Q178 688 158 708T110 728Z" unicode="˚"/>
			<glyph d="M188 0H228Q185 -36 164 -63T144 -118Q144 -138 155 -149T185 -160Q221 -160 244 -130L276 -148Q240 -210 168 -210Q125 -210 100 -190T76 -134Q76 -64 188 0Z" unicode="˛"/>
			<glyph d="M233 717H285Q277 668 252 637T184 606Q167 606 151 611T108 626Q103 629 97 630T88 634Q60 645 43 645Q26 645 13 633T-6 603H-58Q-34 713 48 713Q77 713 122 693Q169 673 187 673Q219 673 233 717Z" unicode="˜"/>
			<glyph d="M33 732H138L18 589H-48ZM189 732H294L174 589H108Z" unicode="˝"/>
			<glyph d="M272 714H377L653 0H-4ZM323 629L124 80H518L325 629Z" horiz-adv-x="648" unicode="Δ"/>
			<glyph d="M382 731Q528 731 622 637T716 401Q716 201 552 84V80H727V0H445V72Q532 132 576 215T621 401Q621 510 555 580Q489 651 382 651Q310 651 254 619T168 528T138 392Q138 292 182 213T318 72V0H35V80H206V84Q124 141 83 217T43 391Q43 538 138 634Q234 731 382 731Z" horiz-adv-x="762" unicode="Ω"/>
			<glyph d="M67 517H152V164Q152 119 180 91T255 63Q327 63 367 107T407 222V517H492V0H412V82H410Q382 36 341 12T253 -12Q223 -12 196 -3T154 23H152V-198H67Z" horiz-adv-x="556" unicode="μ"/>
			<glyph d="M20 517H635V442H529V113Q529 62 573 62Q589 62 608 67V1Q576 -12 540 -12Q492 -12 468 14T444 87V442H207V0H122V442H20Z" horiz-adv-x="658" unicode="π"/>
			<glyph d="M50 318H550V238H50Z" horiz-adv-x="600" unicode="–"/>
			<glyph d="M50 318H790V238H50Z" horiz-adv-x="840" unicode="—"/>
			<glyph d="M192 712V661Q162 655 145 633T127 582Q137 584 143 584Q168 584 186 567T205 523Q205 494 186 475T142 456Q112 456 92 481T72 551Q72 614 102 658T192 712Z" horiz-adv-x="278" unicode="‘"/>
			<glyph d="M136 721Q166 721 186 695T206 626Q206 563 175 518T87 465V516Q117 522 133 544T151 595Q143 593 135 593Q110 593 91 610T73 654Q73 683 92 702T136 721Z" horiz-adv-x="278" unicode="’"/>
			<glyph d="M136 125Q167 125 186 99T206 27Q206 -39 175 -84T86 -139V-88Q116 -81 133 -57T151 -3Q143 -5 135 -5Q111 -5 91 13T72 56Q72 86 90 105T136 125Z" horiz-adv-x="278" unicode="‚"/>
			<glyph d="M174 712V661Q144 655 127 633T109 582Q119 584 125 584Q150 584 168 567T187 523Q187 494 168 475T124 456Q94 456 74 481T55 551Q55 614 85 658T174 712ZM356 712V661Q326 655 309 633T292 582Q300 584 308 584Q333 584 351 567T370 523Q370 494 351 475T307 456Q277 456 257 481T237 551Q237 614 267 658T356 712Z" horiz-adv-x="426" unicode="“"/>
			<glyph d="M119 721Q149 721 169 695T189 626Q189 563 158 518T70 465V516Q100 522 116 544T134 595Q126 593 118 593Q93 593 74 610T56 654Q56 683 75 702T119 721ZM302 721Q332 721 351 695T371 626Q371 563 341 518T252 465V516Q282 522 298 544T317 595Q307 593 301 593Q276 593 257 610T239 654Q239 683 258 702T302 721Z" horiz-adv-x="426" unicode="”"/>
			<glyph d="M119 121Q149 121 169 95T189 26Q189 -37 158 -81T70 -135V-84Q100 -78 116 -56T134 -5Q126 -7 118 -7Q93 -7 74 10T56 54Q56 83 75 102T119 121ZM302 121Q332 121 351 95T371 26Q371 -37 341 -81T252 -135V-84Q282 -78 298 -56T317 -5Q307 -7 301 -7Q276 -7 257 10T239 54Q239 83 258 102T302 121Z" horiz-adv-x="426" unicode="„"/>
			<glyph d="M236 714H316V517H514V442H316V-155H236V442H42V517H236Z" horiz-adv-x="556" unicode="†"/>
			<glyph d="M236 714H316V517H514V442H316V117H514V42H316V-155H236V42H42V117H236V442H42V517H236Z" horiz-adv-x="556" unicode="‡"/>
			<glyph d="M250 535Q325 535 377 482Q429 431 429 357Q429 310 405 268T340 202T250 178Q174 178 123 231Q72 285 72 357Q72 431 123 482Q173 535 250 535Z" horiz-adv-x="500" unicode="•"/>
			<glyph d="M167 125Q192 125 211 105T230 58Q230 33 211 13T167 -6Q140 -6 121 13T102 60Q102 86 121 105T167 125ZM500 125Q525 125 544 105T563 58Q563 33 544 13T500 -6Q473 -6 454 13T435 60Q435 86 454 105T500 125ZM834 125Q859 125 878 105T897 58Q897 33 878 13T834 -6Q807 -6 788 13T769 60Q769 86 788 105T834 125Z" horiz-adv-x="1000" unicode="…"/>
			<glyph d="M628 722H713L176 -22H90ZM220 709Q291 709 328 665T366 540Q366 465 328 416T218 368Q147 368 109 411T72 535Q72 619 110 664T220 709ZM223 654Q187 654 167 622T147 538Q147 423 219 423Q254 423 272 453T291 537Q291 591 273 622T223 654ZM585 329Q656 329 693 285T731 161Q731 84 692 36T583 -12Q513 -12 475 31T437 155Q437 238 474 283T585 329ZM930 329Q1001 329 1038 285T1076 161Q1076 84 1038 36T928 -12Q858 -12 820 30T782 155Q782 239 820 284T930 329ZM587 274Q553 274 532 244T512 158Q512 43 584 43Q619 43 637 72T656 157Q656 211 638 242T587 274ZM933 274Q897 274 877 243T857 158Q857 43 929 43Q964 43 982 72T1001 157Q1001 211 983 242T933 274Z" horiz-adv-x="1148" unicode="‰"/>
			<glyph d="M202 442V356L102 278L202 200V114L50 234V322Z" horiz-adv-x="267" unicode="‹"/>
			<glyph d="M65 442L217 322V234L65 114V200L165 278L65 356Z" horiz-adv-x="267" unicode="›"/>
			<glyph d="M269 725H333L-102 -28H-166Z" horiz-adv-x="167" unicode="⁄"/>
			<glyph d="M188 709Q274 709 305 648T337 490Q337 392 305 331T188 270Q102 270 70 331T38 490Q38 588 70 648T188 709ZM188 652Q135 652 120 605T106 491Q106 421 120 374T188 327Q240 327 254 373T269 491Q269 561 254 606T188 652Z" horiz-adv-x="376" unicode="⁰"/>
			<glyph d="M230 702H294V428H358V373H294V279H228V373H27V431ZM228 614L89 428H228Z" horiz-adv-x="376" unicode="⁴"/>
			<glyph d="M87 697H311V641H138L117 529Q132 542 153 549T196 556Q257 556 295 518T334 411Q334 349 293 307T179 265Q119 265 79 298T37 389H101Q105 359 127 340T183 321Q220 321 243 345T266 414Q266 454 243 478T180 503Q136 503 107 465L48 468Z" horiz-adv-x="376" unicode="⁵"/>
			<glyph d="M199 709Q256 709 289 681T328 599H262Q259 625 242 640T197 655Q145 655 123 610T101 501Q138 554 207 554Q268 554 303 515T339 414Q339 377 323 344T274 289T192 268Q36 268 36 475Q36 579 74 644T199 709ZM193 500Q153 500 131 475T110 410Q110 372 132 347T192 323Q229 323 250 347T271 410Q271 449 251 474T193 500Z" horiz-adv-x="376" unicode="⁶"/>
			<glyph d="M39 697H324V642Q260 581 216 476T168 274H94Q102 377 144 469T255 638H39Z" horiz-adv-x="376" unicode="⁷"/>
			<glyph d="M185 709Q253 709 286 678T320 596Q320 565 303 541T258 506Q298 494 318 466T338 399Q338 338 295 303T189 268Q121 268 78 301T36 399Q36 438 57 466T116 505Q86 516 69 540T52 595Q52 649 90 679T185 709ZM187 655Q156 655 136 638T116 593Q116 562 136 545T189 528Q219 528 237 545T256 593Q256 622 237 638T187 655ZM188 474Q150 474 126 453T102 399Q102 363 126 342T189 322Q227 322 249 343T272 400Q272 431 247 452T188 474Z" horiz-adv-x="376" unicode="⁸"/>
			<glyph d="M182 709Q256 709 296 660T337 502Q337 387 299 327T180 268Q121 268 86 295T45 378H110Q114 351 132 336T180 322Q225 322 246 359T269 475Q254 451 228 437T172 423Q108 423 72 461T36 565Q36 629 76 669T182 709ZM182 653Q143 653 123 627T103 562Q103 527 124 502T181 477Q219 477 240 502T262 564Q262 602 241 627T182 653Z" horiz-adv-x="376" unicode="⁹"/>
			<glyph d="M377 725Q467 725 558 663L512 579Q441 648 369 648Q301 648 254 595T189 450H472L445 389H182Q181 380 181 363Q181 345 182 337H431L405 276H187Q220 61 377 61Q421 61 452 75T531 133V28Q463 -16 377 -16Q132 -16 90 276H13L41 337H86Q85 345 85 363Q85 380 86 389H13L39 450H93Q118 580 192 652T377 725Z" horiz-adv-x="556" unicode="€"/>
			<glyph d="M287 721Q334 721 365 686T397 593Q397 452 226 275V122Q226 83 246 60T301 38Q347 38 389 76H391L415 41Q356 -14 285 -14Q227 -14 192 19T158 110V228L100 166H98L72 203L158 287V550Q158 625 194 673T287 721ZM287 673Q260 673 243 641T226 561V335Q279 397 309 464T340 588Q340 626 325 649T287 673Z" horiz-adv-x="500" unicode="ℓ"/>
			<glyph d="M107 716Q151 716 181 693T211 631H170Q169 654 151 667T107 681Q83 681 68 671T53 640Q53 615 91 607L147 593Q220 575 220 522Q220 494 194 469T112 444Q61 444 32 468T4 539H46Q46 479 118 479Q141 479 160 490T179 520Q179 543 130 556L81 569Q47 578 29 593T12 638Q12 669 36 692T107 716ZM260 710H325L401 515L475 710H540V450H499V667H498L416 450H386L302 667H301V450H260Z" horiz-adv-x="564" unicode="℠"/>
			<glyph d="M0 710H205V675H123V450H81V675H0ZM247 710H312L388 515L462 710H527V450H486V667H485L403 450H373L289 667H288V450H247Z" horiz-adv-x="551" unicode="™"/>
			<glyph d="M382 731Q528 731 622 637T716 401Q716 201 552 84V80H727V0H445V72Q532 132 576 215T621 401Q621 510 555 580Q489 651 382 651Q310 651 254 619T168 528T138 392Q138 292 182 213T318 72V0H35V80H206V84Q124 141 83 217T43 391Q43 538 138 634Q234 731 382 731Z" horiz-adv-x="762" unicode="Ω"/>
			<glyph d="M381 709Q527 709 622 611Q716 514 719 348H192V112Q269 35 381 35Q464 35 524 73T633 192L679 164Q618 68 550 28T381 -12Q282 -12 205 35T86 165T44 348Q44 503 138 606T381 709ZM379 663Q270 663 192 585V396H572V585Q491 663 379 663Z" horiz-adv-x="760" unicode="℮"/>
			<glyph d="M575 722H641L229 -22H161ZM184 703H241V280H173V573H64V625H79Q133 625 155 641T184 703ZM648 432Q716 432 749 401T783 319Q783 288 766 264T721 229Q761 217 781 189T801 122Q801 61 758 26T652 -9Q584 -9 541 24T499 122Q499 161 520 189T578 228Q548 239 531 262T515 318Q515 372 553 402T648 432ZM650 378Q619 378 599 361T579 316Q579 285 599 268T652 251Q682 251 700 268T719 316Q719 345 700 361T650 378ZM651 197Q613 197 589 176T565 122Q565 86 589 65T652 45Q690 45 712 66T735 123Q735 154 710 175T651 197Z" horiz-adv-x="838" unicode="⅛"/>
			<glyph d="M600 722H666L254 -22H186ZM192 707Q251 707 288 677T325 595Q325 562 306 537T251 502Q294 495 318 468T342 398Q342 336 297 301T185 266Q113 266 72 304T30 411H100Q100 369 123 345T185 322Q223 322 248 342T274 399Q274 433 248 452T179 472H155V524H180Q212 524 235 541T259 587Q259 618 240 634T189 651Q150 651 129 627T109 564H43Q44 631 84 669T192 707ZM660 432Q729 432 762 400T796 319Q796 288 779 264T734 229Q773 217 793 189T813 122Q813 61 770 26T664 -9Q596 -9 553 24T511 122Q511 161 532 189T591 228Q561 239 544 263T527 318Q527 372 565 402T660 432ZM663 378Q632 378 612 361T592 316Q592 285 612 268T664 251Q694 251 712 268T731 316Q731 345 712 361T663 378ZM663 197Q626 197 601 176T577 122Q577 86 601 65T664 45Q702 45 724 66T747 123Q747 154 722 175T663 197Z" horiz-adv-x="850" unicode="⅜"/>
			<glyph d="M597 722H663L251 -22H183ZM88 703H312V647H138L118 535Q132 548 153 555T197 562Q258 562 296 524T335 417Q335 355 293 313T180 271Q120 271 80 304T37 395H102Q105 365 128 346T184 327Q220 327 243 351T267 420Q267 460 244 484T181 509Q137 509 108 471L48 474ZM659 432Q728 432 761 400T795 319Q795 288 778 264T733 229Q772 217 792 189T812 122Q812 61 769 26T663 -9Q595 -9 552 24T510 122Q510 161 531 189T590 228Q560 239 543 263T526 318Q526 372 564 402T659 432ZM662 378Q631 378 611 361T591 316Q591 285 611 268T663 251Q693 251 711 268T730 316Q730 345 711 361T662 378ZM662 197Q625 197 600 176T576 122Q576 86 600 65T663 45Q701 45 723 66T746 123Q746 154 721 175T662 197Z" horiz-adv-x="849" unicode="⅝"/>
			<glyph d="M522 722H588L176 -22H108ZM39 703H324V648Q259 586 216 482T169 280H94Q102 383 144 475T255 644H39ZM584 432Q653 432 686 400T720 319Q720 288 703 264T658 229Q697 217 717 189T737 122Q737 61 694 26T588 -9Q520 -9 477 24T435 122Q435 161 456 189T515 228Q485 239 468 263T451 318Q451 372 489 402T584 432ZM587 378Q556 378 536 361T516 316Q516 285 536 268T588 251Q618 251 636 268T655 316Q655 345 636 361T587 378ZM587 197Q550 197 525 176T501 122Q501 86 525 65T588 45Q626 45 648 66T671 123Q671 154 646 175T587 197Z" horiz-adv-x="774" unicode="⅞"/>
			<glyph d="M218 721Q340 721 404 623Q469 523 469 361Q469 183 410 85T237 -12Q148 -12 91 52Q33 117 33 213Q33 274 58 323T129 399T232 427Q278 427 319 408T393 352L394 398Q394 473 372 532T311 624T221 658Q165 658 107 611L65 661Q134 721 218 721ZM240 365Q182 365 144 321T107 210Q107 166 124 128T171 69T239 48Q308 48 348 117Q389 188 389 280Q357 321 318 343T240 365Z" horiz-adv-x="502" unicode="∂"/>
			<glyph d="M272 714H377L653 0H-4ZM323 629L124 80H518L325 629Z" horiz-adv-x="648" unicode="∆"/>
			<glyph d="M68 786H650V-214H572V714H146V-214H68Z" horiz-adv-x="719" unicode="∏"/>
			<glyph d="M39 786H577V714H140L441 290L122 -142H589V-214H25V-150L347 290L39 722Z" horiz-adv-x="614" unicode="∑"/>
			<glyph d="M50 287H554V219H50Z" horiz-adv-x="604" unicode="−"/>
			<glyph d="M269 725H333L-102 -28H-166Z" horiz-adv-x="167" unicode="∕"/>
			<glyph d="M139 375Q166 375 184 355T203 311Q203 286 184 266T140 247Q114 247 94 266T75 311Q75 338 94 356T139 375Z" horiz-adv-x="278" unicode="∙"/>
			<glyph d="M438 786H514L303 -214H228L66 120L19 98L-9 158L103 210L254 -107Z" horiz-adv-x="504" unicode="√"/>
			<glyph d="M569 410Q634 410 675 366T717 255Q717 187 676 142T570 98Q526 98 481 122T380 207Q321 152 280 125T193 99Q125 99 83 141T42 252Q42 320 83 364T187 408Q233 408 276 383T380 294Q450 367 489 388Q529 410 569 410ZM569 342Q541 342 510 323T423 251Q476 200 508 183T573 166Q609 166 630 190T652 252Q652 293 630 317T569 342ZM187 341Q152 341 129 315T107 252Q107 213 129 189T190 166Q254 166 337 251Q291 296 254 318T187 341Z" horiz-adv-x="759" unicode="∞"/>
			<glyph d="M288 850Q302 850 317 845T343 836L330 781Q324 785 313 788T294 791Q281 791 267 785T244 767Q225 746 217 696T209 576Q218 316 221 237T224 93Q224 -39 182 -108Q166 -134 138 -147T80 -161Q62 -161 43 -156T14 -145L27 -87Q49 -99 72 -99Q85 -99 97 -93T118 -77Q134 -55 143 -16T152 93Q152 159 149 242T145 351Q138 500 138 598Q138 680 150 729T192 810Q210 830 235 840T288 850Z" horiz-adv-x="361" unicode="∫"/>
			<glyph d="M503 421H568Q560 356 524 317T434 278Q401 278 360 291T251 330Q201 349 169 349Q140 349 121 330T98 274H33Q41 340 76 378T167 417Q217 417 307 382Q398 346 432 346Q491 346 503 421ZM503 231H568Q560 165 524 126T434 88Q387 88 293 124Q203 159 169 159Q140 159 121 140T98 84H33Q41 149 76 188T167 227Q219 227 308 191Q394 156 432 156Q461 156 479 175T503 231Z" horiz-adv-x="601" unicode="≈"/>
			<glyph d="M421 528L479 496L417 388H552V322H378L302 184H552V118H263L180 -28L122 4L187 118H48V184H226L302 322H48V388H341Z" horiz-adv-x="600" unicode="≠"/>
			<glyph d="M552 528V457L134 307L550 158H552V86L48 274V340ZM48 68H552V0H48Z" horiz-adv-x="600" unicode="≤"/>
			<glyph d="M48 528L552 340V274L47 86V157L466 307L48 457ZM48 68H552V0H48Z" horiz-adv-x="599" unicode="≥"/>
			<glyph d="M260 747H332L504 356L332 -35H260L89 356ZM296 671L165 356L296 41L428 356Z" horiz-adv-x="593" unicode="◊"/>
			<glyph d="M566 886Q711 886 833 814T1028 619T1100 352Q1100 207 1028 84T833 -110T566 -182Q421 -182 298 -110T104 84T32 352Q32 497 104 619T298 814T566 886ZM566 708Q469 708 387 660T258 530T210 352Q210 255 258 173T387 44T566 -4Q663 -4 744 44T874 173T922 352Q922 449 874 530T744 660T566 708ZM566 530Q614 530 655 506T720 441T744 352Q744 304 720 263T655 198T566 174Q518 174 477 198T412 263T388 352Q388 400 412 441T477 506T566 530Z" horiz-adv-x="1132" unicode="◎"/>
			<glyph d="M121 714Q168 714 195 683T222 604Q222 555 195 524T121 494Q74 494 47 524T21 604Q21 651 47 682T121 714ZM309 709H357L220 336H173ZM121 673Q96 673 81 653T67 604Q67 574 81 554T121 534Q147 534 162 554T177 604Q177 633 162 653T121 673ZM403 556Q450 556 477 525T504 446Q504 397 477 366T403 336Q356 336 329 366T303 446Q303 493 329 524T403 556ZM403 515Q378 515 363 495T349 446Q349 416 363 396T403 376Q429 376 444 396T459 446Q459 475 444 495T403 515ZM336 289Q351 289 362 287V248L344 249Q329 249 324 244T319 227V209H358V171H319V0H271V171H240V209H271V227Q271 289 336 289ZM470 289Q485 289 496 287V248L478 249Q463 249 458 244T453 227V209H492V171H453V0H405V171H374V209H405V227Q405 289 470 289ZM121 212Q168 212 195 181T222 102Q222 53 195 22T121 -8Q74 -8 47 22T21 102Q21 149 47 180T121 212ZM121 171Q96 171 81 151T67 102Q67 72 81 52T121 32Q147 32 162 52T177 102Q177 131 162 151T121 171Z" horiz-adv-x="536" unicode=""/>
			<glyph d="M563 722H629L217 -22H149ZM183 703H240V280H172V573H64V625H78Q132 625 154 641T183 703ZM896 432Q953 432 986 404T1024 322H959Q955 348 938 363T893 378Q841 378 819 333T798 224Q835 277 904 277Q964 277 999 238T1035 137Q1035 100 1019 67T970 12T888 -9Q801 -9 766 49T732 198Q732 303 770 367T896 432ZM619 423H676V0H608V293H500V345H514Q568 345 590 361T619 423ZM889 223Q849 223 828 198T807 133Q807 95 828 70T889 46Q926 46 947 70T968 133Q968 172 948 197T889 223Z" horiz-adv-x="1085" unicode=""/>
			<glyph d="M600 722H666L254 -22H186ZM192 707Q251 707 288 677T325 595Q325 562 306 537T251 502Q294 495 318 468T342 398Q342 336 297 301T185 266Q113 266 72 304T30 411H100Q100 369 123 345T185 322Q223 322 248 342T274 399Q274 433 248 452T179 472H155V524H180Q212 524 235 541T259 587Q259 618 240 634T189 651Q150 651 129 627T109 564H43Q44 631 84 669T192 707ZM932 432Q989 432 1022 404T1061 322H995Q992 348 975 363T930 378Q878 378 856 333T835 224Q871 277 940 277Q1001 277 1036 238T1072 137Q1072 100 1056 67T1007 12T925 -9Q838 -9 803 49T769 198Q769 302 807 367T932 432ZM656 423H713V0H645V293H537V345H551Q605 345 627 361T656 423ZM926 223Q886 223 864 198T843 133Q843 95 865 70T925 46Q962 46 983 70T1004 133Q1004 172 984 197T926 223Z" horiz-adv-x="1122" unicode=""/>
			<glyph d="M597 722H663L251 -22H183ZM88 703H312V647H138L118 535Q132 548 153 555T197 562Q258 562 296 524T335 417Q335 355 293 313T180 271Q120 271 80 304T37 395H102Q105 365 128 346T184 327Q220 327 243 351T267 420Q267 460 244 484T181 509Q137 509 108 471L48 474ZM929 432Q986 432 1019 404T1058 322H992Q989 348 972 363T927 378Q875 378 853 333T832 224Q868 277 937 277Q998 277 1033 238T1069 137Q1069 100 1053 67T1004 12T922 -9Q835 -9 800 49T766 198Q766 302 804 367T929 432ZM653 423H710V0H642V293H534V345H548Q602 345 624 361T653 423ZM923 223Q883 223 861 198T840 133Q840 95 862 70T922 46Q959 46 980 70T1001 133Q1001 172 981 197T923 223Z" horiz-adv-x="1119" unicode=""/>
			<glyph d="M522 722H588L176 -22H108ZM39 703H324V648Q259 586 216 482T169 280H94Q102 383 144 475T255 644H39ZM854 432Q911 432 944 404T983 322H917Q914 348 897 363T852 378Q800 378 778 333T757 224Q793 277 862 277Q923 277 958 238T994 137Q994 100 978 67T929 12T847 -9Q760 -9 725 49T691 198Q691 302 729 367T854 432ZM578 423H635V0H567V293H459V345H473Q527 345 549 361T578 423ZM848 223Q808 223 786 198T765 133Q765 95 787 70T847 46Q884 46 905 70T926 133Q926 172 906 197T848 223Z" horiz-adv-x="1044" unicode=""/>
			<glyph d="M589 722H655L243 -22H175ZM182 707Q337 707 337 501Q337 386 299 326T180 266Q121 266 86 293T45 377H110Q114 350 132 335T180 321Q225 321 246 358T269 474Q254 449 228 435T172 422Q108 422 72 460T36 564Q36 628 76 667T182 707ZM182 652Q143 652 123 626T103 560Q103 525 124 500T181 476Q219 476 240 500T262 563Q262 601 240 626T182 652ZM921 432Q978 432 1011 404T1050 322H984Q981 348 964 363T919 378Q867 378 845 333T823 224Q860 277 929 277Q990 277 1025 238T1061 137Q1061 100 1045 67T996 12T914 -9Q758 -9 758 198Q758 302 796 367T921 432ZM645 423H702V0H634V293H526V345H540Q594 345 616 361T645 423ZM915 223Q875 223 853 198T832 133Q832 95 854 70T914 46Q951 46 972 70T993 133Q993 172 973 197T915 223Z" horiz-adv-x="1111" unicode=""/>
			<glyph d="M790 722H856L444 -22H376ZM184 703H241V280H173V573H64V625H79Q133 625 155 641T184 703ZM409 703H467V280H399V573H290V625H305Q360 625 381 641T409 703ZM1122 432Q1179 432 1212 404T1251 322H1185Q1182 348 1165 363T1120 378Q1068 378 1046 333T1025 224Q1061 277 1130 277Q1191 277 1226 238T1262 137Q1262 100 1246 67T1197 12T1115 -9Q1028 -9 993 49T959 198Q959 302 997 367T1122 432ZM846 423H903V0H835V293H727V345H741Q795 345 817 361T846 423ZM1116 223Q1076 223 1054 198T1033 133Q1033 95 1055 70T1115 46Q1152 46 1173 70T1194 133Q1194 172 1174 197T1116 223Z" horiz-adv-x="1312" unicode=""/>
			<glyph d="M862 722H928L516 -22H448ZM454 707Q513 707 550 677T587 595Q587 562 568 537T513 502Q556 495 580 468T604 398Q604 336 559 301T447 266Q375 266 334 304T292 411H362Q362 369 385 345T447 322Q485 322 510 342T536 399Q536 433 510 452T441 472H417V524H442Q474 524 497 541T521 587Q521 618 502 634T451 651Q412 651 391 627T371 564H305Q306 631 346 669T454 707ZM184 703H241V280H173V573H64V625H79Q133 625 155 641T184 703ZM1195 432Q1252 432 1285 404T1324 322H1258Q1254 348 1237 363T1193 378Q1141 378 1119 333T1097 224Q1134 277 1203 277Q1263 277 1298 238T1334 137Q1334 100 1318 67T1269 12T1187 -9Q1100 -9 1065 49T1031 198Q1031 303 1069 367T1195 432ZM918 423H975V0H907V293H799V345H814Q867 345 889 361T918 423ZM1188 223Q1149 223 1127 198T1106 133Q1106 95 1128 70T1188 46Q1225 46 1246 70T1267 133Q1267 172 1247 197T1188 223Z" horiz-adv-x="1384" unicode=""/>
			<glyph d="M854 722H920L508 -22H440ZM184 703H241V280H173V573H64V625H79Q133 625 155 641T184 703ZM345 703H569V647H395L375 535Q389 548 410 555T454 562Q515 562 553 524T592 417Q592 355 550 313T437 271Q377 271 337 304T294 395H359Q362 365 385 346T441 327Q477 327 500 351T524 420Q524 460 501 484T438 509Q394 509 365 471L305 474ZM1186 432Q1243 432 1276 404T1315 322H1249Q1246 348 1229 363T1184 378Q1132 378 1110 333T1089 224Q1125 277 1194 277Q1255 277 1290 238T1326 137Q1326 100 1310 67T1261 12T1179 -9Q1023 -9 1023 198Q1023 302 1061 367T1186 432ZM910 423H967V0H899V293H791V345H805Q859 345 881 361T910 423ZM1180 223Q1140 223 1118 198T1097 133Q1097 95 1119 70T1179 46Q1216 46 1237 70T1258 133Q1258 172 1238 197T1180 223Z" horiz-adv-x="1376" unicode=""/>
			<glyph d="M139 375Q166 375 184 355T203 311Q203 286 184 266T140 247Q114 247 94 266T75 311Q75 338 94 356T139 375Z" horiz-adv-x="278" unicode=""/>
			<glyph d="M82 714H177V494L152 183H107L82 494Z" horiz-adv-x="259" unicode=""/>
			<glyph d="M131 125Q156 125 175 105T194 58Q194 33 175 13T131 -6Q104 -6 85 13T66 60Q66 86 85 105T131 125Z" horiz-adv-x="259" unicode=""/>
			<glyph d="M200 709Q239 709 272 689T324 636T344 565Q344 526 325 493T273 440T200 421Q160 421 127 440T75 492T56 565Q56 605 75 638T128 690T200 709ZM200 659Q160 659 133 631T106 565Q106 526 132 498T200 471Q241 471 267 499T294 565Q294 604 267 631T200 659Z" horiz-adv-x="400" unicode=""/>
			<glyph d="M278 709Q369 709 425 662L452 709H515L463 619Q514 538 514 348Q514 143 455 66Q395 -12 278 -12Q185 -12 131 35L104 -12H42L93 78Q42 158 42 348Q42 551 101 630Q161 709 278 709ZM277 634Q209 634 170 576Q132 518 132 349Q132 237 148 174L380 582Q343 634 277 634ZM408 521L175 113Q213 63 278 63Q357 63 391 131Q424 197 424 346Q424 399 421 441T408 521Z" horiz-adv-x="556" unicode=""/>
			<glyph d="M163 501Q180 501 204 498V444Q186 446 170 446Q145 446 136 434T128 397V363H196V311H128V0H62V311H4V363H62V394Q62 501 163 501ZM778 369L791 368V305L776 306Q723 306 693 270T663 179V0H597V363H659V285Q676 324 707 346T778 369ZM377 368Q459 368 505 314T552 177Q552 93 504 39T377 -14Q296 -14 249 40T202 177Q202 260 249 314T377 368ZM377 312Q326 312 297 273T268 177Q268 119 297 80T377 41Q429 41 457 80T486 177Q486 232 458 272T377 312Z" horiz-adv-x="796" unicode=""/>
			<glyph d="M106 714H215L140 571H80Z" unicode=""/>
			<glyph d="M233 907H285Q277 857 252 826T184 796Q165 796 145 802T88 824Q63 835 43 835Q26 835 13 823T-6 793H-58Q-34 903 48 903Q77 903 122 883Q165 863 187 863Q203 863 214 873T233 907Z" unicode=""/>
			<glyph d="M-59 872H282V817H-59Z" unicode=""/>
			<glyph d="M-45 919H5Q29 836 117 836Q153 836 175 854T216 919H267Q254 852 212 816T109 781Q45 781 5 815T-45 919Z" unicode=""/>
			<glyph d="M33 922H138L18 779H-48ZM189 922H294L174 779H108Z" unicode=""/>
			<glyph d="M111 973Q157 973 190 940T224 861Q224 814 191 781T111 749Q64 749 31 781T-2 861Q-2 908 31 940T111 973ZM110 928Q83 928 63 908T44 860Q44 831 63 811T111 792Q140 792 159 812T178 860Q178 888 158 908T110 928Z" unicode=""/>
			<glyph d="M56 470H122V363H192V311H122V86Q122 66 130 57T160 49Q179 49 192 51V-3Q170 -6 147 -6Q97 -6 76 12T56 75V311H-4V363H56ZM380 368Q462 368 508 314T555 177Q555 93 508 39T380 -14Q299 -14 252 40T205 177Q205 260 252 314T380 368ZM380 312Q329 312 300 273T271 177Q271 119 300 80T380 41Q432 41 460 80T489 177Q489 232 461 272T380 312Z" horiz-adv-x="555" unicode=""/>
			<glyph d="M18 907Q41 907 58 889T75 847Q75 823 58 805T18 788Q-6 788 -22 806T-39 848Q-39 872 -22 889T18 907ZM203 907Q227 907 244 889T261 847Q261 823 244 805T203 788Q179 788 162 806T146 848Q146 873 163 890T203 907Z" unicode=""/>
			<glyph d="M136 922H245L114 779H50Z" unicode=""/>
			<glyph d="M-23 922H86L172 779H108Z" unicode=""/>
			<glyph d="M64 922H157L261 779H177L108 875L38 779H-39Z" unicode=""/>
			<glyph d="M-39 922H45L114 826L184 922H261L158 779H65Z" unicode=""/>
			<glyph d="M128 697Q177 697 206 664T235 579Q235 527 206 493T128 460Q78 460 49 493T20 579Q20 631 49 664T128 697ZM339 697H392L239 285H187ZM128 654Q99 654 84 633T69 579Q69 544 84 523T128 502Q157 502 172 523T187 579Q187 613 172 633T128 654ZM443 514Q492 514 521 481T550 396Q550 344 521 310T443 277Q393 277 364 310T335 396Q335 448 364 481T443 514ZM443 471Q414 471 399 450T384 396Q384 361 399 340T443 319Q472 319 487 340T502 396Q502 430 487 450T443 471ZM128 232Q176 232 205 198T235 114Q235 63 205 29T128 -5Q79 -5 49 29T20 114Q20 165 49 198T128 232ZM253 225H407V184H302V132H393V93H302V0H253ZM427 225H579V184H475V132H567V93H475V0H427ZM128 189Q99 189 84 168T69 114Q69 79 84 58T128 37Q157 37 172 58T187 114Q187 147 172 168T128 189Z" horiz-adv-x="601" unicode=""/>
			<glyph d="M269 725H333L-102 -28H-166Z" horiz-adv-x="167" unicode=""/>
			<glyph d="M241 722Q254 722 271 719T297 714V640Q279 647 249 647Q184 647 184 591V517H284V442H184V0H99V442H12V517H99V598Q99 656 135 689T241 722ZM407 722Q431 722 448 704T465 660Q465 636 448 618T407 600Q383 600 366 618T349 662Q349 687 366 704T407 722ZM365 517H450V0H365Z" horiz-adv-x="518" unicode=""/>
			<glyph d="M241 722Q254 722 271 719T297 714V640Q279 647 249 647Q184 647 184 591V517H284V442H184V0H99V442H12V517H99V598Q99 656 135 689T241 722ZM365 714H450V0H365Z" horiz-adv-x="518" unicode=""/>
			<glyph d="M241 722Q254 722 271 719T297 714V640Q279 647 249 647Q184 647 184 591V517H380V598Q380 656 416 689T522 722Q546 722 578 714V640Q558 647 530 647Q496 647 480 633T465 591V517H565V442H465V0H380V442H184V0H99V442H12V517H99V598Q99 656 135 689T241 722Z" horiz-adv-x="577" unicode="ﬀ"/>
			<glyph d="M241 722Q254 722 271 719T297 714V640Q279 647 249 647Q184 647 184 591V517H284V442H184V0H99V442H12V517H99V598Q99 656 135 689T241 722ZM407 722Q431 722 448 704T465 660Q465 636 448 618T407 600Q383 600 366 618T349 662Q349 687 366 704T407 722ZM365 517H450V0H365Z" horiz-adv-x="518" unicode="ﬁ"/>
			<glyph d="M241 722Q254 722 271 719T297 714V640Q279 647 249 647Q184 647 184 591V517H284V442H184V0H99V442H12V517H99V598Q99 656 135 689T241 722ZM365 714H450V0H365Z" horiz-adv-x="518" unicode="ﬂ"/>
			<glyph d="M241 722Q254 722 271 719T297 714V640Q279 647 249 647Q184 647 184 591V517H380V598Q380 656 416 689T522 722Q546 722 578 714V640Q558 647 530 647Q496 647 480 633T465 591V517H565V442H465V0H380V442H184V0H99V442H12V517H99V598Q99 656 135 689T241 722ZM688 722Q712 722 729 704T746 660Q746 636 729 618T688 600Q664 600 647 618T630 662Q630 687 647 704T688 722ZM646 517H731V0H646Z" horiz-adv-x="799" unicode="ﬃ"/>
			<glyph d="M241 722Q254 722 271 719T297 714V640Q279 647 249 647Q184 647 184 591V517H380V598Q380 656 416 689T522 722Q546 722 578 714V640Q558 647 530 647Q496 647 480 633T465 591V517H565V442H465V0H380V442H184V0H99V442H12V517H99V598Q99 656 135 689T241 722ZM646 714H731V0H646Z" horiz-adv-x="799" unicode="ﬄ"/>
			<glyph d="M471 716Q512 716 543 691T580 623H539Q534 649 515 664T471 680Q428 680 406 650T384 578Q384 537 406 508T471 480Q500 480 519 500T543 553H583Q578 502 547 473T471 444Q412 444 378 482T344 578Q344 636 377 676T471 716ZM24 710H89L165 515L239 710H304V450H263V667H262L180 450H150L66 667H65V450H24Z" horiz-adv-x="587" unicode="🅪"/>
		</font>
</defs>
</svg>
