<?xml version="1.0" encoding="UTF-8"?>
<svg height="100%" width="100%" xmlns="http://www.w3.org/2000/svg">
	<defs>
		<font horiz-adv-x="259" id="web">
			<font-face alphabetic="0" ascent="984" descent="-236" font-family="" panose-1="2 11 8 4 2 2 2 9 2 4"/>
			<missing-glyph d="M0 718H512V0H0ZM50 667V50H462V667ZM259 609Q313 609 348 572T383 478Q383 440 368 414T319 357Q285 326 278 311Q271 294 271 234H225L223 253Q223 310 240 339Q256 366 286 395Q307 414 319 432T332 474Q332 508 309 533T256 559Q222 559 201 535T174 464L124 472Q131 539 165 574T259 609ZM222 184H278V117H222Z" horiz-adv-x="512"/>
			<glyph d="" horiz-adv-x="277" unicode=" "/>
			<glyph d="M150 714H301L259 520L154 214H84L109 519ZM92 161Q126 161 151 136T176 76Q176 43 151 17T93 -8Q58 -8 32 16T7 76Q7 111 32 136T92 161Z" horiz-adv-x="296" unicode="!"/>
			<glyph d="M167 714H274L206 393H99ZM353 714H460L392 393H285Z" horiz-adv-x="481" unicode="&quot;"/>
			<glyph d="M220 714H319L279 517H395L435 714H533L493 517H577V427H475L449 296H533V206H431L390 0H292L333 206H217L176 0H78L119 206H33V296H137L163 427H78V517H181ZM261 427L235 296H351L377 427Z" horiz-adv-x="610" unicode="#"/>
			<glyph d="M324 744H375L361 677Q437 664 480 614T523 487V478H386V484Q386 516 373 536T337 562L306 416Q404 390 447 350T490 233Q490 165 455 116T362 43T234 19Q225 19 221 20L205 -57H154L171 24Q79 36 32 89T-15 231V245H126V238Q126 199 144 173T196 139L230 303Q138 331 94 369T51 478Q51 543 83 589T172 659T298 683Q306 683 311 682ZM287 567Q243 567 218 547T193 493Q193 470 209 455T258 430ZM279 289L246 134H249Q290 134 319 157T349 218Q349 242 333 258T279 289Z" horiz-adv-x="521" unicode="$"/>
			<glyph d="M722 722H823L252 -22H149ZM267 714Q343 714 383 675T424 562Q424 461 367 392Q340 358 302 341T220 324Q151 324 112 366T73 482Q73 548 96 600T164 683T267 714ZM273 639Q227 639 201 587T175 463Q175 432 188 415T227 399Q248 399 266 414T296 458Q322 518 322 583Q322 607 308 623T273 639ZM735 376Q811 376 852 337T893 224Q893 158 867 103T795 17T689 -14Q620 -14 581 29T542 145Q542 209 565 262T632 345T735 376ZM742 301Q696 301 670 249T644 126Q644 95 657 78T696 61Q739 61 765 120T791 245Q791 268 777 284T742 301Z" horiz-adv-x="963" unicode="%"/>
			<glyph d="M358 722Q439 722 492 678T545 560Q545 503 506 457T381 366L458 242Q475 259 489 286T510 343H637Q627 285 596 231T524 140L615 0H459L427 56Q385 21 338 3T235 -14Q175 -14 125 10T45 80T16 183Q16 257 63 313T209 410Q161 484 161 537Q161 621 215 671T358 722ZM364 627Q332 627 310 607T288 554Q288 532 297 509T326 454Q375 477 401 504T428 560Q428 589 410 608T364 627ZM267 315Q201 279 177 251T153 184Q153 150 180 126T247 103Q272 103 299 114T365 156Z" horiz-adv-x="685" unicode="&amp;"/>
			<glyph d="M160 714H267L199 393H92Z" horiz-adv-x="278" unicode="'"/>
			<glyph d="M279 813H404Q286 660 231 511Q175 361 175 165Q175 109 183 52T213 -100H105Q77 -35 61 56Q43 154 43 222Q43 378 94 511Q146 647 279 813Z" horiz-adv-x="296" unicode="("/>
			<glyph d="M91 813H199Q225 753 243 656T261 492Q261 343 214 213Q164 74 25 -100H-100Q18 54 74 206Q129 355 129 548Q129 604 120 661T91 813Z" horiz-adv-x="296" unicode=")"/>
			<glyph d="M231 714L313 710L289 582L410 605L424 526L304 508L361 403L289 364L234 473L148 376L90 432L179 524L71 576L105 649L214 594Z" horiz-adv-x="407" unicode="*"/>
			<glyph d="M230 505H337V306H536V199H337V0H230V199H31V306H230Z" horiz-adv-x="600" unicode="+"/>
			<glyph d="M74 161Q114 161 141 128T169 45Q169 2 141 -43T66 -120T-38 -155L-23 -83Q13 -82 45 -57T85 -7Q80 -8 71 -8Q40 -8 14 16T-11 73Q-11 111 14 136T74 161Z" horiz-adv-x="278" unicode=","/>
			<glyph d="M63 334H364L338 212H37Z" horiz-adv-x="428" unicode="-"/>
			<glyph d="M83 161Q117 161 142 136T167 76Q167 43 142 17T84 -8Q49 -8 23 16T-2 76Q-2 111 23 136T83 161Z" horiz-adv-x="278" unicode="."/>
			<glyph d="M277 731H391L112 -17H-2Z" horiz-adv-x="389" unicode="/"/>
			<glyph d="M327 714Q439 714 500 644T561 449Q561 327 516 216Q471 106 393 46T218 -14Q112 -14 54 57T-4 255Q-4 372 38 478Q82 589 156 651T327 714ZM316 597Q262 597 223 544T160 396Q138 307 138 226Q138 163 162 133T236 103Q290 103 330 154T395 298T419 471Q419 531 392 564T316 597Z" horiz-adv-x="556" unicode="0"/>
			<glyph d="M355 700H471L323 0H172L268 454H97L120 561Q215 565 268 597T355 700Z" horiz-adv-x="556" unicode="1"/>
			<glyph d="M320 714Q428 714 490 657T553 503Q553 428 503 369T348 250L274 207Q189 159 155 122H500L472 0H-47Q-42 64 -16 115T62 211T205 303Q245 324 282 345L304 357Q359 388 385 421T411 494Q411 540 383 566T303 592Q249 592 213 551T174 448H39Q50 575 125 644T320 714Z" horiz-adv-x="556" unicode="2"/>
			<glyph d="M326 714Q430 714 493 666T557 532Q557 472 521 427T425 370V368Q476 352 499 316T523 225Q523 150 487 96T386 14T235 -14Q115 -14 52 44T-11 214Q-11 228 -10 240H125Q124 232 124 219Q124 162 154 132T239 103Q300 103 337 138T374 230Q374 271 348 294T275 317H224L243 417H289Q351 417 385 441T420 510Q420 551 393 574T323 597Q267 597 235 568T190 477H55Q71 591 142 652T326 714Z" horiz-adv-x="556" unicode="3"/>
			<glyph d="M403 700H541L452 279H545L520 162H427L392 0H257L292 162H-33L-7 291ZM371 547L109 279H317L374 547Z" horiz-adv-x="556" unicode="4"/>
			<glyph d="M144 700H558L533 583H235L189 434L191 432Q218 456 250 466T327 476Q382 476 426 449T497 375T523 267Q523 183 485 119T381 20T231 -14Q116 -14 52 40T-15 204H122Q122 156 154 129T241 103Q280 103 312 122T362 175T381 250Q381 308 350 338T262 369Q225 369 198 355T150 310H22Z" horiz-adv-x="556" unicode="5"/>
			<glyph d="M356 714Q456 714 514 663T577 519H440Q440 557 415 582T351 607Q292 607 247 558T168 398L170 396Q196 433 236 451T324 470Q419 470 475 411T531 256Q531 201 511 151T452 63Q372 -14 261 -14Q141 -14 77 58T13 271Q13 464 107 589Q153 651 216 682T356 714ZM277 363Q221 363 185 321T150 221Q150 171 180 137T257 103Q316 103 352 142T389 245Q389 300 360 331T277 363Z" horiz-adv-x="556" unicode="6"/>
			<glyph d="M89 700H586L560 578Q445 480 350 320Q257 164 214 0H63Q102 150 199 309Q295 467 405 568H61Z" horiz-adv-x="556" unicode="7"/>
			<glyph d="M334 714Q397 714 447 689T524 622T552 526Q552 492 534 459T486 402T417 370V368Q463 358 494 310T526 210Q526 143 487 92T382 13T242 -14Q168 -14 109 12T16 85T-18 192Q-18 263 26 310T157 377V379Q116 399 93 434T70 509Q70 570 103 616T197 688T334 714ZM313 607Q259 607 228 580T197 509Q197 467 229 442T311 418Q358 418 391 444T425 512Q425 556 394 581T313 607ZM259 323Q198 323 161 290T124 201Q124 154 160 123T248 93Q310 93 347 125T384 211Q384 262 348 292T259 323Z" horiz-adv-x="556" unicode="8"/>
			<glyph d="M299 714Q419 714 482 641T546 429Q546 299 502 198T381 41T203 -14Q104 -14 45 35T-18 181H119Q119 142 144 117T208 93Q268 93 312 141T391 302L389 304Q365 268 324 249T235 230Q141 230 84 288T28 444Q28 498 48 548T106 636Q186 714 299 714ZM301 597Q243 597 206 557T170 455Q170 399 199 368T281 337Q338 337 373 378T409 479Q409 530 378 563T301 597Z" horiz-adv-x="556" unicode="9"/>
			<glyph d="M157 516Q191 516 216 491T241 431Q241 398 216 372T158 347Q123 347 97 371T72 431Q72 466 97 491T157 516ZM83 161Q117 161 142 136T167 76Q167 43 142 17T84 -8Q49 -8 23 16T-2 76Q-2 111 23 136T83 161Z" horiz-adv-x="278" unicode=":"/>
			<glyph d="M157 516Q191 516 216 491T241 431Q241 398 216 372T158 347Q123 347 97 371T72 431Q72 466 97 491T157 516ZM74 161Q114 161 141 128T169 45Q169 2 141 -43T66 -120T-38 -155L-23 -83Q13 -82 45 -57T85 -7Q80 -8 71 -8Q40 -8 14 16T-11 73Q-11 111 14 136T74 161Z" horiz-adv-x="278" unicode=";"/>
			<glyph d="M534 514V399L167 253L534 107V-8L26 194V312Z" horiz-adv-x="600" unicode="&lt;"/>
			<glyph d="M31 413H536V306H31ZM31 199H536V92H31Z" horiz-adv-x="600" unicode="="/>
			<glyph d="M46 514L554 312V194L46 -8V107L413 253L46 399Z" horiz-adv-x="600" unicode="&gt;"/>
			<glyph d="M352 731Q451 731 510 681T570 546Q570 487 535 440T419 349Q368 322 345 292T317 220H185Q195 298 227 343Q258 389 341 431Q421 472 421 536Q421 571 397 592T334 614Q287 614 255 580T216 491H74Q80 603 156 667T352 731ZM219 161Q253 161 278 136T303 76Q303 43 278 17T220 -8Q185 -8 159 16T134 76Q134 111 159 136T219 161Z" horiz-adv-x="574" unicode="?"/>
			<glyph d="M456 725Q569 725 665 669T817 517T873 308Q873 250 851 197T782 110T664 76Q606 76 578 92T540 138Q517 112 478 96T387 80Q318 80 277 113T236 207Q236 266 275 297Q296 314 329 324T417 340Q482 347 506 355T530 389Q530 420 509 431T453 442Q415 442 395 428T372 385H250Q254 454 309 490T459 527Q555 527 603 496T651 406V201Q651 179 659 170T689 162Q729 162 752 203T776 308Q776 396 733 470T616 588T456 632Q369 632 295 588T179 470T136 308Q136 220 179 144T296 25T452 -19Q537 -19 624 16L657 -62Q564 -109 451 -109Q343 -109 248 -53T96 98T39 308Q39 421 95 517T247 669T456 725ZM530 293Q512 279 457 273Q405 267 381 255T358 214Q358 165 432 165Q480 165 505 187T530 251Z" horiz-adv-x="912" unicode="@"/>
			<glyph d="M345 714H506L625 0H469L446 159H179L89 0H-77ZM395 560L241 276H432L397 560Z" horiz-adv-x="685" unicode="A"/>
			<glyph d="M146 714H453Q575 714 626 674T678 547Q678 482 641 435T544 381V379Q594 366 622 326T650 233Q650 161 613 108T515 28T379 0H-4ZM272 592L237 425H418Q462 425 491 450T521 519Q521 592 441 592ZM215 318L173 122H373Q426 122 459 152T493 237Q493 278 465 298T376 318Z" horiz-adv-x="722" unicode="B"/>
			<glyph d="M427 731Q512 731 577 700T677 611T713 476V466H556Q555 531 520 565T428 599Q323 599 258 510Q194 421 194 299Q194 215 236 165T356 115Q417 115 464 155T524 257H681Q636 117 557 50T354 -17Q204 -17 120 66T37 299Q37 412 84 511T220 671T427 731Z" horiz-adv-x="741" unicode="C"/>
			<glyph d="M147 714H410Q551 714 629 642T708 436Q708 297 656 199T511 50T300 0H-4ZM277 582L181 132H306Q377 132 432 166T519 264T551 409Q551 495 511 538T399 582Z" horiz-adv-x="741" unicode="D"/>
			<glyph d="M146 714H691L664 582H276L244 429H603L577 307H218L181 132H575L547 0H-4Z" horiz-adv-x="667" unicode="E"/>
			<glyph d="M147 714H655L626 582H276L241 417H547L521 295H216L153 0H-4Z" horiz-adv-x="593" unicode="F"/>
			<glyph d="M427 731Q565 731 647 665T730 478H573Q569 540 533 569T428 599Q358 599 304 558T222 448T194 299Q194 215 236 165T356 115Q436 115 483 153T554 269H389L414 386H717L635 0H536V73H534Q501 29 455 6T353 -17Q205 -17 121 66T37 299Q37 423 88 521T228 675T427 731Z" horiz-adv-x="759" unicode="G"/>
			<glyph d="M147 714H305L247 440H536L594 714H752L601 0H443L508 308H219L154 0H-4Z" horiz-adv-x="741" unicode="H"/>
			<glyph d="M147 714H305L154 0H-4Z" horiz-adv-x="296" unicode="I"/>
			<glyph d="M407 714H565L458 201Q413 -17 199 -17Q99 -17 40 28T-19 156Q-19 189 -6 266H137Q123 210 123 182Q123 152 144 133T201 115Q247 115 270 141T308 237Z" horiz-adv-x="557" unicode="J"/>
			<glyph d="M145 714H302L240 415H242L566 714H774L431 420L650 0H473L310 321L201 226L154 0H-4Z" horiz-adv-x="722" unicode="K"/>
			<glyph d="M146 714H304L182 132H527L499 0H-4Z" horiz-adv-x="574" unicode="L"/>
			<glyph d="M147 714H364L419 197H421L696 714H915L764 0H617L747 568H745L443 0H323L254 568H252L145 0H-4Z" horiz-adv-x="907" unicode="M"/>
			<glyph d="M147 714H309L503 206H505L607 714H751L600 0H443L247 501H245L143 0H-4Z" horiz-adv-x="741" unicode="N"/>
			<glyph d="M417 731Q566 731 650 650T734 424Q734 306 688 205T554 44T344 -17Q194 -17 110 66T27 299Q27 422 77 520T217 675T417 731ZM417 599Q347 599 294 557T212 447T184 299Q184 215 226 165T346 115Q418 115 470 159T550 272T577 414Q577 500 536 549T417 599Z" horiz-adv-x="768" unicode="O"/>
			<glyph d="M145 714H434Q679 714 679 506Q679 428 640 371T538 285T405 256H207L153 0H-4ZM277 592L233 378H395Q454 378 488 410T522 502Q522 546 494 569T415 592Z" horiz-adv-x="667" unicode="P"/>
			<glyph d="M427 731Q576 731 660 650T744 425Q744 321 708 230T606 77L682 -9L598 -79L514 17Q440 -17 354 -17Q204 -17 120 66T37 299Q37 422 87 520T227 675T427 731ZM427 599Q357 599 304 558T222 448T194 299Q194 215 236 165T356 115Q388 115 418 126L362 189L446 258L509 187Q546 231 566 291T587 414Q587 500 546 549T427 599Z" horiz-adv-x="778" unicode="Q"/>
			<glyph d="M146 714H500Q596 714 648 667T700 527Q700 455 654 400T536 335V333Q610 311 610 207L608 156Q607 140 606 120T605 83Q605 23 615 0H462Q461 4 458 19T455 49Q455 63 459 121Q463 177 463 192Q463 238 439 258T364 279H212L153 0H-4ZM278 592L236 391H385Q452 391 497 420T543 504Q543 549 517 570T432 592Z" horiz-adv-x="722" unicode="R"/>
			<glyph d="M366 731Q493 731 563 671T634 501H485V508Q485 558 452 583T357 609Q300 609 266 585T232 521Q232 487 267 463T374 425Q455 408 502 382T571 317T593 219Q593 142 553 88T446 9T301 -17Q5 -17 5 237H154V229Q154 165 192 135T308 105Q366 105 405 132T444 206Q444 240 414 262T303 306Q235 324 189 345T113 405T83 509Q83 583 122 633T226 707T366 731Z" horiz-adv-x="648" unicode="S"/>
			<glyph d="M82 714H678L650 582H436L314 0H156L278 582H54Z" horiz-adv-x="611" unicode="T"/>
			<glyph d="M140 714H297L216 329Q215 322 205 276T195 211Q195 171 229 143T329 115Q407 115 444 150T498 265L593 714H750L667 316Q643 203 607 132T502 22T319 -17Q190 -17 114 39T38 195Q38 218 41 238T53 301Z" horiz-adv-x="741" unicode="U"/>
			<glyph d="M72 714H229L276 178H278L549 714H712L331 0H154Z" horiz-adv-x="630" unicode="V"/>
			<glyph d="M73 714H230L240 191H242L468 714H618L636 193H638L856 714H1013L678 0H522L504 510H502L280 0H122Z" horiz-adv-x="944" unicode="W"/>
			<glyph d="M88 714H259L360 478L543 714H729L432 369L609 0H436L324 255L120 0H-70L255 376Z" horiz-adv-x="667" unicode="X"/>
			<glyph d="M61 714H222L329 410L551 714H736L388 270L333 0H175L232 277Z" horiz-adv-x="648" unicode="Y"/>
			<glyph d="M124 714H688L662 588L181 132H584L558 0H-43L-16 130L461 582H95Z" horiz-adv-x="648" unicode="Z"/>
			<glyph d="M173 813H433L409 701H282L137 12H263L239 -100H-19Z" horiz-adv-x="333" unicode="["/>
			<glyph d="M-2 731H112L391 -17H277Z" horiz-adv-x="389" unicode="\"/>
			<glyph d="M100 813H358L166 -100H-94L-70 12H57L202 701H76Z" horiz-adv-x="333" unicode="]"/>
			<glyph d="M243 700H377L549 315H432L310 590L188 315H71Z" horiz-adv-x="600" unicode="^"/>
			<glyph d="M0 -75H500V-125H0Z" horiz-adv-x="500" unicode="_"/>
			<glyph d="M34 731H186L264 589H164Z" unicode="`"/>
			<glyph d="M306 531Q411 531 465 496T520 395Q520 358 509 308L471 136Q468 123 468 114Q468 102 475 98T499 94H503L483 2Q455 -10 417 -10Q370 -10 347 6T325 57Q296 23 253 4T161 -14Q84 -14 38 23T-7 122Q-7 196 47 242T200 299Q291 308 326 313Q388 322 388 373Q388 403 363 419T298 436Q256 436 228 416T193 360H60Q72 444 134 487T306 531ZM360 248Q344 238 320 232T244 223Q187 218 161 198T135 140Q135 113 155 97T212 81Q257 81 285 100T329 154T360 248Z" horiz-adv-x="574" unicode="a"/>
			<glyph d="M138 714H280L227 462H229Q264 500 298 515T382 531Q470 531 519 472T568 311Q568 230 537 155T445 33T300 -14Q237 -14 195 10T138 81H136L119 0H-12ZM325 424Q274 424 239 390T188 305T171 203Q171 153 199 123T274 93Q323 93 357 126T409 210T426 309Q426 365 400 394T325 424Z" horiz-adv-x="616" unicode="b"/>
			<glyph d="M305 531Q412 531 474 480T537 338H395Q395 382 372 403T300 424Q250 424 217 390T170 306T155 206Q155 152 180 122T253 93Q336 93 368 189H510Q476 88 408 37T243 -14Q131 -14 72 42T13 208Q13 294 47 368T147 486T305 531Z" horiz-adv-x="559" unicode="c"/>
			<glyph d="M498 714H640L489 0H352L366 64L364 65Q341 26 300 6T208 -14Q118 -14 65 40T12 190Q12 290 48 367T148 488T293 531Q344 531 384 509T439 448H441ZM309 424Q260 424 224 391T171 308T154 208Q154 157 181 125T255 93Q304 93 339 127T393 212T411 312Q411 364 384 394T309 424Z" horiz-adv-x="621" unicode="d"/>
			<glyph d="M298 531Q412 531 475 471T539 305Q539 266 531 224H150L149 197Q149 146 179 119T263 93Q295 93 320 110T369 164H511Q476 71 412 28T244 -14Q136 -14 74 46T13 212Q13 293 47 366T146 485T298 531ZM305 424Q205 424 165 314H402V318Q402 371 378 397T305 424Z" horiz-adv-x="580" unicode="e"/>
			<glyph d="M328 720Q368 720 421 712L399 610Q373 613 353 613Q324 613 309 605T288 583T274 538L269 517H370L350 422H248L159 0H17L106 422H22L42 517H127L135 553Q150 615 170 650T227 703T328 720Z" horiz-adv-x="352" unicode="f"/>
			<glyph d="M278 531Q397 531 436 438H438L454 517H590L486 24Q462 -93 394 -144T203 -196Q103 -196 42 -151T-19 -27H123Q123 -64 149 -82T216 -101Q253 -101 278 -84T322 -28T360 79L358 81Q303 8 216 8Q125 8 71 65T17 219Q17 295 48 367T139 485T278 531ZM304 424Q260 424 227 394T176 319T159 229Q159 177 184 146T255 115Q302 115 336 144T388 218T406 312Q406 365 379 394T304 424Z" horiz-adv-x="613" unicode="g"/>
			<glyph d="M137 714H279L226 457H228Q253 490 298 510T399 531Q472 531 511 495T550 393Q550 371 543 340L471 0H329L392 302Q393 309 397 326T401 361Q401 386 381 402T333 419Q278 419 240 380T187 270L130 0H-12Z" horiz-adv-x="601" unicode="h"/>
			<glyph d="M196 731Q229 731 252 707T276 651Q276 618 252 594T196 571Q163 571 139 594T116 651Q116 684 139 707T196 731ZM97 517H240L130 0H-13Z" horiz-adv-x="262" unicode="i"/>
			<glyph d="M200 731Q233 731 256 707T280 651Q280 618 256 594T200 571Q167 571 143 594T120 651Q120 684 143 707T200 731ZM101 517H243L130 -18Q117 -79 95 -114T36 -166T-62 -182Q-91 -182 -131 -177L-107 -63Q-93 -65 -67 -65Q-46 -65 -35 -58T-18 -33T-2 27Z" horiz-adv-x="266" unicode="j"/>
			<glyph d="M138 714H280L198 326L200 324L404 517H579L347 321L480 0H324L239 231L165 168L130 0H-12Z" horiz-adv-x="556" unicode="k"/>
			<glyph d="M139 714H281L129 0H-13Z" horiz-adv-x="261" unicode="l"/>
			<glyph d="M399 531Q451 531 483 507T524 441Q552 482 601 506T700 531Q768 531 812 495T856 400Q856 374 849 340L777 0H635L703 326Q707 343 707 363Q707 387 689 403T645 419Q597 419 560 378T512 278L454 0H311L378 325Q383 346 383 363Q383 388 365 403T321 419Q274 419 237 378T188 277L130 0H-12L96 517H232L216 444H218Q249 486 295 508T399 531Z" horiz-adv-x="907" unicode="m"/>
			<glyph d="M399 531Q472 531 511 495T550 393Q550 371 543 340L471 0H329L392 302Q393 309 397 328T401 361Q401 386 381 402T333 419Q278 419 240 380T187 270L130 0H-12L96 517H232L216 445H218Q287 531 399 531Z" horiz-adv-x="601" unicode="n"/>
			<glyph d="M310 531Q424 531 487 474T551 312Q551 223 515 148T411 30T250 -14Q137 -14 75 44T13 209Q13 298 50 371T154 488T310 531ZM305 424Q257 424 223 390T172 307T155 209Q155 159 182 126T257 93Q306 93 340 126T392 210T409 310Q409 366 382 395T305 424Z" horiz-adv-x="599" unicode="o"/>
			<glyph d="M377 531Q469 531 521 476T573 327Q573 240 541 161T446 34T292 -14Q242 -14 202 8T147 69H144L90 -182H-52L97 517H234L220 454L222 451Q244 489 284 510T377 531ZM329 424Q281 424 245 390T192 305T174 205Q174 152 200 122T276 93Q325 93 360 126T413 209T431 309Q431 359 404 391T329 424Z" horiz-adv-x="621" unicode="p"/>
			<glyph d="M280 531Q408 531 442 436H444L461 517H592L445 -182H303L350 41H348Q320 11 284 -1T202 -14Q113 -14 62 44T12 206Q12 287 43 362T135 484T280 531ZM309 424Q261 424 225 392T172 310T154 208Q154 152 181 122T259 93Q304 93 339 126T394 210T413 314Q413 363 385 393T309 424Z" horiz-adv-x="615" unicode="q"/>
			<glyph d="M391 531Q410 531 434 528L405 390Q367 399 345 399Q278 399 237 357T178 227L130 0H-12L96 517H231L210 426L209 424L212 422Q237 474 284 502T391 531Z" horiz-adv-x="389" unicode="r"/>
			<glyph d="M271 531Q379 531 431 491T484 371V366H352Q349 436 271 436Q230 436 207 423T185 385Q185 355 229 340L335 305Q397 284 427 249T457 162Q457 78 388 32T211 -14Q123 -14 57 25T-9 149V168H123V158Q123 129 136 115Q149 100 172 90T225 81Q267 81 291 97T315 143Q315 182 280 194Q248 206 195 222L169 230Q118 245 91 263T53 306T43 367Q43 417 72 454T154 511T271 531Z" horiz-adv-x="519" unicode="s"/>
			<glyph d="M168 674H310L278 517H380L358 422H257L205 170Q200 145 200 137Q200 103 245 103Q266 103 299 106L275 -4Q229 -9 187 -9Q120 -9 85 17T51 92Q51 113 58 144L116 422H23L45 517H136Z" horiz-adv-x="370" unicode="t"/>
			<glyph d="M95 517H237L177 229Q165 172 165 152Q165 128 184 113T233 98Q288 98 326 136T378 242L436 517H578L470 0H334L350 72H348Q279 -14 167 -14Q95 -14 56 21T17 122Q17 149 32 218Z" horiz-adv-x="601" unicode="u"/>
			<glyph d="M30 517H176L208 149H210L393 517H543L260 0H98Z" horiz-adv-x="519" unicode="v"/>
			<glyph d="M30 517H175L195 153H197L356 517H500L516 156H518L684 517H834L564 0H416L398 363H396L236 0H87Z" horiz-adv-x="815" unicode="w"/>
			<glyph d="M46 517H198L255 368L372 517H531L316 269L447 0H297L222 170L84 0H-77L163 277Z" horiz-adv-x="519" unicode="x"/>
			<glyph d="M21 517H167L212 147H214L393 517H543L216 -69Q190 -115 165 -139T105 -172T13 -182Q-26 -182 -63 -176L-39 -59Q2 -65 19 -65Q42 -65 56 -60T83 -40T113 5Z" horiz-adv-x="519" unicode="y"/>
			<glyph d="M69 517H503L481 412L156 107H441L418 0H-51L-29 105L295 410H46Z" horiz-adv-x="500" unicode="z"/>
			<glyph d="M341 813H464L441 701H385Q331 701 317 637L281 468Q272 426 241 395T159 358V355Q195 350 216 329T238 276Q238 259 233 236L203 89Q198 66 198 47Q198 12 241 12H294L271 -100H147Q105 -100 75 -69T46 7Q46 20 49 35L90 229Q92 238 92 247Q92 276 69 294T15 313L33 400Q75 402 105 427T144 490L184 681Q191 715 214 745T271 794T341 813Z" horiz-adv-x="365" unicode="{"/>
			<glyph d="M58 786H165V-214H58Z" horiz-adv-x="222" unicode="|"/>
			<glyph d="M100 813H227Q250 813 273 800T310 762T325 706Q325 695 323 683L280 476Q279 473 279 466Q279 439 300 420T356 400L338 313Q300 312 267 287T227 223L188 35Q177 -20 130 -60T30 -100H-93L-70 12H-17Q15 12 31 29T56 83L86 229Q98 288 129 315T211 355V358Q173 365 153 385T133 437Q133 456 140 487L171 639Q173 651 173 665Q173 701 127 701H77Z" horiz-adv-x="365" unicode="}"/>
			<glyph d="M476 344L516 251Q482 202 454 183T391 165Q344 165 279 200Q216 233 174 233Q148 233 127 215T90 161L50 254Q96 340 175 340Q201 340 233 329T316 294Q361 272 388 272Q410 272 429 287T476 344Z" horiz-adv-x="600" unicode="~"/>
			<glyph d="" horiz-adv-x="277" unicode=" "/>
			<glyph d="M171 539Q206 539 231 514T257 455Q257 420 231 395T172 370Q138 370 113 395T88 455Q88 488 113 513T171 539ZM110 317H180L155 11L114 -183H-37L4 9Z" horiz-adv-x="296" unicode="¡"/>
			<glyph d="M317 741H368L351 665Q426 654 467 609T509 493H375Q375 524 363 543T331 564L272 288Q301 288 322 309T353 370H487Q437 187 251 187L232 98H182L201 190Q125 202 83 251T41 388Q41 465 72 528T161 629T301 668ZM281 567Q230 558 203 506T177 390Q177 313 223 293Z" horiz-adv-x="503" unicode="¢"/>
			<glyph d="M336 731Q449 731 509 670T569 497V476H432V485Q432 553 408 583T336 614Q283 614 253 582T224 497Q224 475 229 443T242 396H382L366 311H251Q252 308 252 304Q252 249 245 225Q237 196 217 169T158 114L160 112Q196 128 242 128Q255 128 279 123T312 117Q364 105 381 105Q404 105 430 115T478 141L519 34Q477 7 438 -5T354 -17Q318 -17 252 2Q188 21 149 21Q116 21 91 13T31 -17L-10 78L-11 80L-10 81Q59 129 87 168T116 253Q116 289 111 311H15L33 396H97Q90 412 82 448T75 507Q75 608 150 669Q227 731 336 731Z" horiz-adv-x="556" unicode="£"/>
			<glyph d="M475 610L536 549L480 494Q503 469 514 431T525 351Q525 305 512 267T479 205L534 149L479 94L422 152Q398 129 360 115T279 102Q188 102 132 151L76 93L20 149L77 207Q29 264 29 349Q29 392 41 430T77 493L20 551L77 608L134 552Q158 573 199 585T280 598Q317 598 354 586T417 553ZM279 491Q226 491 191 450T156 349Q156 289 190 249T279 209Q332 209 365 250T398 351Q398 410 364 450T279 491Z" horiz-adv-x="556" unicode="¤"/>
			<glyph d="M65 714H230L289 403H291L480 714H645L428 403H521L501 308H362L341 278L329 233H486L466 138H311L282 0H130L159 138H4L23 230L24 233H179L188 278L180 308H39L59 400L60 403H153Z" horiz-adv-x="556" unicode="¥"/>
			<glyph d="M58 661H165V411H58ZM58 161H165V-89H58Z" horiz-adv-x="222" unicode="¦"/>
			<glyph d="M361 731Q447 731 505 688T563 567Q563 559 561 541H434V548Q434 582 414 603T359 624Q325 624 303 606T282 556Q282 533 306 508T360 463L452 397Q498 364 524 326T550 241Q550 179 511 138T419 84Q434 67 441 44T449 -3Q449 -59 417 -99T333 -161T222 -182Q127 -182 67 -133T8 7V17H135V8Q135 -28 157 -51T218 -75Q256 -75 281 -58T307 -5Q307 22 282 47T220 99L119 172Q78 201 53 239T29 320Q29 383 68 426T172 477Q153 502 146 518T140 561Q140 614 173 653T257 711T361 731ZM220 404Q195 404 175 385T156 341Q156 314 166 299T191 273T213 256L285 197Q292 192 304 180T329 161T354 154Q382 154 402 172T423 218Q423 245 408 263T376 296T352 316L289 369Q257 397 247 400T220 404Z" horiz-adv-x="593" unicode="§"/>
			<glyph d="M89 732Q122 732 144 710T166 655Q166 622 144 600T89 578Q56 578 34 600T12 655Q12 688 34 710T89 732ZM296 732Q329 732 351 710T373 655Q373 622 351 600T296 578Q263 578 241 600T219 655Q219 688 241 710T296 732Z" unicode="¨"/>
			<glyph d="M400 731Q502 731 590 684T731 552T784 357Q784 247 731 162T590 30T400 -17Q298 -17 210 30T69 162T16 357Q16 467 69 552T210 684T400 731ZM400 651Q322 651 257 613T155 508T118 357Q118 273 155 206T257 101T400 63Q477 63 541 101T644 206T682 357Q682 441 644 508T541 613T400 651ZM412 583Q483 583 533 542T593 428H515Q507 463 479 483T412 503Q356 503 325 464T295 361Q295 301 328 259T414 217Q456 217 483 238T515 295H596Q584 222 533 179T414 137Q350 137 301 166T226 246T199 359Q199 423 224 474T298 554T412 583Z" horiz-adv-x="800" unicode="©"/>
			<glyph d="M238 714Q304 714 346 696T388 627Q388 602 381 575L351 450Q346 432 346 408Q346 399 350 384H244V415Q227 396 199 385T145 375Q88 375 58 398T29 457Q29 560 158 576Q169 578 197 580Q243 584 264 590T286 614Q286 633 269 641T234 649Q210 649 191 638T168 609H73Q82 667 127 690T238 714ZM273 536Q260 530 245 527T217 523T196 521Q165 517 148 507T131 473Q131 458 145 449T178 440Q218 440 236 459T265 509Z" horiz-adv-x="344" unicode="ª"/>
			<glyph d="M230 463L204 340L94 272L171 187L149 83L148 81L21 218L49 348ZM426 463L400 340L290 272L367 187L346 83L345 81L217 218L245 348Z" horiz-adv-x="463" unicode="«"/>
			<glyph d="M407 732Q509 732 595 681T731 545T782 357Q782 255 731 169T595 32T407 -18Q305 -18 219 32T82 169T32 357Q32 459 82 545T219 681T407 732ZM407 607Q339 607 281 573T190 482T157 357Q157 289 190 231T281 140T407 107Q475 107 532 140T623 231T657 357Q657 425 623 482T532 573T407 607ZM407 482Q459 482 495 445T532 357Q532 305 495 268T407 232Q355 232 318 268T282 357Q282 409 318 445T407 482Z" horiz-adv-x="814" unicode="¬"/>
			<glyph d="M63 334H364L338 212H37Z" horiz-adv-x="428" unicode="­"/>
			<glyph d="M194 726Q235 726 269 706T322 652T342 576Q342 534 322 500T269 446T194 427Q153 427 119 446T66 500T47 576Q47 618 66 652T119 706T194 726ZM194 688Q148 688 117 656T87 576Q87 527 117 495T194 464Q241 464 271 495T302 576Q302 625 271 656T194 688ZM134 654H215Q235 654 247 642T260 612Q260 583 235 573Q249 569 253 558T258 528T264 501H220Q218 508 216 527Q215 541 211 548T198 555H178V501H134ZM178 617V591H201Q216 591 216 606Q216 617 201 617Z" horiz-adv-x="288" unicode="®"/>
			<glyph d="M49 694H354L340 619H35Z" unicode="¯"/>
			<glyph d="M230 714Q271 714 305 694T358 641T378 566Q378 525 358 491T305 437T230 418Q189 418 155 437T101 491T82 566Q82 607 101 641T155 694T230 714ZM230 654Q197 654 172 628T147 566Q147 530 172 504T230 478Q263 478 288 504T313 566Q313 602 288 628T230 654Z" horiz-adv-x="400" unicode="°"/>
			<glyph d="M247 506H354V375H553V268H354V137H247V268H48V375H247ZM48 107H553V0H48Z" horiz-adv-x="600" unicode="±"/>
			<glyph d="M243 714Q310 714 350 681T390 595Q390 505 279 450L198 410Q153 387 144 368H342L324 282H11Q18 353 47 398T138 474L228 519Q282 545 282 590Q282 607 269 619T236 631Q211 631 193 612T172 561H66Q74 632 121 673T243 714Z" horiz-adv-x="390" unicode="²"/>
			<glyph d="M238 714Q299 714 337 683T375 605Q375 535 294 509Q324 500 341 478T358 427Q358 358 307 315T178 273Q102 273 62 308T23 414H125Q125 388 141 373T185 358Q218 358 238 376T258 425Q258 445 244 456T203 468H168L184 543H222Q242 543 259 555T277 588Q277 608 263 620T227 632Q202 632 185 616T164 572H63Q74 640 119 677T238 714Z" horiz-adv-x="390" unicode="³"/>
			<glyph d="M222 731H374L234 589H134Z" unicode="´"/>
			<glyph d="M97 517H239L179 231Q167 173 167 150Q167 127 186 112T232 98Q287 98 325 134T377 230L438 517H580L472 0H336L352 72H350Q307 26 269 6T194 -14Q179 -14 159 -8T128 6L89 -182H-53Z" horiz-adv-x="603" unicode="µ"/>
			<glyph d="M345 714H634L449 -166H353L522 634H411L242 -166H146L256 353Q168 353 120 390T72 491Q72 543 99 597Q127 653 189 683T345 714Z" horiz-adv-x="600" unicode="¶"/>
			<glyph d="M128 372Q162 372 187 346T212 287Q212 253 186 228T129 203Q94 203 68 228T43 287Q43 322 68 347T128 372Z" horiz-adv-x="278" unicode="·"/>
			<glyph d="M115 0H164L125 -53L128 -55Q146 -48 163 -48Q199 -48 226 -66T253 -118Q253 -172 220 -194T136 -217Q92 -217 69 -212T12 -195L33 -147Q75 -165 117 -165Q157 -165 157 -132Q157 -100 117 -100Q95 -100 77 -107L56 -83Z" unicode="¸"/>
			<glyph d="M219 707H309L220 284H112L167 546H85L102 624Q192 624 219 707Z" horiz-adv-x="368" unicode="¹"/>
			<glyph d="M237 714Q315 714 357 680T400 576Q400 487 346 431T198 375Q121 375 79 409T37 514Q37 571 61 616T130 687T237 714ZM233 639Q203 639 181 619T149 570T139 514Q139 489 156 469T202 450Q233 450 255 470T287 520T298 575Q298 604 281 621T233 639Z" horiz-adv-x="356" unicode="º"/>
			<glyph d="M87 463L215 325L187 195L6 80L32 203L142 271L65 356ZM283 463L411 325L383 195L202 80L228 203L338 271L261 356Z" horiz-adv-x="463" unicode="»"/>
			<glyph d="M598 722H699L128 -22H25ZM218 703H308L219 280H111L166 542H84L101 620Q191 620 218 703ZM593 423H691L636 162H690L673 80H619L602 0H500L517 80H332L351 172ZM564 305L429 162H534Z" horiz-adv-x="761" unicode="¼"/>
			<glyph d="M598 722H699L128 -22H25ZM218 703H308L219 280H111L166 542H84L101 620Q191 620 218 703ZM624 432Q691 432 731 399T771 313Q771 223 660 168L579 128Q534 105 525 86H723L705 0H392Q399 71 428 116T519 192L609 237Q663 263 663 308Q663 325 650 337T617 349Q592 349 574 330T553 279H447Q455 350 502 391T624 432Z" horiz-adv-x="816" unicode="½"/>
			<glyph d="M669 722H770L199 -22H96ZM238 712Q299 712 337 681T375 603Q375 533 294 507Q324 498 341 476T358 425Q358 356 307 313T178 271Q102 271 62 306T23 412H125Q125 386 141 371T185 356Q218 356 238 374T258 423Q258 443 244 454T203 466H168L184 541H222Q242 541 259 553T277 586Q277 606 263 618T227 630Q202 630 185 614T164 570H63Q74 638 119 675T238 712ZM664 423H762L707 162H761L744 80H690L673 0H571L588 80H403L422 172ZM635 305L500 162H605Z" horiz-adv-x="832" unicode="¾"/>
			<glyph d="M319 543Q354 543 379 518T405 459Q405 424 379 399T320 374Q286 374 261 399T236 459Q236 492 261 517T319 543ZM222 315H354Q344 241 313 193Q282 147 201 105Q118 63 118 -1Q118 -37 142 -58T205 -79Q252 -79 283 -46T323 44H465Q458 -70 383 -133T187 -196Q88 -196 28 -146T-31 -11Q-31 49 3 95T118 185Q169 213 193 242T222 315Z" horiz-adv-x="574" unicode="¿"/>
			<glyph d="M345 714H506L625 0H469L446 159H179L89 0H-77ZM395 560L241 276H432L397 560ZM271 921H423L501 779H401Z" horiz-adv-x="685" unicode="À"/>
			<glyph d="M345 714H506L625 0H469L446 159H179L89 0H-77ZM395 560L241 276H432L397 560ZM448 921H600L460 779H360Z" horiz-adv-x="685" unicode="Á"/>
			<glyph d="M345 714H506L625 0H469L446 159H179L89 0H-77ZM395 560L241 276H432L397 560ZM395 921H521L604 779H504L453 860L367 779H258Z" horiz-adv-x="685" unicode="Â"/>
			<glyph d="M345 714H506L625 0H469L446 159H179L89 0H-77ZM395 560L241 276H432L397 560ZM376 911Q406 911 451 894Q494 876 519 876Q537 876 547 884T562 911H626Q615 853 587 825T514 797Q480 797 434 814Q389 831 368 831Q333 831 322 789H259Q266 842 298 876T376 911Z" horiz-adv-x="685" unicode="Ã"/>
			<glyph d="M345 714H506L625 0H469L446 159H179L89 0H-77ZM395 560L241 276H432L397 560ZM339 920Q372 920 394 898T416 843Q416 810 394 788T339 766Q306 766 284 788T262 843Q262 876 284 898T339 920ZM546 920Q579 920 601 898T623 843Q623 810 601 788T546 766Q513 766 491 788T469 843Q469 876 491 898T546 920Z" horiz-adv-x="685" unicode="Ä"/>
			<glyph d="M345 714H506L625 0H469L446 159H179L89 0H-77ZM395 560L241 276H432L397 560ZM444 979Q495 979 530 944T566 859Q566 806 532 773T444 740Q389 740 355 773T322 859Q322 910 357 944T444 979ZM444 926Q415 926 398 907T382 859Q382 829 398 810T444 792Q473 792 490 810T507 859Q507 889 490 907T444 926Z" horiz-adv-x="685" unicode="Å"/>
			<glyph d="M410 714H1021L993 582H664L631 429H939L913 307H605L567 132H906L878 0H381L414 154H194L85 0H-91ZM486 582L267 271H439L506 582Z" horiz-adv-x="981" unicode="Æ"/>
			<glyph d="M427 731Q512 731 577 700T677 611T713 476V466H556Q555 531 520 565T428 599Q355 599 302 556T221 444T194 299Q194 215 236 165T356 115Q417 115 464 155T524 257H681Q635 116 556 49T355 -17Q334 -17 324 -16L292 -52L294 -54Q309 -47 333 -47Q369 -47 391 -67T413 -120Q413 -165 377 -191T277 -217Q247 -217 223 -212T168 -195L192 -147Q232 -165 269 -165Q292 -165 305 -156T318 -131Q318 -117 307 -107T278 -98Q258 -98 237 -106L218 -82L274 -10Q159 11 98 90T37 299Q37 414 84 513T219 671T427 731Z" horiz-adv-x="741" unicode="Ç"/>
			<glyph d="M146 714H691L664 582H276L244 429H603L577 307H218L181 132H575L547 0H-4ZM247 921H399L477 779H377Z" horiz-adv-x="667" unicode="È"/>
			<glyph d="M146 714H691L664 582H276L244 429H603L577 307H218L181 132H575L547 0H-4ZM444 921H596L456 779H356Z" horiz-adv-x="667" unicode="É"/>
			<glyph d="M146 714H691L664 582H276L244 429H603L577 307H218L181 132H575L547 0H-4ZM381 921H507L590 779H490L439 860L353 779H244Z" horiz-adv-x="667" unicode="Ê"/>
			<glyph d="M146 714H691L664 582H276L244 429H603L577 307H218L181 132H575L547 0H-4ZM325 920Q358 920 380 898T402 843Q402 810 380 788T325 766Q292 766 270 788T248 843Q248 876 270 898T325 920ZM532 920Q565 920 587 898T609 843Q609 810 587 788T532 766Q499 766 477 788T455 843Q455 876 477 898T532 920Z" horiz-adv-x="667" unicode="Ë"/>
			<glyph d="M147 714H305L154 0H-4ZM84 921H236L314 779H214Z" horiz-adv-x="296" unicode="Ì"/>
			<glyph d="M147 714H305L154 0H-4ZM245 921H397L257 779H157Z" horiz-adv-x="296" unicode="Í"/>
			<glyph d="M147 714H305L154 0H-4ZM200 921H326L409 779H309L258 860L172 779H63Z" horiz-adv-x="296" unicode="Î"/>
			<glyph d="M147 714H305L154 0H-4ZM146 920Q179 920 201 898T223 843Q223 810 201 788T146 766Q113 766 91 788T69 843Q69 876 91 898T146 920ZM353 920Q386 920 408 898T430 843Q430 810 408 788T353 766Q320 766 298 788T276 843Q276 876 298 898T353 920Z" horiz-adv-x="296" unicode="Ï"/>
			<glyph d="M147 714H409Q550 714 629 642T708 436Q708 298 655 199T510 50T300 0H-4L63 319H-17L4 418H85ZM277 582L242 418H406L385 319H220L181 132H306Q376 132 432 166T519 264T551 409Q551 495 510 538T398 582Z" horiz-adv-x="741" unicode="Ð"/>
			<glyph d="M147 714H309L503 206H505L607 714H751L600 0H443L247 501H245L143 0H-4ZM386 911Q416 911 461 894Q504 876 529 876Q547 876 557 884T572 911H636Q625 853 597 825T524 797Q490 797 444 814Q399 831 378 831Q343 831 332 789H269Q276 842 308 876T386 911Z" horiz-adv-x="741" unicode="Ñ"/>
			<glyph d="M417 731Q566 731 650 650T734 424Q734 306 688 205T554 44T344 -17Q194 -17 110 66T27 299Q27 422 77 520T217 675T417 731ZM417 599Q347 599 294 557T212 447T184 299Q184 215 226 165T346 115Q418 115 470 159T550 272T577 414Q577 500 536 549T417 599ZM279 921H431L509 779H409Z" horiz-adv-x="768" unicode="Ò"/>
			<glyph d="M417 731Q566 731 650 650T734 424Q734 306 688 205T554 44T344 -17Q194 -17 110 66T27 299Q27 422 77 520T217 675T417 731ZM417 599Q347 599 294 557T212 447T184 299Q184 215 226 165T346 115Q418 115 470 159T550 272T577 414Q577 500 536 549T417 599ZM476 921H628L488 779H388Z" horiz-adv-x="768" unicode="Ó"/>
			<glyph d="M417 731Q566 731 650 650T734 424Q734 306 688 205T554 44T344 -17Q194 -17 110 66T27 299Q27 422 77 520T217 675T417 731ZM417 599Q347 599 294 557T212 447T184 299Q184 215 226 165T346 115Q418 115 470 159T550 272T577 414Q577 500 536 549T417 599ZM413 921H539L622 779H522L471 860L385 779H276Z" horiz-adv-x="768" unicode="Ô"/>
			<glyph d="M417 731Q566 731 650 650T734 424Q734 306 688 205T554 44T344 -17Q194 -17 110 66T27 299Q27 422 77 520T217 675T417 731ZM417 599Q347 599 294 557T212 447T184 299Q184 215 226 165T346 115Q418 115 470 159T550 272T577 414Q577 500 536 549T417 599ZM394 911Q424 911 469 894Q512 876 537 876Q555 876 565 884T580 911H644Q633 853 605 825T532 797Q498 797 452 814Q407 831 386 831Q351 831 340 789H277Q284 842 316 876T394 911Z" horiz-adv-x="768" unicode="Õ"/>
			<glyph d="M417 731Q566 731 650 650T734 424Q734 306 688 205T554 44T344 -17Q194 -17 110 66T27 299Q27 422 77 520T217 675T417 731ZM417 599Q347 599 294 557T212 447T184 299Q184 215 226 165T346 115Q418 115 470 159T550 272T577 414Q577 500 536 549T417 599ZM357 920Q390 920 412 898T434 843Q434 810 412 788T357 766Q324 766 302 788T280 843Q280 876 302 898T357 920ZM564 920Q597 920 619 898T641 843Q641 810 619 788T564 766Q531 766 509 788T487 843Q487 876 509 898T564 920Z" horiz-adv-x="768" unicode="Ö"/>
			<glyph d="M125 489L284 329L444 489L520 413L359 253L520 93L444 17L284 178L123 17L47 93L208 253L48 413Z" horiz-adv-x="600" unicode="×"/>
			<glyph d="M750 741L791 696L689 602Q734 529 734 424Q734 308 688 207T555 44T344 -17Q195 -17 112 66L11 -28L-29 16L74 112Q27 185 27 299Q27 425 78 523T219 676T417 731Q568 731 651 649ZM417 599Q347 599 294 557T212 447T184 299Q184 259 195 224L540 545Q498 599 417 599ZM567 489L223 170Q266 115 346 115Q417 115 469 159T549 272T577 414Q577 456 567 489Z" horiz-adv-x="768" unicode="Ø"/>
			<glyph d="M140 714H297L216 329Q215 322 205 276T195 211Q195 171 229 143T329 115Q407 115 444 150T498 265L593 714H750L667 316Q643 203 607 132T502 22T319 -17Q190 -17 114 39T38 195Q38 218 41 238T53 301ZM280 921H432L510 779H410Z" horiz-adv-x="741" unicode="Ù"/>
			<glyph d="M140 714H297L216 329Q215 322 205 276T195 211Q195 171 229 143T329 115Q407 115 444 150T498 265L593 714H750L667 316Q643 203 607 132T502 22T319 -17Q190 -17 114 39T38 195Q38 218 41 238T53 301ZM477 921H629L489 779H389Z" horiz-adv-x="741" unicode="Ú"/>
			<glyph d="M140 714H297L216 329Q215 322 205 276T195 211Q195 171 229 143T329 115Q407 115 444 150T498 265L593 714H750L667 316Q643 203 607 132T502 22T319 -17Q190 -17 114 39T38 195Q38 218 41 238T53 301ZM414 921H540L623 779H523L472 860L386 779H277Z" horiz-adv-x="741" unicode="Û"/>
			<glyph d="M140 714H297L216 329Q215 322 205 276T195 211Q195 171 229 143T329 115Q407 115 444 150T498 265L593 714H750L667 316Q643 203 607 132T502 22T319 -17Q190 -17 114 39T38 195Q38 218 41 238T53 301ZM358 920Q391 920 413 898T435 843Q435 810 413 788T358 766Q325 766 303 788T281 843Q281 876 303 898T358 920ZM565 920Q598 920 620 898T642 843Q642 810 620 788T565 766Q532 766 510 788T488 843Q488 876 510 898T565 920Z" horiz-adv-x="741" unicode="Ü"/>
			<glyph d="M61 714H222L329 410L551 714H736L388 270L333 0H175L232 277ZM426 921H578L438 779H338Z" horiz-adv-x="648" unicode="Ý"/>
			<glyph d="M145 714H302L282 617H413Q660 617 660 409Q660 332 621 275T519 189T386 160H187L153 0H-4ZM257 495L213 282H377Q437 282 470 314T503 406Q503 450 474 472T391 495Z" horiz-adv-x="667" unicode="Þ"/>
			<glyph d="M349 731Q443 731 503 685T564 560Q564 498 526 454T425 395V393Q478 380 506 342T535 247Q535 169 498 109T398 18T258 -14Q224 -14 186 -6L209 105Q237 103 252 103Q314 103 353 144T393 245Q393 293 367 319T282 346H262L281 436H298Q422 436 422 544Q422 575 400 594T347 614Q304 614 281 595T249 547T227 458L130 0H-12L98 520Q120 628 182 679T349 731Z" horiz-adv-x="593" unicode="ß"/>
			<glyph d="M306 531Q411 531 465 496T520 395Q520 358 509 308L471 136Q468 123 468 114Q468 102 475 98T499 94H503L483 2Q455 -10 417 -10Q370 -10 347 6T325 57Q296 23 253 4T161 -14Q84 -14 38 23T-7 122Q-7 196 47 242T200 299Q291 308 326 313Q388 322 388 373Q388 403 363 419T298 436Q256 436 228 416T193 360H60Q72 444 134 487T306 531ZM360 248Q344 238 320 232T244 223Q187 218 161 198T135 140Q135 113 155 97T212 81Q257 81 285 100T329 154T360 248ZM161 731H313L391 589H291Z" horiz-adv-x="574" unicode="à"/>
			<glyph d="M306 531Q411 531 465 496T520 395Q520 358 509 308L471 136Q468 123 468 114Q468 102 475 98T499 94H503L483 2Q455 -10 417 -10Q370 -10 347 6T325 57Q296 23 253 4T161 -14Q84 -14 38 23T-7 122Q-7 196 47 242T200 299Q291 308 326 313Q388 322 388 373Q388 403 363 419T298 436Q256 436 228 416T193 360H60Q72 444 134 487T306 531ZM360 248Q344 238 320 232T244 223Q187 218 161 198T135 140Q135 113 155 97T212 81Q257 81 285 100T329 154T360 248ZM350 731H502L362 589H262Z" horiz-adv-x="574" unicode="á"/>
			<glyph d="M306 531Q411 531 465 496T520 395Q520 358 509 308L471 136Q468 123 468 114Q468 102 475 98T499 94H503L483 2Q455 -10 417 -10Q370 -10 347 6T325 57Q296 23 253 4T161 -14Q84 -14 38 23T-7 122Q-7 196 47 242T200 299Q291 308 326 313Q388 322 388 373Q388 403 363 419T298 436Q256 436 228 416T193 360H60Q72 444 134 487T306 531ZM360 248Q344 238 320 232T244 223Q187 218 161 198T135 140Q135 113 155 97T212 81Q257 81 285 100T329 154T360 248ZM291 731H417L500 589H400L349 670L263 589H154Z" horiz-adv-x="574" unicode="â"/>
			<glyph d="M306 531Q411 531 465 496T520 395Q520 358 509 308L471 136Q468 123 468 114Q468 102 475 98T499 94H503L483 2Q455 -10 417 -10Q370 -10 347 6T325 57Q296 23 253 4T161 -14Q84 -14 38 23T-7 122Q-7 196 47 242T200 299Q291 308 326 313Q388 322 388 373Q388 403 363 419T298 436Q256 436 228 416T193 360H60Q72 444 134 487T306 531ZM360 248Q344 238 320 232T244 223Q187 218 161 198T135 140Q135 113 155 97T212 81Q257 81 285 100T329 154T360 248ZM272 721Q302 721 347 704Q390 686 415 686Q433 686 443 694T458 721H522Q511 663 483 635T410 607Q376 607 330 624Q285 641 264 641Q229 641 218 599H155Q162 652 194 686T272 721Z" horiz-adv-x="574" unicode="ã"/>
			<glyph d="M306 531Q411 531 465 496T520 395Q520 358 509 308L471 136Q468 123 468 114Q468 102 475 98T499 94H503L483 2Q455 -10 417 -10Q370 -10 347 6T325 57Q296 23 253 4T161 -14Q84 -14 38 23T-7 122Q-7 196 47 242T200 299Q291 308 326 313Q388 322 388 373Q388 403 363 419T298 436Q256 436 228 416T193 360H60Q72 444 134 487T306 531ZM360 248Q344 238 320 232T244 223Q187 218 161 198T135 140Q135 113 155 97T212 81Q257 81 285 100T329 154T360 248ZM236 732Q269 732 291 710T313 655Q313 622 291 600T236 578Q203 578 181 600T159 655Q159 688 181 710T236 732ZM443 732Q476 732 498 710T520 655Q520 622 498 600T443 578Q410 578 388 600T366 655Q366 688 388 710T443 732Z" horiz-adv-x="574" unicode="ä"/>
			<glyph d="M306 531Q411 531 465 496T520 395Q520 358 509 308L471 136Q468 123 468 114Q468 102 475 98T499 94H503L483 2Q455 -10 417 -10Q370 -10 347 6T325 57Q296 23 253 4T161 -14Q84 -14 38 23T-7 122Q-7 196 47 242T200 299Q291 308 326 313Q388 322 388 373Q388 403 363 419T298 436Q256 436 228 416T193 360H60Q72 444 134 487T306 531ZM360 248Q344 238 320 232T244 223Q187 218 161 198T135 140Q135 113 155 97T212 81Q257 81 285 100T329 154T360 248ZM343 804Q394 804 429 769T465 684Q465 631 431 598T343 565Q288 565 254 598T221 684Q221 735 256 769T343 804ZM343 751Q314 751 297 732T281 684Q281 654 297 635T343 617Q372 617 389 635T406 684Q406 714 389 732T343 751Z" horiz-adv-x="574" unicode="å"/>
			<glyph d="M325 531Q384 531 429 513T493 463Q520 495 563 513T664 531Q768 531 820 471T873 297Q873 274 868 224H496L493 208Q491 200 491 183Q491 134 522 107T601 81Q684 81 710 160H852Q818 72 753 29T591 -14Q525 -14 477 10T403 82Q371 34 316 10T191 -14Q100 -14 52 22T4 125Q4 209 61 252T248 301Q344 306 372 321Q402 337 402 370Q402 436 321 436Q219 436 209 360H72Q89 446 150 488T325 531ZM646 436Q596 436 558 402T510 314H746V318Q746 378 722 407T646 436ZM378 249Q359 238 327 231T244 220Q195 216 170 195T146 143Q146 113 166 97T228 81Q287 81 320 110T369 199Q371 208 373 225T378 249Z" horiz-adv-x="914" unicode="æ"/>
			<glyph d="M305 531Q415 531 475 479T537 338H395Q395 382 372 403T300 424Q250 424 217 390T170 306T155 206Q155 151 180 122T253 93Q293 93 323 117T368 189H510Q441 -14 240 -14H231L198 -52L200 -54Q216 -47 238 -47Q275 -47 297 -66T319 -120Q319 -165 283 -191T184 -217Q152 -217 126 -211T74 -195L98 -147Q141 -165 175 -165Q198 -165 211 -156T224 -131Q224 -117 213 -107T184 -98Q165 -98 143 -106L124 -82L182 -9Q99 5 56 60T13 208Q13 297 48 370T149 487T305 531Z" horiz-adv-x="559" unicode="ç"/>
			<glyph d="M298 531Q412 531 475 471T539 305Q539 266 531 224H150L149 197Q149 146 179 119T263 93Q295 93 320 110T369 164H511Q476 71 412 28T244 -14Q136 -14 74 46T13 212Q13 293 47 366T146 485T298 531ZM305 424Q205 424 165 314H402V318Q402 371 378 397T305 424ZM161 731H313L391 589H291Z" horiz-adv-x="580" unicode="è"/>
			<glyph d="M298 531Q412 531 475 471T539 305Q539 266 531 224H150L149 197Q149 146 179 119T263 93Q295 93 320 110T369 164H511Q476 71 412 28T244 -14Q136 -14 74 46T13 212Q13 293 47 366T146 485T298 531ZM305 424Q205 424 165 314H402V318Q402 371 378 397T305 424ZM350 731H502L362 589H262Z" horiz-adv-x="580" unicode="é"/>
			<glyph d="M298 531Q412 531 475 471T539 305Q539 266 531 224H150L149 197Q149 146 179 119T263 93Q295 93 320 110T369 164H511Q476 71 412 28T244 -14Q136 -14 74 46T13 212Q13 293 47 366T146 485T298 531ZM305 424Q205 424 165 314H402V318Q402 371 378 397T305 424ZM291 731H417L500 589H400L349 670L263 589H154Z" horiz-adv-x="580" unicode="ê"/>
			<glyph d="M298 531Q412 531 475 471T539 305Q539 266 531 224H150L149 197Q149 146 179 119T263 93Q295 93 320 110T369 164H511Q476 71 412 28T244 -14Q136 -14 74 46T13 212Q13 293 47 366T146 485T298 531ZM305 424Q205 424 165 314H402V318Q402 371 378 397T305 424ZM236 732Q269 732 291 710T313 655Q313 622 291 600T236 578Q203 578 181 600T159 655Q159 688 181 710T236 732ZM443 732Q476 732 498 710T520 655Q520 622 498 600T443 578Q410 578 388 600T366 655Q366 688 388 710T443 732Z" horiz-adv-x="580" unicode="ë"/>
			<glyph d="M97 517H240L130 0H-13ZM19 731H171L249 589H149Z" horiz-adv-x="262" unicode="ì"/>
			<glyph d="M97 517H240L130 0H-13ZM199 731H351L211 589H111Z" horiz-adv-x="262" unicode="í"/>
			<glyph d="M97 517H240L130 0H-13ZM145 731H271L354 589H254L203 670L117 589H8Z" horiz-adv-x="262" unicode="î"/>
			<glyph d="M97 517H240L130 0H-13ZM89 732Q122 732 144 710T166 655Q166 622 144 600T89 578Q56 578 34 600T12 655Q12 688 34 710T89 732ZM296 732Q329 732 351 710T373 655Q373 622 351 600T296 578Q263 578 241 600T219 655Q219 688 241 710T296 732Z" horiz-adv-x="262" unicode="ï"/>
			<glyph d="M301 743Q359 721 394 695L494 743L532 686L451 647Q552 546 552 369Q552 269 520 182T420 40T249 -14Q136 -14 74 44T12 209Q12 285 47 353T147 464T293 506Q340 506 374 489T427 441L430 442Q424 485 402 525T347 595L236 542L198 599L284 639Q239 666 217 673ZM303 411Q258 411 224 380T172 302T154 209Q154 155 181 124T256 93Q304 93 338 126T390 208T408 305Q408 356 381 383T303 411Z" horiz-adv-x="600" unicode="ð"/>
			<glyph d="M399 531Q472 531 511 495T550 393Q550 371 543 340L471 0H329L392 302Q393 309 397 328T401 361Q401 386 381 402T333 419Q278 419 240 380T187 270L130 0H-12L96 517H232L216 445H218Q287 531 399 531ZM275 721Q305 721 350 704Q393 686 418 686Q436 686 446 694T461 721H525Q514 663 486 635T413 607Q379 607 333 624Q288 641 267 641Q232 641 221 599H158Q165 652 197 686T275 721Z" horiz-adv-x="601" unicode="ñ"/>
			<glyph d="M310 531Q424 531 487 474T551 312Q551 223 515 148T411 30T250 -14Q137 -14 75 44T13 209Q13 298 50 371T154 488T310 531ZM305 424Q257 424 223 390T172 307T155 209Q155 159 182 126T257 93Q306 93 340 126T392 210T409 310Q409 366 382 395T305 424ZM167 731H319L397 589H297Z" horiz-adv-x="599" unicode="ò"/>
			<glyph d="M310 531Q424 531 487 474T551 312Q551 223 515 148T411 30T250 -14Q137 -14 75 44T13 209Q13 298 50 371T154 488T310 531ZM305 424Q257 424 223 390T172 307T155 209Q155 159 182 126T257 93Q306 93 340 126T392 210T409 310Q409 366 382 395T305 424ZM356 731H508L368 589H268Z" horiz-adv-x="599" unicode="ó"/>
			<glyph d="M310 531Q424 531 487 474T551 312Q551 223 515 148T411 30T250 -14Q137 -14 75 44T13 209Q13 298 50 371T154 488T310 531ZM305 424Q257 424 223 390T172 307T155 209Q155 159 182 126T257 93Q306 93 340 126T392 210T409 310Q409 366 382 395T305 424ZM297 731H423L506 589H406L355 670L269 589H160Z" horiz-adv-x="599" unicode="ô"/>
			<glyph d="M310 531Q424 531 487 474T551 312Q551 223 515 148T411 30T250 -14Q137 -14 75 44T13 209Q13 298 50 371T154 488T310 531ZM305 424Q257 424 223 390T172 307T155 209Q155 159 182 126T257 93Q306 93 340 126T392 210T409 310Q409 366 382 395T305 424ZM278 721Q308 721 353 704Q396 686 421 686Q439 686 449 694T464 721H528Q517 663 489 635T416 607Q382 607 336 624Q291 641 270 641Q235 641 224 599H161Q168 652 200 686T278 721Z" horiz-adv-x="599" unicode="õ"/>
			<glyph d="M310 531Q424 531 487 474T551 312Q551 223 515 148T411 30T250 -14Q137 -14 75 44T13 209Q13 298 50 371T154 488T310 531ZM305 424Q257 424 223 390T172 307T155 209Q155 159 182 126T257 93Q306 93 340 126T392 210T409 310Q409 366 382 395T305 424ZM242 732Q275 732 297 710T319 655Q319 622 297 600T242 578Q209 578 187 600T165 655Q165 688 187 710T242 732ZM449 732Q482 732 504 710T526 655Q526 622 504 600T449 578Q416 578 394 600T372 655Q372 688 394 710T449 732Z" horiz-adv-x="599" unicode="ö"/>
			<glyph d="M284 545Q318 545 343 519T368 460Q368 428 343 402T285 376Q250 376 224 400T199 460Q199 495 224 520T284 545ZM31 306H536V199H31ZM284 129Q318 129 343 104T368 45Q368 13 342 -13T285 -40Q251 -40 225 -14T199 45Q199 79 224 104T284 129Z" horiz-adv-x="600" unicode="÷"/>
			<glyph d="M552 539L582 506L514 444Q551 390 551 312Q551 223 515 148T411 30T250 -14Q138 -14 78 43L5 -24L-24 9L49 76Q30 105 21 136T13 209Q13 295 48 368T151 486T311 531Q419 531 484 477ZM305 424Q257 424 223 390T172 307T155 209Q155 190 159 177L388 388Q362 424 305 424ZM406 344L177 134Q206 93 257 93Q306 93 340 126T392 210T409 310Q409 331 406 344Z" horiz-adv-x="599" unicode="ø"/>
			<glyph d="M95 517H237L177 229Q165 172 165 152Q165 128 184 113T233 98Q288 98 326 136T378 242L436 517H578L470 0H334L350 72H348Q279 -14 167 -14Q95 -14 56 21T17 122Q17 149 32 218ZM178 731H330L408 589H308Z" horiz-adv-x="601" unicode="ù"/>
			<glyph d="M95 517H237L177 229Q165 172 165 152Q165 128 184 113T233 98Q288 98 326 136T378 242L436 517H578L470 0H334L350 72H348Q279 -14 167 -14Q95 -14 56 21T17 122Q17 149 32 218ZM367 731H519L379 589H279Z" horiz-adv-x="601" unicode="ú"/>
			<glyph d="M95 517H237L177 229Q165 172 165 152Q165 128 184 113T233 98Q288 98 326 136T378 242L436 517H578L470 0H334L350 72H348Q279 -14 167 -14Q95 -14 56 21T17 122Q17 149 32 218ZM308 731H434L517 589H417L366 670L280 589H171Z" horiz-adv-x="601" unicode="û"/>
			<glyph d="M95 517H237L177 229Q165 172 165 152Q165 128 184 113T233 98Q288 98 326 136T378 242L436 517H578L470 0H334L350 72H348Q279 -14 167 -14Q95 -14 56 21T17 122Q17 149 32 218ZM253 732Q286 732 308 710T330 655Q330 622 308 600T253 578Q220 578 198 600T176 655Q176 688 198 710T253 732ZM460 732Q493 732 515 710T537 655Q537 622 515 600T460 578Q427 578 405 600T383 655Q383 688 405 710T460 732Z" horiz-adv-x="601" unicode="ü"/>
			<glyph d="M21 517H167L212 147H214L393 517H543L216 -69Q190 -115 165 -139T105 -172T13 -182Q-26 -182 -63 -176L-39 -59Q2 -65 19 -65Q42 -65 56 -60T83 -40T113 5ZM310 731H462L322 589H222Z" horiz-adv-x="519" unicode="ý"/>
			<glyph d="M130 714H272L215 452H217Q238 490 277 510T370 531Q462 531 514 476T566 327Q566 233 530 150Q494 70 431 28T286 -14Q235 -14 195 8T139 69H137L83 -182H-59ZM322 424Q273 424 238 390T185 305T167 205Q167 152 194 122T269 93Q318 93 353 126T406 209T424 309Q424 361 396 392T322 424Z" horiz-adv-x="611" unicode="þ"/>
			<glyph d="M21 517H167L212 147H214L393 517H543L216 -69Q190 -115 165 -139T105 -172T13 -182Q-26 -182 -63 -176L-39 -59Q2 -65 19 -65Q42 -65 56 -60T83 -40T113 5ZM196 732Q229 732 251 710T273 655Q273 622 251 600T196 578Q163 578 141 600T119 655Q119 688 141 710T196 732ZM403 732Q436 732 458 710T480 655Q480 622 458 600T403 578Q370 578 348 600T326 655Q326 688 348 710T403 732Z" horiz-adv-x="519" unicode="ÿ"/>
			<glyph d="M97 517H240L130 0H-13Z" horiz-adv-x="262" unicode="ı"/>
			<glyph d="M146 714H304L246 440L450 580L424 465L222 326L181 132H527L499 0H-4L38 200L-44 144L-23 255L62 313Z" horiz-adv-x="574" unicode="Ł"/>
			<glyph d="M139 714H281L242 528L325 591L299 470L216 407L129 0H-13L46 278L-25 224L1 346L72 400Z" horiz-adv-x="261" unicode="ł"/>
			<glyph d="M427 731Q483 731 530 711T608 649L622 714H1129L1101 582H740L707 429H1037L1011 307H682L644 132H1012L984 0H482L494 56L492 58Q461 22 411 2T310 -17Q223 -17 161 23T68 132T37 288Q37 406 84 507T219 669T427 731ZM425 599Q349 599 297 552T219 433T194 289Q194 211 229 163T340 115Q405 115 451 148T519 239Q534 279 550 361T566 482Q566 540 525 569T425 599Z" horiz-adv-x="1111" unicode="Œ"/>
			<glyph d="M311 531Q366 531 413 510T485 447Q510 484 561 507T662 531Q771 531 831 471T892 304Q892 276 882 224H505Q502 208 502 190Q502 148 529 120T604 93Q646 93 676 110T718 161H860Q834 76 763 31T601 -14Q537 -14 492 4T417 72Q387 28 337 7T231 -14Q114 -14 62 53T10 220Q10 297 49 369T157 486T311 531ZM305 424Q254 424 219 386T168 297T152 201Q152 154 176 123T249 93Q299 93 332 131T380 225T395 331Q395 370 372 397T305 424ZM661 424Q603 424 571 395T519 314H753Q755 328 755 336Q755 371 729 397T661 424Z" horiz-adv-x="926" unicode="œ"/>
			<glyph d="M366 731Q493 731 563 671T634 501H485V508Q485 558 452 583T357 609Q300 609 266 585T232 521Q232 487 267 463T374 425Q455 408 502 382T571 317T593 219Q593 142 553 88T446 9T301 -17Q5 -17 5 237H154V229Q154 165 192 135T308 105Q366 105 405 132T444 206Q444 240 414 262T303 306Q235 324 189 345T113 405T83 509Q83 583 122 633T226 707T366 731ZM242 921H342L392 838L479 921H588L451 779H325Z" horiz-adv-x="648" unicode="Š"/>
			<glyph d="M271 531Q379 531 431 491T484 371V366H352Q349 436 271 436Q230 436 207 423T185 385Q185 355 229 340L335 305Q397 284 427 249T457 162Q457 78 388 32T211 -14Q123 -14 57 25T-9 149V168H123V158Q123 129 136 115Q149 100 172 90T225 81Q267 81 291 97T315 143Q315 182 280 194Q248 206 195 222L169 230Q118 245 91 263T53 306T43 367Q43 417 72 454T154 511T271 531ZM145 731H245L295 648L382 731H491L354 589H228Z" horiz-adv-x="519" unicode="š"/>
			<glyph d="M61 714H222L329 410L551 714H736L388 270L333 0H175L232 277ZM307 920Q340 920 362 898T384 843Q384 810 362 788T307 766Q274 766 252 788T230 843Q230 876 252 898T307 920ZM514 920Q547 920 569 898T591 843Q591 810 569 788T514 766Q481 766 459 788T437 843Q437 876 459 898T514 920Z" horiz-adv-x="648" unicode="Ÿ"/>
			<glyph d="M124 714H688L662 588L181 132H584L558 0H-43L-16 130L461 582H95ZM261 921H361L411 838L498 921H607L470 779H344Z" horiz-adv-x="648" unicode="Ž"/>
			<glyph d="M69 517H503L481 412L156 107H441L418 0H-51L-29 105L295 410H46ZM147 731H247L297 648L384 731H493L356 589H230Z" horiz-adv-x="500" unicode="ž"/>
			<glyph d="M466 731Q482 731 500 729T526 726L550 723L522 620Q513 621 501 622T480 624Q440 624 423 604T396 546L366 432H470L444 337H338L253 23Q235 -42 210 -83T144 -147T38 -170Q23 -170 -3 -168Q-23 -166 -31 -166L-3 -62L33 -63Q60 -63 76 -47T98 -14T115 41L196 337H100L128 432H223L262 579Q302 731 466 731Z" horiz-adv-x="556" unicode="ƒ"/>
			<glyph d="M146 731H272L355 589H255L204 670L118 589H9Z" unicode="ˆ"/>
			<glyph d="M31 731H131L181 648L268 731H377L240 589H114Z" unicode="ˇ"/>
			<glyph d="M49 694H354L340 619H35Z" unicode="ˉ"/>
			<glyph d="M38 731H103Q106 699 131 681T197 664Q238 664 264 679T311 731H377Q335 589 188 589Q121 589 80 626T38 731Z" unicode="˘"/>
			<glyph d="M192 920Q225 920 247 898T269 843Q269 810 247 788T192 766Q159 766 137 788T115 843Q115 876 137 898T192 920Z" unicode="˙"/>
			<glyph d="M195 804Q246 804 281 769T317 684Q317 631 283 598T195 565Q140 565 106 598T73 684Q73 735 108 769T195 804ZM195 751Q166 751 149 732T133 684Q133 654 149 635T195 617Q224 617 241 635T258 684Q258 714 241 732T195 751Z" unicode="˚"/>
			<glyph d="M157 0H222Q155 -39 130 -67T105 -123Q105 -138 116 -147T144 -157Q160 -157 173 -150T202 -127L248 -152Q221 -187 189 -202T116 -217Q79 -217 44 -199T9 -128Q9 -99 40 -63T157 0Z" unicode="˛"/>
			<glyph d="M130 721Q160 721 205 704Q248 686 273 686Q291 686 301 694T316 721H380Q369 663 341 635T268 607Q234 607 188 624Q143 641 122 641Q87 641 76 599H13Q20 652 52 686T130 721Z" unicode="˜"/>
			<glyph d="M82 731H234L94 589H-6ZM282 731H434L294 589H194Z" unicode="˝"/>
			<glyph d="M345 714H506L625 0H-77ZM395 560L161 132H452L397 560Z" horiz-adv-x="685" unicode="Δ"/>
			<glyph d="M422 721Q502 721 568 688T672 595T711 454Q711 384 681 318T596 206T473 149L466 114H647L623 0H336L379 207Q433 215 475 249T541 333T565 438Q565 511 524 555T410 600Q346 600 294 564T213 470T184 350Q184 293 210 254T291 207L247 0H-34L-10 114H164L173 153Q108 174 74 227T40 352Q40 455 92 539T233 672T422 721Z" horiz-adv-x="759" unicode="Ω"/>
			<glyph d="M97 517H239L179 231Q167 173 167 150Q167 127 186 112T232 98Q287 98 325 134T377 230L438 517H580L472 0H336L352 72H350Q307 26 269 6T194 -14Q179 -14 159 -8T128 6L89 -182H-53Z" horiz-adv-x="603" unicode="μ"/>
			<glyph d="M50 517H707L684 410H574L517 141Q514 123 514 121Q514 94 546 94Q560 94 582 98L562 6Q521 -14 465 -14Q416 -14 390 9T364 72Q364 86 374 136L432 410H273L186 0H44L131 410H27Z" horiz-adv-x="694" unicode="π"/>
			<glyph d="M63 334H563L537 212H37Z" horiz-adv-x="627" unicode="–"/>
			<glyph d="M63 334H803L777 214L776 212H37Z" horiz-adv-x="867" unicode="—"/>
			<glyph d="M295 712L280 641Q245 640 213 616T174 567Q179 568 188 568Q218 568 243 544T268 488Q268 450 243 426T185 402Q146 402 119 433T93 516Q93 559 119 603T192 677T295 712Z" horiz-adv-x="278" unicode="‘"/>
			<glyph d="M197 721Q236 721 262 689T289 607Q289 564 262 520T189 445T87 411L102 482Q137 483 169 507T208 556Q203 555 194 555Q164 555 139 578T114 635Q114 673 138 697T197 721Z" horiz-adv-x="278" unicode="’"/>
			<glyph d="M72 155Q111 155 137 123T164 41Q164 -2 137 -46T64 -120T-38 -155L-23 -84Q12 -83 44 -59T83 -10Q78 -11 69 -11Q39 -11 14 12T-11 69Q-11 107 13 131T72 155Z" horiz-adv-x="278" unicode="‚"/>
			<glyph d="M283 712L268 641Q233 640 201 616T162 567Q167 568 176 568Q206 568 231 544T256 488Q256 450 231 426T173 402Q134 402 107 433T81 516Q81 559 107 603T180 677T283 712ZM494 712L479 641Q444 640 412 616T373 567Q378 568 387 568Q417 568 442 544T467 488Q467 450 442 426T384 402Q345 402 318 433T292 516Q292 559 318 603T391 677T494 712Z" horiz-adv-x="481" unicode="“"/>
			<glyph d="M185 721Q224 721 250 689T277 607Q277 564 250 520T177 445T75 411L90 482Q125 483 157 507T196 556Q191 555 182 555Q152 555 127 578T102 635Q102 673 126 697T185 721ZM396 721Q435 721 461 689T488 607Q488 564 461 520T388 445T286 411L301 482Q336 483 368 507T407 556Q402 555 393 555Q363 555 338 578T313 635Q313 673 337 697T396 721Z" horiz-adv-x="481" unicode="”"/>
			<glyph d="M72 155Q111 155 137 123T164 41Q164 -2 137 -46T64 -120T-38 -155L-23 -84Q12 -83 44 -59T83 -10Q78 -11 69 -11Q39 -11 14 12T-11 69Q-11 107 13 131T72 155ZM283 155Q322 155 348 123T375 41Q375 -2 348 -46T275 -120T173 -155L188 -84Q223 -83 255 -59T294 -10Q289 -11 280 -11Q250 -11 225 12T200 69Q200 107 224 131T283 155Z" horiz-adv-x="488" unicode="„"/>
			<glyph d="M308 714H440L399 517H587L562 400H374L255 -166H124L242 400H54L79 517H267Z" horiz-adv-x="593" unicode="†"/>
			<glyph d="M309 714H441L400 517H588L563 400H375L321 144H509L485 27H297L256 -166H124L165 26H-23L1 144H189L243 400H57L80 515L81 517H268Z" horiz-adv-x="593" unicode="‡"/>
			<glyph d="M250 535Q324 535 376 482Q429 430 429 357Q429 310 405 269T340 203T250 178Q174 178 123 231Q72 285 72 357Q72 430 124 482Q174 535 250 535Z" horiz-adv-x="500" unicode="•"/>
			<glyph d="M112 161Q146 161 171 136T196 76Q196 43 171 17T113 -8Q78 -8 52 16T27 76Q27 111 52 136T112 161ZM445 161Q479 161 504 136T529 76Q529 43 504 17T446 -8Q411 -8 385 16T360 76Q360 111 385 136T445 161ZM778 161Q812 161 837 136T862 76Q862 43 837 17T779 -8Q744 -8 718 16T693 76Q693 111 718 136T778 161Z" horiz-adv-x="1000" unicode="…"/>
			<glyph d="M614 722H699L162 -22H76ZM242 714Q303 714 337 681T372 589Q372 532 352 482T293 401T195 370Q134 370 102 406T70 504Q70 558 90 606T149 684T242 714ZM240 649Q213 649 195 622T168 559T160 497Q160 472 170 453T202 435Q229 435 247 463T273 529T282 595Q282 617 271 633T240 649ZM576 330Q637 330 671 297T706 205Q706 148 686 98T627 17T529 -14Q468 -14 436 22T404 120Q404 174 424 222T483 300T576 330ZM927 330Q988 330 1022 297T1057 205Q1057 148 1037 98T978 17T880 -14Q819 -14 787 22T755 120Q755 174 775 222T834 300T927 330ZM574 265Q547 265 529 238T502 175T494 113Q494 88 504 69T536 51Q563 51 581 79T607 145T616 211Q616 233 605 249T574 265ZM925 265Q898 265 880 238T853 175T845 113Q845 88 855 69T887 51Q914 51 932 79T958 145T967 211Q967 233 956 249T925 265Z" horiz-adv-x="1088" unicode="‰"/>
			<glyph d="M226 463L200 340L90 272L167 187L145 80L17 218L45 348Z" unicode="‹"/>
			<glyph d="M76 463L204 325L176 195L-5 80L21 203L131 271L54 356Z" unicode="›"/>
			<glyph d="M248 722H333L-79 -22H-166Z" horiz-adv-x="167" unicode="⁄"/>
			<glyph d="M272 714Q333 714 369 680T405 578Q405 505 381 435T308 319T186 273Q125 273 89 306T54 409Q54 482 77 552T150 668T272 714ZM260 628Q222 628 198 590T165 502T155 417Q155 387 165 373T199 359Q236 359 260 397T294 485T304 570Q304 628 260 628Z" horiz-adv-x="390" unicode="⁰"/>
			<glyph d="M277 707H375L320 446H374L357 364H303L286 284H184L201 364H16L35 456ZM248 589L113 446H218Z" horiz-adv-x="390" unicode="⁴"/>
			<glyph d="M145 700H401L383 617H207L180 550Q205 564 245 564Q297 564 332 529T367 438Q367 361 316 314T186 268Q115 268 76 300T33 395H133Q139 353 191 353Q221 353 242 374T263 428Q263 458 247 474T205 490Q168 490 148 461H57Z" horiz-adv-x="390" unicode="⁵"/>
			<glyph d="M265 714Q389 714 393 604H298Q298 618 287 627T256 637Q221 637 200 610T165 539Q177 550 198 557T238 565Q298 565 333 529T369 436Q369 402 356 372T320 319Q268 273 198 273Q121 273 81 316T41 445Q41 510 68 572T146 674T265 714ZM205 490Q176 490 157 468T138 417Q138 391 154 373T195 355Q226 355 246 376T266 429Q266 458 250 474T205 490Z" horiz-adv-x="390" unicode="⁶"/>
			<glyph d="M106 700H406L390 626Q320 566 264 471Q207 378 181 277H65Q90 370 147 464Q202 556 264 614H88Z" horiz-adv-x="390" unicode="⁷"/>
			<glyph d="M249 714Q308 714 345 681T383 600Q383 568 359 540T299 505V504Q328 497 347 468T366 408Q366 368 342 337T278 289T192 272Q123 272 77 307T31 397Q31 440 58 468T139 509V511Q114 523 100 544T86 589Q86 645 131 679T249 714ZM235 638Q210 638 195 624T181 588Q181 568 196 555T234 543Q256 543 271 556T286 590Q286 612 272 625T235 638ZM201 470Q171 470 152 453T134 408Q134 384 152 368T196 352Q227 352 245 368T264 413Q264 439 246 454T201 470Z" horiz-adv-x="390" unicode="⁸"/>
			<glyph d="M232 714Q309 714 349 670T389 542Q389 477 362 414T284 312T165 273Q41 273 37 383H132Q132 369 142 359T174 350Q209 350 229 376T265 448Q253 437 232 429T192 422Q132 422 96 457T61 551Q61 585 73 615T110 668Q162 714 232 714ZM235 632Q204 632 184 611T164 558Q164 530 180 513T225 497Q254 497 273 518T292 570Q292 596 275 614T235 632Z" horiz-adv-x="390" unicode="⁹"/>
			<glyph d="M405 722Q503 722 584 659L524 545Q468 602 407 602Q301 602 247 455H491L456 384H229L224 339H437L402 268H224Q236 103 360 103Q429 103 525 170L499 22Q415 -16 340 -16Q225 -16 159 56T84 268H9L44 339H85L91 384H34L69 455H106Q141 580 221 651T405 722Z" horiz-adv-x="556" unicode="€"/>
			<glyph d="M371 721Q426 721 463 684T500 595Q500 514 439 436T241 266Q227 209 220 175T213 129Q213 109 224 96T257 84Q278 84 299 92T356 124L390 45Q343 13 303 0T217 -14Q154 -14 116 18T79 104Q79 116 84 143L91 177L29 133L-7 209L115 292L165 529Q184 620 240 670T371 721ZM356 633Q339 633 326 615T306 566L266 384Q327 437 357 491T388 589Q388 608 379 620T356 633Z" horiz-adv-x="500" unicode="ℓ"/>
			<glyph d="M181 716Q228 716 257 696T286 635V628H222V629Q222 646 211 656T178 667Q161 667 146 660T132 638Q132 627 143 621T187 609Q229 600 252 585T275 538Q275 494 237 469T147 444Q99 444 68 469T38 541H102Q102 518 116 505T153 493Q175 493 191 502T208 527Q208 538 196 544T151 559Q102 571 83 584T65 627Q65 670 99 693T181 716ZM346 710H429L458 539L559 710H646L591 450H531L570 634H569L463 450H419L392 634H390L351 450H291Z" horiz-adv-x="586" unicode="℠"/>
			<glyph d="M70 710H282L271 660H197L153 450H89L133 660H59ZM315 710H398L427 539L528 710H616L561 450H500L540 634H538L432 450H389L361 634H360L321 450H260Z" horiz-adv-x="556" unicode="™"/>
			<glyph d="M422 721Q502 721 568 688T672 595T711 454Q711 384 681 318T596 206T473 149L466 114H647L623 0H336L379 207Q433 215 475 249T541 333T565 438Q565 511 524 555T410 600Q346 600 294 564T213 470T184 350Q184 293 210 254T291 207L247 0H-34L-10 114H164L173 153Q108 174 74 227T40 352Q40 455 92 539T233 672T422 721Z" horiz-adv-x="759" unicode="Ω"/>
			<glyph d="M384 714Q486 714 563 666T683 536T726 349H193V111Q273 33 384 33Q468 33 529 72T639 192L685 164Q622 66 553 26T384 -14Q284 -14 207 33T87 163T44 349Q44 449 85 532T203 665T384 714ZM382 668Q275 668 193 589V398H577V589Q493 668 382 668Z" horiz-adv-x="770" unicode="℮"/>
			<glyph d="M598 722H699L128 -22H25ZM218 703H308L219 280H111L166 542H84L101 620Q191 620 218 703ZM629 433Q688 433 725 400T763 319Q763 287 739 259T679 224V223Q708 216 727 187T746 127Q746 87 722 56T658 8T572 -9Q503 -9 457 26T411 116Q411 159 438 187T519 228V230Q494 242 480 263T466 308Q466 364 511 398T629 433ZM615 357Q590 357 575 343T561 307Q561 287 576 274T614 262Q636 262 651 275T666 309Q666 331 652 344T615 357ZM581 189Q551 189 532 172T514 127Q514 103 532 87T576 71Q607 71 625 87T644 132Q644 158 626 173T581 189Z" horiz-adv-x="810" unicode="⅛"/>
			<glyph d="M669 722H770L199 -22H96ZM238 712Q299 712 337 681T375 603Q375 533 294 507Q324 498 341 476T358 425Q358 356 307 313T178 271Q102 271 62 306T23 412H125Q125 386 141 371T185 356Q218 356 238 374T258 423Q258 443 244 454T203 466H168L184 541H222Q242 541 259 553T277 586Q277 606 263 618T227 630Q202 630 185 614T164 570H63Q74 638 119 675T238 712ZM700 433Q759 433 796 400T834 319Q834 287 810 259T750 224V223Q779 216 798 187T817 127Q817 87 793 56T729 8T643 -9Q574 -9 528 26T482 116Q482 159 509 187T590 228V230Q565 242 551 263T537 308Q537 364 582 398T700 433ZM686 357Q661 357 646 343T632 307Q632 287 647 274T685 262Q707 262 722 275T737 309Q737 331 723 344T686 357ZM652 189Q622 189 603 172T585 127Q585 103 603 87T647 71Q678 71 696 87T715 132Q715 158 697 173T652 189Z" horiz-adv-x="857" unicode="⅜"/>
			<glyph d="M676 722H777L206 -22H103ZM146 703H402L384 620H208L181 553Q206 567 246 567Q298 567 333 532T368 441Q368 364 317 317T187 271Q116 271 77 303T34 398H134Q140 356 192 356Q222 356 243 377T264 431Q264 461 248 477T206 493Q169 493 149 464H58ZM707 433Q766 433 803 400T841 319Q841 287 817 259T757 224V223Q786 216 805 187T824 127Q824 87 800 56T736 8T650 -9Q581 -9 535 26T489 116Q489 159 516 187T597 228V230Q572 242 558 263T544 308Q544 364 589 398T707 433ZM693 357Q668 357 653 343T639 307Q639 287 654 274T692 262Q714 262 729 275T744 309Q744 331 730 344T693 357ZM659 189Q629 189 610 172T592 127Q592 103 610 87T654 71Q685 71 703 87T722 132Q722 158 704 173T659 189Z" horiz-adv-x="864" unicode="⅝"/>
			<glyph d="M584 722H685L114 -22H11ZM106 703H406L390 629Q320 569 264 474Q207 381 181 280H65Q90 373 147 467Q202 559 264 617H88ZM615 433Q674 433 711 400T749 319Q749 287 725 259T665 224V223Q694 216 713 187T732 127Q732 87 708 56T644 8T558 -9Q489 -9 443 26T397 116Q397 159 424 187T505 228V230Q480 242 466 263T452 308Q452 364 497 398T615 433ZM601 357Q576 357 561 343T547 307Q547 287 562 274T600 262Q622 262 637 275T652 309Q652 331 638 344T601 357ZM567 189Q537 189 518 172T500 127Q500 103 518 87T562 71Q593 71 611 87T630 132Q630 158 612 173T567 189Z" horiz-adv-x="772" unicode="⅞"/>
			<glyph d="M233 720Q331 720 393 669T482 536T509 357Q509 200 452 92T251 -15Q183 -15 131 14T50 97T22 217Q22 280 50 331T128 412T242 441Q280 441 312 429T376 394V408Q376 491 344 555T239 619Q205 619 176 605T118 566L48 646Q94 684 136 702T233 720ZM263 344Q209 344 179 305T149 211Q149 158 175 120T253 83Q295 83 322 111T362 182T375 266V290Q353 315 323 329T263 344Z" horiz-adv-x="572" unicode="∂"/>
			<glyph d="M345 714H506L625 0H-77ZM395 560L161 132H452L397 560Z" horiz-adv-x="685" unicode="∆"/>
			<glyph d="M55 786H693V-214H561V660H188V-214H55Z" horiz-adv-x="749" unicode="∏"/>
			<glyph d="M39 786H634V660H216L479 293L199 -88H646V-214H27V-104L322 292L39 676Z" horiz-adv-x="673" unicode="∑"/>
			<glyph d="M31 306H536V199H31Z" horiz-adv-x="600" unicode="−"/>
			<glyph d="M248 722H333L-79 -22H-166Z" horiz-adv-x="167" unicode="∕"/>
			<glyph d="M128 372Q162 372 187 346T212 287Q212 253 186 228T129 203Q94 203 68 228T43 287Q43 322 68 347T128 372Z" horiz-adv-x="278" unicode="∙"/>
			<glyph d="M417 786H556L338 -214H217L70 89L16 63L-33 168L138 246L256 -9Z" horiz-adv-x="570" unicode="√"/>
			<glyph d="M199 463Q261 463 303 432T395 341Q439 400 483 431T590 463Q646 463 687 437T751 368T773 269Q773 213 751 167T687 95T589 69Q531 69 485 99T395 185Q345 128 304 99T203 71Q146 71 103 96T38 166T16 268Q16 324 38 368T101 437T199 463ZM587 349Q554 349 524 325T462 264Q494 227 524 205T590 184Q625 184 645 207T665 266Q665 302 644 325T587 349ZM200 348Q166 348 145 324T125 266Q125 230 146 207T202 185Q237 185 269 208T327 264Q255 348 200 348Z" horiz-adv-x="848" unicode="∞"/>
			<glyph d="M400 784Q446 784 482 761T519 702Q519 674 502 656T458 638Q436 638 422 651T401 695Q392 725 379 725Q369 725 364 716T360 686Q360 653 363 615Q364 601 365 580T366 534V39Q366 -92 325 -152T200 -213Q151 -213 114 -188T77 -124Q77 -98 96 -82T140 -67Q162 -67 175 -80T195 -124Q201 -154 215 -154Q224 -154 229 -147T234 -116Q234 -82 231 -49Q230 -37 229 -20T228 19V502Q228 587 238 645T285 744T400 784Z" horiz-adv-x="628" unicode="∫"/>
			<glyph d="M462 474H548Q542 413 520 369T452 301Q420 284 388 284Q363 284 334 292T262 316Q222 331 193 339T141 347Q116 347 101 329T83 286H-2Q5 369 44 420T163 471Q190 471 217 464T284 443T350 422T404 415Q430 415 444 431T462 474ZM153 249Q178 249 205 241T276 219Q324 203 351 195T404 188Q428 188 442 205T461 248H547Q540 167 502 111T391 56Q365 56 333 65T257 90Q213 105 187 112T140 120Q116 120 101 102T82 59H-3Q0 107 17 150T69 221T153 249Z" horiz-adv-x="593" unicode="≈"/>
			<glyph d="M371 604L484 547L434 447H539V318H370L318 215H539V85H253L175 -72L61 -15L112 85H6V215H176L228 318H6V447H292Z" horiz-adv-x="593" unicode="≠"/>
			<glyph d="M539 576V441L186 347L539 249V114L6 282V411ZM6 86H539V-43H6Z" horiz-adv-x="593" unicode="≤"/>
			<glyph d="M6 576L539 411V282L6 114V249L360 347L6 441ZM6 86H539V-43H6Z" horiz-adv-x="593" unicode="≥"/>
			<glyph d="M237 747H355L541 356L355 -35H236L52 356ZM296 617L184 356L296 94L408 356Z" horiz-adv-x="593" unicode="◊"/>
			<glyph d="M566 886Q711 886 833 814T1028 619T1100 352Q1100 207 1028 84T833 -110T566 -182Q421 -182 298 -110T104 84T32 352Q32 497 104 619T298 814T566 886ZM566 708Q469 708 387 660T258 530T210 352Q210 255 258 173T387 44T566 -4Q663 -4 744 44T874 173T922 352Q922 449 874 530T744 660T566 708ZM566 530Q614 530 655 506T720 441T744 352Q744 304 720 263T655 198T566 174Q518 174 477 198T412 263T388 352Q388 400 412 441T477 506T566 530Z" horiz-adv-x="1132" unicode="◎"/>
			<glyph d="M215 714Q261 714 286 691T311 626Q311 570 279 532T191 494Q145 494 120 518T95 584Q95 639 128 676T215 714ZM427 714H483L265 344H207ZM213 668Q186 668 170 641T155 585Q155 566 165 553T194 541Q221 541 237 567T253 624Q253 668 213 668ZM501 564Q547 564 572 541T597 476Q597 420 565 382T477 344Q431 344 406 368T381 434Q381 489 414 526T501 564ZM499 518Q472 518 456 491T441 435Q441 416 451 403T480 391Q507 391 523 417T539 474Q539 518 499 518ZM364 293Q376 293 402 289L393 248L375 249Q358 249 352 243T342 219L340 210H381L373 172H332L296 0H238L274 172H240L248 210H283L286 225Q295 262 311 277T364 293ZM514 293Q526 293 552 289L543 248L525 249Q508 249 502 243T492 219L490 210H531L523 172H482L446 0H388L424 172H390L398 210H433L436 225Q445 262 461 277T514 293ZM120 212Q166 212 191 189T216 124Q216 68 184 30T96 -8Q50 -8 25 16T0 82Q0 137 33 174T120 212ZM118 166Q91 166 75 139T60 83Q60 64 70 51T99 39Q126 39 142 65T158 122Q158 166 118 166Z" horiz-adv-x="587" unicode=""/>
			<glyph d="M598 722H699L128 -22H25ZM218 703H308L219 280H111L166 542H84L101 620Q191 620 218 703ZM899 433Q1023 433 1027 323H932Q932 337 921 346T890 356Q855 356 834 329T799 258Q811 269 832 276T872 284Q932 284 967 248T1003 155Q1003 121 990 91T954 38Q902 -8 832 -8Q755 -8 715 35T675 164Q675 229 702 291T780 393T899 433ZM589 423H679L590 0H482L537 262H455L472 340Q562 340 589 423ZM839 209Q810 209 791 187T772 136Q772 110 788 92T829 74Q860 74 880 95T900 148Q900 177 884 193T839 209Z" horiz-adv-x="1064" unicode=""/>
			<glyph d="M669 722H770L199 -22H96ZM238 712Q299 712 337 681T375 603Q375 533 294 507Q324 498 341 476T358 425Q358 356 307 313T178 271Q102 271 62 306T23 412H125Q125 386 141 371T185 356Q218 356 238 374T258 423Q258 443 244 454T203 466H168L184 541H222Q242 541 259 553T277 586Q277 606 263 618T227 630Q202 630 185 614T164 570H63Q74 638 119 675T238 712ZM970 433Q1094 433 1098 323H1003Q1003 337 992 346T961 356Q926 356 905 329T870 258Q882 269 903 276T943 284Q1003 284 1038 248T1074 155Q1074 121 1061 91T1025 38Q973 -8 903 -8Q826 -8 786 35T746 164Q746 229 773 291T851 393T970 433ZM660 423H750L661 0H553L608 262H526L543 340Q633 340 660 423ZM910 209Q881 209 862 187T843 136Q843 110 859 92T900 74Q931 74 951 95T971 148Q971 177 955 193T910 209Z" horiz-adv-x="1135" unicode=""/>
			<glyph d="M676 722H777L206 -22H103ZM146 703H402L384 620H208L181 553Q206 567 246 567Q298 567 333 532T368 441Q368 364 317 317T187 271Q116 271 77 303T34 398H134Q140 356 192 356Q222 356 243 377T264 431Q264 461 248 477T206 493Q169 493 149 464H58ZM977 433Q1101 433 1105 323H1010Q1010 337 999 346T968 356Q933 356 912 329T877 258Q889 269 910 276T950 284Q1010 284 1045 248T1081 155Q1081 121 1068 91T1032 38Q980 -8 910 -8Q833 -8 793 35T753 164Q753 229 780 291T858 393T977 433ZM667 423H757L668 0H560L615 262H533L550 340Q640 340 667 423ZM917 209Q888 209 869 187T850 136Q850 110 866 92T907 74Q938 74 958 95T978 148Q978 177 962 193T917 209Z" horiz-adv-x="1142" unicode=""/>
			<glyph d="M584 722H685L114 -22H11ZM106 703H406L390 629Q320 569 264 474Q207 381 181 280H65Q90 373 147 467Q202 559 264 617H88ZM886 433Q1010 433 1014 323H919Q919 337 908 346T877 356Q842 356 821 329T786 258Q798 269 819 276T859 284Q919 284 954 248T990 155Q990 121 977 91T941 38Q889 -8 819 -8Q742 -8 702 35T662 164Q662 229 689 291T767 393T886 433ZM576 423H666L577 0H469L524 262H442L459 340Q549 340 576 423ZM826 209Q797 209 778 187T759 136Q759 110 775 92T816 74Q847 74 867 95T887 148Q887 177 871 193T826 209Z" horiz-adv-x="1051" unicode=""/>
			<glyph d="M674 722H775L204 -22H101ZM232 712Q309 712 349 668T389 540Q389 475 362 412T284 310T165 271Q41 271 37 381H132Q132 367 142 357T174 348Q209 348 229 374T265 446Q253 435 232 427T192 420Q132 420 96 455T61 549Q61 583 73 613T110 666Q162 712 232 712ZM235 630Q204 630 184 609T164 556Q164 528 180 511T225 495Q254 495 273 516T292 568Q292 594 275 612T235 630ZM975 433Q1099 433 1103 323H1008Q1008 337 997 346T966 356Q931 356 910 329T875 258Q887 269 908 276T948 284Q1008 284 1043 248T1079 155Q1079 121 1066 91T1030 38Q978 -8 908 -8Q831 -8 791 35T751 164Q751 229 778 291T856 393T975 433ZM665 423H755L666 0H558L613 262H531L548 340Q638 340 665 423ZM915 209Q886 209 867 187T848 136Q848 110 864 92T905 74Q936 74 956 95T976 148Q976 177 960 193T915 209Z" horiz-adv-x="1140" unicode=""/>
			<glyph d="M834 722H935L364 -22H261ZM218 703H308L219 280H111L166 542H84L101 620Q191 620 218 703ZM454 703H544L455 280H347L402 542H320L337 620Q427 620 454 703ZM1135 433Q1259 433 1263 323H1168Q1168 337 1157 346T1126 356Q1091 356 1070 329T1035 258Q1047 269 1068 276T1108 284Q1168 284 1203 248T1239 155Q1239 121 1226 91T1190 38Q1138 -8 1068 -8Q991 -8 951 35T911 164Q911 229 938 291T1016 393T1135 433ZM825 423H915L826 0H718L773 262H691L708 340Q798 340 825 423ZM1075 209Q1046 209 1027 187T1008 136Q1008 110 1024 92T1065 74Q1096 74 1116 95T1136 148Q1136 177 1120 193T1075 209Z" horiz-adv-x="1300" unicode=""/>
			<glyph d="M936 722H1037L466 -22H363ZM505 712Q566 712 604 681T642 603Q642 533 561 507Q591 498 608 476T625 425Q625 356 574 313T445 271Q369 271 329 306T290 412H392Q392 386 408 371T452 356Q485 356 505 374T525 423Q525 443 511 454T470 466H435L451 541H489Q509 541 526 553T544 586Q544 606 530 618T494 630Q469 630 452 614T431 570H330Q341 638 386 675T505 712ZM218 703H308L219 280H111L166 542H84L101 620Q191 620 218 703ZM1237 433Q1361 433 1365 323H1270Q1270 337 1259 346T1228 356Q1193 356 1172 329T1137 258Q1149 269 1170 276T1210 284Q1270 284 1305 248T1341 155Q1341 121 1328 91T1292 38Q1240 -8 1170 -8Q1093 -8 1053 35T1013 164Q1013 229 1040 291T1118 393T1237 433ZM927 423H1017L928 0H820L875 262H793L810 340Q900 340 927 423ZM1177 209Q1148 209 1129 187T1110 136Q1110 110 1126 92T1167 74Q1198 74 1218 95T1238 148Q1238 177 1222 193T1177 209Z" horiz-adv-x="1402" unicode=""/>
			<glyph d="M926 722H1027L456 -22H353ZM218 703H308L219 280H111L166 542H84L101 620Q191 620 218 703ZM398 703H654L636 620H460L433 553Q458 567 498 567Q550 567 585 532T620 441Q620 364 569 317T439 271Q368 271 329 303T286 398H386Q392 356 444 356Q474 356 495 377T516 431Q516 461 500 477T458 493Q421 493 401 464H310ZM1227 433Q1351 433 1355 323H1260Q1260 337 1249 346T1218 356Q1183 356 1162 329T1127 258Q1139 269 1160 276T1200 284Q1260 284 1295 248T1331 155Q1331 121 1318 91T1282 38Q1230 -8 1160 -8Q1083 -8 1043 35T1003 164Q1003 229 1030 291T1108 393T1227 433ZM917 423H1007L918 0H810L865 262H783L800 340Q890 340 917 423ZM1167 209Q1138 209 1119 187T1100 136Q1100 110 1116 92T1157 74Q1188 74 1208 95T1228 148Q1228 177 1212 193T1167 209Z" horiz-adv-x="1392" unicode=""/>
			<glyph d="M128 372Q162 372 187 346T212 287Q212 253 186 228T129 203Q94 203 68 228T43 287Q43 322 68 347T128 372Z" horiz-adv-x="278" unicode=""/>
			<glyph d="M150 714H301L259 520L154 214H84L109 519Z" horiz-adv-x="296" unicode=""/>
			<glyph d="M92 161Q126 161 151 136T176 76Q176 43 151 17T93 -8Q58 -8 32 16T7 76Q7 111 32 136T92 161Z" horiz-adv-x="296" unicode=""/>
			<glyph d="M240 714Q281 714 315 694T368 640T388 566Q388 526 368 492T315 438T240 418Q199 418 165 438T111 492T92 566Q92 606 111 640T165 694T240 714ZM240 654Q207 654 182 627T157 566Q157 532 182 505T240 478Q273 478 298 505T323 566Q323 601 298 627T240 654Z" horiz-adv-x="400" unicode=""/>
			<glyph d="M327 714Q412 714 472 670L507 714H605L524 610Q561 544 561 449Q561 327 516 216Q471 106 393 46T218 -14Q132 -14 76 34L38 -14H-68L25 104Q-4 167 -4 255Q-4 372 38 478Q82 589 156 651T327 714ZM316 597Q262 597 223 544T160 396Q139 312 138 247L390 566Q364 597 316 597ZM419 475L157 139Q180 103 236 103Q290 103 330 154T395 298T419 471Z" horiz-adv-x="556" unicode=""/>
			<glyph d="M243 503Q260 503 278 500T306 496L290 422Q266 426 249 426Q229 426 220 415T206 382L202 363H271L257 296H188L125 0H26L89 296H29L43 363H104L110 391Q120 439 139 463T183 495T243 503ZM898 373Q915 373 931 369L911 276Q895 280 876 280Q825 280 794 249T753 165L719 0H619L696 363H791L776 295H777Q794 330 827 351T898 373ZM444 368Q526 368 571 328T616 214Q616 151 590 99T516 16T401 -14Q320 -14 276 27T232 142Q232 204 258 256T332 338T444 368ZM441 293Q407 293 382 269T345 211T333 142Q333 107 352 84T405 61Q440 61 465 84T503 143T516 213Q516 252 496 272T441 293Z" horiz-adv-x="936" unicode=""/>
			<glyph d="M209 714H353L258 572H161Z" unicode=""/>
			<glyph d="M130 911Q150 911 166 906T209 892Q225 886 242 881T273 876Q292 876 301 884T316 911H380Q368 852 340 824T268 797Q246 797 227 802T182 816Q162 824 148 827T122 831Q87 831 76 789H13Q20 841 52 876T130 911Z" unicode=""/>
			<glyph d="M49 884H354L340 809H35Z" unicode=""/>
			<glyph d="M38 921H103Q106 889 131 871T197 854Q238 854 264 869T311 921H377Q334 779 188 779Q121 779 80 816T38 921Z" unicode=""/>
			<glyph d="M82 921H234L94 779H-6ZM282 921H434L294 779H194Z" unicode=""/>
			<glyph d="M196 973Q246 973 279 940T313 859Q313 811 279 778T196 745Q147 745 113 777T79 859Q79 907 113 940T196 973ZM195 922Q169 922 152 904T135 859Q135 831 152 813T196 796Q223 796 240 813T257 859Q257 887 240 904T195 922Z" unicode=""/>
			<glyph d="M117 470H217L194 363H267L253 296H180L144 127Q138 99 138 93Q138 82 145 77T172 73Q189 73 206 75L190 -2Q166 -6 128 -6Q81 -6 57 12T33 65Q33 77 38 101L80 296H20L34 363H94ZM449 368Q531 368 576 328T621 214Q621 151 595 99T521 16T406 -14Q325 -14 281 27T237 142Q237 204 263 256T337 338T449 368ZM446 293Q412 293 387 269T350 211T338 142Q338 107 357 84T410 61Q445 61 470 84T508 143T521 213Q521 252 501 272T446 293Z" horiz-adv-x="631" unicode=""/>
			<glyph d="M88 920Q121 920 143 898T165 843Q165 810 143 788T88 766Q55 766 33 788T11 843Q11 876 33 898T88 920ZM295 920Q328 920 350 898T372 843Q372 810 350 788T295 766Q262 766 240 788T218 843Q218 876 240 898T295 920Z" unicode=""/>
			<glyph d="M222 921H374L234 779H134Z" unicode=""/>
			<glyph d="M34 921H186L264 779H164Z" unicode=""/>
			<glyph d="M146 921H272L355 779H255L204 860L118 779H9Z" unicode=""/>
			<glyph d="M31 921H131L182 839L268 921H377L240 779H114Z" unicode=""/>
			<glyph d="M212 700Q260 700 287 674T314 601Q314 542 280 500T188 459Q140 459 113 485T86 561Q86 621 122 660T212 700ZM443 700H499L262 297H204ZM211 650Q180 650 162 624T144 563Q144 538 155 524T190 510Q222 510 239 536T256 596Q256 622 245 636T211 650ZM510 538Q558 538 585 512T612 439Q612 380 578 338T486 297Q438 297 411 323T384 399Q384 459 420 498T510 538ZM509 488Q478 488 460 462T442 401Q442 376 453 362T488 348Q520 348 537 374T554 434Q554 460 543 474T509 488ZM116 238Q164 238 191 212T218 139Q218 80 184 38T92 -3Q44 -3 17 23T-10 99Q-10 159 26 198T116 238ZM264 230H427L418 185H308L297 135H393L384 92H289L269 0H215ZM452 230H615L606 185H496L485 135H581L572 92H477L457 0H403ZM115 188Q84 188 65 162T47 101Q47 76 59 62T94 48Q125 48 143 74T161 134Q161 159 149 173T115 188Z" horiz-adv-x="585" unicode=""/>
			<glyph d="M248 722H333L-79 -22H-166Z" horiz-adv-x="167" unicode=""/>
			<glyph d="M550 731Q583 731 606 707T630 651Q630 618 606 594T550 571Q517 571 493 594T470 651Q470 684 493 707T550 731ZM328 720Q368 720 421 712L399 610Q373 613 353 613Q324 613 309 605T288 583T274 538L269 517H370L350 422H248L159 0H17L106 422H22L42 517H127L135 553Q150 615 170 650T227 703T328 720ZM451 517H594L484 0H341Z" horiz-adv-x="616" unicode=""/>
			<glyph d="M328 720Q368 720 421 712L399 610Q373 613 353 613Q324 613 309 605T288 583T274 538L269 517H370L350 422H248L159 0H17L106 422H22L42 517H127L135 553Q150 615 170 650T227 703T328 720ZM492 714H634L482 0H340Z" horiz-adv-x="614" unicode=""/>
			<glyph d="M328 720Q368 720 421 712L399 610Q375 613 353 613Q324 613 309 605T287 583T274 538L269 517H432L440 553Q455 616 475 651T533 703T633 720Q672 720 726 712L704 610Q679 613 658 613Q619 613 603 597T579 538L574 517H675L655 422H553L464 0H322L411 422H248L159 0H17L106 422H22L42 517H127L135 553Q150 616 170 651T228 703T328 720Z" horiz-adv-x="657" unicode="ﬀ"/>
			<glyph d="M550 731Q583 731 606 707T630 651Q630 618 606 594T550 571Q517 571 493 594T470 651Q470 684 493 707T550 731ZM328 720Q368 720 421 712L399 610Q373 613 353 613Q324 613 309 605T288 583T274 538L269 517H370L350 422H248L159 0H17L106 422H22L42 517H127L135 553Q150 615 170 650T227 703T328 720ZM451 517H594L484 0H341Z" horiz-adv-x="616" unicode="ﬁ"/>
			<glyph d="M328 720Q368 720 421 712L399 610Q373 613 353 613Q324 613 309 605T288 583T274 538L269 517H370L350 422H248L159 0H17L106 422H22L42 517H127L135 553Q150 615 170 650T227 703T328 720ZM492 714H634L482 0H340Z" horiz-adv-x="614" unicode="ﬂ"/>
			<glyph d="M854 731Q887 731 910 707T934 651Q934 618 910 594T854 571Q821 571 797 594T774 651Q774 684 797 707T854 731ZM328 720Q368 720 421 712L399 610Q375 613 353 613Q324 613 309 605T287 583T274 538L269 517H432L440 553Q455 616 475 651T533 703T633 720Q672 720 726 712L704 610Q679 613 658 613Q619 613 603 597T579 538L574 517H675L655 422H553L464 0H322L411 422H248L159 0H17L106 422H22L42 517H127L135 553Q150 616 170 651T228 703T328 720ZM755 517H898L788 0H645Z" horiz-adv-x="920" unicode="ﬃ"/>
			<glyph d="M328 720Q368 720 421 712L399 610Q375 613 353 613Q324 613 309 605T287 583T274 538L269 517H432L440 553Q455 616 475 651T533 703T633 720Q672 720 726 712L704 610Q679 613 658 613Q619 613 603 597T579 538L574 517H675L655 422H553L464 0H322L411 422H248L159 0H17L106 422H22L42 517H127L135 553Q150 616 170 651T228 703T328 720ZM797 714H939L787 0H645Z" horiz-adv-x="919" unicode="ﬄ"/>
			<glyph d="M553 716Q604 716 630 688T657 622V619H593Q593 637 581 650T548 664Q509 664 485 631T462 556Q462 530 475 513T513 496Q536 496 554 511T583 554H647Q631 503 595 473T510 444Q457 444 426 474T395 556Q395 601 415 637T472 695T553 716ZM92 710H175L204 539L305 710H393L338 450H277L316 634H315L209 450H166L138 634H137L98 450H37Z" horiz-adv-x="594" unicode="🅪"/>
		</font>
</defs>
</svg>
