<?xml version="1.0" encoding="UTF-8"?>
<svg height="100%" width="100%" xmlns="http://www.w3.org/2000/svg">
	<defs>
		<font horiz-adv-x="259" id="web">
			<font-face alphabetic="0" ascent="984" descent="-236" font-family="" panose-1="2 11 8 4 2 2 2 2 2 4"/>
			<missing-glyph d="M0 718H512V0H0ZM50 667V50H462V667ZM259 609Q313 609 348 572T383 478Q383 440 368 414T319 357Q285 326 278 311Q271 294 271 234H225L223 253Q223 287 227 307T249 352T286 395Q308 416 320 433T332 474Q332 508 309 533T256 559Q222 559 201 535T174 464L124 472Q131 539 165 574T259 609ZM222 184H278V117H222Z" horiz-adv-x="512"/>
			<glyph d="" horiz-adv-x="278" unicode=" "/>
			<glyph d="M65 714H213V522L174 214H103L65 522ZM140 161Q174 161 199 136T224 76Q224 43 199 17T141 -8Q106 -8 80 16T55 76Q55 111 80 136T140 161Z" horiz-adv-x="278" unicode="!"/>
			<glyph d="M85 714H192V393H85ZM271 714H378V393H271Z" horiz-adv-x="463" unicode="&quot;"/>
			<glyph d="M220 714H319L279 517H395L435 714H533L493 517H577V427H475L449 296H533V206H431L390 0H292L333 206H217L176 0H78L119 206H33V296H137L163 427H78V517H181ZM261 427L235 296H351L377 427Z" horiz-adv-x="610" unicode="#"/>
			<glyph d="M218 741H270V673Q361 663 412 615T468 486H343Q342 521 321 545T270 570V414Q352 396 399 370T468 305T490 207Q490 164 467 121T394 49T270 15V-60H218V15Q19 28 -1 234H124Q127 180 150 151T218 118V296Q151 312 108 332T39 388T14 485Q14 566 70 616T218 673ZM218 570Q184 570 161 550T139 497Q139 468 157 452T218 427ZM270 281V118Q312 122 338 145T365 204Q365 232 343 249T270 281Z" horiz-adv-x="489" unicode="$"/>
			<glyph d="M637 722H734L322 -22H223ZM245 714Q330 714 369 659T409 513Q409 422 365 373T240 324Q158 324 116 372T75 516Q75 604 118 659T245 714ZM245 639Q204 639 190 603T177 513Q177 463 188 431T241 399Q278 399 292 429T307 513Q307 639 245 639ZM720 376Q801 376 842 326T884 180Q884 90 840 38T715 -14Q632 -14 591 38T550 183Q550 269 593 322T720 376ZM719 301Q677 301 664 265T652 182Q652 129 663 95T716 61Q752 61 767 92T782 182Q782 241 766 271T719 301Z" horiz-adv-x="959" unicode="%"/>
			<glyph d="M311 722Q394 722 450 677T506 551Q506 441 379 373L471 260Q491 295 497 345H620Q609 243 551 169L696 0H522L464 71Q420 28 371 7T263 -14Q197 -14 144 12T62 87T32 200Q32 264 72 317T192 407Q154 452 139 487T124 559Q124 606 149 643T218 701T311 722ZM316 627Q290 627 271 609T253 564Q253 540 264 517T309 457Q348 481 365 504T382 559Q382 587 363 607T316 627ZM267 315Q219 295 193 264T167 197Q167 159 198 131T269 103Q301 103 330 117T389 166Z" horiz-adv-x="685" unicode="&amp;"/>
			<glyph d="M86 714H193V393H86Z" horiz-adv-x="278" unicode="'"/>
			<glyph d="M180 813H299Q246 714 218 598T190 360Q190 112 298 -100H180Q116 5 82 121T48 350Q48 468 81 593T180 813Z" horiz-adv-x="299" unicode="("/>
			<glyph d="M1 813H119Q183 708 217 591T251 362Q251 247 218 121T119 -100H0Q109 108 109 352Q109 602 1 813Z" horiz-adv-x="299" unicode=")"/>
			<glyph d="M162 714H242V589L358 633L385 556L267 517L341 419L275 370L201 473L131 370L64 419L138 517L22 556L49 633L162 589Z" horiz-adv-x="407" unicode="*"/>
			<glyph d="M246 505H353V306H552V199H353V0H246V199H47V306H246Z" horiz-adv-x="599" unicode="+"/>
			<glyph d="M132 161Q172 161 199 128T227 45Q227 -32 185 -88T65 -155V-83Q102 -79 123 -56T147 -6Q137 -8 129 -8Q98 -8 72 16T47 73Q47 111 72 136T132 161Z" horiz-adv-x="278" unicode=","/>
			<glyph d="M53 334H354V212H53Z" horiz-adv-x="407" unicode="-"/>
			<glyph d="M139 161Q173 161 198 136T223 76Q223 43 198 17T140 -8Q105 -8 79 16T54 76Q54 111 79 136T139 161Z" horiz-adv-x="278" unicode="."/>
			<glyph d="M268 731H382L103 -17H-11Z" horiz-adv-x="371" unicode="/"/>
			<glyph d="M277 714Q403 714 469 622T535 353Q535 173 469 79T277 -14Q151 -14 86 79T21 353Q21 530 86 622T277 714ZM276 597Q225 597 200 556T169 465T163 357Q163 291 169 238T200 144T277 103Q329 103 354 143T386 237T393 357Q393 459 370 528T276 597Z" horiz-adv-x="556" unicode="0"/>
			<glyph d="M287 700H400V0H258V454H82V561H92Q177 561 226 596T287 700Z" horiz-adv-x="556" unicode="1"/>
			<glyph d="M291 714Q356 714 411 687T498 610T531 495Q531 427 499 375Q479 344 449 317T364 255Q294 211 260 182T204 122H535V0H21Q21 68 44 119T114 216Q141 241 175 266T291 346Q338 378 363 410T389 484Q389 532 360 562T284 592Q232 592 203 549T173 431H37V444Q37 525 68 586T156 680T291 714Z" horiz-adv-x="556" unicode="2"/>
			<glyph d="M277 714Q335 714 389 691T477 624T512 520Q512 467 486 428T414 377V375Q472 362 505 318T538 216Q538 146 502 93T407 13T278 -14Q199 -14 140 16T50 102T18 233V241H153Q156 175 188 139T276 103Q326 103 358 133T390 213Q390 271 355 294T250 317H228V417H254Q314 417 345 439T377 504Q377 547 348 572T278 597Q233 597 201 567T170 472H35Q37 545 68 599T153 684T277 714Z" horiz-adv-x="556" unicode="3"/>
			<glyph d="M322 700H449V279H542V162H449V0H314V162H18V292ZM311 522L130 279H314V522Z" horiz-adv-x="556" unicode="4"/>
			<glyph d="M109 700H500V583H211L183 424L185 422Q212 449 245 462T322 476Q389 476 438 444T512 358T538 238Q538 169 504 111T411 20T281 -14Q206 -14 147 12T54 89T18 208H160Q165 160 196 131T275 103Q328 103 362 142T396 238Q396 293 363 331T274 369Q237 369 213 355T168 313H40Z" horiz-adv-x="556" unicode="5"/>
			<glyph d="M297 714Q390 714 451 662T524 520H389Q381 559 355 583T295 607Q234 607 200 546T161 394L163 392Q192 433 230 451T320 470Q376 470 425 443T505 364T536 242Q536 170 505 111T418 19T291 -14Q154 -14 88 83T22 348Q22 438 50 521T139 659T297 714ZM286 363Q235 363 204 327T174 233Q174 179 205 141T287 103Q335 103 364 141T394 231Q394 285 366 324T286 363Z" horiz-adv-x="556" unicode="6"/>
			<glyph d="M34 700H512V578Q442 516 391 418T312 210T283 0H131Q143 154 204 300T366 568H34Z" horiz-adv-x="556" unicode="7"/>
			<glyph d="M279 714Q359 714 411 683T488 609T513 525Q513 473 486 434T411 379V377Q475 362 508 317T542 206Q542 136 505 86T409 11T280 -14Q210 -14 149 10T51 83T14 205Q14 271 48 316T146 377V379Q97 392 70 430T43 523Q43 583 77 626T165 691T279 714ZM278 607Q235 607 203 581T172 510Q172 467 203 442T279 418Q325 418 354 442T384 510Q384 548 360 577T278 607ZM279 323Q225 323 190 293T156 212Q156 159 191 126T280 93Q332 93 366 126T400 211Q400 259 366 291T279 323Z" horiz-adv-x="556" unicode="8"/>
			<glyph d="M268 714Q403 714 469 617T536 353Q536 260 507 176T417 39T261 -14Q168 -14 107 37T34 180H169Q177 142 203 117T263 93Q320 93 355 147T397 306L395 308Q367 268 329 249T237 230Q187 230 137 254T55 330T22 458Q22 528 52 586T138 679T268 714ZM271 597Q223 597 193 559T164 469Q164 415 192 376T271 337Q325 337 354 374T384 467Q384 521 352 559T271 597Z" horiz-adv-x="556" unicode="9"/>
			<glyph d="M140 516Q174 516 199 491T224 431Q224 398 199 372T141 347Q106 347 80 371T55 431Q55 466 80 491T140 516ZM140 161Q174 161 199 136T224 76Q224 43 199 17T141 -8Q106 -8 80 16T55 76Q55 111 80 136T140 161Z" horiz-adv-x="278" unicode=":"/>
			<glyph d="M140 516Q174 516 199 491T224 431Q224 398 199 372T141 347Q106 347 80 371T55 431Q55 466 80 491T140 516ZM132 161Q172 161 199 128T227 45Q227 -32 185 -88T65 -155V-83Q102 -79 123 -56T147 -6Q137 -8 129 -8Q98 -8 72 16T47 73Q47 111 72 136T132 161Z" horiz-adv-x="278" unicode=";"/>
			<glyph d="M554 514V399L187 253L554 107V-8L46 194V312Z" horiz-adv-x="600" unicode="&lt;"/>
			<glyph d="M48 413H553V306H48ZM48 199H553V92H48Z" horiz-adv-x="600" unicode="="/>
			<glyph d="M46 514L554 312V194L46 -8V107L413 253L46 399Z" horiz-adv-x="600" unicode="&gt;"/>
			<glyph d="M275 731Q361 731 417 701T498 626T524 537Q524 470 500 433T437 367L404 343Q342 298 342 243V214H207V243Q207 301 228 341T296 418Q337 450 352 470T367 524Q367 568 345 591T282 614Q233 614 206 579T179 484H32Q33 557 64 613T149 700T275 731ZM272 161Q306 161 331 136T356 76Q356 43 331 17T273 -8Q238 -8 212 16T187 76Q187 111 212 136T272 161Z" horiz-adv-x="556" unicode="?"/>
			<glyph d="M456 725Q569 725 665 669T817 517T873 308Q873 250 851 197T782 110T664 76Q606 76 578 92T540 138Q517 112 478 96T387 80Q318 80 277 113T236 207Q236 266 275 297Q296 314 329 324T417 340Q482 347 506 355T530 389Q530 420 509 431T453 442Q415 442 395 428T372 385H250Q254 454 309 490T459 527Q555 527 603 496T651 406V201Q651 179 659 170T689 162Q730 162 753 206T776 320Q776 404 732 476T615 590T456 632Q369 632 295 588T179 470T136 308Q136 220 179 144T296 25T452 -19Q537 -19 624 16L657 -62Q564 -109 451 -109Q343 -109 248 -53T96 98T39 308Q39 421 95 517T247 669T456 725ZM530 293Q512 279 457 273Q405 267 381 255T358 214Q358 165 432 165Q480 165 505 187T530 251Z" horiz-adv-x="912" unicode="@"/>
			<glyph d="M264 714H425L692 0H529L475 159H208L152 0H-7ZM342 538L249 276H434L344 538Z" horiz-adv-x="685" unicode="A"/>
			<glyph d="M69 714H406Q518 714 575 671T633 538Q633 484 608 447T536 388Q601 370 634 322T667 207Q667 139 632 92T541 23T415 0H69ZM226 592V425H386Q430 425 455 446T481 510Q481 592 375 592ZM226 318V122H395Q451 122 480 145T510 216Q510 267 481 292T398 318Z" horiz-adv-x="704" unicode="B"/>
			<glyph d="M389 731Q469 731 536 700T645 611T697 474H545Q537 527 492 563T389 599Q295 599 245 532T195 354Q195 248 245 181T389 115Q457 115 499 157T551 275H703Q695 186 653 120T544 18T389 -17Q283 -17 203 31T80 164T38 354Q38 460 80 546T201 681T389 731Z" horiz-adv-x="741" unicode="C"/>
			<glyph d="M69 714H375Q474 714 547 672T661 551T701 361Q701 249 662 168T550 43T379 0H69ZM226 582V132H365Q444 132 494 185T544 347Q544 471 492 526T338 582Z" horiz-adv-x="741" unicode="D"/>
			<glyph d="M69 714H603V582H226V429H572V307H226V132H611V0H69Z" horiz-adv-x="648" unicode="E"/>
			<glyph d="M69 714H571V582H226V417H525V295H226V0H69Z" horiz-adv-x="593" unicode="F"/>
			<glyph d="M389 731Q466 731 532 700T641 612T690 479H540Q526 538 486 568T389 599Q295 599 245 531T195 354Q195 252 243 183T389 115Q465 115 508 153T559 269H401V386H701V0H601L585 81Q509 -17 389 -17Q283 -17 203 32T80 165T38 354Q38 461 80 546T201 681T389 731Z" horiz-adv-x="759" unicode="G"/>
			<glyph d="M69 714H226V440H515V714H672V0H515V308H226V0H69Z" horiz-adv-x="741" unicode="H"/>
			<glyph d="M69 714H226V0H69Z" horiz-adv-x="295" unicode="I"/>
			<glyph d="M330 714H487V224Q487 106 427 44T251 -17Q179 -17 125 10T43 86T14 202V266H156V231Q156 169 178 142T247 115Q299 115 314 144T330 226Z" horiz-adv-x="556" unicode="J"/>
			<glyph d="M69 714H226V418L505 714H701L422 432L728 0H531L316 321L226 230V0H69Z" horiz-adv-x="722" unicode="K"/>
			<glyph d="M69 714H226V132H574V0H69Z" horiz-adv-x="593" unicode="L"/>
			<glyph d="M69 714H290L457 223H459L617 714H838V0H691V506H689L514 0H393L218 501H216V0H69Z" horiz-adv-x="907" unicode="M"/>
			<glyph d="M69 714H225L523 235H525V714H672V0H515L218 478H216V0H69Z" horiz-adv-x="741" unicode="N"/>
			<glyph d="M389 731Q495 731 574 682T697 547T740 354Q740 250 697 165T575 32T389 -17Q283 -17 203 32T80 165T38 354Q38 461 80 546T202 681T389 731ZM388 599Q294 599 244 531T195 354Q195 249 245 182T389 115Q484 115 533 182T583 354Q583 463 533 531T388 599Z" horiz-adv-x="778" unicode="O"/>
			<glyph d="M69 714H392Q473 714 528 684T610 602T638 485Q638 419 610 367T528 286T393 256H226V0H69ZM226 592V378H351Q420 378 453 403T486 485Q486 540 453 566T352 592Z" horiz-adv-x="667" unicode="P"/>
			<glyph d="M389 731Q494 731 573 682T696 548T740 354Q740 198 647 91L736 10L663 -67L562 25Q489 -17 389 -17Q282 -17 202 32T80 166T38 354Q38 461 80 546T201 681T389 731ZM388 599Q295 599 245 531T195 354Q195 294 213 240T276 150T390 115Q417 115 430 117T452 125L385 186L458 264L539 190Q583 249 583 354Q583 465 532 532T388 599Z" horiz-adv-x="778" unicode="Q"/>
			<glyph d="M69 714H454Q516 714 563 688T637 617T663 517Q663 383 550 338V336Q596 323 618 289T647 218T656 131Q658 79 664 48T684 0H527Q519 20 515 48T507 124Q503 180 492 212T457 262T384 279H226V0H69ZM226 592V391H399Q451 391 478 415T506 493Q506 545 478 568T398 592Z" horiz-adv-x="722" unicode="R"/>
			<glyph d="M315 731Q439 731 520 673T601 501H449Q445 556 411 582T309 609Q262 609 231 588T200 528Q200 502 214 487T264 461T390 426Q461 408 509 387T591 324T625 212Q625 144 590 92T488 12T328 -17Q248 -17 179 9T67 92T24 232V237H176Q176 168 222 136T333 105Q393 105 433 126T473 194Q473 228 444 250T350 289L303 301Q227 321 205 328Q125 354 86 400T48 516Q48 585 86 633T185 706T315 731Z" horiz-adv-x="649" unicode="S"/>
			<glyph d="M13 714H598V582H384V0H227V582H13Z" horiz-adv-x="611" unicode="T"/>
			<glyph d="M66 714H223V267Q223 188 258 151T370 115Q451 115 484 151T518 267V714H675V267Q675 132 597 57T370 -17Q218 -17 142 57T66 267Z" horiz-adv-x="741" unicode="U"/>
			<glyph d="M-8 714H154L313 212H315L476 714H638L401 0H224Z" horiz-adv-x="630" unicode="V"/>
			<glyph d="M3 714H160L273 228H275L399 714H546L668 222H670L787 714H941L749 0H593L472 486H470L351 0H192Z" horiz-adv-x="944" unicode="W"/>
			<glyph d="M14 714H196L336 486L481 714H653L424 373L673 0H486L330 247L171 0H-6L244 374Z" horiz-adv-x="667" unicode="X"/>
			<glyph d="M-9 714H168L335 432L501 714H676L411 274V0H254V278Z" horiz-adv-x="667" unicode="Y"/>
			<glyph d="M53 714H615V590L232 132H625V0H23V124L406 582H53Z" horiz-adv-x="648" unicode="Z"/>
			<glyph d="M48 813H312V701H190V12H312V-100H48Z" horiz-adv-x="322" unicode="["/>
			<glyph d="M-11 731H103L382 -17H268Z" horiz-adv-x="371" unicode="\"/>
			<glyph d="M10 813H274V-100H10V12H132V701H10Z" horiz-adv-x="322" unicode="]"/>
			<glyph d="M233 700H367L539 315H422L300 590L178 315H61Z" horiz-adv-x="600" unicode="^"/>
			<glyph d="M0 -75H500V-125H0Z" horiz-adv-x="500" unicode="_"/>
			<glyph d="M-48 731H109L205 589H106Z" unicode="`"/>
			<glyph d="M292 531Q405 531 461 493T518 384V135Q518 109 525 101T554 94H558V2Q532 -10 499 -10Q449 -10 422 6T388 57Q361 24 315 5T208 -14Q127 -14 79 26T32 141Q32 212 77 251Q102 272 141 284T244 303Q296 309 322 315T362 333T376 367Q376 407 352 421T285 436Q240 436 217 417T190 358H48Q52 442 117 486T292 531ZM376 253Q366 244 346 238T290 228Q230 221 202 203T174 147Q174 81 261 81Q318 81 347 111T376 198Z" horiz-adv-x="574" unicode="a"/>
			<glyph d="M54 714H196V454H198Q222 490 264 510T361 531Q416 531 465 501T544 409T575 259Q575 172 545 110T467 17T360 -14Q298 -14 255 6T191 66H189V0H54ZM311 424Q254 424 222 378T191 258Q191 185 223 139T312 93Q370 93 401 139T433 258Q433 331 402 377T311 424Z" horiz-adv-x="611" unicode="b"/>
			<glyph d="M302 531Q368 531 422 507T509 440T545 335H406Q392 424 301 424Q241 424 210 375T180 256Q180 187 209 140T298 93Q345 93 374 119T411 198H548Q534 96 468 41T299 -14Q220 -14 161 20T70 115T38 251Q38 333 70 396T161 495T302 531Z" horiz-adv-x="574" unicode="c"/>
			<glyph d="M416 714H558V0H423V66H421Q398 27 358 6T264 -14Q190 -14 137 23T58 124T32 263Q32 336 58 397T137 494T261 531Q309 531 350 511T414 454H416ZM298 424Q238 424 206 379T174 259Q174 191 206 142T299 93Q359 93 390 137T421 260Q421 335 390 379T298 424Z" horiz-adv-x="611" unicode="d"/>
			<glyph d="M293 531Q372 531 429 493T515 392T545 250L544 224H171Q174 157 205 125T297 93Q337 93 369 112T410 160H535Q478 -14 293 -14Q212 -14 152 20T61 117T29 258Q29 335 62 397T156 495T293 531ZM288 424Q237 424 206 395T171 314H402Q392 372 365 398T288 424Z" horiz-adv-x="574" unicode="e"/>
			<glyph d="M258 714Q277 714 333 710V604Q306 607 282 607Q251 607 239 593T227 547V517H325V422H227V0H85V422H0V517H85V555Q85 633 132 673T258 714Z" horiz-adv-x="333" unicode="f"/>
			<glyph d="M260 531Q315 531 352 510T414 448H416V517H551V32Q551 -74 485 -135T284 -196Q223 -196 172 -176T89 -118T55 -30H196Q213 -101 302 -101Q357 -101 386 -68T416 24V95H414Q393 57 352 36T259 15Q151 15 94 86T38 275Q38 343 64 401T140 495T260 531ZM294 424Q240 424 210 383T180 277Q180 209 208 165T295 122Q351 122 383 162T416 266Q416 332 389 378T294 424Z" horiz-adv-x="611" unicode="g"/>
			<glyph d="M54 714H196V445H199Q223 485 264 508T351 531Q449 531 494 481T539 323V0H397V294Q397 358 376 388T306 419Q244 419 220 382T196 271V0H54Z" horiz-adv-x="593" unicode="h"/>
			<glyph d="M129 731Q162 731 185 707T209 651Q209 618 185 594T129 571Q96 571 72 594T49 651Q49 684 72 707T129 731ZM58 517H200V0H58Z" horiz-adv-x="258" unicode="i"/>
			<glyph d="M138 731Q171 731 194 707T218 651Q218 618 194 594T138 571Q105 571 81 594T58 651Q58 684 81 707T138 731ZM67 517H209V-29Q209 -112 168 -147T28 -182Q2 -182 -19 -178V-61Q-8 -65 13 -65Q43 -65 55 -53T67 -18Z" horiz-adv-x="278" unicode="j"/>
			<glyph d="M54 714H196V331L375 517H543L348 327L565 0H393L251 231L196 178V0H54Z" horiz-adv-x="561" unicode="k"/>
			<glyph d="M58 714H200V0H58Z" horiz-adv-x="258" unicode="l"/>
			<glyph d="M348 531Q405 531 443 508T499 445Q528 486 568 508T656 531Q750 531 797 483T844 347V0H702V299Q702 359 685 389T615 419Q520 419 520 289V0H378V305Q378 363 361 391T292 419Q272 419 250 408T212 371T196 301V0H54V517H188V447H190Q249 531 348 531Z" horiz-adv-x="898" unicode="m"/>
			<glyph d="M351 531Q449 531 494 481T539 322V0H397V293Q397 358 376 388T306 419Q244 419 220 381T196 269V0H54V517H189V445H192Q217 486 259 508T351 531Z" horiz-adv-x="593" unicode="n"/>
			<glyph d="M305 531Q386 531 446 497T540 401T573 258Q573 176 539 114T445 19T305 -14Q224 -14 164 20T71 115T38 258Q38 340 71 401T164 497T305 531ZM304 424Q245 424 212 380T180 258Q180 179 212 136T305 93Q367 93 399 136T431 258Q431 330 401 377T304 424Z" horiz-adv-x="611" unicode="o"/>
			<glyph d="M345 531Q421 531 474 494T553 395T580 253Q580 180 553 119T476 22T353 -14Q305 -14 264 6T198 64H196V-182H54V517H189V451H191Q241 531 345 531ZM313 424Q255 424 223 380T191 257Q191 183 222 138T315 93Q378 93 408 138T438 257Q438 326 408 375T313 424Z" horiz-adv-x="611" unicode="p"/>
			<glyph d="M264 531Q318 531 358 510T421 451H423V517H558V-182H416V65H414Q391 27 348 6T251 -14Q199 -14 148 13T65 101T32 254Q32 329 58 392T137 493T264 531ZM299 424Q237 424 205 378T174 258Q174 183 204 138T297 93Q360 93 390 138T421 256Q421 324 391 374T299 424Z" horiz-adv-x="611" unicode="q"/>
			<glyph d="M356 531Q369 531 387 526V394Q364 399 336 399Q263 399 229 354T196 233V0H54V517H189V421H191Q211 470 257 500T356 531Z" horiz-adv-x="389" unicode="r"/>
			<glyph d="M266 531Q371 531 429 488T494 366H359Q356 403 331 419T262 436Q183 436 183 388Q183 364 208 349T294 322Q372 306 408 293T468 259Q508 223 508 166Q508 73 440 29T272 -14Q163 -14 97 32T29 168H164Q164 126 195 103T273 81Q312 81 339 98T366 147Q366 175 331 191T210 226Q120 245 80 277T41 365Q41 447 98 489T266 531Z" horiz-adv-x="537" unicode="s"/>
			<glyph d="M92 672H234V517H338V422H234V166Q234 130 246 118T294 106Q322 106 338 110V-1Q308 -6 254 -6Q170 -6 131 22T92 119V422H6V517H92Z" horiz-adv-x="352" unicode="t"/>
			<glyph d="M54 517H196V224Q196 161 216 129T287 98Q345 98 371 133T397 245V517H539V0H404V72H401Q375 30 333 8T242 -14Q142 -14 98 37T54 196Z" horiz-adv-x="593" unicode="u"/>
			<glyph d="M5 517H154L263 164H265L374 517H515L340 0H182Z" horiz-adv-x="520" unicode="v"/>
			<glyph d="M6 517H156L251 166H253L339 517H477L565 167H567L662 517H808L645 0H499L407 347H405L317 0H170Z" horiz-adv-x="814" unicode="w"/>
			<glyph d="M16 517H178L269 382L359 517H516L346 275L537 0H375L267 163L159 0H0L186 272Z" horiz-adv-x="537" unicode="x"/>
			<glyph d="M-6 517H146L263 163H265L378 517H525L309 -65Q286 -126 245 -154T133 -182Q94 -182 44 -177V-60Q82 -65 119 -65Q148 -65 165 -47T182 0Q182 15 176 32Z" horiz-adv-x="519" unicode="y"/>
			<glyph d="M42 517H478V410L209 107H497V0H22V107L291 410H42Z" horiz-adv-x="519" unicode="z"/>
			<glyph d="M267 813H390V701H336Q282 701 282 630V477Q282 424 256 393T183 358V355Q225 349 253 320T282 246V83Q282 46 295 29T337 12H390V-100H266Q237 -100 207 -83T159 -36T140 34V230Q140 269 111 290T48 313V400Q87 402 113 426T140 488V679Q140 717 158 748T206 796T267 813Z" horiz-adv-x="400" unicode="{"/>
			<glyph d="M58 786H165V-214H58Z" horiz-adv-x="223" unicode="|"/>
			<glyph d="M10 813H136Q162 813 191 797T240 751T260 677V489Q260 450 286 426T352 400V313Q311 311 285 288T260 232V34Q260 -7 240 -37T191 -84T136 -100H10V12H64Q92 12 105 30T118 84V245Q118 294 146 322T217 355V358Q168 363 143 394T118 474V630Q118 701 64 701H10Z" horiz-adv-x="400" unicode="}"/>
			<glyph d="M493 344L533 251Q502 206 473 185T408 165Q384 165 359 173T298 199T237 225T191 233Q165 233 144 216T107 161L67 254Q112 340 192 340Q218 340 245 331T316 302Q352 285 371 278T405 272Q428 272 448 288T493 344Z" horiz-adv-x="600" unicode="~"/>
			<glyph d="" horiz-adv-x="278" unicode=" "/>
			<glyph d="M137 539Q172 539 197 514T223 455Q223 420 197 395T138 370Q104 370 79 395T54 455Q54 488 79 513T137 539ZM104 317H175L213 9V-183H65V9Z" horiz-adv-x="278" unicode="¡"/>
			<glyph d="M231 741H283V666Q330 666 374 645T448 585T480 493H358Q356 524 334 547T283 572V281Q315 287 337 315T360 378H482Q475 296 421 245T283 187V98H231V187Q169 190 121 221T47 304T21 419Q21 523 76 590T231 666ZM231 571Q191 561 168 524T146 432Q146 372 168 333T231 281Z" horiz-adv-x="493" unicode="¢"/>
			<glyph d="M295 731Q411 731 474 667T539 481H404Q401 548 374 581T295 614Q251 614 224 589T197 521Q197 489 205 464T238 394H371V309H266Q274 285 274 248Q274 207 253 173T192 107L194 105Q215 118 229 123T262 128Q292 128 340 117Q344 116 367 110T420 105Q447 105 466 115T507 148L567 47Q501 -17 410 -17Q374 -17 349 -12T299 2T252 16T203 21Q136 21 88 -17L26 76Q81 111 110 154T139 242Q139 256 135 271T120 309H21V394H85Q65 419 52 456T40 532Q40 589 71 634T160 705T295 731Z" horiz-adv-x="556" unicode="£"/>
			<glyph d="M475 610L536 549L480 494Q502 470 513 431T525 351Q525 305 512 267T479 205L534 149L479 94L422 152Q398 129 360 115T279 102Q235 102 196 114T132 151L76 93L20 149L77 207Q29 264 29 349Q29 393 41 431T77 493L20 551L77 608L134 552Q159 573 199 585T280 598Q316 598 353 586T417 553ZM279 491Q222 491 187 451T153 349Q153 290 187 249T279 209Q336 209 368 249T401 351Q401 407 369 449T279 491Z" horiz-adv-x="556" unicode="¤"/>
			<glyph d="M-9 714H154L286 403L415 714H577L422 403H517V308H374L359 279V233H517V138H359V0H207V138H50V233H207V279L193 308H50V403H145Z" horiz-adv-x="556" unicode="¥"/>
			<glyph d="M58 661H165V411H58ZM58 161H165V-89H58Z" horiz-adv-x="223" unicode="¦"/>
			<glyph d="M283 731Q342 731 390 708T466 642T494 538H370Q370 576 347 600T285 624Q256 624 232 606T209 560Q209 527 242 504T345 449Q409 419 449 395T517 336T546 250Q546 200 518 160T442 104Q497 63 497 -14Q497 -67 466 -105T386 -162T284 -182Q182 -182 120 -134T59 12H183Q187 -75 281 -75Q313 -75 334 -58T355 -9Q355 25 321 49T215 106Q149 136 108 160T39 222T10 311Q10 364 37 401T117 457Q95 482 84 504T74 558Q74 612 104 651T182 710T283 731ZM184 390Q164 390 149 370T134 329Q134 309 145 293T191 260L346 176Q358 169 376 169Q395 169 408 187T422 224Q422 245 410 260T377 287L227 372Q207 383 198 386T184 390Z" horiz-adv-x="556" unicode="§"/>
			<glyph d="M26 732Q59 732 81 710T103 655Q103 622 81 600T26 578Q-7 578 -29 600T-51 655Q-51 688 -29 710T26 732ZM233 732Q266 732 288 710T310 655Q310 622 288 600T233 578Q200 578 178 600T156 655Q156 688 178 710T233 732Z" unicode="¨"/>
			<glyph d="M400 731Q502 731 590 684T731 552T784 357Q784 247 731 162T590 30T400 -17Q298 -17 210 30T69 162T16 357Q16 467 69 552T210 684T400 731ZM400 651Q322 651 257 613T155 508T118 357Q118 273 155 206T257 101T400 63Q477 63 541 101T644 206T682 357Q682 441 644 508T541 613T400 651ZM412 583Q483 583 533 542T593 428H515Q507 463 479 483T412 503Q356 503 325 464T295 361Q295 301 328 259T414 217Q456 217 483 238T515 295H596Q584 222 533 179T414 137Q350 137 301 166T226 246T199 359Q199 423 224 474T298 554T412 583Z" horiz-adv-x="800" unicode="©"/>
			<glyph d="M176 714Q326 714 326 625V459Q326 407 338 384H237Q231 404 230 415Q193 375 122 375Q72 375 41 399T10 475Q10 525 41 545T124 572Q133 574 157 576Q197 580 214 586T231 610Q231 634 215 641T171 649Q152 649 138 638T122 605H20Q29 665 70 689T176 714ZM230 535Q219 525 184 521Q170 519 163 517Q138 511 125 502T112 477Q112 457 125 448T157 440Q201 440 215 461T230 515Z" horiz-adv-x="344" unicode="ª"/>
			<glyph d="M199 463V343L109 272L199 200V80L42 205V340ZM402 463V343L312 272L402 200V80L245 205V340Z" horiz-adv-x="444" unicode="«"/>
			<glyph d="M407 732Q509 732 595 681T731 545T782 357Q782 255 731 169T595 32T407 -18Q305 -18 219 32T82 169T32 357Q32 459 82 545T219 681T407 732ZM407 607Q339 607 281 573T190 482T157 357Q157 289 190 231T281 140T407 107Q475 107 532 140T623 231T657 357Q657 425 623 482T532 573T407 607ZM407 482Q459 482 495 445T532 357Q532 305 495 268T407 232Q355 232 318 268T282 357Q282 409 318 445T407 482Z" horiz-adv-x="814" unicode="¬"/>
			<glyph d="M53 334H354V212H53Z" horiz-adv-x="407" unicode="­"/>
			<glyph d="M155 727Q196 727 229 707T282 653T302 577Q302 535 282 500T229 446T155 427Q114 427 80 446T27 500T8 577Q8 619 27 653T80 707T155 727ZM155 689Q109 689 78 657T47 577Q47 529 78 497T155 465Q201 465 232 497T263 577Q263 625 232 657T155 689ZM95 655H175Q195 655 208 643T221 612Q221 585 196 574Q219 567 219 529Q219 510 225 502H181Q178 511 175 536Q174 547 170 551T158 556H139V502H95ZM139 619V590H158Q168 590 172 593T177 605Q177 613 173 616T159 619Z" horiz-adv-x="310" unicode="®"/>
			<glyph d="M-47 694H306V619H-47Z" unicode="¯"/>
			<glyph d="M200 714Q241 714 275 694T328 640T348 566Q348 525 328 491T274 437T200 418Q159 418 125 438T71 491T52 566Q52 607 71 640T125 694T200 714ZM200 654Q168 654 142 628T117 566Q117 530 142 504T200 478Q233 478 258 504T283 566Q283 601 258 627T200 654Z" horiz-adv-x="400" unicode="°"/>
			<glyph d="M247 506H354V375H553V268H354V137H247V268H48V375H247ZM48 107H553V0H48Z" horiz-adv-x="600" unicode="±"/>
			<glyph d="M205 714Q277 714 317 680T357 587Q357 542 335 512Q322 493 299 476T236 435Q222 427 194 409Q177 398 167 387T155 368H354V282H33Q33 355 53 395T128 470L203 517Q226 532 238 547T250 583Q250 604 237 617T202 631Q147 631 144 559H38Q38 631 82 672T205 714Z" horiz-adv-x="390" unicode="²"/>
			<glyph d="M198 714Q264 714 304 684T344 601Q344 570 327 547T278 513Q318 505 339 478T361 407Q361 346 312 309T191 273Q113 273 70 312T27 415H129Q137 358 191 358Q220 358 237 373T255 414Q255 443 239 456T187 469H162V542H188Q214 542 230 554T246 586Q246 608 232 620T194 632Q138 632 138 570H37Q40 638 83 676T198 714Z" horiz-adv-x="390" unicode="³"/>
			<glyph d="M150 731H307L153 589H54Z" unicode="´"/>
			<glyph d="M54 517H196V225Q196 160 217 129T287 98Q345 98 371 133T397 245V517H539V0H404V72H401Q371 27 339 6T271 -14Q227 -14 196 10V-182H54Z" horiz-adv-x="593" unicode="µ"/>
			<glyph d="M240 714H535V-166H433V634H323V-166H221V357Q115 358 58 404T2 532Q2 624 61 669T240 714Z" horiz-adv-x="620" unicode="¶"/>
			<glyph d="M140 372Q174 372 199 347T224 287Q224 254 199 228T141 203Q106 203 80 227T55 287Q55 322 80 347T140 372Z" horiz-adv-x="278" unicode="·"/>
			<glyph d="M115 0H164L125 -52L126 -54Q143 -47 161 -47Q198 -47 225 -65T253 -117Q253 -171 219 -194T136 -217Q92 -217 69 -212T12 -195L33 -147Q75 -165 117 -165Q157 -165 157 -131Q157 -99 117 -99Q95 -99 77 -106L56 -82Z" unicode="¸"/>
			<glyph d="M157 707H247V284H139V546H57V624Q100 624 126 645T157 707Z" horiz-adv-x="368" unicode="¹"/>
			<glyph d="M183 714Q261 714 308 668T355 544Q355 466 308 420T183 375Q105 375 58 420T12 544Q12 622 58 668T183 714ZM183 639Q152 639 135 610T119 544Q119 507 135 478T183 450Q215 450 231 478T248 544Q248 582 231 610T183 639Z" horiz-adv-x="367" unicode="º"/>
			<glyph d="M42 463L199 340V205L42 80V200L132 272L42 343ZM245 463L402 340V205L245 80V200L335 272L245 343Z" horiz-adv-x="444" unicode="»"/>
			<glyph d="M538 722H635L223 -22H124ZM157 703H247V280H139V542H57V620Q100 620 126 641T157 703ZM589 423H687V162H741V80H687V0H585V80H400V172ZM585 305L480 162H585Z" horiz-adv-x="785" unicode="¼"/>
			<glyph d="M538 722H635L223 -22H124ZM157 703H247V280H139V542H57V620Q100 620 126 641T157 703ZM648 432Q720 432 760 398T800 305Q800 262 778 230Q765 211 742 194T679 153Q665 145 637 127Q620 116 610 105T598 86H797V0H476Q476 73 496 113T571 188L646 235Q669 250 681 265T693 301Q693 322 680 335T645 349Q590 349 587 277H481Q481 349 525 390T648 432Z" horiz-adv-x="840" unicode="½"/>
			<glyph d="M594 722H691L279 -22H180ZM198 712Q264 712 304 682T344 599Q344 568 327 545T278 511Q318 503 339 476T361 405Q361 344 312 307T191 271Q113 271 70 310T27 413H129Q137 356 191 356Q220 356 237 371T255 412Q255 441 239 454T187 467H162V540H188Q214 540 230 552T246 584Q246 606 232 618T194 630Q138 630 138 568H37Q40 636 83 674T198 712ZM645 423H743V162H797V80H743V0H641V80H456V172ZM641 305L536 162H641Z" horiz-adv-x="841" unicode="¾"/>
			<glyph d="M283 543Q318 543 343 518T369 459Q369 424 343 399T284 374Q250 374 225 399T200 459Q200 492 225 517T283 543ZM214 321H349V296Q349 234 326 192T255 113Q217 84 203 63T189 12Q189 -36 212 -57T274 -79Q323 -79 349 -43T375 51H522Q520 -23 489 -79T404 -165T280 -196Q194 -196 138 -166T57 -91T32 -2Q32 55 52 95T119 168Q158 196 172 208T198 238Q214 264 214 292Z" horiz-adv-x="556" unicode="¿"/>
			<glyph d="M264 714H425L692 0H529L475 159H208L152 0H-7ZM342 538L249 276H434L344 538ZM158 921H315L411 779H312Z" horiz-adv-x="685" unicode="À"/>
			<glyph d="M264 714H425L692 0H529L475 159H208L152 0H-7ZM342 538L249 276H434L344 538ZM371 921H528L374 779H275Z" horiz-adv-x="685" unicode="Á"/>
			<glyph d="M264 714H425L692 0H529L475 159H208L152 0H-7ZM342 538L249 276H434L344 538ZM280 921H410L520 779H405L343 860L279 779H169Z" horiz-adv-x="685" unicode="Â"/>
			<glyph d="M264 714H425L692 0H529L475 159H208L152 0H-7ZM342 538L249 276H434L344 538ZM277 911Q306 911 352 894Q398 876 420 876Q438 876 448 884T463 911H527Q515 851 487 824T415 797Q383 797 338 813Q311 823 296 827T268 831Q235 831 223 789H160Q166 840 197 875T277 911Z" horiz-adv-x="685" unicode="Ã"/>
			<glyph d="M264 714H425L692 0H529L475 159H208L152 0H-7ZM342 538L249 276H434L344 538ZM240 920Q273 920 295 898T317 843Q317 810 295 788T240 766Q207 766 185 788T163 843Q163 876 185 898T240 920ZM447 920Q480 920 502 898T524 843Q524 810 502 788T447 766Q414 766 392 788T370 843Q370 876 392 898T447 920Z" horiz-adv-x="685" unicode="Ä"/>
			<glyph d="M264 714H425L692 0H529L475 159H208L152 0H-7ZM342 538L249 276H434L344 538ZM344 973Q394 973 427 940T461 859Q461 812 427 778T344 745Q295 745 261 777T227 859Q227 907 261 940T344 973ZM343 922Q317 922 300 905T283 859Q283 831 300 813T344 796Q372 796 388 813T405 859Q405 885 389 903T343 922Z" horiz-adv-x="685" unicode="Å"/>
			<glyph d="M330 714H936V582H604V429H916V307H604V132H944V0H452V159H228L156 0H-11ZM418 582L280 276H452V582Z" horiz-adv-x="981" unicode="Æ"/>
			<glyph d="M389 731Q469 731 536 700T645 611T697 474H545Q536 529 490 564T389 599Q293 599 244 530T195 354Q195 250 244 182T389 115Q457 115 499 157T551 275H703Q695 186 654 120T545 19T390 -17L364 -52L366 -54Q381 -47 406 -47Q446 -47 469 -67T492 -124Q492 -168 459 -192T367 -217Q336 -217 309 -212T251 -195L272 -147Q313 -165 351 -165Q373 -165 384 -156T396 -131Q396 -116 384 -107T354 -98Q337 -98 316 -106L295 -82L343 -14Q250 -4 181 46T75 176T38 354Q38 460 80 546T201 681T389 731Z" horiz-adv-x="741" unicode="Ç"/>
			<glyph d="M69 714H603V582H226V429H572V307H226V132H611V0H69ZM137 921H294L390 779H291Z" horiz-adv-x="648" unicode="È"/>
			<glyph d="M69 714H603V582H226V429H572V307H226V132H611V0H69ZM369 921H526L372 779H273Z" horiz-adv-x="648" unicode="É"/>
			<glyph d="M69 714H603V582H226V429H572V307H226V132H611V0H69ZM268 921H398L508 779H393L331 860L267 779H157Z" horiz-adv-x="648" unicode="Ê"/>
			<glyph d="M69 714H603V582H226V429H572V307H226V132H611V0H69ZM228 920Q261 920 283 898T305 843Q305 810 283 788T228 766Q195 766 173 788T151 843Q151 876 173 898T228 920ZM435 920Q468 920 490 898T512 843Q512 810 490 788T435 766Q402 766 380 788T358 843Q358 876 380 898T435 920Z" horiz-adv-x="648" unicode="Ë"/>
			<glyph d="M69 714H226V0H69ZM-36 921H121L217 779H118Z" horiz-adv-x="295" unicode="Ì"/>
			<glyph d="M69 714H226V0H69ZM171 921H328L174 779H75Z" horiz-adv-x="295" unicode="Í"/>
			<glyph d="M69 714H226V0H69ZM83 921H213L323 779H208L146 860L82 779H-28Z" horiz-adv-x="295" unicode="Î"/>
			<glyph d="M69 714H226V0H69ZM43 920Q76 920 98 898T120 843Q120 810 98 788T43 766Q10 766 -12 788T-34 843Q-34 876 -12 898T43 920ZM250 920Q283 920 305 898T327 843Q327 810 305 788T250 766Q217 766 195 788T173 843Q173 876 195 898T250 920Z" horiz-adv-x="295" unicode="Ï"/>
			<glyph d="M69 714H375Q476 714 549 671T662 549T701 361Q701 251 662 169T551 44T379 0H69V320H-4V418H69ZM226 582V418H386V320H226V132H366Q443 132 493 184T544 347Q544 473 491 527T337 582Z" horiz-adv-x="741" unicode="Ð"/>
			<glyph d="M69 714H225L523 235H525V714H672V0H515L218 478H216V0H69ZM299 911Q328 911 374 894Q420 876 442 876Q460 876 470 884T485 911H549Q537 851 509 824T437 797Q405 797 360 813Q333 823 318 827T290 831Q257 831 245 789H182Q188 840 219 875T299 911Z" horiz-adv-x="741" unicode="Ñ"/>
			<glyph d="M389 731Q495 731 574 682T697 547T740 354Q740 250 697 165T575 32T389 -17Q283 -17 203 32T80 165T38 354Q38 461 80 546T202 681T389 731ZM388 599Q294 599 244 531T195 354Q195 249 245 182T389 115Q484 115 533 182T583 354Q583 463 533 531T388 599ZM194 921H351L447 779H348Z" horiz-adv-x="778" unicode="Ò"/>
			<glyph d="M389 731Q495 731 574 682T697 547T740 354Q740 250 697 165T575 32T389 -17Q283 -17 203 32T80 165T38 354Q38 461 80 546T202 681T389 731ZM388 599Q294 599 244 531T195 354Q195 249 245 182T389 115Q484 115 533 182T583 354Q583 463 533 531T388 599ZM427 921H584L430 779H331Z" horiz-adv-x="778" unicode="Ó"/>
			<glyph d="M389 731Q495 731 574 682T697 547T740 354Q740 250 697 165T575 32T389 -17Q283 -17 203 32T80 165T38 354Q38 461 80 546T202 681T389 731ZM388 599Q294 599 244 531T195 354Q195 249 245 182T389 115Q484 115 533 182T583 354Q583 463 533 531T388 599ZM326 921H456L566 779H451L389 860L325 779H215Z" horiz-adv-x="778" unicode="Ô"/>
			<glyph d="M389 731Q495 731 574 682T697 547T740 354Q740 250 697 165T575 32T389 -17Q283 -17 203 32T80 165T38 354Q38 461 80 546T202 681T389 731ZM388 599Q294 599 244 531T195 354Q195 249 245 182T389 115Q484 115 533 182T583 354Q583 463 533 531T388 599ZM323 911Q352 911 398 894Q444 876 466 876Q484 876 494 884T509 911H573Q561 851 533 824T461 797Q429 797 384 813Q357 823 342 827T314 831Q281 831 269 789H206Q212 840 243 875T323 911Z" horiz-adv-x="778" unicode="Õ"/>
			<glyph d="M389 731Q495 731 574 682T697 547T740 354Q740 250 697 165T575 32T389 -17Q283 -17 203 32T80 165T38 354Q38 461 80 546T202 681T389 731ZM388 599Q294 599 244 531T195 354Q195 249 245 182T389 115Q484 115 533 182T583 354Q583 463 533 531T388 599ZM286 920Q319 920 341 898T363 843Q363 810 341 788T286 766Q253 766 231 788T209 843Q209 876 231 898T286 920ZM493 920Q526 920 548 898T570 843Q570 810 548 788T493 766Q460 766 438 788T416 843Q416 876 438 898T493 920Z" horiz-adv-x="778" unicode="Ö"/>
			<glyph d="M142 489L301 329L461 489L537 413L376 253L537 93L461 17L301 178L140 17L64 93L225 253L66 413Z" horiz-adv-x="600" unicode="×"/>
			<glyph d="M694 743L744 699L660 606Q700 556 720 491T740 354Q740 249 697 164T574 31T389 -17Q257 -17 166 59L83 -33L34 10L120 105Q38 205 38 354Q38 460 80 546T201 681T389 731Q455 731 512 711T614 654ZM388 599Q294 599 244 531T195 354Q195 277 223 219L519 548Q468 599 388 599ZM556 490L261 164Q310 115 389 115Q487 115 535 184T583 354Q583 430 556 490Z" horiz-adv-x="778" unicode="Ø"/>
			<glyph d="M66 714H223V267Q223 188 258 151T370 115Q451 115 484 151T518 267V714H675V267Q675 132 597 57T370 -17Q218 -17 142 57T66 267ZM175 921H332L428 779H329Z" horiz-adv-x="741" unicode="Ù"/>
			<glyph d="M66 714H223V267Q223 188 258 151T370 115Q451 115 484 151T518 267V714H675V267Q675 132 597 57T370 -17Q218 -17 142 57T66 267ZM408 921H565L411 779H312Z" horiz-adv-x="741" unicode="Ú"/>
			<glyph d="M66 714H223V267Q223 188 258 151T370 115Q451 115 484 151T518 267V714H675V267Q675 132 597 57T370 -17Q218 -17 142 57T66 267ZM307 921H437L547 779H432L370 860L306 779H196Z" horiz-adv-x="741" unicode="Û"/>
			<glyph d="M66 714H223V267Q223 188 258 151T370 115Q451 115 484 151T518 267V714H675V267Q675 132 597 57T370 -17Q218 -17 142 57T66 267ZM267 920Q300 920 322 898T344 843Q344 810 322 788T267 766Q234 766 212 788T190 843Q190 876 212 898T267 920ZM474 920Q507 920 529 898T551 843Q551 810 529 788T474 766Q441 766 419 788T397 843Q397 876 419 898T474 920Z" horiz-adv-x="741" unicode="Ü"/>
			<glyph d="M-9 714H168L335 432L501 714H676L411 274V0H254V278ZM374 921H531L377 779H278Z" horiz-adv-x="667" unicode="Ý"/>
			<glyph d="M69 714H226V617H393Q471 617 526 587T610 506T638 388Q638 324 611 272T528 189T391 159H226V0H69ZM226 495V281H351Q420 281 453 306T486 388Q486 444 453 469T349 495Z" horiz-adv-x="667" unicode="Þ"/>
			<glyph d="M291 731Q391 731 454 680T518 540Q518 491 492 452T425 400V398Q486 385 520 336T555 219Q555 157 527 103T449 18T337 -14Q300 -14 256 -8V108Q272 103 296 103Q347 103 380 137T413 225Q413 283 381 314T291 346Q276 346 256 344V438Q272 436 278 436Q322 436 352 459T383 525Q383 569 359 591T288 614Q243 614 220 587T198 516V0H56V494Q56 731 291 731Z" horiz-adv-x="611" unicode="ß"/>
			<glyph d="M292 531Q405 531 461 493T518 384V135Q518 109 525 101T554 94H558V2Q532 -10 499 -10Q449 -10 422 6T388 57Q361 24 315 5T208 -14Q127 -14 79 26T32 141Q32 212 77 251Q102 272 141 284T244 303Q296 309 322 315T362 333T376 367Q376 407 352 421T285 436Q240 436 217 417T190 358H48Q52 442 117 486T292 531ZM376 253Q366 244 346 238T290 228Q230 221 202 203T174 147Q174 81 261 81Q318 81 347 111T376 198ZM103 731H260L356 589H257Z" horiz-adv-x="574" unicode="à"/>
			<glyph d="M292 531Q405 531 461 493T518 384V135Q518 109 525 101T554 94H558V2Q532 -10 499 -10Q449 -10 422 6T388 57Q361 24 315 5T208 -14Q127 -14 79 26T32 141Q32 212 77 251Q102 272 141 284T244 303Q296 309 322 315T362 333T376 367Q376 407 352 421T285 436Q240 436 217 417T190 358H48Q52 442 117 486T292 531ZM376 253Q366 244 346 238T290 228Q230 221 202 203T174 147Q174 81 261 81Q318 81 347 111T376 198ZM328 731H485L331 589H232Z" horiz-adv-x="574" unicode="á"/>
			<glyph d="M292 531Q405 531 461 493T518 384V135Q518 109 525 101T554 94H558V2Q532 -10 499 -10Q449 -10 422 6T388 57Q361 24 315 5T208 -14Q127 -14 79 26T32 141Q32 212 77 251Q102 272 141 284T244 303Q296 309 322 315T362 333T376 367Q376 407 352 421T285 436Q240 436 217 417T190 358H48Q52 442 117 486T292 531ZM376 253Q366 244 346 238T290 228Q230 221 202 203T174 147Q174 81 261 81Q318 81 347 111T376 198ZM231 731H361L471 589H356L294 670L230 589H120Z" horiz-adv-x="574" unicode="â"/>
			<glyph d="M292 531Q405 531 461 493T518 384V135Q518 109 525 101T554 94H558V2Q532 -10 499 -10Q449 -10 422 6T388 57Q361 24 315 5T208 -14Q127 -14 79 26T32 141Q32 212 77 251Q102 272 141 284T244 303Q296 309 322 315T362 333T376 367Q376 407 352 421T285 436Q240 436 217 417T190 358H48Q52 442 117 486T292 531ZM376 253Q366 244 346 238T290 228Q230 221 202 203T174 147Q174 81 261 81Q318 81 347 111T376 198ZM228 721Q257 721 303 704Q349 686 371 686Q389 686 399 694T414 721H478Q466 661 438 634T366 607Q334 607 289 623Q262 633 247 637T219 641Q186 641 174 599H111Q117 650 148 685T228 721Z" horiz-adv-x="574" unicode="ã"/>
			<glyph d="M292 531Q405 531 461 493T518 384V135Q518 109 525 101T554 94H558V2Q532 -10 499 -10Q449 -10 422 6T388 57Q361 24 315 5T208 -14Q127 -14 79 26T32 141Q32 212 77 251Q102 272 141 284T244 303Q296 309 322 315T362 333T376 367Q376 407 352 421T285 436Q240 436 217 417T190 358H48Q52 442 117 486T292 531ZM376 253Q366 244 346 238T290 228Q230 221 202 203T174 147Q174 81 261 81Q318 81 347 111T376 198ZM191 732Q224 732 246 710T268 655Q268 622 246 600T191 578Q158 578 136 600T114 655Q114 688 136 710T191 732ZM398 732Q431 732 453 710T475 655Q475 622 453 600T398 578Q365 578 343 600T321 655Q321 688 343 710T398 732Z" horiz-adv-x="574" unicode="ä"/>
			<glyph d="M292 531Q405 531 461 493T518 384V135Q518 109 525 101T554 94H558V2Q532 -10 499 -10Q449 -10 422 6T388 57Q361 24 315 5T208 -14Q127 -14 79 26T32 141Q32 212 77 251Q102 272 141 284T244 303Q296 309 322 315T362 333T376 367Q376 407 352 421T285 436Q240 436 217 417T190 358H48Q52 442 117 486T292 531ZM376 253Q366 244 346 238T290 228Q230 221 202 203T174 147Q174 81 261 81Q318 81 347 111T376 198ZM295 798Q345 798 378 765T412 684Q412 637 378 603T295 570Q246 570 212 602T178 684Q178 732 212 765T295 798ZM294 747Q268 747 251 730T234 684Q234 656 251 638T295 621Q323 621 339 638T356 684Q356 710 340 728T294 747Z" horiz-adv-x="574" unicode="å"/>
			<glyph d="M295 531Q353 531 398 512T467 461Q499 498 539 514T640 531Q752 531 814 450T878 224H509V218Q509 182 524 150T568 100T632 81Q720 81 735 162H873Q850 79 784 32T635 -14Q573 -14 522 8T442 74Q410 31 353 8T231 -14Q143 -14 90 25T38 140Q38 192 60 224Q83 258 121 275T242 303Q301 310 330 317T372 337T385 370Q385 436 293 436Q199 436 194 356H52Q55 443 121 487T295 531ZM624 436Q576 436 543 402T509 314H736Q736 365 706 400T624 436ZM385 252Q372 242 353 236T283 224Q224 216 202 197T180 148Q180 116 202 98T268 81Q314 81 349 109T385 187Z" horiz-adv-x="907" unicode="æ"/>
			<glyph d="M302 531Q368 531 422 508T509 440T545 335H406Q392 424 301 424Q239 424 209 374T180 256Q180 188 209 140T298 93Q346 93 375 120T411 198H548Q535 103 474 46T312 -14L284 -52L286 -54Q303 -47 326 -47Q366 -47 389 -67T412 -124Q412 -168 379 -192T287 -217Q256 -217 229 -212T171 -195L192 -147Q233 -165 271 -165Q291 -165 303 -156T316 -131Q316 -116 304 -107T274 -98Q256 -98 236 -106L215 -82L265 -12Q194 -5 143 31T65 125T38 251Q38 334 70 397T162 496T302 531Z" horiz-adv-x="574" unicode="ç"/>
			<glyph d="M293 531Q372 531 429 493T515 392T545 250L544 224H171Q174 157 205 125T297 93Q337 93 369 112T410 160H535Q478 -14 293 -14Q212 -14 152 20T61 117T29 258Q29 335 62 397T156 495T293 531ZM288 424Q237 424 206 395T171 314H402Q392 372 365 398T288 424ZM102 731H259L355 589H256Z" horiz-adv-x="574" unicode="è"/>
			<glyph d="M293 531Q372 531 429 493T515 392T545 250L544 224H171Q174 157 205 125T297 93Q337 93 369 112T410 160H535Q478 -14 293 -14Q212 -14 152 20T61 117T29 258Q29 335 62 397T156 495T293 531ZM288 424Q237 424 206 395T171 314H402Q392 372 365 398T288 424ZM327 731H484L330 589H231Z" horiz-adv-x="574" unicode="é"/>
			<glyph d="M293 531Q372 531 429 493T515 392T545 250L544 224H171Q174 157 205 125T297 93Q337 93 369 112T410 160H535Q478 -14 293 -14Q212 -14 152 20T61 117T29 258Q29 335 62 397T156 495T293 531ZM288 424Q237 424 206 395T171 314H402Q392 372 365 398T288 424ZM230 731H360L470 589H355L293 670L229 589H119Z" horiz-adv-x="574" unicode="ê"/>
			<glyph d="M293 531Q372 531 429 493T515 392T545 250L544 224H171Q174 157 205 125T297 93Q337 93 369 112T410 160H535Q478 -14 293 -14Q212 -14 152 20T61 117T29 258Q29 335 62 397T156 495T293 531ZM288 424Q237 424 206 395T171 314H402Q392 372 365 398T288 424ZM190 732Q223 732 245 710T267 655Q267 622 245 600T190 578Q157 578 135 600T113 655Q113 688 135 710T190 732ZM397 732Q430 732 452 710T474 655Q474 622 452 600T397 578Q364 578 342 600T320 655Q320 688 342 710T397 732Z" horiz-adv-x="574" unicode="ë"/>
			<glyph d="M58 517H200V0H58ZM-52 731H105L201 589H102Z" horiz-adv-x="258" unicode="ì"/>
			<glyph d="M58 517H200V0H58ZM153 731H310L156 589H57Z" horiz-adv-x="258" unicode="í"/>
			<glyph d="M58 517H200V0H58ZM66 731H196L306 589H191L129 670L65 589H-45Z" horiz-adv-x="258" unicode="î"/>
			<glyph d="M58 517H200V0H58ZM26 732Q59 732 81 710T103 655Q103 622 81 600T26 578Q-7 578 -29 600T-51 655Q-51 688 -29 710T26 732ZM233 732Q266 732 288 710T310 655Q310 622 288 600T233 578Q200 578 178 600T156 655Q156 688 178 710T233 732Z" horiz-adv-x="258" unicode="ï"/>
			<glyph d="M247 743Q311 722 357 693L463 743L509 684L420 643Q499 572 536 481T573 272Q573 189 540 124T446 22T305 -14Q225 -14 164 20T71 114T38 250Q38 319 64 377T144 471T273 506Q358 506 413 456H415Q398 500 372 536T318 593L201 537L155 596L247 639Q230 648 173 673ZM303 411Q244 411 212 368T180 257Q180 188 209 140T305 93Q369 93 400 138T431 257Q431 320 400 365T303 411Z" horiz-adv-x="611" unicode="ð"/>
			<glyph d="M351 531Q449 531 494 481T539 322V0H397V293Q397 358 376 388T306 419Q244 419 220 381T196 269V0H54V517H189V445H192Q217 486 259 508T351 531ZM229 721Q258 721 304 704Q350 686 372 686Q390 686 400 694T415 721H479Q467 661 439 634T367 607Q335 607 290 623Q263 633 248 637T220 641Q187 641 175 599H112Q118 650 149 685T229 721Z" horiz-adv-x="593" unicode="ñ"/>
			<glyph d="M305 531Q386 531 446 497T540 401T573 258Q573 176 539 114T445 19T305 -14Q224 -14 164 20T71 115T38 258Q38 340 71 401T164 497T305 531ZM304 424Q245 424 212 380T180 258Q180 179 212 136T305 93Q367 93 399 136T431 258Q431 330 401 377T304 424ZM115 731H272L368 589H269Z" horiz-adv-x="611" unicode="ò"/>
			<glyph d="M305 531Q386 531 446 497T540 401T573 258Q573 176 539 114T445 19T305 -14Q224 -14 164 20T71 115T38 258Q38 340 71 401T164 497T305 531ZM304 424Q245 424 212 380T180 258Q180 179 212 136T305 93Q367 93 399 136T431 258Q431 330 401 377T304 424ZM340 731H497L343 589H244Z" horiz-adv-x="611" unicode="ó"/>
			<glyph d="M305 531Q386 531 446 497T540 401T573 258Q573 176 539 114T445 19T305 -14Q224 -14 164 20T71 115T38 258Q38 340 71 401T164 497T305 531ZM304 424Q245 424 212 380T180 258Q180 179 212 136T305 93Q367 93 399 136T431 258Q431 330 401 377T304 424ZM243 731H373L483 589H368L306 670L242 589H132Z" horiz-adv-x="611" unicode="ô"/>
			<glyph d="M305 531Q386 531 446 497T540 401T573 258Q573 176 539 114T445 19T305 -14Q224 -14 164 20T71 115T38 258Q38 340 71 401T164 497T305 531ZM304 424Q245 424 212 380T180 258Q180 179 212 136T305 93Q367 93 399 136T431 258Q431 330 401 377T304 424ZM240 721Q269 721 315 704Q361 686 383 686Q401 686 411 694T426 721H490Q478 661 450 634T378 607Q346 607 301 623Q274 633 259 637T231 641Q198 641 186 599H123Q129 650 160 685T240 721Z" horiz-adv-x="611" unicode="õ"/>
			<glyph d="M305 531Q386 531 446 497T540 401T573 258Q573 176 539 114T445 19T305 -14Q224 -14 164 20T71 115T38 258Q38 340 71 401T164 497T305 531ZM304 424Q245 424 212 380T180 258Q180 179 212 136T305 93Q367 93 399 136T431 258Q431 330 401 377T304 424ZM203 732Q236 732 258 710T280 655Q280 622 258 600T203 578Q170 578 148 600T126 655Q126 688 148 710T203 732ZM410 732Q443 732 465 710T487 655Q487 622 465 600T410 578Q377 578 355 600T333 655Q333 688 355 710T410 732Z" horiz-adv-x="611" unicode="ö"/>
			<glyph d="M301 545Q335 545 360 520T385 460Q385 427 360 401T302 376Q267 376 241 401T216 460Q216 495 241 520T301 545ZM48 306H553V199H48ZM301 129Q336 129 360 104T385 45Q385 12 359 -14T302 -40Q267 -40 241 -14T216 45Q216 79 241 104T301 129Z" horiz-adv-x="600" unicode="÷"/>
			<glyph d="M521 544L558 512L504 451Q538 415 555 365T573 258Q573 176 540 114T446 19T305 -14Q208 -14 140 36L81 -31L44 1L104 69Q38 141 38 258Q38 340 71 401T164 497T305 531Q400 531 468 483ZM304 424Q244 424 212 380T180 258Q180 207 195 172L388 392Q358 424 304 424ZM415 349L220 127Q251 93 305 93Q367 93 399 136T431 258Q431 309 415 349Z" horiz-adv-x="611" unicode="ø"/>
			<glyph d="M54 517H196V224Q196 161 216 129T287 98Q345 98 371 133T397 245V517H539V0H404V72H401Q375 30 333 8T242 -14Q142 -14 98 37T54 196ZM107 731H264L360 589H261Z" horiz-adv-x="593" unicode="ù"/>
			<glyph d="M54 517H196V224Q196 161 216 129T287 98Q345 98 371 133T397 245V517H539V0H404V72H401Q375 30 333 8T242 -14Q142 -14 98 37T54 196ZM332 731H489L335 589H236Z" horiz-adv-x="593" unicode="ú"/>
			<glyph d="M54 517H196V224Q196 161 216 129T287 98Q345 98 371 133T397 245V517H539V0H404V72H401Q375 30 333 8T242 -14Q142 -14 98 37T54 196ZM235 731H365L475 589H360L298 670L234 589H124Z" horiz-adv-x="593" unicode="û"/>
			<glyph d="M54 517H196V224Q196 161 216 129T287 98Q345 98 371 133T397 245V517H539V0H404V72H401Q375 30 333 8T242 -14Q142 -14 98 37T54 196ZM195 732Q228 732 250 710T272 655Q272 622 250 600T195 578Q162 578 140 600T118 655Q118 688 140 710T195 732ZM402 732Q435 732 457 710T479 655Q479 622 457 600T402 578Q369 578 347 600T325 655Q325 688 347 710T402 732Z" horiz-adv-x="593" unicode="ü"/>
			<glyph d="M-6 517H146L263 163H265L378 517H525L309 -65Q286 -126 245 -154T133 -182Q94 -182 44 -177V-60Q82 -65 119 -65Q148 -65 165 -47T182 0Q182 15 176 32ZM298 731H455L301 589H202Z" horiz-adv-x="519" unicode="ý"/>
			<glyph d="M54 714H196V451H198Q222 490 260 510T346 531Q421 531 474 494T553 395T580 253Q580 181 554 120T476 23T353 -14Q304 -14 264 6T198 64H196V-182H54ZM313 424Q251 424 221 377T191 257Q191 186 221 139T315 93Q376 93 407 137T438 257Q438 323 409 373T313 424Z" horiz-adv-x="611" unicode="þ"/>
			<glyph d="M-6 517H146L263 163H265L378 517H525L309 -65Q286 -126 245 -154T133 -182Q94 -182 44 -177V-60Q82 -65 119 -65Q148 -65 165 -47T182 0Q182 15 176 32ZM161 732Q194 732 216 710T238 655Q238 622 216 600T161 578Q128 578 106 600T84 655Q84 688 106 710T161 732ZM368 732Q401 732 423 710T445 655Q445 622 423 600T368 578Q335 578 313 600T291 655Q291 688 313 710T368 732Z" horiz-adv-x="519" unicode="ÿ"/>
			<glyph d="M58 517H200V0H58Z" horiz-adv-x="258" unicode="ı"/>
			<glyph d="M69 714H226V436L437 584V472L226 324V132H574V0H69V214L-11 158V270L69 326Z" horiz-adv-x="593" unicode="Ł"/>
			<glyph d="M58 714H200V500L267 553V451L200 398V0H58V286L-9 233V335L58 388Z" horiz-adv-x="258" unicode="ł"/>
			<glyph d="M373 731Q424 731 469 715T542 663H544V714H1044V582H690V429H1014V307H690V132H1051V0H544V54H542Q511 20 465 1T370 -17Q268 -17 192 33T77 168T38 353Q38 454 78 540T195 679T373 731ZM384 599Q287 599 241 527T195 355Q195 293 214 238T275 149T381 115Q453 115 495 160T538 278V448Q538 515 494 557T384 599Z" horiz-adv-x="1093" unicode="Œ"/>
			<glyph d="M292 531Q348 531 395 511T470 449Q494 486 544 508T643 531Q772 531 834 444T897 224H528Q528 165 559 129T651 93Q726 93 755 164H893Q868 80 803 33T651 -14Q592 -14 542 7T464 74Q438 30 388 8T281 -14Q204 -14 149 23T66 123T38 261Q38 337 69 398T158 495T292 531ZM293 424Q233 424 206 375T180 256Q180 192 206 142T290 93Q354 93 379 141T404 260Q404 327 380 375T293 424ZM640 424Q588 424 559 393T528 314H755Q753 366 724 395T640 424Z" horiz-adv-x="926" unicode="œ"/>
			<glyph d="M315 731Q439 731 520 673T601 501H449Q445 556 411 582T309 609Q262 609 231 588T200 528Q200 502 214 487T264 461T390 426Q461 408 509 387T591 324T625 212Q625 144 590 92T488 12T328 -17Q248 -17 179 9T67 92T24 232V237H176Q176 168 222 136T333 105Q393 105 433 126T473 194Q473 228 444 250T350 289L303 301Q227 321 205 328Q125 354 86 400T48 516Q48 585 86 633T185 706T315 731ZM153 921H268L330 840L394 921H504L393 779H263Z" horiz-adv-x="649" unicode="Š"/>
			<glyph d="M266 531Q371 531 429 488T494 366H359Q356 403 331 419T262 436Q183 436 183 388Q183 364 208 349T294 322Q372 306 408 293T468 259Q508 223 508 166Q508 73 440 29T272 -14Q163 -14 97 32T29 168H164Q164 126 195 103T273 81Q312 81 339 98T366 147Q366 175 331 191T210 226Q120 245 80 277T41 365Q41 447 98 489T266 531ZM96 731H211L273 650L337 731H447L336 589H206Z" horiz-adv-x="537" unicode="š"/>
			<glyph d="M-9 714H168L335 432L501 714H676L411 274V0H254V278ZM233 920Q266 920 288 898T310 843Q310 810 288 788T233 766Q200 766 178 788T156 843Q156 876 178 898T233 920ZM440 920Q473 920 495 898T517 843Q517 810 495 788T440 766Q407 766 385 788T363 843Q363 876 385 898T440 920Z" horiz-adv-x="667" unicode="Ÿ"/>
			<glyph d="M53 714H615V590L232 132H625V0H23V124L406 582H53ZM158 921H273L335 840L399 921H509L398 779H268Z" horiz-adv-x="648" unicode="Ž"/>
			<glyph d="M42 517H478V410L209 107H497V0H22V107L291 410H42ZM86 731H201L263 650L327 731H437L326 589H196Z" horiz-adv-x="519" unicode="ž"/>
			<glyph d="M436 731Q479 731 511 724L493 617Q478 624 453 624Q415 624 399 610T377 562L352 432H450L434 337H334L278 27Q265 -45 244 -86T182 -149T69 -170Q23 -170 -5 -167L14 -60Q33 -63 54 -63Q90 -63 104 -47T126 8L189 337H97L115 432H206L230 559Q242 623 265 660T329 714T436 731Z" horiz-adv-x="556" unicode="ƒ"/>
			<glyph d="M65 731H195L305 589H190L128 670L64 589H-46Z" unicode="ˆ"/>
			<glyph d="M-46 731H69L131 650L195 731H305L194 589H64Z" unicode="ˇ"/>
			<glyph d="M-47 694H306V619H-47Z" unicode="ˉ"/>
			<glyph d="M-39 731H26Q30 700 58 682T125 664Q172 664 199 680T235 731H298Q289 661 244 625T120 589Q48 589 7 625T-39 731Z" unicode="˘"/>
			<glyph d="M130 920Q163 920 185 898T207 843Q207 810 185 788T130 766Q97 766 75 788T53 843Q53 876 75 898T130 920Z" unicode="˙"/>
			<glyph d="M130 973Q180 973 213 940T247 859Q247 812 213 778T130 745Q81 745 47 777T13 859Q13 907 47 940T130 973ZM129 922Q103 922 86 905T69 859Q69 831 86 813T130 796Q158 796 174 813T191 859Q191 885 175 903T129 922Z" unicode="˚"/>
			<glyph d="M123 0H188Q142 -41 123 -68T105 -117Q105 -136 116 -146T144 -157Q160 -157 172 -151T201 -127L249 -149Q220 -185 188 -201T116 -217Q79 -217 53 -204Q34 -195 21 -175T9 -135Q9 -119 12 -108T25 -82Q49 -44 123 0Z" unicode="˛"/>
			<glyph d="M63 721Q92 721 138 704Q184 686 206 686Q224 686 234 694T249 721H313Q301 661 273 634T201 607Q169 607 124 623Q97 633 82 637T54 641Q21 641 9 599H-54Q-48 650 -16 685T63 721Z" unicode="˜"/>
			<glyph d="M35 731H192L43 589H-56ZM242 731H399L250 589H151Z" unicode="˝"/>
			<glyph d="M262 714H423L688 0H-7ZM340 538L198 132H480L342 538Z" horiz-adv-x="681" unicode="Δ"/>
			<glyph d="M381 721Q473 721 548 683T668 574T712 411Q712 352 691 297T631 202T533 150V118H711V0H424V204Q493 218 530 271T567 398Q567 452 544 497T479 570T382 597Q326 597 283 570T217 496T194 395Q194 321 229 271T335 204V0H48V118H226V150Q142 173 95 245T48 409Q48 502 92 573T213 682T381 721Z" horiz-adv-x="768" unicode="Ω"/>
			<glyph d="M54 517H196V225Q196 160 217 129T287 98Q345 98 371 133T397 245V517H539V0H404V72H401Q371 27 339 6T271 -14Q227 -14 196 10V-182H54Z" horiz-adv-x="593" unicode="μ"/>
			<glyph d="M15 517H672V410H562V139Q562 115 571 104T603 94Q618 94 636 98V6Q595 -14 543 -14Q479 -14 449 14T420 100V410H261V0H119V410H15Z" horiz-adv-x="692" unicode="π"/>
			<glyph d="M53 334H553V212H53Z" horiz-adv-x="606" unicode="–"/>
			<glyph d="M53 334H793V212H53Z" horiz-adv-x="846" unicode="—"/>
			<glyph d="M211 712V641Q174 637 153 615T131 566Q141 568 149 568Q179 568 203 544T228 488Q228 450 203 426T146 402Q107 402 80 433T54 516Q54 592 94 646T211 712Z" horiz-adv-x="278" unicode="‘"/>
			<glyph d="M132 721Q171 721 197 689T224 607Q224 531 184 476T67 411V482Q104 486 124 508T147 557Q137 555 129 555Q99 555 74 578T50 635Q50 673 74 697T132 721Z" horiz-adv-x="278" unicode="’"/>
			<glyph d="M130 155Q169 155 195 123T222 41Q222 -35 182 -89T65 -155V-84Q102 -80 122 -58T145 -9Q135 -11 127 -11Q97 -11 72 12T48 69Q48 107 72 131T130 155Z" horiz-adv-x="278" unicode="‚"/>
			<glyph d="M197 712V641Q160 637 139 615T117 566Q127 568 135 568Q165 568 189 544T214 488Q214 450 189 426T132 402Q93 402 66 433T40 516Q40 592 80 646T197 712ZM410 712V641Q373 637 352 615T330 566Q340 568 348 568Q378 568 402 544T427 488Q427 450 402 426T345 402Q306 402 279 433T253 516Q253 592 293 646T410 712Z" horiz-adv-x="463" unicode="“"/>
			<glyph d="M118 721Q157 721 183 689T210 607Q210 531 170 476T53 411V482Q90 486 110 508T133 557Q123 555 115 555Q85 555 60 578T36 635Q36 673 60 697T118 721ZM331 721Q370 721 396 689T423 607Q423 531 383 476T266 411V482Q303 486 323 508T346 557Q336 555 328 555Q298 555 273 578T249 635Q249 673 273 697T331 721Z" horiz-adv-x="463" unicode="”"/>
			<glyph d="M130 155Q169 155 195 123T222 41Q222 -35 182 -89T65 -155V-84Q102 -80 122 -58T145 -9Q135 -11 127 -11Q97 -11 72 12T48 69Q48 107 72 131T130 155ZM343 155Q382 155 408 123T435 41Q435 -35 395 -89T278 -155V-84Q315 -80 335 -58T358 -9Q348 -11 340 -11Q310 -11 285 12T261 69Q261 107 285 131T343 155Z" horiz-adv-x="475" unicode="„"/>
			<glyph d="M210 714H345V517H532V400H345V-166H210V400H24V517H210Z" horiz-adv-x="556" unicode="†"/>
			<glyph d="M210 714H345V517H532V400H345V144H532V27H345V-166H210V27H24V144H210V400H24V517H210Z" horiz-adv-x="556" unicode="‡"/>
			<glyph d="M250 535Q298 535 339 511T404 447T429 357Q429 309 405 267T340 202T250 178Q202 178 161 202T96 267T72 357Q72 406 96 447T161 511T250 535Z" horiz-adv-x="501" unicode="•"/>
			<glyph d="M167 161Q201 161 226 136T251 76Q251 43 226 17T168 -8Q133 -8 107 16T82 76Q82 111 107 136T167 161ZM500 161Q534 161 559 136T584 76Q584 43 559 17T501 -8Q466 -8 440 16T415 76Q415 111 440 136T500 161ZM833 161Q867 161 892 136T917 76Q917 43 892 17T834 -8Q799 -8 773 16T748 76Q748 111 773 136T833 161Z" horiz-adv-x="1000" unicode="…"/>
			<glyph d="M564 722H649L237 -22H150ZM216 714Q292 714 326 666T361 540Q361 463 325 416T215 370Q146 370 107 416T69 539Q69 615 105 664T216 714ZM217 649Q180 649 169 623T159 556Q159 500 169 467T215 435Q252 435 261 463T271 542Q271 594 261 621T217 649ZM587 330Q663 330 697 282T732 156Q732 79 696 32T586 -14Q517 -14 478 32T440 155Q440 231 476 280T587 330ZM933 330Q1009 330 1043 282T1078 156Q1078 79 1042 32T932 -14Q863 -14 824 32T786 155Q786 231 822 280T933 330ZM588 265Q551 265 540 239T530 172Q530 116 540 83T586 51Q623 51 632 79T642 158Q642 210 632 237T588 265ZM934 265Q897 265 886 239T876 172Q876 116 886 83T932 51Q969 51 978 79T988 158Q988 210 978 237T934 265Z" horiz-adv-x="1147" unicode="‰"/>
			<glyph d="M199 463V343L109 272L199 200V80L42 205V340Z" horiz-adv-x="241" unicode="‹"/>
			<glyph d="M42 463L199 340V205L42 80V200L132 272L42 343Z" horiz-adv-x="241" unicode="›"/>
			<glyph d="M248 722H333L-79 -22H-166Z" horiz-adv-x="167" unicode="⁄"/>
			<glyph d="M194 714Q274 714 316 658T359 495Q359 386 317 329T194 273Q114 273 72 329T31 495Q31 602 72 658T194 714ZM194 628Q154 628 143 588T132 497Q132 440 143 399T194 359Q235 359 246 398T258 497Q258 553 245 590T194 628Z" horiz-adv-x="390" unicode="⁰"/>
			<glyph d="M212 707H310V446H364V364H310V284H208V364H23V456ZM208 589L103 446H208Z" horiz-adv-x="390" unicode="⁴"/>
			<glyph d="M79 700H335V617H159L145 543Q170 564 220 564Q283 564 319 525T355 425Q355 353 309 310T188 268Q121 268 78 302T32 395H130Q135 376 151 364T191 353Q218 353 236 371T254 423Q254 454 238 472T194 490Q176 490 162 482T140 461H41Z" horiz-adv-x="390" unicode="⁵"/>
			<glyph d="M207 714Q339 714 353 604H252Q243 637 204 637Q167 637 149 606T130 524Q165 565 230 565Q288 565 324 528T361 426Q361 358 317 315T205 273Q30 273 30 482Q30 588 72 651T207 714ZM201 490Q170 490 154 471T138 421Q138 391 154 373T200 355Q228 355 244 371T261 420Q261 452 246 471T201 490Z" horiz-adv-x="390" unicode="⁶"/>
			<glyph d="M44 700H344V617Q281 562 248 467T212 277H96Q104 377 137 457T232 613H44Z" horiz-adv-x="390" unicode="⁷"/>
			<glyph d="M195 714Q268 714 306 682T344 601Q344 569 325 545T274 511Q317 500 339 473T362 405Q362 344 313 308T196 273Q120 273 74 306T28 404Q28 444 52 471T116 508Q46 530 46 597Q46 649 87 681T195 714ZM195 638Q169 638 155 625T142 590Q142 569 156 556T195 543Q220 543 233 555T247 590Q247 612 233 625T195 638ZM195 470Q164 470 146 454T129 411Q129 382 147 367T196 352Q260 352 260 411Q260 438 242 454T195 470Z" horiz-adv-x="390" unicode="⁸"/>
			<glyph d="M185 714Q360 714 360 505Q360 396 317 334T183 273Q50 273 37 382H138Q142 366 153 359T185 352Q252 352 254 457Q219 425 162 425Q103 425 66 461T29 562Q29 630 72 672T185 714ZM190 633Q162 633 145 616T129 568Q129 537 143 518T189 499Q220 499 236 517T252 567Q252 597 235 615T190 633Z" horiz-adv-x="390" unicode="⁹"/>
			<glyph d="M394 722Q478 722 576 672L515 547Q444 592 384 592Q279 592 244 455H488L457 383H233Q232 363 232 341H445L414 269H240Q272 111 388 111Q463 111 542 174V23Q474 -17 386 -17Q261 -17 187 60T93 269H16L47 341H87V354Q87 371 88 383H15L46 455H97Q111 527 148 587T247 685T394 722Z" horiz-adv-x="556" unicode="€"/>
			<glyph d="M299 721Q367 721 408 680T450 571Q450 497 404 423T258 265V153Q258 123 274 105T319 87Q357 87 407 125H409L456 53Q376 -14 284 -14Q205 -14 162 27T120 133V174L65 126H63L14 201L119 287V523Q119 581 143 626T208 696T299 721ZM298 629Q281 629 269 606T258 553V382Q337 467 337 563Q337 591 326 610T298 629Z" horiz-adv-x="500" unicode="ℓ"/>
			<glyph d="M125 716Q174 716 206 694T238 628H174Q173 648 160 657T123 667Q105 667 94 660T83 641Q83 629 94 623T136 611Q192 600 220 583T248 529Q248 491 216 467T130 444Q80 444 45 468T10 541H74Q74 516 91 504T132 493Q154 493 168 500T183 525Q183 538 168 544T122 556Q70 565 44 583T19 636Q19 674 50 695T125 716ZM281 710H367L432 539L497 710H582V450H521V634H520L453 450H410L343 634H342V450H281Z" horiz-adv-x="614" unicode="℠"/>
			<glyph d="M14 710H226V660H152V450H88V660H14ZM259 710H345L410 539L475 710H560V450H499V634H498L431 450H388L321 634H320V450H259Z" horiz-adv-x="592" unicode="™"/>
			<glyph d="M381 721Q473 721 548 683T668 574T712 411Q712 352 691 297T631 202T533 150V118H711V0H424V204Q493 218 530 271T567 398Q567 452 544 497T479 570T382 597Q326 597 283 570T217 496T194 395Q194 321 229 271T335 204V0H48V118H226V150Q142 173 95 245T48 409Q48 502 92 573T213 682T381 721Z" horiz-adv-x="768" unicode="Ω"/>
			<glyph d="M384 714Q486 714 564 666T684 535T726 349H193V111Q273 33 384 33Q468 33 529 72T639 192L685 164Q622 66 553 26T384 -14Q283 -14 206 34T86 164T44 349Q44 450 85 533T204 665T384 714ZM382 668Q273 668 193 589V398H577V589Q493 668 382 668Z" horiz-adv-x="770" unicode="℮"/>
			<glyph d="M538 722H635L223 -22H124ZM157 703H247V280H139V542H57V620Q100 620 126 641T157 703ZM642 432Q715 432 753 400T791 319Q791 287 772 263T721 229Q764 218 786 191T809 123Q809 62 760 26T643 -9Q567 -9 521 24T475 122Q475 162 499 189T563 226Q493 248 493 315Q493 367 534 399T642 432ZM642 356Q616 356 602 343T589 308Q589 287 603 274T642 261Q667 261 680 273T694 308Q694 330 680 343T642 356ZM642 188Q611 188 593 172T576 129Q576 100 594 85T643 70Q707 70 707 129Q707 156 689 172T642 188Z" horiz-adv-x="834" unicode="⅛"/>
			<glyph d="M594 722H691L279 -22H180ZM198 712Q264 712 304 682T344 599Q344 568 327 545T278 511Q318 503 339 476T361 405Q361 344 312 307T191 271Q113 271 70 310T27 413H129Q137 356 191 356Q220 356 237 371T255 412Q255 441 239 454T187 467H162V540H188Q214 540 230 552T246 584Q246 606 232 618T194 630Q138 630 138 568H37Q40 636 83 674T198 712ZM672 432Q745 432 783 400T821 319Q821 287 802 263T751 229Q794 218 816 191T839 123Q839 62 790 26T673 -9Q597 -9 551 24T505 122Q505 162 529 189T593 226Q523 248 523 315Q523 367 564 399T672 432ZM672 356Q646 356 632 343T619 308Q619 287 633 274T672 261Q697 261 710 273T724 308Q724 330 710 343T672 356ZM672 188Q641 188 623 172T606 129Q606 100 624 85T673 70Q737 70 737 129Q737 156 719 172T672 188Z" horiz-adv-x="859" unicode="⅜"/>
			<glyph d="M587 722H684L272 -22H173ZM79 703H335V620H159L145 546Q170 567 220 567Q283 567 319 528T355 428Q355 356 309 313T188 271Q121 271 78 305T32 398H130Q135 379 151 367T191 356Q218 356 236 374T254 426Q254 457 238 475T194 493Q176 493 162 485T140 464H41ZM667 432Q740 432 778 400T816 319Q816 287 797 263T746 229Q789 218 811 191T834 123Q834 62 785 26T668 -9Q592 -9 546 24T500 122Q500 162 524 189T588 226Q518 248 518 315Q518 367 559 399T667 432ZM667 356Q641 356 627 343T614 308Q614 287 628 274T667 261Q692 261 705 273T719 308Q719 330 705 343T667 356ZM667 188Q636 188 618 172T601 129Q601 100 619 85T668 70Q732 70 732 129Q732 156 714 172T667 188Z" horiz-adv-x="854" unicode="⅝"/>
			<glyph d="M519 722H616L204 -22H105ZM44 703H344V620Q281 565 248 470T212 280H96Q104 380 137 460T232 616H44ZM599 432Q672 432 710 400T748 319Q748 287 729 263T678 229Q721 218 743 191T766 123Q766 62 717 26T600 -9Q524 -9 478 24T432 122Q432 162 456 189T520 226Q450 248 450 315Q450 367 491 399T599 432ZM599 356Q573 356 559 343T546 308Q546 287 560 274T599 261Q624 261 637 273T651 308Q651 330 637 343T599 356ZM599 188Q568 188 550 172T533 129Q533 100 551 85T600 70Q664 70 664 129Q664 156 646 172T599 188Z" horiz-adv-x="786" unicode="⅞"/>
			<glyph d="M253 721Q351 721 413 670T502 537T529 359Q529 202 472 94T271 -13Q204 -13 152 16T71 99T42 219Q42 282 70 333T148 414T262 443Q333 443 396 395V410Q396 491 364 555T259 620Q225 620 196 606T138 567L68 647Q113 685 156 703T253 721ZM283 346Q229 346 199 307T169 212Q169 159 195 121T273 84Q315 84 342 113T382 184T395 268V291Q372 316 343 331T283 346Z" horiz-adv-x="572" unicode="∂"/>
			<glyph d="M262 714H423L688 0H-7ZM340 538L198 132H480L342 538Z" horiz-adv-x="681" unicode="∆"/>
			<glyph d="M55 786H693V-214H561V660H188V-214H55Z" horiz-adv-x="749" unicode="∏"/>
			<glyph d="M39 786H634V660H216L479 293L198 -88H646V-214H27V-104L322 292L39 676Z" horiz-adv-x="673" unicode="∑"/>
			<glyph d="M53 306H558V199H53Z" horiz-adv-x="611" unicode="−"/>
			<glyph d="M248 722H333L-79 -22H-166Z" horiz-adv-x="167" unicode="∕"/>
			<glyph d="M140 372Q174 372 199 347T224 287Q224 254 199 228T141 203Q106 203 80 227T55 287Q55 322 80 347T140 372Z" horiz-adv-x="278" unicode="∙"/>
			<glyph d="M441 786H580L362 -214H240L93 89L40 63L-9 168L162 246L279 -9Z" horiz-adv-x="570" unicode="√"/>
			<glyph d="M228 463Q290 463 332 432T424 341Q468 399 513 431T620 463Q676 463 717 437T781 368T803 269Q803 213 781 167T717 95T619 69Q562 69 515 100T424 185Q374 128 333 99T232 71Q175 71 132 96T67 166T45 268Q45 324 67 368T130 437T228 463ZM616 349Q583 349 553 325T491 264Q523 227 553 205T619 184Q654 184 674 207T694 266Q694 302 673 325T616 349ZM229 348Q195 348 174 324T154 266Q154 230 175 207T231 185Q266 185 298 208T356 264Q284 348 229 348Z" horiz-adv-x="848" unicode="∞"/>
			<glyph d="M400 784Q443 784 481 762T519 702Q519 674 502 656T458 638Q434 638 422 651T401 693Q395 712 390 718T379 725Q360 725 360 689L362 629Q366 547 366 515V37Q366 -91 325 -152T199 -213Q154 -213 115 -189T77 -124Q77 -98 96 -82T140 -67Q162 -67 175 -80T195 -125Q199 -141 203 -147T215 -154Q234 -154 234 -124L232 -60Q228 16 228 33V515Q228 602 239 652T276 734Q317 784 400 784Z" horiz-adv-x="628" unicode="∫"/>
			<glyph d="M486 474H572Q566 413 544 369T476 301Q444 284 412 284Q387 284 358 292T286 316Q246 331 217 339T165 347Q140 347 125 329T107 286H22Q29 369 68 420T187 471Q214 471 241 464T308 443T374 422T428 415Q454 415 468 431T486 474ZM177 249Q202 249 229 241T300 219Q348 203 375 195T428 188Q452 188 466 205T485 248H571Q564 167 526 111T415 56Q389 56 357 65T281 90Q237 105 211 112T164 120Q140 120 125 102T106 59H21Q24 107 41 150T93 221T177 249Z" horiz-adv-x="593" unicode="≈"/>
			<glyph d="M395 604L508 547L458 447H563V318H394L342 215H563V85H277L199 -72L85 -15L136 85H30V215H200L252 318H30V447H316Z" horiz-adv-x="593" unicode="≠"/>
			<glyph d="M563 576V441L209 347L563 249V114L30 282V411ZM30 86H563V-43H30Z" horiz-adv-x="593" unicode="≤"/>
			<glyph d="M30 576L563 411V282L30 114V249L384 347L30 441ZM30 86H563V-43H30Z" horiz-adv-x="593" unicode="≥"/>
			<glyph d="M237 747H355L541 356L355 -35H236L52 356ZM296 617L184 356L296 94L408 356Z" horiz-adv-x="593" unicode="◊"/>
			<glyph d="M566 886Q711 886 833 814T1028 619T1100 352Q1100 207 1028 84T833 -110T566 -182Q421 -182 298 -110T104 84T32 352Q32 497 104 619T298 814T566 886ZM566 708Q469 708 387 660T258 530T210 352Q210 255 258 173T387 44T566 -4Q663 -4 744 44T874 173T922 352Q922 449 874 530T744 660T566 708ZM566 530Q614 530 655 506T720 441T744 352Q744 304 720 263T655 198T566 174Q518 174 477 198T412 263T388 352Q388 400 412 441T477 506T566 530Z" horiz-adv-x="1132" unicode="◎"/>
			<glyph d="M343 714H394L253 344H202ZM135 708Q185 708 214 678T243 598Q243 548 213 518T135 488Q85 488 56 518T27 598Q27 649 56 678T135 708ZM135 660Q90 660 90 598Q90 536 135 536Q157 536 168 552T180 598Q180 625 169 642T135 660ZM458 564Q508 564 537 534T566 454Q566 404 536 374T458 344Q408 344 379 374T350 454Q350 505 379 534T458 564ZM458 516Q413 516 413 454Q413 392 458 392Q480 392 491 408T503 454Q503 481 492 498T458 516ZM374 289Q389 289 398 288V239Q393 240 382 240Q369 240 363 234T358 216V209H395V164H358V0H296V164H263V209H296V224Q296 258 314 273T374 289ZM531 289L559 288V239Q550 240 543 240Q530 240 524 234T519 216V209H556V164H519V0H457V164H424V209H457V224Q457 257 475 273T531 289ZM135 212Q185 212 214 182T243 102Q243 52 213 22T135 -8Q85 -8 56 22T27 102Q27 153 56 182T135 212ZM135 164Q90 164 90 102Q90 40 135 40Q157 40 168 56T180 102Q180 129 169 146T135 164Z" horiz-adv-x="586" unicode=""/>
			<glyph d="M538 722H635L223 -22H124ZM157 703H247V280H139V542H57V620Q100 620 126 641T157 703ZM901 432Q1033 432 1047 322H946Q937 355 898 355Q861 355 843 324T824 242Q859 283 924 283Q982 283 1018 246T1055 144Q1055 76 1011 33T899 -9Q724 -9 724 200Q724 306 766 369T901 432ZM583 423H673V0H565V262H483V340Q526 340 552 361T583 423ZM895 208Q864 208 848 189T832 139Q832 109 848 91T894 73Q922 73 938 89T955 138Q955 170 940 189T895 208Z" horiz-adv-x="1079" unicode=""/>
			<glyph d="M594 722H691L279 -22H180ZM198 712Q264 712 304 682T344 599Q344 568 327 545T278 511Q318 503 339 476T361 405Q361 344 312 307T191 271Q113 271 70 310T27 413H129Q137 356 191 356Q220 356 237 371T255 412Q255 441 239 454T187 467H162V540H188Q214 540 230 552T246 584Q246 606 232 618T194 630Q138 630 138 568H37Q40 636 83 674T198 712ZM957 432Q1089 432 1103 322H1002Q993 355 954 355Q917 355 899 324T880 242Q915 283 980 283Q1038 283 1074 246T1111 144Q1111 76 1067 33T955 -9Q780 -9 780 200Q780 306 822 369T957 432ZM639 423H729V0H621V262H539V340Q582 340 608 361T639 423ZM951 208Q920 208 904 189T888 139Q888 109 904 91T950 73Q978 73 994 89T1011 138Q1011 170 996 189T951 208Z" horiz-adv-x="1135" unicode=""/>
			<glyph d="M587 722H684L272 -22H173ZM79 703H335V620H159L145 546Q170 567 220 567Q283 567 319 528T355 428Q355 356 309 313T188 271Q121 271 78 305T32 398H130Q135 379 151 367T191 356Q218 356 236 374T254 426Q254 457 238 475T194 493Q176 493 162 485T140 464H41ZM950 432Q1082 432 1096 322H995Q986 355 947 355Q910 355 892 324T873 242Q908 283 973 283Q1031 283 1067 246T1104 144Q1104 76 1060 33T948 -9Q773 -9 773 200Q773 306 815 369T950 432ZM632 423H722V0H614V262H532V340Q575 340 601 361T632 423ZM944 208Q913 208 897 189T881 139Q881 109 897 91T943 73Q971 73 987 89T1004 138Q1004 170 989 189T944 208Z" horiz-adv-x="1128" unicode=""/>
			<glyph d="M519 722H616L204 -22H105ZM44 703H344V620Q281 565 248 470T212 280H96Q104 380 137 460T232 616H44ZM882 432Q1014 432 1028 322H927Q918 355 879 355Q842 355 824 324T805 242Q840 283 905 283Q963 283 999 246T1036 144Q1036 76 992 33T880 -9Q705 -9 705 200Q705 306 747 369T882 432ZM564 423H654V0H546V262H464V340Q507 340 533 361T564 423ZM876 208Q845 208 829 189T813 139Q813 109 829 91T875 73Q903 73 919 89T936 138Q936 170 921 189T876 208Z" horiz-adv-x="1060" unicode=""/>
			<glyph d="M589 722H686L274 -22H175ZM185 712Q360 712 360 503Q360 394 317 332T183 271Q50 271 37 380H138Q142 364 153 357T185 350Q252 350 254 455Q219 423 162 423Q103 423 66 459T29 560Q29 628 72 670T185 712ZM190 631Q162 631 145 614T129 566Q129 535 143 516T189 497Q220 497 236 515T252 565Q252 595 235 613T190 631ZM952 432Q1084 432 1098 322H997Q988 355 949 355Q912 355 894 324T875 242Q910 283 975 283Q1033 283 1069 246T1106 144Q1106 76 1062 33T950 -9Q775 -9 775 200Q775 306 817 369T952 432ZM634 423H724V0H616V262H534V340Q577 340 603 361T634 423ZM946 208Q915 208 899 189T883 139Q883 109 899 91T945 73Q973 73 989 89T1006 138Q1006 170 991 189T946 208Z" horiz-adv-x="1130" unicode=""/>
			<glyph d="M786 722H883L471 -22H372ZM157 703H247V280H139V542H57V620Q100 620 126 641T157 703ZM405 703H495V280H387V542H305V620Q348 620 374 641T405 703ZM1149 432Q1281 432 1295 322H1194Q1185 355 1146 355Q1109 355 1091 324T1072 242Q1107 283 1172 283Q1230 283 1266 246T1303 144Q1303 76 1259 33T1147 -9Q972 -9 972 200Q972 306 1014 369T1149 432ZM831 423H921V0H813V262H731V340Q774 340 800 361T831 423ZM1143 208Q1112 208 1096 189T1080 139Q1080 109 1096 91T1142 73Q1170 73 1186 89T1203 138Q1203 170 1188 189T1143 208Z" horiz-adv-x="1327" unicode=""/>
			<glyph d="M856 722H953L541 -22H442ZM460 712Q526 712 566 682T606 599Q606 568 589 545T540 511Q580 503 601 476T623 405Q623 344 574 307T453 271Q375 271 332 310T289 413H391Q399 356 453 356Q482 356 499 371T517 412Q517 441 501 454T449 467H424V540H450Q476 540 492 552T508 584Q508 606 494 618T456 630Q400 630 400 568H299Q302 636 345 674T460 712ZM157 703H247V280H139V542H57V620Q100 620 126 641T157 703ZM1219 432Q1351 432 1365 322H1264Q1255 355 1216 355Q1179 355 1161 324T1142 242Q1177 283 1242 283Q1300 283 1336 246T1373 144Q1373 76 1329 33T1217 -9Q1042 -9 1042 200Q1042 306 1084 369T1219 432ZM901 423H991V0H883V262H801V340Q844 340 870 361T901 423ZM1213 208Q1182 208 1166 189T1150 139Q1150 109 1166 91T1212 73Q1240 73 1256 89T1273 138Q1273 170 1258 189T1213 208Z" horiz-adv-x="1397" unicode=""/>
			<glyph d="M849 722H946L534 -22H435ZM157 703H247V280H139V542H57V620Q100 620 126 641T157 703ZM341 703H597V620H421L407 546Q432 567 482 567Q545 567 581 528T617 428Q617 356 571 313T450 271Q383 271 340 305T294 398H392Q397 379 413 367T453 356Q480 356 498 374T516 426Q516 457 500 475T456 493Q438 493 424 485T402 464H303ZM1212 432Q1344 432 1358 322H1257Q1248 355 1209 355Q1172 355 1154 324T1135 242Q1170 283 1235 283Q1293 283 1329 246T1366 144Q1366 76 1322 33T1210 -9Q1035 -9 1035 200Q1035 306 1077 369T1212 432ZM894 423H984V0H876V262H794V340Q837 340 863 361T894 423ZM1206 208Q1175 208 1159 189T1143 139Q1143 109 1159 91T1205 73Q1233 73 1249 89T1266 138Q1266 170 1251 189T1206 208Z" horiz-adv-x="1390" unicode=""/>
			<glyph d="M140 372Q174 372 199 347T224 287Q224 254 199 228T141 203Q106 203 80 227T55 287Q55 322 80 347T140 372Z" horiz-adv-x="278" unicode=""/>
			<glyph d="M65 714H213V522L174 214H103L65 522Z" horiz-adv-x="278" unicode=""/>
			<glyph d="M140 161Q174 161 199 136T224 76Q224 43 199 17T141 -8Q106 -8 80 16T55 76Q55 111 80 136T140 161Z" horiz-adv-x="278" unicode=""/>
			<glyph d="M200 714Q241 714 275 694T328 640T348 566Q348 525 328 491T274 437T200 418Q159 418 125 438T71 491T52 566Q52 607 71 640T125 694T200 714ZM200 654Q168 654 142 628T117 566Q117 530 142 504T200 478Q233 478 258 504T283 566Q283 601 258 627T200 654Z" horiz-adv-x="400" unicode=""/>
			<glyph d="M277 714Q358 714 415 675L437 714H535L476 611Q535 516 535 353Q535 173 469 79T277 -14Q199 -14 140 25L118 -14H21L79 88Q21 183 21 353Q21 530 86 622T277 714ZM276 597Q225 597 200 556T169 465T163 357Q163 284 168 244L350 562Q322 597 276 597ZM387 456L205 138Q232 103 277 103Q329 103 354 143T386 237T393 357Q393 415 387 456Z" horiz-adv-x="556" unicode=""/>
			<glyph d="M211 501L264 498V424Q238 426 228 426Q206 426 197 416T189 384V363H258V296H189V0H90V296H30V363H90V389Q90 444 122 472T211 501ZM895 373Q905 373 917 369V276Q904 280 881 280Q830 280 806 248T783 163V0H683V363H778V295H779Q793 330 825 351T895 373ZM451 368Q537 368 588 316T639 177Q639 90 587 38T451 -14Q366 -14 315 38T264 177Q264 264 315 316T451 368ZM451 293Q409 293 386 263T364 177Q364 121 386 91T451 61Q494 61 516 91T539 177Q539 227 518 260T451 293Z" horiz-adv-x="927" unicode=""/>
			<glyph d="M118 714H266L185 572H87Z" unicode=""/>
			<glyph d="M63 911Q81 911 98 906T143 892Q186 876 206 876Q224 876 234 884T249 911H313Q301 852 273 824T201 797Q169 797 124 813Q97 823 82 827T54 831Q20 831 9 789H-54Q-48 840 -16 875T63 911Z" unicode=""/>
			<glyph d="M-47 884H306V809H-47Z" unicode=""/>
			<glyph d="M-39 921H26Q31 888 59 871T125 854Q219 854 235 921H298Q289 851 244 815T120 779Q48 779 7 815T-39 921Z" unicode=""/>
			<glyph d="M35 921H192L43 779H-56ZM242 921H399L250 779H151Z" unicode=""/>
			<glyph d="M130 973Q180 973 213 940T247 859Q247 812 213 778T130 745Q81 745 47 777T13 859Q13 907 47 940T130 973ZM129 922Q103 922 86 905T69 859Q69 831 86 813T130 796Q158 796 174 813T191 859Q191 885 175 903T129 922Z" unicode=""/>
			<glyph d="M85 470H185V363H258V296H185V115Q185 90 193 81T227 73Q250 73 258 75V-2Q235 -6 199 -6Q140 -6 112 14T85 82V296H25V363H85ZM458 368Q544 368 595 316T646 177Q646 90 594 38T458 -14Q373 -14 322 38T271 177Q271 264 322 316T458 368ZM458 293Q416 293 393 263T371 177Q371 121 393 91T458 61Q501 61 523 91T546 177Q546 227 525 260T458 293Z" horiz-adv-x="656" unicode=""/>
			<glyph d="M26 920Q59 920 81 898T103 843Q103 810 81 788T26 766Q-7 766 -29 788T-51 843Q-51 876 -29 898T26 920ZM233 920Q266 920 288 898T310 843Q310 810 288 788T233 766Q200 766 178 788T156 843Q156 876 178 898T233 920Z" unicode=""/>
			<glyph d="M151 921H308L154 779H55Z" unicode=""/>
			<glyph d="M-48 921H109L205 779H106Z" unicode=""/>
			<glyph d="M65 921H195L305 779H190L128 860L64 779H-46Z" unicode=""/>
			<glyph d="M-46 921H69L131 840L195 921H305L194 779H64Z" unicode=""/>
			<glyph d="M133 700Q185 700 215 666T246 579Q246 527 215 493T133 459Q82 459 51 493T20 579Q20 631 51 665T133 700ZM351 700H404L251 297H198ZM133 644Q108 644 95 626T82 579Q82 551 95 533T133 516Q159 516 172 533T185 579Q185 608 172 626T133 644ZM466 538Q518 538 548 504T579 417Q579 365 548 331T466 297Q415 297 384 331T353 417Q353 469 384 503T466 538ZM466 482Q441 482 428 464T415 417Q415 389 428 371T466 354Q492 354 505 371T518 417Q518 446 505 464T466 482ZM133 238Q185 238 215 204T246 117Q246 65 215 31T133 -3Q82 -3 51 31T20 117Q20 169 51 203T133 238ZM271 230H433V180H330V131H418V83H330V0H271ZM459 230H621V180H518V131H606V83H518V0H459ZM133 182Q108 182 95 164T82 117Q82 89 95 71T133 54Q159 54 172 71T185 117Q185 146 172 164T133 182Z" horiz-adv-x="643" unicode=""/>
			<glyph d="M248 722H333L-79 -22H-166Z" horiz-adv-x="167" unicode=""/>
			<glyph d="M462 731Q495 731 518 707T542 651Q542 618 518 594T462 571Q429 571 405 594T382 651Q382 684 405 707T462 731ZM258 714Q277 714 333 710V604Q306 607 282 607Q251 607 239 593T227 547V517H325V422H227V0H85V422H0V517H85V555Q85 633 132 673T258 714ZM391 517H533V0H391Z" horiz-adv-x="591" unicode=""/>
			<glyph d="M258 714Q277 714 333 710V604Q306 607 282 607Q251 607 239 593T227 547V517H325V422H227V0H85V422H0V517H85V555Q85 633 132 673T258 714ZM391 714H533V0H391Z" horiz-adv-x="591" unicode=""/>
			<glyph d="M258 714Q277 714 333 710V604Q306 607 282 607Q255 607 241 595T227 550V517H388V556Q388 636 436 675T561 714Q580 714 636 710V604Q609 607 585 607Q557 607 543 595T530 549V517H628V422H530V0H388V422H227V0H85V422H0V517H85V555Q85 632 131 673T258 714Z" horiz-adv-x="636" unicode="ﬀ"/>
			<glyph d="M462 731Q495 731 518 707T542 651Q542 618 518 594T462 571Q429 571 405 594T382 651Q382 684 405 707T462 731ZM258 714Q277 714 333 710V604Q306 607 282 607Q251 607 239 593T227 547V517H325V422H227V0H85V422H0V517H85V555Q85 633 132 673T258 714ZM391 517H533V0H391Z" horiz-adv-x="591" unicode="ﬁ"/>
			<glyph d="M258 714Q277 714 333 710V604Q306 607 282 607Q251 607 239 593T227 547V517H325V422H227V0H85V422H0V517H85V555Q85 633 132 673T258 714ZM391 714H533V0H391Z" horiz-adv-x="591" unicode="ﬂ"/>
			<glyph d="M765 731Q798 731 821 707T845 651Q845 618 821 594T765 571Q732 571 708 594T685 651Q685 684 708 707T765 731ZM258 714Q277 714 333 710V604Q306 607 282 607Q255 607 241 595T227 550V517H388V556Q388 636 436 675T561 714Q580 714 636 710V604Q609 607 585 607Q557 607 543 595T530 549V517H628V422H530V0H388V422H227V0H85V422H0V517H85V555Q85 632 131 673T258 714ZM694 517H836V0H694Z" horiz-adv-x="894" unicode="ﬃ"/>
			<glyph d="M258 714Q277 714 333 710V604Q306 607 282 607Q255 607 241 595T227 550V517H388V556Q388 636 436 675T561 714Q580 714 636 710V604Q609 607 585 607Q557 607 543 595T530 549V517H628V422H530V0H388V422H227V0H85V422H0V517H85V555Q85 632 131 673T258 714ZM694 714H836V0H694Z" horiz-adv-x="894" unicode="ﬄ"/>
			<glyph d="M499 716Q546 716 578 690T616 619H551Q549 638 533 651T498 664Q466 664 449 640T432 579Q432 543 449 519T498 496Q521 496 535 511T554 554H618Q614 503 581 473T499 444Q438 444 402 483T366 579Q366 638 402 677T499 716ZM32 710H118L183 539L248 710H333V450H272V634H271L204 450H161L94 634H93V450H32Z" horiz-adv-x="628" unicode="🅪"/>
		</font>
</defs>
</svg>
