<?xml version="1.0" encoding="UTF-8"?>
<svg height="100%" width="100%" xmlns="http://www.w3.org/2000/svg">
	<defs>
		<font horiz-adv-x="222" id="web">
			<font-face alphabetic="0" ascent="984" descent="-236" font-family="" panose-1="2 11 5 4 2 2 2 9 2 4"/>
			<missing-glyph d="M0 718H512V0H0ZM50 667V50H462V667ZM259 609Q313 609 348 572T383 478Q383 440 368 414T319 357Q285 326 278 311Q271 294 271 234H225L223 253Q223 309 239 339Q254 364 286 395Q307 414 319 432T332 474Q332 508 309 533T256 559Q222 559 201 535T174 464L124 472Q131 539 165 574T259 609ZM222 184H278V117H222Z" horiz-adv-x="512"/>
			<glyph d="" horiz-adv-x="278" unicode=" "/>
			<glyph d="M159 714H252L205 491L115 183H69L112 490ZM68 125Q93 125 112 105T131 58Q131 33 112 13T68 -6Q41 -6 22 13T3 60Q3 86 22 105T68 125Z" horiz-adv-x="259" unicode="!"/>
			<glyph d="M181 714H249L194 456H126ZM321 714H389L334 456H266Z" horiz-adv-x="426" unicode="&quot;"/>
			<glyph d="M223 714H293L251 506H416L458 714H527L485 506H576V442H473L441 281H533V217H427L384 0H315L358 217H193L150 0H81L124 217H33V281H137L169 442H77V506H182ZM238 442L207 281H372L403 442Z" horiz-adv-x="609" unicode="#"/>
			<glyph d="M306 753H356L340 679Q417 665 458 615T500 484V480H411V484Q411 583 324 602L278 394Q369 367 414 329T460 217Q460 165 434 118T354 43T220 14H198L181 -63H132L149 19Q64 33 22 88T-20 232V239H67V227Q67 117 165 94L214 322Q132 344 91 383T51 493Q51 557 83 599T166 662T278 683H291ZM274 608Q216 608 177 579T139 500Q139 465 162 443T232 406ZM261 308L214 88H217Q281 88 326 119T371 207Q371 247 344 269T261 308Z" horiz-adv-x="494" unicode="$"/>
			<glyph d="M683 722H760L189 -22H111ZM267 714Q330 714 368 676T407 570Q407 511 385 456T319 366T217 331Q152 331 115 370T78 477Q78 538 100 592T165 680T267 714ZM264 658Q228 658 203 629T165 556T153 471Q153 435 170 411T221 387Q255 387 280 414T318 483T332 565Q332 658 264 658ZM651 369Q714 369 752 331T791 225Q791 166 769 111T703 21T601 -14Q536 -14 499 25T462 132Q462 193 484 247T549 335T651 369ZM648 313Q612 313 587 284T549 211T537 126Q537 90 554 66T605 42Q639 42 664 69T702 138T716 220Q716 313 648 313Z" horiz-adv-x="869" unicode="%"/>
			<glyph d="M339 714Q409 714 455 676T502 578Q502 522 461 474T326 376L438 192Q463 226 480 264T501 337H583Q569 273 545 226T480 130L565 0H468L424 74Q334 -12 220 -12Q163 -12 117 11T46 76T21 173Q21 242 66 293T220 398Q186 448 173 483T161 556Q161 626 211 670T339 714ZM337 639Q298 639 272 615T246 551Q246 524 257 496T291 434Q360 471 388 501T417 565Q417 598 394 618T337 639ZM257 338Q176 298 141 258T106 169Q106 124 142 93T229 63Q272 63 305 77T384 130Z" horiz-adv-x="630" unicode="&amp;"/>
			<glyph d="M172 714H240L185 456H117Z" horiz-adv-x="278" unicode="'"/>
			<glyph d="M312 821H382Q258 672 198 526T139 223Q139 48 191 -108H135Q101 -36 77 70T54 260Q54 406 115 537T312 821Z" horiz-adv-x="259" unicode="("/>
			<glyph d="M75 821H131Q166 741 189 637T212 452Q212 297 147 166T-46 -108H-116Q127 176 127 488Q127 665 75 821Z" horiz-adv-x="259" unicode=")"/>
			<glyph d="M218 714H272L247 601L357 612L362 564L255 550L304 450L255 427L208 530L130 443L93 480L170 564L75 612L100 658L196 609Z" horiz-adv-x="352" unicode="*"/>
			<glyph d="M248 506H316V287H534V219H316V0H248V219H30V287H248Z" horiz-adv-x="600" unicode="+"/>
			<glyph d="M76 125Q106 125 126 101T146 34Q146 -5 124 -43T66 -107T-12 -139L-1 -88Q32 -84 58 -56T88 -3Q80 -5 75 -5Q51 -5 31 13T12 57Q12 86 31 105T76 125Z" horiz-adv-x="278" unicode=","/>
			<glyph d="M42 318H332L316 238H26Z" horiz-adv-x="389" unicode="-"/>
			<glyph d="M85 125Q110 125 129 105T148 58Q148 33 129 13T85 -6Q58 -6 39 13T20 60Q20 86 39 105T85 125Z" horiz-adv-x="278" unicode="."/>
			<glyph d="M278 731H351L55 -17H-18Z" horiz-adv-x="333" unicode="/"/>
			<glyph d="M335 709Q432 709 479 643T526 442Q526 343 487 229Q449 114 379 51T221 -12Q124 -12 74 57T25 263Q25 365 65 475Q105 586 175 647T335 709ZM328 634Q268 634 220 578T144 422Q115 321 115 248Q115 154 143 108T230 63Q275 63 313 94T379 185Q437 310 437 468Q437 559 410 596T328 634Z" horiz-adv-x="556" unicode="0"/>
			<glyph d="M369 709H435L284 0H194L309 539Q223 519 126 519L140 587Q215 588 277 621T369 709Z" horiz-adv-x="556" unicode="1"/>
			<glyph d="M326 709Q384 709 429 685T500 619T525 520Q525 443 474 380Q423 316 279 237Q191 188 150 150T96 75H465L449 0H-3Q5 89 50 152Q96 214 220 287Q348 361 391 408Q435 455 435 515Q435 568 403 601T316 634Q250 634 208 588T161 468H71Q84 585 150 647T326 709Z" horiz-adv-x="556" unicode="2"/>
			<glyph d="M321 709Q420 709 473 663T526 533Q526 477 491 432T399 370Q491 329 491 224Q491 172 462 117T376 25T235 -12Q126 -12 69 45T12 209V219H102V210Q102 63 237 63Q310 63 355 106T401 219Q401 280 362 308T232 336H225L240 404Q249 403 268 403Q353 404 394 436T436 536Q436 586 407 610T317 634Q254 634 217 598T172 490H82Q99 596 160 652T321 709Z" horiz-adv-x="556" unicode="3"/>
			<glyph d="M434 709H506L408 241H502L487 166H393L357 0H272L308 166H-3L14 250ZM388 562L95 241H323L390 562Z" horiz-adv-x="556" unicode="4"/>
			<glyph d="M174 697H533L518 622H227L171 430L173 428Q224 467 298 467Q389 467 443 408T497 253Q497 175 463 114T369 21T230 -12Q133 -12 75 40T17 190H107Q107 126 138 94T235 63Q288 63 327 87T386 154T407 249Q407 319 370 355T266 392Q227 392 193 374T140 323H64Z" horiz-adv-x="556" unicode="5"/>
			<glyph d="M362 709Q448 709 497 661T548 525H458Q457 581 430 607T348 634Q274 634 225 575T141 385H143Q166 419 207 437T298 456Q355 456 400 428T472 353T498 248Q498 177 467 117T380 23T245 -12Q144 -12 88 51T32 228Q32 397 108 552Q186 709 362 709ZM277 381Q208 381 165 332T122 206Q122 138 156 100T253 63Q323 63 365 114T408 244Q408 307 373 344T277 381Z" horiz-adv-x="556" unicode="6"/>
			<glyph d="M116 697H573L560 625Q449 522 349 350Q248 178 191 0H94Q147 168 241 326T468 622H99Z" horiz-adv-x="556" unicode="7"/>
			<glyph d="M319 709Q375 709 420 686T492 624T518 533Q518 476 483 431T391 374V372Q439 352 465 308T491 205Q491 141 458 91T370 15T254 -12Q187 -12 134 12T51 81T21 189Q21 267 65 319T191 386V388Q153 405 128 442T103 520Q103 576 131 619T208 685T319 709ZM314 634Q261 634 227 601T193 516Q193 466 224 438T312 411Q364 411 396 443T428 526Q428 578 399 606T314 634ZM269 336Q197 336 154 297T111 190Q111 130 147 96T248 63Q317 63 359 102T401 208Q401 267 366 301T269 336Z" horiz-adv-x="556" unicode="8"/>
			<glyph d="M304 709Q408 709 465 646T522 471Q522 356 483 237Q444 117 379 52T201 -12Q108 -12 57 32T7 162V169H97Q97 63 199 63Q274 63 324 118T414 307L412 309Q388 274 345 256T255 239Q200 239 154 266T83 340T57 447Q57 559 126 634T304 709ZM294 634Q228 634 188 579Q147 526 147 451Q147 386 181 350T276 314Q348 314 390 364T432 489Q432 558 396 596T294 634Z" horiz-adv-x="556" unicode="9"/>
			<glyph d="M166 523Q192 523 211 503T230 456Q230 431 210 411T166 391Q139 391 120 411T102 458Q102 485 121 504T166 523ZM85 125Q110 125 129 105T148 58Q148 33 129 13T85 -6Q58 -6 39 13T20 60Q20 86 39 105T85 125Z" horiz-adv-x="278" unicode=":"/>
			<glyph d="M166 523Q192 523 211 503T230 456Q230 431 210 411T166 391Q139 391 120 411T102 458Q102 485 121 504T166 523ZM76 125Q106 125 126 101T146 34Q146 -5 124 -43T66 -107T-12 -139L-1 -88Q32 -84 58 -56T88 -3Q80 -5 75 -5Q51 -5 31 13T12 57Q12 86 31 105T76 125Z" horiz-adv-x="278" unicode=";"/>
			<glyph d="M534 514V446L109 253L534 60V-8L26 222V284Z" horiz-adv-x="600" unicode="&lt;"/>
			<glyph d="M31 388H535V320H31ZM31 186H535V118H31Z" horiz-adv-x="600" unicode="="/>
			<glyph d="M36 514L544 284V222L36 -8V60L461 253L36 446Z" horiz-adv-x="600" unicode="&gt;"/>
			<glyph d="M328 722Q381 722 428 703T505 647T535 557Q535 498 509 451Q484 403 398 343Q355 313 331 290T296 243T279 183H196Q207 255 241 305Q272 350 350 402Q399 436 422 470T445 542Q445 593 415 620T330 647Q264 647 221 603T171 488H86Q90 556 123 609T209 692T328 722ZM212 125Q237 125 256 105T275 58Q275 33 256 13T212 -6Q185 -6 166 13T147 60Q147 86 166 105T212 125Z" horiz-adv-x="556" unicode="?"/>
			<glyph d="M456 725Q569 725 665 669T817 517T873 308Q873 254 851 200T785 110T678 74Q623 74 595 94T568 146H566Q537 107 497 88T402 69Q331 69 289 103T247 202Q247 265 291 299Q316 317 352 328T460 347Q500 351 518 355T547 371T557 407Q557 450 530 468T453 486Q403 486 375 462T344 396H265Q269 470 320 509T460 548Q636 548 636 406V170Q636 134 671 134Q704 134 733 153T781 212T800 308Q800 404 753 484T628 610T456 657Q363 657 283 609T157 482T111 308Q111 213 158 132T283 3T451 -44Q539 -44 636 -6L634 -7L657 -62Q564 -109 451 -109Q343 -109 248 -53T96 98T39 308Q39 421 95 517T247 669T456 725ZM556 318Q550 309 530 304T475 294Q429 288 399 280T348 256T327 208Q327 172 350 151T414 131Q475 131 515 163T556 248Z" horiz-adv-x="912" unicode="@"/>
			<glyph d="M375 714H479L608 0H510L477 215H176L51 0H-55ZM410 630L219 295H465L412 630Z" horiz-adv-x="667" unicode="A"/>
			<glyph d="M156 714H447Q543 714 592 671T642 543Q642 481 604 431T506 371V369Q558 353 585 314T613 221Q613 151 577 101T485 25T364 0H7ZM231 634L183 407H399Q470 407 508 441T547 542Q547 589 514 611T414 634ZM167 327L115 80H348Q427 80 472 116T518 221Q518 275 483 301T375 327Z" horiz-adv-x="685" unicode="B"/>
			<glyph d="M430 731Q553 731 627 666T702 484H607Q607 564 559 607T430 651Q295 651 214 546Q133 443 133 296Q133 186 187 124T344 63Q428 63 484 108T565 241H660Q631 114 550 48T344 -17Q199 -17 118 65T38 296Q38 480 148 605Q258 731 430 731Z" horiz-adv-x="722" unicode="C"/>
			<glyph d="M158 714H413Q537 714 607 642T678 440Q678 316 631 216T495 58T281 0H7ZM234 634L117 80H287Q376 80 443 128T547 256T583 431Q583 533 533 583T391 634Z" horiz-adv-x="704" unicode="D"/>
			<glyph d="M158 714H650L634 634H237L189 407H559L543 327H172L120 80H522L504 0H7Z" horiz-adv-x="611" unicode="E"/>
			<glyph d="M156 714H626L609 634H234L187 407H517L500 327H170L102 0H7Z" horiz-adv-x="574" unicode="F"/>
			<glyph d="M430 731Q561 731 639 668T717 492H622Q622 565 569 608T430 651Q364 651 309 625T214 547Q174 496 153 431T133 296Q133 186 187 124T344 63Q446 63 509 119T602 296H374L390 376H701L623 0H563L557 71Q517 28 461 5T344 -17Q200 -17 119 65T38 296Q38 385 65 463T147 605Q201 666 273 698T430 731Z" horiz-adv-x="759" unicode="G"/>
			<glyph d="M157 714H253L188 407H562L626 714H721L571 0H476L545 327H171L102 0H7Z" horiz-adv-x="722" unicode="H"/>
			<glyph d="M157 714H252L102 0H7Z" horiz-adv-x="259" unicode="I"/>
			<glyph d="M431 714H525L416 194Q399 119 383 85T336 26Q284 -17 189 -17Q98 -17 44 23T-9 136Q-9 175 0 234H96Q86 188 86 159Q86 112 112 87T191 63Q241 63 273 95Q308 130 327 223Z" horiz-adv-x="519" unicode="J"/>
			<glyph d="M158 714H253L178 362L180 360L584 714H711L367 420L596 0H491L296 362L153 241L102 0H7Z" horiz-adv-x="667" unicode="K"/>
			<glyph d="M157 714H252L120 80H497L480 0H7Z" horiz-adv-x="556" unicode="L"/>
			<glyph d="M157 714H289L384 100H386L739 714H871L720 0H629L775 625H773L409 0H318L225 625H223L98 0H7Z" horiz-adv-x="870" unicode="M"/>
			<glyph d="M158 714H260L515 123H517L636 714H728L577 0H475L222 587H220L99 0H7Z" horiz-adv-x="722" unicode="N"/>
			<glyph d="M430 731Q519 731 586 690T691 577T728 415Q728 304 681 204T547 44T344 -17Q199 -17 118 65T38 296Q38 418 88 517T227 674T430 731ZM429 651Q339 651 272 601T169 470T133 296Q133 186 187 124T344 63Q432 63 498 113T598 243T633 415Q633 484 608 537T537 621T429 651Z" horiz-adv-x="759" unicode="O"/>
			<glyph d="M156 714H442Q542 714 595 663T649 518Q649 460 620 408T529 324T375 292H164L102 0H7ZM236 634L181 372H400Q469 372 511 411T554 517Q554 574 524 604T440 634Z" horiz-adv-x="648" unicode="P"/>
			<glyph d="M430 731Q518 731 586 690T691 577T728 415Q728 314 689 222T576 66L663 -18L609 -74L510 22Q434 -17 344 -17Q200 -17 119 65T38 296Q38 412 85 512T222 671T430 731ZM429 651Q338 651 271 601T168 470T133 296Q133 186 187 124T344 63Q400 63 446 84L381 146L435 203L514 126Q570 173 601 251T633 415Q633 484 608 537T537 621T429 651Z" horiz-adv-x="759" unicode="Q"/>
			<glyph d="M158 714H438Q547 714 607 668T668 532Q668 459 623 404T507 340V338Q542 328 562 295T582 211Q582 199 579 175T575 139Q567 79 567 62Q567 28 581 0H482Q474 30 474 63Q474 86 483 149Q490 191 490 209Q490 255 470 280T411 305H166L102 0H7ZM236 634L183 385H401Q481 385 527 423T573 526Q573 580 538 607T437 634Z" horiz-adv-x="685" unicode="R"/>
			<glyph d="M356 731Q473 731 543 673T614 513V503H519V510Q519 581 479 616T356 651Q290 651 240 620T190 534Q190 489 218 462T310 418L400 394Q483 372 528 327T574 201Q574 132 534 82T430 8T296 -17Q162 -17 88 41T14 208Q14 225 15 234H110V222Q110 141 157 102T300 63Q381 63 430 100T479 200Q479 251 444 276T351 318L272 339Q182 363 138 407T95 524Q95 591 132 637T230 707T356 731Z" horiz-adv-x="648" unicode="S"/>
			<glyph d="M77 714H653L635 634H395L261 0H166L300 634H60Z" horiz-adv-x="574" unicode="T"/>
			<glyph d="M155 714H250L156 271Q148 233 148 205Q148 63 325 63Q394 63 436 87T502 156Q525 200 553 333L633 714H728L639 286Q615 172 596 133Q562 66 494 24T324 -17Q194 -17 125 39T56 206Q56 234 58 252T71 317Z" horiz-adv-x="722" unicode="U"/>
			<glyph d="M79 714H176L249 93H251L590 714H691L288 0H181Z" horiz-adv-x="611" unicode="V"/>
			<glyph d="M80 714H174L199 113H201L475 714H583L623 111H625L885 714H983L655 0H556L511 616H509L227 0H125Z" horiz-adv-x="926" unicode="W"/>
			<glyph d="M94 714H196L328 432L557 714H664L370 360L551 0H453L309 302L65 0H-44L266 373Z" horiz-adv-x="611" unicode="X"/>
			<glyph d="M66 714H167L313 368L584 714H694L348 287L286 0H193L254 287Z" horiz-adv-x="611" unicode="Y"/>
			<glyph d="M126 714H647L630 633L90 80H546L529 0H-38L-21 79L515 634H106Z" horiz-adv-x="611" unicode="Z"/>
			<glyph d="M182 821H371L357 756H249L85 -43H193L179 -108H-10Z" horiz-adv-x="259" unicode="["/>
			<glyph d="M-18 731H55L351 -17H278Z" horiz-adv-x="333" unicode="\"/>
			<glyph d="M86 821H275L83 -108H-106L-92 -43H16L180 756H72Z" horiz-adv-x="259" unicode="]"/>
			<glyph d="M268 697H332L550 264H480L299 624L121 264H50Z" horiz-adv-x="600" unicode="^"/>
			<glyph d="M0 -75H500V-125H0Z" horiz-adv-x="500" unicode="_"/>
			<glyph d="M116 732H217L284 589H217Z" unicode="`"/>
			<glyph d="M277 529Q466 529 466 397Q466 376 456 328L410 132Q403 101 403 83Q403 68 410 62T436 56Q443 56 455 58L443 -5Q410 -12 387 -12Q322 -12 322 53L323 61L321 63Q291 23 249 5T148 -12Q74 -12 32 25T-10 134Q-10 173 2 201T42 250Q69 272 115 284T251 304Q304 307 331 314T370 338T381 386Q381 419 353 436T277 454Q220 454 182 429T138 361H53Q64 440 125 484T277 529ZM356 264Q329 245 255 237Q151 228 112 205Q75 181 75 135Q75 102 101 82T168 63Q271 63 318 137Q338 169 358 264Z" horiz-adv-x="519" unicode="a"/>
			<glyph d="M146 714H231L176 453L178 451Q243 529 336 529Q434 529 486 470T539 306Q539 223 506 150T411 32T266 -12Q204 -12 154 18T92 96H90L71 0H-5ZM334 454Q270 454 222 416T150 318T125 192Q125 132 163 97T266 63Q322 63 364 99T430 192T454 306Q454 373 422 413T334 454Z" horiz-adv-x="593" unicode="b"/>
			<glyph d="M307 529Q400 529 449 484T501 353H416Q416 400 386 427T307 454Q247 454 201 419T130 329T106 211Q106 139 138 101T234 63Q287 63 326 90T385 169H470Q446 82 385 35T234 -12Q131 -12 76 46T21 211Q21 299 56 371T156 486T307 529Z" horiz-adv-x="537" unicode="c"/>
			<glyph d="M522 714H606L455 0H375L393 74H391Q358 29 317 8T220 -12Q126 -12 71 45T17 200Q17 284 53 360T155 482T304 529Q366 529 409 505T465 438H467ZM306 454Q244 454 198 417T127 321T102 200Q102 133 135 98T234 63Q293 63 339 101T411 200T437 320Q437 380 402 417T306 454Z" horiz-adv-x="593" unicode="d"/>
			<glyph d="M276 529Q385 529 440 471T495 301Q495 288 492 266T487 233H98Q95 208 95 188Q95 132 134 97T229 63Q283 63 321 88T378 162H463Q443 79 380 33T229 -12Q125 -12 67 44T10 197Q10 288 45 364T141 485T276 529ZM288 454Q157 454 110 308H410Q411 313 411 322Q411 383 378 418T288 454Z" horiz-adv-x="537" unicode="e"/>
			<glyph d="M302 722Q348 722 372 714L358 642Q330 647 318 647Q252 647 235 584L218 517H317L303 442H203L108 0H23L119 442H31L46 517H134L141 547Q156 610 169 644T214 700T302 722Z" horiz-adv-x="296" unicode="f"/>
			<glyph d="M290 529Q331 529 366 514T425 474T454 422H456L472 517H552L459 76Q430 -60 398 -107Q364 -159 312 -184T185 -210Q92 -210 36 -168T-22 -50H63Q67 -94 98 -114T192 -135Q261 -135 304 -95Q328 -73 344 -36T378 73L376 75Q323 -4 215 -4Q126 -4 73 53T21 210Q21 287 53 360T147 481T290 529ZM289 454Q236 454 194 416T129 321T106 210Q106 147 141 109T233 71Q291 71 333 108T398 203T421 319Q421 383 386 418T289 454Z" horiz-adv-x="574" unicode="g"/>
			<glyph d="M146 714H231L170 441L172 439Q204 482 251 505T356 529Q430 529 465 497T500 396Q500 378 497 360T485 295L422 0H337L403 302Q407 324 410 347T415 382Q415 416 390 435T325 454Q286 454 247 433T179 373T140 287L80 0H-5Z" horiz-adv-x="556" unicode="h"/>
			<glyph d="M176 722Q200 722 217 704T234 660Q234 636 217 618T176 600Q152 600 135 618T118 662Q118 687 135 704T176 722ZM103 517H188L80 0H-5Z" unicode="i"/>
			<glyph d="M176 722Q200 722 217 704T234 660Q234 636 217 618T176 600Q152 600 135 618T118 662Q118 687 135 704T176 722ZM103 517H188L57 -104Q47 -149 15 -173T-65 -198Q-98 -198 -120 -192L-105 -117Q-87 -123 -72 -123Q-47 -123 -34 -103T-10 -26Z" unicode="j"/>
			<glyph d="M146 714H230L141 294L143 292L403 517H514L289 326L417 0H322L221 275L119 184L80 0H-5Z" horiz-adv-x="481" unicode="k"/>
			<glyph d="M145 714H230L80 0H-5Z" unicode="l"/>
			<glyph d="M347 529Q455 529 477 436Q506 477 554 503T654 529Q720 529 759 498T798 413Q798 382 783 310L718 0H633L703 319Q713 363 713 383Q713 413 690 433T634 454Q590 454 547 423T486 359T456 269L399 0H314L374 284Q392 373 392 387Q392 419 373 436T320 454Q259 454 193 388Q168 363 158 340T137 265L80 0H-5L105 517H184L165 440L167 438Q202 482 248 505T347 529Z" horiz-adv-x="852" unicode="m"/>
			<glyph d="M356 529Q430 529 465 497T500 396Q500 378 497 360T485 295L422 0H337L409 333Q415 363 415 382Q415 416 390 435T325 454Q266 454 210 407Q155 360 141 289L80 0H-5L104 517H186L170 439H172Q204 482 251 505T356 529Z" horiz-adv-x="556" unicode="n"/>
			<glyph d="M306 529Q411 529 466 473T521 315Q521 228 486 153T387 33T235 -12Q171 -12 121 15T44 91T17 205Q17 289 52 363T152 483T306 529ZM299 454Q241 454 196 417T126 323T102 205Q102 137 140 100T244 63Q302 63 345 101T412 196T436 308Q436 374 400 414T299 454Z" horiz-adv-x="574" unicode="o"/>
			<glyph d="M337 529Q431 529 485 472T540 317Q540 235 504 159T403 35T253 -12Q192 -12 148 11T92 79H90L35 -198H-49L102 517H182L164 443H166Q199 487 238 508T337 529ZM321 454Q239 454 179 374Q120 292 120 197Q120 136 155 99T250 63Q311 63 358 99T430 195T455 317Q455 384 421 419T321 454Z" horiz-adv-x="593" unicode="p"/>
			<glyph d="M289 529Q357 529 397 505T456 435H458L475 517H561L410 -198H324L380 66H378Q345 27 303 7T215 -12Q121 -12 69 48T17 212Q17 294 50 366T145 484T289 529ZM297 454Q240 454 195 419T126 328T102 212Q102 143 137 103T234 63Q291 63 336 99Q379 133 405 197T431 327Q431 386 396 420T297 454Z" horiz-adv-x="593" unicode="q"/>
			<glyph d="M362 530Q376 530 378 529L358 438Q349 439 338 439Q281 439 251 423T184 366Q150 329 129 229L80 0H-5L103 517H183L158 406H160Q201 474 247 502T362 530Z" horiz-adv-x="333" unicode="r"/>
			<glyph d="M245 529Q333 529 386 486T440 365H355V374Q355 408 325 431T247 454Q196 454 167 437T138 388Q138 364 158 347T240 306Q354 260 382 228Q411 193 411 148Q411 73 351 30T199 -12Q-9 -12 -9 163H76V155Q76 110 110 86T208 63Q262 63 294 83T326 142Q326 179 272 204L206 233L185 242Q112 271 82 302T53 380Q53 424 79 458T149 510T245 529Z" horiz-adv-x="481" unicode="s"/>
			<glyph d="M168 670H253L221 517H324L308 442H205L142 141Q138 115 138 104Q138 69 189 69Q212 69 238 78L223 0Q190 -6 163 -6Q47 -6 47 78Q47 93 53 125L120 442H33L49 517H136Z" horiz-adv-x="315" unicode="t"/>
			<glyph d="M93 517H178L109 200Q100 158 100 135Q100 101 124 82T190 63Q259 63 310 114Q359 162 375 229L435 517H520L411 0H329L345 78H343Q310 34 262 11T159 -12Q86 -12 50 20T15 121Q15 153 31 228Z" horiz-adv-x="556" unicode="u"/>
			<glyph d="M42 517H132L176 87H178L402 517H494L207 0H116Z" horiz-adv-x="481" unicode="v"/>
			<glyph d="M41 517H131L163 106H165L351 517H447L472 106H474L670 517H762L495 0H405L379 402H377L192 0H102Z" horiz-adv-x="759" unicode="w"/>
			<glyph d="M61 517H159L237 329L391 517H494L272 267L404 0H307L213 212L37 0H-66L176 274Z" horiz-adv-x="481" unicode="x"/>
			<glyph d="M42 517H133L193 106H195L412 517H505L163 -88Q159 -95 130 -136Q104 -174 72 -192T-3 -210Q-20 -210 -38 -205T-63 -197L-48 -128Q-25 -142 1 -142Q47 -142 74 -97L133 0Z" horiz-adv-x="481" unicode="y"/>
			<glyph d="M56 517H449L436 456L73 75H382L368 0H-53L-41 64L319 442H41Z" horiz-adv-x="444" unicode="z"/>
			<glyph d="M315 821H382L369 761H319Q297 761 280 740T257 690L216 493Q206 445 175 408T101 358V355Q131 347 148 322T165 259Q165 251 162 236L125 53Q119 25 119 -2Q119 -25 127 -36T150 -48H202L189 -108H117Q85 -108 59 -83T34 -18Q34 11 38 23L76 206Q80 222 80 245Q80 279 63 299T17 322L32 390Q67 390 98 425T139 507L177 692Q188 747 228 784T315 821Z" horiz-adv-x="269" unicode="{"/>
			<glyph d="M77 786H145V-214H77Z" unicode="|"/>
			<glyph d="M86 821H158Q191 821 216 796T241 731Q241 706 238 694L199 509Q195 493 195 467Q195 433 212 411T258 390L243 322Q208 322 176 285T135 201L95 10Q85 -38 45 -73T-40 -108H-107L-94 -48H-47Q5 -48 21 34L58 216Q70 274 102 309T174 355V358Q147 364 128 389T110 453Q110 467 112 478T116 492L151 664Q156 687 156 707Q156 737 148 749T125 761H73Z" horiz-adv-x="269" unicode="}"/>
			<glyph d="M475 319L511 269Q479 221 450 202T386 183Q358 183 336 191T280 218Q248 237 224 246T169 255Q144 255 124 237T85 179L49 229Q93 315 174 315Q205 315 236 303T311 271Q342 256 358 249T387 243Q408 243 427 257T475 319Z" horiz-adv-x="600" unicode="~"/>
			<glyph d="" horiz-adv-x="278" unicode=" "/>
			<glyph d="M157 522Q184 522 203 502T222 456Q222 430 202 410T157 391Q132 391 113 411T94 458Q94 483 113 502T157 522ZM110 333H156L113 27L66 -198H-27L20 25Z" horiz-adv-x="259" unicode="¡"/>
			<glyph d="M319 742H370L353 663Q420 653 456 613T493 506H408Q408 546 389 569T339 595L267 258Q305 258 335 283T381 354H466Q442 273 386 231T252 189L233 99H182L201 192Q133 203 96 252T60 381Q60 455 89 519T173 624T303 667ZM289 596Q243 589 211 556T162 477T146 381Q146 332 164 301T217 261Z" horiz-adv-x="472" unicode="¢"/>
			<glyph d="M317 731Q418 731 477 669T536 504V485H446Q447 492 447 505Q445 573 412 614T324 656Q279 656 242 634T185 574T165 488Q165 430 188 372H342L332 327H202Q212 297 212 260Q212 216 173 161T78 71V69Q96 79 131 87T189 96Q233 96 300 71Q336 58 358 58Q378 58 399 69T453 104L485 32Q457 12 417 -2T348 -17Q309 -17 245 7Q205 21 185 26T144 31Q119 31 94 22T26 -12L-3 63Q71 122 96 160T122 248Q122 269 119 291T112 327H26L36 372H98Q75 453 75 499Q75 561 108 614T197 699T317 731Z" horiz-adv-x="556" unicode="£"/>
			<glyph d="M481 605L531 554L476 499Q501 473 514 434T528 351Q528 308 514 269T476 201L531 145L484 98L428 156Q367 101 280 101Q189 101 128 155L73 97L25 145L80 203Q54 235 41 272T28 349Q28 392 41 430T82 497L25 555L74 604L130 548Q159 572 199 585T281 599Q319 599 358 585T424 549ZM280 524Q235 524 196 500T135 437T113 349Q113 302 135 262T196 199T280 176Q324 176 361 199T421 263T443 351Q443 397 421 436T362 500T280 524Z" horiz-adv-x="556" unicode="¤"/>
			<glyph d="M90 714H188L289 372L290 371L528 714H636L387 369H483L470 309H341L317 276L308 234H455L441 174H295L259 0H170L206 174H61L75 234H219L227 286L219 309H89L103 369H200Z" horiz-adv-x="556" unicode="¥"/>
			<glyph d="M77 661H145V411H77ZM77 161H145V-89H77Z" unicode="¦"/>
			<glyph d="M345 731Q422 731 471 687T521 571L520 555H440Q440 603 416 629T343 656Q304 656 276 634T248 579Q248 552 260 530T295 486L317 464Q364 418 396 383T456 311Q474 286 482 264T491 215Q491 149 452 105T348 53Q361 39 369 12T377 -36Q377 -116 321 -157T183 -198Q100 -198 53 -145T7 -9H87Q87 -62 115 -92T197 -123Q238 -123 265 -101T292 -43Q292 -19 277 9T243 58L109 203Q83 232 64 268T46 339Q46 465 185 496Q163 528 163 575Q163 624 188 659T255 713T345 731ZM218 445Q209 445 187 433T156 414Q126 390 126 351Q126 305 185 244L255 169Q265 158 282 139T314 104Q411 125 411 204Q411 236 380 274T292 366Q269 388 248 409T218 445Z" horiz-adv-x="556" unicode="§"/>
			<glyph d="M160 718Q183 718 200 700T217 657Q217 634 200 616T160 598Q136 598 119 616T103 659Q103 683 120 700T160 718ZM345 718Q368 718 385 700T403 657Q403 633 386 615T345 598Q321 598 304 616T288 659Q288 683 305 700T345 718Z" unicode="¨"/>
			<glyph d="M401 731Q502 731 588 682T725 547T776 359Q776 254 725 168T588 32T401 -17Q299 -17 212 32T75 168T24 359Q24 462 75 547T213 682T401 731ZM401 676Q314 676 243 634T132 519T92 359Q92 269 132 195T243 80T401 38Q486 38 556 80T667 195T708 359Q708 447 667 519T556 634T401 676ZM410 585Q484 585 535 545T598 433H535Q527 476 493 503T411 530Q339 530 299 482T259 359Q259 312 278 271T332 207T413 183Q463 183 495 211T535 285H599Q583 213 532 170T413 128Q346 128 296 157T218 239T191 357Q191 424 217 475T293 556T410 585Z" horiz-adv-x="800" unicode="©"/>
			<glyph d="M219 709Q267 709 307 690T348 635Q348 619 339 583L318 500Q316 493 311 473T306 444Q306 435 310 432T322 430Q331 430 338 433L330 387Q314 380 296 380Q276 380 263 390T251 416L252 426H249Q231 403 206 391T145 380Q97 380 65 401T33 469Q33 521 70 542T163 568Q225 573 257 583T289 622Q289 659 224 659Q147 659 135 606H75Q81 655 122 682T219 709ZM272 544Q262 535 244 531T196 525Q147 521 120 510T93 470Q93 430 152 430Q194 430 222 446T259 489L274 544Z" horiz-adv-x="311" unicode="ª"/>
			<glyph d="M226 442L205 357L85 289L172 199L153 114L30 250L52 342ZM422 442L401 357L281 289L368 199L349 114L226 250L248 342Z" horiz-adv-x="463" unicode="«"/>
			<glyph d="M407 732Q509 732 595 681T731 545T782 357Q782 255 731 169T595 32T407 -18Q305 -18 219 32T82 169T32 357Q32 459 82 545T219 681T407 732ZM407 607Q339 607 281 573T190 482T157 357Q157 289 190 231T281 140T407 107Q475 107 532 140T623 231T657 357Q657 425 623 482T532 573T407 607ZM407 482Q459 482 495 445T532 357Q532 305 495 268T407 232Q355 232 318 268T282 357Q282 409 318 445T407 482Z" horiz-adv-x="814" unicode="¬"/>
			<glyph d="M42 318H332L316 238H26Z" horiz-adv-x="389" unicode="­"/>
			<glyph d="M181 728Q220 728 251 709T301 659T320 587Q320 548 301 516T251 465T181 447Q143 447 111 465T61 516T43 587Q43 627 61 659T111 709T181 728ZM181 703Q134 703 102 670T71 587Q71 537 102 504T181 472Q229 472 260 504T292 587Q292 637 260 670T181 703ZM122 666H199Q222 666 235 654T248 623Q248 607 242 598T223 584Q237 580 241 568T246 538Q246 519 253 508H219Q215 522 215 536Q215 554 210 562T190 570H153V508H122ZM153 640V594H193Q217 594 217 617Q217 640 191 640Z" horiz-adv-x="268" unicode="®"/>
			<glyph d="M104 682H373L362 627H92Z" unicode="¯"/>
			<glyph d="M225 709Q266 709 300 689T353 636T373 561Q373 520 353 486T300 432T225 413Q184 413 150 432T96 486T77 561Q77 602 96 636T150 689T225 709ZM225 659Q183 659 155 631T127 561Q127 519 155 491T225 463Q267 463 295 491T323 561Q323 603 295 631T225 659Z" horiz-adv-x="400" unicode="°"/>
			<glyph d="M266 505H334V339H552V271H334V104H266V271H48V339H266ZM48 68H552V0H48Z" horiz-adv-x="600" unicode="±"/>
			<glyph d="M272 709Q330 709 366 676T402 590Q402 506 295 449L216 405Q145 367 139 333H356L346 277H62Q63 338 92 379T184 455L254 493Q292 513 311 536T331 589Q331 617 314 634T269 652Q193 652 177 559H109Q120 633 161 671T272 709Z" horiz-adv-x="370" unicode="²"/>
			<glyph d="M267 709Q325 709 362 678T400 597Q400 562 377 536T314 500V498Q346 487 362 463T379 407Q379 371 359 338T302 286T218 267Q146 267 106 303T67 407H135Q135 367 158 345T222 323Q262 323 286 346T311 408Q311 439 289 456T223 474H204L213 523H249Q289 523 311 541T334 592Q334 619 315 635T264 652Q228 652 205 632T179 574H112Q119 638 161 673T267 709Z" horiz-adv-x="370" unicode="³"/>
			<glyph d="M270 732H383L247 589H177Z" unicode="´"/>
			<glyph d="M96 517H181L121 241Q120 238 111 197T103 135Q103 101 127 82T192 63Q236 63 274 86T339 147T375 229L436 517H521L412 0H330L346 78H344Q271 -12 173 -12Q116 -12 81 23H79L32 -198H-53Z" horiz-adv-x="556" unicode="µ"/>
			<glyph d="M334 714H578L397 -155H333L502 659H376L207 -155H142L244 336Q165 336 117 378T69 486Q69 560 106 611T204 688T334 714Z" horiz-adv-x="600" unicode="¶"/>
			<glyph d="M131 317Q158 317 176 298T195 253Q195 226 177 207T131 189Q105 189 86 208T67 253Q67 279 86 298T131 317Z" horiz-adv-x="278" unicode="·"/>
			<glyph d="M-18 0H30L-21 -54H-19Q-10 -50 7 -50Q43 -50 69 -68T96 -123Q96 -165 59 -187T-23 -210Q-73 -210 -121 -188L-103 -145Q-99 -146 -79 -153T-39 -160Q-11 -160 5 -154T21 -130Q21 -114 7 -106T-25 -99Q-52 -99 -67 -107L-86 -77Z" unicode="¸"/>
			<glyph d="M291 702H347L252 279H184L254 593Q210 576 140 571L152 624Q203 630 237 648T291 702Z" horiz-adv-x="370" unicode="¹"/>
			<glyph d="M234 709Q302 709 338 675T375 579Q375 528 352 482T286 408T189 380Q121 380 82 413T44 512Q44 563 67 608T134 681T234 709ZM230 659Q191 659 162 637T119 581T104 513Q104 476 126 453T189 430Q226 430 254 451T299 505T315 575Q315 613 294 636T230 659Z" horiz-adv-x="344" unicode="º"/>
			<glyph d="M100 442L223 306L201 214L27 114L48 199L168 267L81 357ZM296 442L419 306L397 214L223 114L244 199L364 267L277 357Z" horiz-adv-x="463" unicode="»"/>
			<glyph d="M678 722H747L177 -22H106ZM292 703H348L253 280H185L255 594Q211 577 141 572L153 625Q204 631 238 649T292 703ZM646 423H710L652 149H717L705 94H641L621 0H555L574 94H389L401 152ZM625 332L461 149H586Z" horiz-adv-x="822" unicode="¼"/>
			<glyph d="M678 722H747L177 -22H106ZM292 703H348L253 280H185L255 594Q211 577 141 572L153 625Q204 631 238 649T292 703ZM677 432Q735 432 771 399T807 313Q807 229 700 172L621 128Q550 90 544 56H761L751 0H467Q468 61 497 102T589 178L659 216Q697 236 716 259T736 312Q736 340 719 357T674 375Q598 375 582 282H514Q525 356 566 394T677 432Z" horiz-adv-x="878" unicode="½"/>
			<glyph d="M709 722H778L208 -22H137ZM267 713Q325 713 362 682T400 601Q400 566 377 540T314 504V502Q346 491 362 467T379 411Q379 375 359 342T302 290T218 271Q146 271 106 307T67 411H135Q135 371 158 349T222 327Q262 327 286 350T311 412Q311 443 289 460T223 478H204L213 527H249Q289 527 311 545T334 596Q334 623 315 639T264 656Q228 656 205 636T179 578H112Q119 642 161 677T267 713ZM672 423H736L678 149H743L731 94H667L647 0H581L600 94H415L427 152ZM651 332L487 149H612Z" horiz-adv-x="833" unicode="¾"/>
			<glyph d="M303 522Q330 522 349 502T368 456Q368 430 348 410T303 391Q278 391 259 411T240 458Q240 483 259 502T303 522ZM236 332H319Q308 259 277 212T181 123Q120 83 95 48T71 -25Q71 -73 102 -104T182 -135Q315 -135 346 25H431Q418 -85 351 -147T179 -210Q123 -210 78 -187T7 -124T-19 -32Q-19 25 13 73T112 166Q177 210 204 247T236 332Z" horiz-adv-x="556" unicode="¿"/>
			<glyph d="M375 714H479L608 0H510L477 215H176L51 0H-55ZM410 630L219 295H465L412 630ZM322 922H423L490 779H423Z" horiz-adv-x="667" unicode="À"/>
			<glyph d="M375 714H479L608 0H510L477 215H176L51 0H-55ZM410 630L219 295H465L412 630ZM480 922H593L457 779H387Z" horiz-adv-x="667" unicode="Á"/>
			<glyph d="M375 714H479L608 0H510L477 215H176L51 0H-55ZM410 630L219 295H465L412 630ZM420 922H506L581 779H507L456 872L369 779H287Z" horiz-adv-x="667" unicode="Â"/>
			<glyph d="M375 714H479L608 0H510L477 215H176L51 0H-55ZM410 630L219 295H465L412 630ZM574 907H626Q594 796 514 796Q495 796 478 801T444 814T422 824Q397 835 377 835Q342 835 324 793H272Q288 848 317 875T388 903Q415 903 460 883T524 863Q556 863 574 907Z" horiz-adv-x="667" unicode="Ã"/>
			<glyph d="M375 714H479L608 0H510L477 215H176L51 0H-55ZM410 630L219 295H465L412 630ZM355 907Q378 907 395 889T412 846Q412 823 395 805T355 787Q331 787 314 805T298 848Q298 872 315 889T355 907ZM540 907Q563 907 580 889T598 846Q598 822 581 804T540 787Q516 787 499 805T483 848Q483 872 500 889T540 907Z" horiz-adv-x="667" unicode="Ä"/>
			<glyph d="M375 714H479L608 0H510L477 215H176L51 0H-55ZM410 630L219 295H465L412 630ZM441 973Q487 973 520 939T554 860Q554 814 520 780T441 747Q395 747 361 780T328 860Q328 906 361 939T441 973ZM441 928Q412 928 392 908T373 860Q373 831 392 811T441 792Q470 792 489 811T509 860Q509 889 489 908T441 928Z" horiz-adv-x="667" unicode="Å"/>
			<glyph d="M441 714H965L948 634H597L550 407H880L862 327H533L480 80H837L821 0H366L409 208H179L30 0H-79ZM480 634L235 288H427L502 634Z" horiz-adv-x="926" unicode="Æ"/>
			<glyph d="M430 731Q553 731 627 666T702 484H607Q607 564 559 607T430 651Q339 651 271 602T168 472T133 296Q133 186 187 124T344 63Q428 63 484 108T565 241H660Q630 112 549 47T347 -17L318 -16L283 -54L284 -55Q297 -50 317 -50Q354 -50 377 -70T400 -123Q400 -161 367 -185T281 -210Q228 -210 183 -188L201 -145Q237 -160 271 -160Q295 -160 310 -152T325 -129Q325 -116 313 -107T280 -99Q256 -99 237 -107L218 -77L275 -11Q160 8 99 87T38 296Q38 412 85 511T222 671T430 731Z" horiz-adv-x="722" unicode="Ç"/>
			<glyph d="M158 714H650L634 634H237L189 407H559L543 327H172L120 80H522L504 0H7ZM280 922H381L448 779H381Z" horiz-adv-x="611" unicode="È"/>
			<glyph d="M158 714H650L634 634H237L189 407H559L543 327H172L120 80H522L504 0H7ZM458 922H571L435 779H365Z" horiz-adv-x="611" unicode="É"/>
			<glyph d="M158 714H650L634 634H237L189 407H559L543 327H172L120 80H522L504 0H7ZM388 922H474L549 779H475L424 872L337 779H255Z" horiz-adv-x="611" unicode="Ê"/>
			<glyph d="M158 714H650L634 634H237L189 407H559L543 327H172L120 80H522L504 0H7ZM323 907Q346 907 363 889T380 846Q380 823 363 805T323 787Q299 787 282 805T266 848Q266 872 283 889T323 907ZM508 907Q531 907 548 889T566 846Q566 822 549 804T508 787Q484 787 467 805T451 848Q451 872 468 889T508 907Z" horiz-adv-x="611" unicode="Ë"/>
			<glyph d="M157 714H252L102 0H7ZM102 922H203L270 779H203Z" horiz-adv-x="259" unicode="Ì"/>
			<glyph d="M157 714H252L102 0H7ZM260 922H373L237 779H167Z" horiz-adv-x="259" unicode="Í"/>
			<glyph d="M157 714H252L102 0H7ZM200 922H286L361 779H287L236 872L149 779H67Z" horiz-adv-x="259" unicode="Î"/>
			<glyph d="M157 714H252L102 0H7ZM133 904Q156 904 173 886T190 843Q190 820 173 802T133 784Q109 784 92 802T76 845Q76 869 93 886T133 904ZM318 904Q341 904 358 886T376 843Q376 819 359 801T318 784Q294 784 277 802T261 845Q261 869 278 886T318 904Z" horiz-adv-x="259" unicode="Ï"/>
			<glyph d="M158 714H413Q537 714 607 642T678 440Q678 316 631 216T495 58T281 0H7L79 341H13L27 405H93ZM234 634L186 405H386L372 341H172L117 80H287Q376 80 443 128T547 256T583 431Q583 533 533 583T391 634Z" horiz-adv-x="704" unicode="Ð"/>
			<glyph d="M158 714H260L515 123H517L636 714H728L577 0H475L222 587H220L99 0H7ZM586 907H638Q606 796 526 796Q507 796 490 801T456 814T434 824Q409 835 389 835Q354 835 336 793H284Q300 848 329 875T400 903Q427 903 472 883T536 863Q568 863 586 907Z" horiz-adv-x="722" unicode="Ñ"/>
			<glyph d="M430 731Q519 731 586 690T691 577T728 415Q728 304 681 204T547 44T344 -17Q199 -17 118 65T38 296Q38 418 88 517T227 674T430 731ZM429 651Q339 651 272 601T169 470T133 296Q133 186 187 124T344 63Q432 63 498 113T598 243T633 415Q633 484 608 537T537 621T429 651ZM329 922H430L497 779H430Z" horiz-adv-x="759" unicode="Ò"/>
			<glyph d="M430 731Q519 731 586 690T691 577T728 415Q728 304 681 204T547 44T344 -17Q199 -17 118 65T38 296Q38 418 88 517T227 674T430 731ZM429 651Q339 651 272 601T169 470T133 296Q133 186 187 124T344 63Q432 63 498 113T598 243T633 415Q633 484 608 537T537 621T429 651ZM507 922H620L484 779H414Z" horiz-adv-x="759" unicode="Ó"/>
			<glyph d="M430 731Q519 731 586 690T691 577T728 415Q728 304 681 204T547 44T344 -17Q199 -17 118 65T38 296Q38 418 88 517T227 674T430 731ZM429 651Q339 651 272 601T169 470T133 296Q133 186 187 124T344 63Q432 63 498 113T598 243T633 415Q633 484 608 537T537 621T429 651ZM437 922H523L598 779H524L473 872L386 779H304Z" horiz-adv-x="759" unicode="Ô"/>
			<glyph d="M430 731Q519 731 586 690T691 577T728 415Q728 304 681 204T547 44T344 -17Q199 -17 118 65T38 296Q38 418 88 517T227 674T430 731ZM429 651Q339 651 272 601T169 470T133 296Q133 186 187 124T344 63Q432 63 498 113T598 243T633 415Q633 484 608 537T537 621T429 651ZM591 907H643Q611 796 531 796Q512 796 495 801T461 814T439 824Q414 835 394 835Q359 835 341 793H289Q305 848 334 875T405 903Q432 903 477 883T541 863Q573 863 591 907Z" horiz-adv-x="759" unicode="Õ"/>
			<glyph d="M430 731Q519 731 586 690T691 577T728 415Q728 304 681 204T547 44T344 -17Q199 -17 118 65T38 296Q38 418 88 517T227 674T430 731ZM429 651Q339 651 272 601T169 470T133 296Q133 186 187 124T344 63Q432 63 498 113T598 243T633 415Q633 484 608 537T537 621T429 651ZM372 907Q395 907 412 889T429 846Q429 823 412 805T372 787Q348 787 331 805T315 848Q315 872 332 889T372 907ZM557 907Q580 907 597 889T615 846Q615 822 598 804T557 787Q533 787 516 805T500 848Q500 872 517 889T557 907Z" horiz-adv-x="759" unicode="Ö"/>
			<glyph d="M110 482L291 302L471 482L519 434L339 254L520 72L472 24L291 206L109 24L61 72L243 254L62 434Z" horiz-adv-x="600" unicode="×"/>
			<glyph d="M745 733L774 701L674 606Q701 565 714 516T728 415Q728 302 681 203T546 43T344 -17Q277 -17 217 4T115 71H112L17 -22L-12 10L88 106Q38 185 38 296Q38 412 86 512T223 671T430 731Q493 731 550 708T647 640ZM429 651Q336 651 269 600T167 468T133 296Q133 223 158 173L583 579Q526 651 429 651ZM606 541L181 135Q238 63 344 63Q435 63 500 113T599 245T633 415Q633 488 606 541Z" horiz-adv-x="759" unicode="Ø"/>
			<glyph d="M155 714H250L156 271Q148 233 148 205Q148 63 325 63Q394 63 436 87T502 156Q525 200 553 333L633 714H728L639 286Q615 172 596 133Q562 66 494 24T324 -17Q194 -17 125 39T56 206Q56 234 58 252T71 317ZM319 922H420L487 779H420Z" horiz-adv-x="722" unicode="Ù"/>
			<glyph d="M155 714H250L156 271Q148 233 148 205Q148 63 325 63Q394 63 436 87T502 156Q525 200 553 333L633 714H728L639 286Q615 172 596 133Q562 66 494 24T324 -17Q194 -17 125 39T56 206Q56 234 58 252T71 317ZM497 922H610L474 779H404Z" horiz-adv-x="722" unicode="Ú"/>
			<glyph d="M155 714H250L156 271Q148 233 148 205Q148 63 325 63Q394 63 436 87T502 156Q525 200 553 333L633 714H728L639 286Q615 172 596 133Q562 66 494 24T324 -17Q194 -17 125 39T56 206Q56 234 58 252T71 317ZM427 922H513L588 779H514L463 872L376 779H294Z" horiz-adv-x="722" unicode="Û"/>
			<glyph d="M155 714H250L156 271Q148 233 148 205Q148 63 325 63Q394 63 436 87T502 156Q525 200 553 333L633 714H728L639 286Q615 172 596 133Q562 66 494 24T324 -17Q194 -17 125 39T56 206Q56 234 58 252T71 317ZM362 907Q385 907 402 889T419 846Q419 823 402 805T362 787Q338 787 321 805T305 848Q305 872 322 889T362 907ZM547 907Q570 907 587 889T605 846Q605 822 588 804T547 787Q523 787 506 805T490 848Q490 872 507 889T547 907Z" horiz-adv-x="722" unicode="Ü"/>
			<glyph d="M66 714H167L313 368L584 714H694L348 287L286 0H193L254 287ZM439 922H552L416 779H346Z" horiz-adv-x="611" unicode="Ý"/>
			<glyph d="M156 714H251L228 600H412Q515 600 569 550T624 403Q624 329 585 278T486 203T356 178H139L102 0H7ZM211 520L156 258H375Q443 258 486 297T529 403Q529 460 499 490T415 520Z" horiz-adv-x="648" unicode="Þ"/>
			<glyph d="M327 731Q413 731 463 691T514 581Q514 511 472 459T365 397V395Q418 385 448 345T478 248Q478 180 446 120T358 24T228 -12Q187 -12 156 -7L170 65Q182 62 195 62Q288 63 340 113T393 241Q393 301 359 329T248 357H232L247 427H259Q338 427 383 463T429 564Q429 603 399 629T331 656Q265 656 233 615T185 493L81 0H-5L102 506Q127 624 180 677T327 731Z" horiz-adv-x="537" unicode="ß"/>
			<glyph d="M277 529Q466 529 466 397Q466 376 456 328L410 132Q403 101 403 83Q403 68 410 62T436 56Q443 56 455 58L443 -5Q410 -12 387 -12Q322 -12 322 53L323 61L321 63Q291 23 249 5T148 -12Q74 -12 32 25T-10 134Q-10 173 2 201T42 250Q69 272 115 284T251 304Q304 307 331 314T370 338T381 386Q381 419 353 436T277 454Q220 454 182 429T138 361H53Q64 440 125 484T277 529ZM356 264Q329 245 255 237Q151 228 112 205Q75 181 75 135Q75 102 101 82T168 63Q271 63 318 137Q338 169 358 264ZM175 732H276L343 589H276Z" horiz-adv-x="519" unicode="à"/>
			<glyph d="M277 529Q466 529 466 397Q466 376 456 328L410 132Q403 101 403 83Q403 68 410 62T436 56Q443 56 455 58L443 -5Q410 -12 387 -12Q322 -12 322 53L323 61L321 63Q291 23 249 5T148 -12Q74 -12 32 25T-10 134Q-10 173 2 201T42 250Q69 272 115 284T251 304Q304 307 331 314T370 338T381 386Q381 419 353 436T277 454Q220 454 182 429T138 361H53Q64 440 125 484T277 529ZM356 264Q329 245 255 237Q151 228 112 205Q75 181 75 135Q75 102 101 82T168 63Q271 63 318 137Q338 169 358 264ZM353 732H466L330 589H260Z" horiz-adv-x="519" unicode="á"/>
			<glyph d="M277 529Q466 529 466 397Q466 376 456 328L410 132Q403 101 403 83Q403 68 410 62T436 56Q443 56 455 58L443 -5Q410 -12 387 -12Q322 -12 322 53L323 61L321 63Q291 23 249 5T148 -12Q74 -12 32 25T-10 134Q-10 173 2 201T42 250Q69 272 115 284T251 304Q304 307 331 314T370 338T381 386Q381 419 353 436T277 454Q220 454 182 429T138 361H53Q64 440 125 484T277 529ZM356 264Q329 245 255 237Q151 228 112 205Q75 181 75 135Q75 102 101 82T168 63Q271 63 318 137Q338 169 358 264ZM283 732H369L444 589H370L319 682L232 589H150Z" horiz-adv-x="519" unicode="â"/>
			<glyph d="M277 529Q466 529 466 397Q466 376 456 328L410 132Q403 101 403 83Q403 68 410 62T436 56Q443 56 455 58L443 -5Q410 -12 387 -12Q322 -12 322 53L323 61L321 63Q291 23 249 5T148 -12Q74 -12 32 25T-10 134Q-10 173 2 201T42 250Q69 272 115 284T251 304Q304 307 331 314T370 338T381 386Q381 419 353 436T277 454Q220 454 182 429T138 361H53Q64 440 125 484T277 529ZM356 264Q329 245 255 237Q151 228 112 205Q75 181 75 135Q75 102 101 82T168 63Q271 63 318 137Q338 169 358 264ZM437 718H489Q457 607 377 607Q358 607 341 612T307 625T285 635Q260 646 240 646Q205 646 187 604H135Q151 659 180 686T251 714Q278 714 323 694T387 674Q419 674 437 718Z" horiz-adv-x="519" unicode="ã"/>
			<glyph d="M277 529Q466 529 466 397Q466 376 456 328L410 132Q403 101 403 83Q403 68 410 62T436 56Q443 56 455 58L443 -5Q410 -12 387 -12Q322 -12 322 53L323 61L321 63Q291 23 249 5T148 -12Q74 -12 32 25T-10 134Q-10 173 2 201T42 250Q69 272 115 284T251 304Q304 307 331 314T370 338T381 386Q381 419 353 436T277 454Q220 454 182 429T138 361H53Q64 440 125 484T277 529ZM356 264Q329 245 255 237Q151 228 112 205Q75 181 75 135Q75 102 101 82T168 63Q271 63 318 137Q338 169 358 264ZM218 718Q241 718 258 700T275 657Q275 634 258 616T218 598Q194 598 177 616T161 659Q161 683 178 700T218 718ZM403 718Q426 718 443 700T461 657Q461 633 444 615T403 598Q379 598 362 616T346 659Q346 683 363 700T403 718Z" horiz-adv-x="519" unicode="ä"/>
			<glyph d="M277 529Q466 529 466 397Q466 376 456 328L410 132Q403 101 403 83Q403 68 410 62T436 56Q443 56 455 58L443 -5Q410 -12 387 -12Q322 -12 322 53L323 61L321 63Q291 23 249 5T148 -12Q74 -12 32 25T-10 134Q-10 173 2 201T42 250Q69 272 115 284T251 304Q304 307 331 314T370 338T381 386Q381 419 353 436T277 454Q220 454 182 429T138 361H53Q64 440 125 484T277 529ZM356 264Q329 245 255 237Q151 228 112 205Q75 181 75 135Q75 102 101 82T168 63Q271 63 318 137Q338 169 358 264ZM317 787Q363 787 396 753T430 674Q430 628 396 594T317 561Q271 561 237 594T204 674Q204 720 237 753T317 787ZM317 742Q288 742 268 722T249 674Q249 645 268 625T317 606Q346 606 365 625T385 674Q385 703 365 722T317 742Z" horiz-adv-x="519" unicode="å"/>
			<glyph d="M295 529Q419 529 460 448Q488 486 531 507T625 529Q722 529 773 476T824 327Q824 285 810 233H435Q430 205 430 182Q430 127 464 95T554 63Q665 63 707 162H794Q766 83 702 35T547 -12Q473 -12 427 16T365 100Q333 45 281 16T162 -12Q81 -12 38 24T-5 132Q-5 205 49 244T219 293Q319 300 354 322Q388 344 388 385Q388 454 275 454Q225 454 192 430T147 362H64Q77 444 137 486T295 529ZM620 454Q560 454 513 414T449 308H739Q741 322 741 333Q741 390 709 422T620 454ZM362 266Q327 249 246 238Q141 225 110 200Q80 176 80 132Q80 99 105 81T176 63Q251 63 297 104Q342 145 362 266Z" horiz-adv-x="870" unicode="æ"/>
			<glyph d="M307 529Q401 529 449 484T501 353H416Q416 400 386 427T307 454Q247 454 201 419T131 329T106 211Q106 139 138 101T234 63Q287 63 326 90T385 169H470Q446 81 384 34T230 -12H219L179 -54L180 -55Q193 -50 213 -50Q250 -50 273 -70T296 -123Q296 -161 263 -185T177 -210Q124 -210 79 -188L97 -145Q133 -160 167 -160Q191 -160 206 -152T221 -129Q221 -116 209 -107T176 -99Q152 -99 133 -107L114 -77L176 -6Q100 9 60 64T21 211Q21 296 55 369T154 485T307 529Z" horiz-adv-x="537" unicode="ç"/>
			<glyph d="M276 529Q385 529 440 471T495 301Q495 288 492 266T487 233H98Q95 208 95 188Q95 132 134 97T229 63Q283 63 321 88T378 162H463Q443 79 380 33T229 -12Q125 -12 67 44T10 197Q10 288 45 364T141 485T276 529ZM288 454Q157 454 110 308H410Q411 313 411 322Q411 383 378 418T288 454ZM182 732H283L350 589H283Z" horiz-adv-x="537" unicode="è"/>
			<glyph d="M276 529Q385 529 440 471T495 301Q495 288 492 266T487 233H98Q95 208 95 188Q95 132 134 97T229 63Q283 63 321 88T378 162H463Q443 79 380 33T229 -12Q125 -12 67 44T10 197Q10 288 45 364T141 485T276 529ZM288 454Q157 454 110 308H410Q411 313 411 322Q411 383 378 418T288 454ZM360 732H473L337 589H267Z" horiz-adv-x="537" unicode="é"/>
			<glyph d="M276 529Q385 529 440 471T495 301Q495 288 492 266T487 233H98Q95 208 95 188Q95 132 134 97T229 63Q283 63 321 88T378 162H463Q443 79 380 33T229 -12Q125 -12 67 44T10 197Q10 288 45 364T141 485T276 529ZM288 454Q157 454 110 308H410Q411 313 411 322Q411 383 378 418T288 454ZM290 732H376L451 589H377L326 682L239 589H157Z" horiz-adv-x="537" unicode="ê"/>
			<glyph d="M276 529Q385 529 440 471T495 301Q495 288 492 266T487 233H98Q95 208 95 188Q95 132 134 97T229 63Q283 63 321 88T378 162H463Q443 79 380 33T229 -12Q125 -12 67 44T10 197Q10 288 45 364T141 485T276 529ZM288 454Q157 454 110 308H410Q411 313 411 322Q411 383 378 418T288 454ZM225 718Q248 718 265 700T282 657Q282 634 265 616T225 598Q201 598 184 616T168 659Q168 683 185 700T225 718ZM410 718Q433 718 450 700T468 657Q468 633 451 615T410 598Q386 598 369 616T353 659Q353 683 370 700T410 718Z" horiz-adv-x="537" unicode="ë"/>
			<glyph d="M103 517H188L80 0H-5ZM44 732H145L212 589H145Z" unicode="ì"/>
			<glyph d="M103 517H188L80 0H-5ZM202 732H315L179 589H109Z" unicode="í"/>
			<glyph d="M103 517H188L80 0H-5ZM142 732H228L303 589H229L178 682L91 589H9Z" unicode="î"/>
			<glyph d="M103 517H188L80 0H-5ZM77 718Q100 718 117 700T134 657Q134 634 117 616T77 598Q53 598 36 616T20 659Q20 683 37 700T77 718ZM262 718Q285 718 302 700T320 657Q320 633 303 615T262 598Q238 598 221 616T205 659Q205 683 222 700T262 718Z" unicode="ï"/>
			<glyph d="M464 734L508 696L400 641Q471 575 500 508T529 342Q529 237 493 156T390 32T235 -12Q171 -12 121 14T44 89T17 200Q17 283 53 353T154 464T306 506Q349 506 380 493T435 453H437Q427 489 393 535T328 605L214 548L172 588L285 644L255 667L226 686L290 731Q305 721 327 705T359 681ZM299 431Q243 431 198 397T127 310T102 200Q102 136 140 99T244 63Q299 63 343 98T413 188T439 299Q439 361 401 396T299 431Z" horiz-adv-x="574" unicode="ð"/>
			<glyph d="M356 529Q430 529 465 497T500 396Q500 378 497 360T485 295L422 0H337L409 333Q415 363 415 382Q415 416 390 435T325 454Q266 454 210 407Q155 360 141 289L80 0H-5L104 517H186L170 439H172Q204 482 251 505T356 529ZM461 718H513Q481 607 401 607Q382 607 365 612T331 625T309 635Q284 646 264 646Q229 646 211 604H159Q175 659 204 686T275 714Q302 714 347 694T411 674Q443 674 461 718Z" horiz-adv-x="556" unicode="ñ"/>
			<glyph d="M306 529Q411 529 466 473T521 315Q521 228 486 153T387 33T235 -12Q171 -12 121 15T44 91T17 205Q17 289 52 363T152 483T306 529ZM299 454Q241 454 196 417T126 323T102 205Q102 137 140 100T244 63Q302 63 345 101T412 196T436 308Q436 374 400 414T299 454ZM207 732H308L375 589H308Z" horiz-adv-x="574" unicode="ò"/>
			<glyph d="M306 529Q411 529 466 473T521 315Q521 228 486 153T387 33T235 -12Q171 -12 121 15T44 91T17 205Q17 289 52 363T152 483T306 529ZM299 454Q241 454 196 417T126 323T102 205Q102 137 140 100T244 63Q302 63 345 101T412 196T436 308Q436 374 400 414T299 454ZM385 732H498L362 589H292Z" horiz-adv-x="574" unicode="ó"/>
			<glyph d="M306 529Q411 529 466 473T521 315Q521 228 486 153T387 33T235 -12Q171 -12 121 15T44 91T17 205Q17 289 52 363T152 483T306 529ZM299 454Q241 454 196 417T126 323T102 205Q102 137 140 100T244 63Q302 63 345 101T412 196T436 308Q436 374 400 414T299 454ZM315 732H401L476 589H402L351 682L264 589H182Z" horiz-adv-x="574" unicode="ô"/>
			<glyph d="M306 529Q411 529 466 473T521 315Q521 228 486 153T387 33T235 -12Q171 -12 121 15T44 91T17 205Q17 289 52 363T152 483T306 529ZM299 454Q241 454 196 417T126 323T102 205Q102 137 140 100T244 63Q302 63 345 101T412 196T436 308Q436 374 400 414T299 454ZM469 718H521Q489 607 409 607Q390 607 373 612T339 625T317 635Q292 646 272 646Q237 646 219 604H167Q183 659 212 686T283 714Q310 714 355 694T419 674Q451 674 469 718Z" horiz-adv-x="574" unicode="õ"/>
			<glyph d="M306 529Q411 529 466 473T521 315Q521 228 486 153T387 33T235 -12Q171 -12 121 15T44 91T17 205Q17 289 52 363T152 483T306 529ZM299 454Q241 454 196 417T126 323T102 205Q102 137 140 100T244 63Q302 63 345 101T412 196T436 308Q436 374 400 414T299 454ZM250 718Q273 718 290 700T307 657Q307 634 290 616T250 598Q226 598 209 616T193 659Q193 683 210 700T250 718ZM435 718Q458 718 475 700T493 657Q493 633 476 615T435 598Q411 598 394 616T378 659Q378 683 395 700T435 718Z" horiz-adv-x="574" unicode="ö"/>
			<glyph d="M280 523Q306 523 325 503T344 459Q344 436 324 415T281 395Q255 395 235 414T216 459Q216 484 235 503T280 523ZM28 287H532V219H28ZM280 111Q306 111 325 92T344 47Q344 24 324 3T281 -17Q255 -17 235 2T216 47Q216 73 235 92T280 111Z" horiz-adv-x="600" unicode="÷"/>
			<glyph d="M306 529Q417 529 471 466L541 529L566 501L493 435Q521 387 521 315Q521 230 486 155T387 34T235 -12Q185 -12 141 3T69 53L-6 -15L-30 13L47 83Q17 133 17 204Q17 290 52 364T153 484T306 529ZM299 454Q239 454 194 416T125 321T102 205Q102 167 112 142H113L408 409Q367 454 299 454ZM425 374L130 108Q150 85 180 74T244 63Q301 63 345 100T412 195T436 308Q436 345 425 374Z" horiz-adv-x="574" unicode="ø"/>
			<glyph d="M93 517H178L109 200Q100 158 100 135Q100 101 124 82T190 63Q259 63 310 114Q359 162 375 229L435 517H520L411 0H329L345 78H343Q310 34 262 11T159 -12Q86 -12 50 20T15 121Q15 153 31 228ZM193 732H294L361 589H294Z" horiz-adv-x="556" unicode="ù"/>
			<glyph d="M93 517H178L109 200Q100 158 100 135Q100 101 124 82T190 63Q259 63 310 114Q359 162 375 229L435 517H520L411 0H329L345 78H343Q310 34 262 11T159 -12Q86 -12 50 20T15 121Q15 153 31 228ZM371 732H484L348 589H278Z" horiz-adv-x="556" unicode="ú"/>
			<glyph d="M93 517H178L109 200Q100 158 100 135Q100 101 124 82T190 63Q259 63 310 114Q359 162 375 229L435 517H520L411 0H329L345 78H343Q310 34 262 11T159 -12Q86 -12 50 20T15 121Q15 153 31 228ZM301 732H387L462 589H388L337 682L250 589H168Z" horiz-adv-x="556" unicode="û"/>
			<glyph d="M93 517H178L109 200Q100 158 100 135Q100 101 124 82T190 63Q259 63 310 114Q359 162 375 229L435 517H520L411 0H329L345 78H343Q310 34 262 11T159 -12Q86 -12 50 20T15 121Q15 153 31 228ZM236 718Q259 718 276 700T293 657Q293 634 276 616T236 598Q212 598 195 616T179 659Q179 683 196 700T236 718ZM421 718Q444 718 461 700T479 657Q479 633 462 615T421 598Q397 598 380 616T364 659Q364 683 381 700T421 718Z" horiz-adv-x="556" unicode="ü"/>
			<glyph d="M42 517H133L193 106H195L412 517H505L163 -88Q159 -95 130 -136Q104 -174 72 -192T-3 -210Q-20 -210 -38 -205T-63 -197L-48 -128Q-25 -142 1 -142Q47 -142 74 -97L133 0ZM338 732H451L315 589H245Z" horiz-adv-x="481" unicode="ý"/>
			<glyph d="M142 714H227L164 443H166Q199 488 240 508T337 529Q432 529 486 471T540 317Q540 234 504 158T403 35T253 -12Q198 -12 151 10T92 79H90L35 -198H-49ZM321 454Q261 454 215 414T144 315T120 197Q120 137 155 100T250 63Q312 63 359 100T430 196T455 317Q455 384 421 419T321 454Z" horiz-adv-x="593" unicode="þ"/>
			<glyph d="M42 517H133L193 106H195L412 517H505L163 -88Q159 -95 130 -136Q104 -174 72 -192T-3 -210Q-20 -210 -38 -205T-63 -197L-48 -128Q-25 -142 1 -142Q47 -142 74 -97L133 0ZM203 718Q226 718 243 700T260 657Q260 634 243 616T203 598Q179 598 162 616T146 659Q146 683 163 700T203 718ZM388 718Q411 718 428 700T446 657Q446 633 429 615T388 598Q364 598 347 616T331 659Q331 683 348 700T388 718Z" horiz-adv-x="481" unicode="ÿ"/>
			<glyph d="M103 517H188L80 0H-5Z" unicode="ı"/>
			<glyph d="M157 714H252L183 384L404 520L387 437L166 302L120 80H497L480 0H7L57 234L-21 187L-4 269L74 317Z" horiz-adv-x="556" unicode="Ł"/>
			<glyph d="M145 714H230L176 477L245 532L235 454L161 397L80 0H-5L63 322L-7 268L3 345L77 402Z" unicode="ł"/>
			<glyph d="M418 731Q481 731 537 707T624 634L640 714H1106L1090 634H711L663 407H1010L994 327H647L595 80H979L963 0H488L501 57H499Q470 21 422 2T323 -17Q232 -17 169 24T74 138T42 300Q42 408 88 507T221 669T418 731ZM427 651Q336 651 270 599T170 464T137 292Q137 232 158 179T223 95T328 63Q370 63 409 77T478 121Q506 148 516 174T538 257L594 534L595 543Q595 570 568 595T501 635T427 651Z" horiz-adv-x="1074" unicode="Œ"/>
			<glyph d="M305 529Q372 529 415 506T479 428Q506 478 557 503T669 529Q768 529 818 474T869 324Q869 307 865 279T858 233H479Q472 205 472 180Q472 122 506 92T603 63Q653 63 693 90T751 163H838Q809 76 744 32T588 -12Q522 -12 477 11T409 90Q382 42 332 15T225 -12Q125 -12 71 38T17 191Q17 274 52 352T153 480T305 529ZM297 454Q237 454 193 413T125 312T102 195Q102 138 135 100T230 63Q295 63 337 108T398 218T417 345Q417 397 383 425T297 454ZM667 454Q598 454 552 413T492 308H782Q784 322 784 337Q784 386 754 420T667 454Z" horiz-adv-x="907" unicode="œ"/>
			<glyph d="M356 731Q473 731 543 673T614 513V503H519V510Q519 581 479 616T356 651Q290 651 240 620T190 534Q190 489 218 462T310 418L400 394Q483 372 528 327T574 201Q574 132 534 82T430 8T296 -17Q162 -17 88 41T14 208Q14 225 15 234H110V222Q110 141 157 102T300 63Q381 63 430 100T479 200Q479 251 444 276T351 318L272 339Q182 363 138 407T95 524Q95 591 132 637T230 707T356 731ZM261 922H337L388 829L481 922H559L424 779H338Z" horiz-adv-x="648" unicode="Š"/>
			<glyph d="M245 529Q333 529 386 486T440 365H355V374Q355 408 325 431T247 454Q196 454 167 437T138 388Q138 364 158 347T240 306Q354 260 382 228Q411 193 411 148Q411 73 351 30T199 -12Q-9 -12 -9 163H76V155Q76 110 110 86T208 63Q262 63 294 83T326 142Q326 179 272 204L206 233L185 242Q112 271 82 302T53 380Q53 424 79 458T149 510T245 529ZM153 732H229L280 639L373 732H451L316 589H230Z" horiz-adv-x="481" unicode="š"/>
			<glyph d="M66 714H167L313 368L584 714H694L348 287L286 0H193L254 287ZM304 907Q327 907 344 889T361 846Q361 823 344 805T304 787Q280 787 263 805T247 848Q247 872 264 889T304 907ZM489 907Q512 907 529 889T547 846Q547 822 530 804T489 787Q465 787 448 805T432 848Q432 872 449 889T489 907Z" horiz-adv-x="611" unicode="Ÿ"/>
			<glyph d="M126 714H647L630 633L90 80H546L529 0H-38L-21 79L515 634H106ZM256 922H332L383 829L476 922H554L419 779H333Z" horiz-adv-x="611" unicode="Ž"/>
			<glyph d="M56 517H449L436 456L73 75H382L368 0H-53L-41 64L319 442H41ZM132 732H208L259 639L352 732H430L295 589H209Z" horiz-adv-x="444" unicode="ž"/>
			<glyph d="M447 714Q470 714 512 706L492 633Q478 639 452 639Q421 639 404 629T377 599T356 536L332 449H443L425 381H314L196 -34Q177 -101 140 -133T37 -165Q13 -165 -19 -160L2 -86Q17 -90 35 -90Q67 -89 86 -67T115 -13L227 381H132L150 449H245L291 613Q319 714 447 714Z" horiz-adv-x="556" unicode="ƒ"/>
			<glyph d="M203 732H289L364 589H290L239 682L152 589H70Z" unicode="ˆ"/>
			<glyph d="M105 732H181L232 639L325 732H403L268 589H182Z" unicode="ˇ"/>
			<glyph d="M104 682H373L362 627H92Z" unicode="ˉ"/>
			<glyph d="M94 730H139Q139 688 161 667T232 646Q283 646 310 666T350 730H395Q386 665 342 628T229 591Q163 591 128 624T94 720Z" unicode="˘"/>
			<glyph d="M231 907Q254 907 271 889T288 847Q288 823 271 805T231 788Q207 788 190 806T173 848Q173 873 190 890T231 907Z" unicode="˙"/>
			<glyph d="M239 793Q285 793 318 759T352 680Q352 634 318 600T239 567Q193 567 159 600T126 680Q126 726 159 759T239 793ZM239 748Q210 748 190 728T171 680Q171 651 190 631T239 612Q268 612 287 631T307 680Q307 709 287 728T239 748Z" unicode="˚"/>
			<glyph d="M17 0H84Q44 -25 14 -51Q-39 -96 -39 -123Q-39 -160 -2 -160Q17 -160 34 -155T70 -136L107 -148Q78 -183 50 -196T-18 -210Q-55 -210 -81 -194T-107 -139Q-107 -75 17 0Z" unicode="˛"/>
			<glyph d="M359 718H411Q379 607 299 607Q280 607 263 612T229 625T207 635Q182 646 162 646Q127 646 109 604H57Q73 659 102 686T173 714Q200 714 245 694T309 674Q341 674 359 718Z" unicode="˜"/>
			<glyph d="M146 732H259L123 589H53ZM312 732H425L289 589H219Z" unicode="˝"/>
			<glyph d="M373 714H477L601 0H-51ZM410 633L101 80H490Z" horiz-adv-x="664" unicode="Δ"/>
			<glyph d="M417 721Q497 721 561 687T663 593T700 452Q700 374 669 307T580 196T446 139L430 64H624L610 0H354L394 185Q498 199 559 271T620 449Q620 542 564 596T415 650Q337 650 271 608T168 497T130 351Q130 284 165 237T266 185L227 0H-22L-8 63H176L193 143Q124 164 87 221T50 353Q50 450 100 535T235 670T417 721Z" horiz-adv-x="748" unicode="Ω"/>
			<glyph d="M96 517H181L121 241Q120 238 111 197T103 135Q103 101 127 82T192 63Q236 63 274 86T339 147T375 229L436 517H521L412 0H330L346 78H344Q271 -12 173 -12Q116 -12 81 23H79L32 -198H-53Z" horiz-adv-x="556" unicode="μ"/>
			<glyph d="M51 517H666L650 442H547L477 115Q474 103 474 93Q474 62 510 62Q526 62 546 67L532 1Q493 -12 461 -12Q423 -12 403 6T383 59Q383 74 388 96L462 442H225L131 0H46L140 442H35Z" horiz-adv-x="658" unicode="π"/>
			<glyph d="M42 318H542L526 238H26Z" horiz-adv-x="599" unicode="–"/>
			<glyph d="M42 318H782L767 240L766 238H26Z" horiz-adv-x="840" unicode="—"/>
			<glyph d="M271 712L260 661Q227 657 202 631T173 582Q179 584 186 584Q210 584 229 566T248 523Q248 494 229 475T185 456Q155 456 135 479T116 546Q116 583 137 619T194 681T271 712Z" horiz-adv-x="278" unicode="‘"/>
			<glyph d="M200 721Q230 721 249 698T269 631Q269 594 247 557T190 495T114 465L125 516Q158 520 183 545T212 595Q206 593 199 593Q175 593 156 611T137 654Q137 683 156 702T200 721Z" horiz-adv-x="278" unicode="’"/>
			<glyph d="M74 117Q104 117 123 94T143 27Q143 -10 121 -46T64 -108T-12 -139L-1 -88Q32 -84 57 -58T86 -9Q80 -11 73 -11Q49 -11 30 7T11 50Q11 79 30 98T74 117Z" horiz-adv-x="278" unicode="‚"/>
			<glyph d="M250 712L239 661Q206 657 181 631T152 582Q158 584 165 584Q189 584 208 566T227 523Q227 494 208 475T164 456Q134 456 114 479T95 546Q95 583 116 619T173 681T250 712ZM432 712L421 661Q388 657 363 631T334 582Q340 584 347 584Q371 584 390 566T409 523Q409 494 390 475T346 456Q316 456 296 479T277 546Q277 583 298 619T355 681T432 712Z" horiz-adv-x="426" unicode="“"/>
			<glyph d="M177 721Q207 721 226 698T246 631Q246 594 224 557T167 495T91 465L102 516Q135 520 160 545T189 595Q183 593 176 593Q152 593 133 611T114 654Q114 683 133 702T177 721ZM359 721Q389 721 408 698T428 631Q428 594 406 557T349 495T273 465L284 516Q317 520 342 545T371 595Q365 593 358 593Q334 593 315 611T296 654Q296 683 315 702T359 721Z" horiz-adv-x="426" unicode="”"/>
			<glyph d="M74 117Q104 117 123 94T143 27Q143 -10 121 -46T64 -108T-12 -139L-1 -88Q32 -84 57 -58T86 -9Q80 -11 73 -11Q49 -11 30 7T11 50Q11 79 30 98T74 117ZM256 117Q286 117 305 94T325 27Q325 -10 303 -46T246 -108T170 -139L181 -88Q214 -84 239 -58T268 -9Q262 -11 255 -11Q231 -11 212 7T193 50Q193 79 212 98T256 117Z" horiz-adv-x="426" unicode="„"/>
			<glyph d="M312 714H397L355 517H546L530 442H339L213 -155H128L254 442H63L79 517H270Z" horiz-adv-x="556" unicode="†"/>
			<glyph d="M312 714H397L355 517H546L530 442H339L271 117H462L446 42H255L213 -155H128L170 42H-21L-5 117H186L254 442H63L79 517H270Z" horiz-adv-x="556" unicode="‡"/>
			<glyph d="M250 535Q299 535 340 511T405 446T429 357Q429 309 404 268T339 202T250 178Q201 178 160 202T95 267T72 357Q72 406 95 447T160 511T250 535Z" horiz-adv-x="500" unicode="•"/>
			<glyph d="M108 125Q133 125 152 105T171 58Q171 33 152 13T108 -6Q81 -6 62 13T43 60Q43 86 62 105T108 125ZM441 125Q466 125 485 105T504 58Q504 33 485 13T441 -6Q414 -6 395 13T376 60Q376 86 395 105T441 125ZM775 125Q800 125 819 105T838 58Q838 33 819 13T775 -6Q748 -6 729 13T710 60Q710 86 729 105T775 125Z" horiz-adv-x="1000" unicode="…"/>
			<glyph d="M539 725H603L168 -28H104ZM222 709Q282 709 312 673T342 575Q342 521 323 472T266 392T170 362Q106 362 77 399T48 501Q48 556 67 603T126 680T222 709ZM216 654Q185 654 162 630T127 572T116 507Q116 468 131 442T174 417Q205 417 228 440T262 498T274 565Q274 603 259 628T216 654ZM547 335Q607 335 637 299T667 201Q667 147 648 98T591 18T495 -12Q431 -12 402 25T373 127Q373 182 392 229T451 306T547 335ZM897 335Q957 335 987 299T1017 201Q1017 147 998 98T941 18T845 -12Q781 -12 752 25T723 127Q723 182 742 229T801 306T897 335ZM541 280Q510 280 487 256T452 198T441 133Q441 94 456 68T499 43Q530 43 553 66T587 124T599 191Q599 229 584 254T541 280ZM891 280Q860 280 837 256T802 198T791 133Q791 94 806 68T849 43Q880 43 903 66T937 124T949 191Q949 229 934 254T891 280Z" horiz-adv-x="1074" unicode="‰"/>
			<glyph d="M226 442L205 357L85 289L172 199L153 114L30 250L52 342Z" horiz-adv-x="259" unicode="‹"/>
			<glyph d="M92 442L215 306L193 214L19 114L40 199L160 267L73 357Z" horiz-adv-x="259" unicode="›"/>
			<glyph d="M269 725H333L-102 -28H-166Z" horiz-adv-x="167" unicode="⁄"/>
			<glyph d="M277 709Q337 709 369 671T402 562Q402 497 381 429T314 316T201 270Q143 270 111 308T80 419Q80 482 101 549T167 663T277 709ZM268 652Q227 652 200 610T160 513T147 417Q147 374 164 350T214 327Q255 327 282 367T322 462T335 559Q335 604 318 628T268 652Z" horiz-adv-x="376" unicode="⁰"/>
			<glyph d="M320 702H384L326 428H391L379 373H315L295 279H229L248 373H63L75 431ZM299 611L135 428H260Z" horiz-adv-x="376" unicode="⁴"/>
			<glyph d="M178 697H407L394 641H221L186 541Q215 558 259 558Q311 558 344 523T378 432Q378 358 332 311T212 265Q153 265 116 300T79 394H143Q143 358 160 339T216 321Q256 321 283 351T310 423Q310 462 291 483T237 505Q183 505 162 465L102 468Z" horiz-adv-x="376" unicode="⁵"/>
			<glyph d="M289 709Q347 709 378 680T410 597H346Q341 655 285 655Q244 655 217 622T172 526Q189 540 211 548T258 557Q314 557 348 520T383 427Q383 382 362 345T304 288T222 268Q157 268 122 308T87 420Q87 482 108 549T175 662T289 709ZM238 503Q202 503 178 474T155 404Q155 370 174 346T226 323Q267 323 290 353T314 427Q314 461 293 482T238 503Z" horiz-adv-x="376" unicode="⁶"/>
			<glyph d="M148 697H429L417 644Q342 580 277 475T187 274H112Q138 373 200 470T340 638H135Z" horiz-adv-x="376" unicode="⁷"/>
			<glyph d="M265 709Q319 709 356 681T394 603Q394 566 369 537T306 502V501Q338 492 357 464T376 402Q376 362 354 331T295 284T217 268Q154 268 114 301T74 391Q74 438 104 469T186 508V510Q158 519 142 541T127 593Q127 646 166 677T265 709ZM262 655Q232 655 211 637T191 589Q191 561 209 544T258 528Q289 528 309 546T330 594Q330 623 311 639T262 655ZM225 474Q189 474 164 452T140 395Q140 361 162 341T221 322Q260 322 285 344T310 404Q310 438 287 456T225 474Z" horiz-adv-x="376" unicode="⁸"/>
			<glyph d="M264 709Q329 709 364 669T399 557Q399 495 377 428T310 314T197 268Q139 268 108 296T76 380H140Q145 322 201 322Q242 322 269 354T314 451Q297 437 274 428T228 420Q172 420 137 456T103 550Q103 595 124 631T181 688T264 709ZM260 654Q219 654 195 624T172 550Q172 516 193 495T248 474Q284 474 307 503T331 573Q331 607 311 630T260 654Z" horiz-adv-x="376" unicode="⁹"/>
			<glyph d="M409 720Q456 720 498 705T586 660L544 585Q511 613 477 627T405 641Q332 641 274 593T182 450H507L473 391H165L156 334H455L421 275H154Q159 167 206 113T340 60Q388 60 429 77T525 133L504 32Q419 -17 329 -17Q212 -17 144 59T72 275H-6L27 334H74L82 391H15L48 450H96Q133 575 216 647T409 720Z" horiz-adv-x="556" unicode="€"/>
			<glyph d="M366 721Q408 721 437 691T466 617Q466 540 402 451T221 273Q209 225 198 169T187 100Q187 74 201 59T239 45Q261 45 285 55T339 86H341L361 40Q291 -14 218 -14Q167 -14 137 13T108 85Q108 100 115 137L132 220L64 162H62L39 208L147 291L200 542Q220 637 263 679T366 721ZM357 667Q331 667 313 643T282 560L236 346Q307 412 353 485T399 612Q399 637 387 652T357 667Z" horiz-adv-x="500" unicode="ℓ"/>
			<glyph d="M170 716Q216 716 240 694T264 636V631H222Q222 654 208 667T168 681Q142 681 124 670T106 640Q106 614 146 604L186 593Q212 586 229 569T247 525Q247 493 219 468T135 444Q85 444 58 468T32 539H75V537Q75 505 90 492T138 479Q164 479 185 489T206 522Q206 536 197 543T166 558L128 569Q97 578 81 594T65 638Q65 673 92 694T170 716ZM329 710H392L427 515L541 710H609L554 450H513L558 667H557L429 450H400L362 667H361L315 450H274Z" horiz-adv-x="541" unicode="℠"/>
			<glyph d="M52 710H258L250 675H169L121 450H79L126 675H45ZM300 710H363L398 515L512 710H580L525 450H484L529 667H528L400 450H371L333 667H332L286 450H245Z" horiz-adv-x="512" unicode="™"/>
			<glyph d="M417 721Q497 721 561 687T663 593T700 452Q700 374 669 307T580 196T446 139L430 64H624L610 0H354L394 185Q498 199 559 271T620 449Q620 542 564 596T415 650Q337 650 271 608T168 497T130 351Q130 284 165 237T266 185L227 0H-22L-8 63H176L193 143Q124 164 87 221T50 353Q50 450 100 535T235 670T417 721Z" horiz-adv-x="748" unicode="Ω"/>
			<glyph d="M381 709Q485 709 561 661T677 531T719 348H192V112Q230 74 278 54T381 35Q466 35 527 74T633 192L679 164Q621 72 553 30T381 -12Q282 -12 205 36T86 167T44 348Q44 448 85 530T203 661T381 709ZM379 663Q270 663 192 585V396H572V585Q491 663 379 663Z" horiz-adv-x="760" unicode="℮"/>
			<glyph d="M678 722H747L177 -22H106ZM292 703H348L253 280H185L255 594Q211 577 141 572L153 625Q204 631 238 649T292 703ZM682 432Q736 432 773 404T811 326Q811 289 786 260T723 225V224Q755 215 774 187T793 125Q793 85 771 54T712 7T634 -9Q571 -9 531 24T491 114Q491 161 521 192T603 231V233Q575 242 559 264T544 316Q544 369 583 400T682 432ZM679 378Q649 378 628 360T608 312Q608 284 626 267T675 251Q706 251 726 269T747 317Q747 346 728 362T679 378ZM642 197Q606 197 581 175T557 118Q557 84 579 64T638 45Q677 45 702 67T727 127Q727 161 704 179T642 197Z" horiz-adv-x="879" unicode="⅛"/>
			<glyph d="M709 722H778L208 -22H137ZM267 712Q325 712 362 681T400 600Q400 565 377 539T314 503V501Q346 490 362 466T379 410Q379 374 359 341T302 289T218 270Q146 270 106 306T67 410H135Q135 370 158 348T222 326Q262 326 286 349T311 411Q311 442 289 459T223 477H204L213 526H249Q289 526 311 544T334 595Q334 622 315 638T264 655Q228 655 205 635T179 577H112Q119 641 161 676T267 712ZM699 432Q753 432 790 404T828 326Q828 289 803 260T740 225V224Q772 215 791 187T810 125Q810 85 788 54T729 7T651 -9Q588 -9 548 24T508 114Q508 161 538 192T620 231V233Q592 242 576 264T561 316Q561 369 600 400T699 432ZM696 378Q666 378 645 360T625 312Q625 284 643 267T692 251Q723 251 743 269T764 317Q764 346 745 362T696 378ZM659 197Q623 197 598 175T574 118Q574 84 596 64T655 45Q694 45 719 67T744 127Q744 161 721 179T659 197Z" horiz-adv-x="882" unicode="⅜"/>
			<glyph d="M707 722H776L206 -22H135ZM179 703H408L395 647H222L187 547Q216 564 260 564Q312 564 345 529T379 438Q379 364 333 317T213 271Q154 271 117 306T80 400H144Q144 364 161 345T217 327Q257 327 284 357T311 429Q311 468 292 489T238 511Q184 511 163 471L103 474ZM697 432Q751 432 788 404T826 326Q826 289 801 260T738 225V224Q770 215 789 187T808 125Q808 85 786 54T727 7T649 -9Q586 -9 546 24T506 114Q506 161 536 192T618 231V233Q590 242 574 264T559 316Q559 369 598 400T697 432ZM694 378Q664 378 643 360T623 312Q623 284 641 267T690 251Q721 251 741 269T762 317Q762 346 743 362T694 378ZM657 197Q621 197 596 175T572 118Q572 84 594 64T653 45Q692 45 717 67T742 127Q742 161 719 179T657 197Z" horiz-adv-x="881" unicode="⅝"/>
			<glyph d="M632 722H701L131 -22H60ZM149 703H430L418 650Q343 586 278 481T188 280H113Q139 379 201 476T341 644H136ZM622 432Q676 432 713 404T751 326Q751 289 726 260T663 225V224Q695 215 714 187T733 125Q733 85 711 54T652 7T574 -9Q511 -9 471 24T431 114Q431 161 461 192T543 231V233Q515 242 499 264T484 316Q484 369 523 400T622 432ZM619 378Q589 378 568 360T548 312Q548 284 566 267T615 251Q646 251 666 269T687 317Q687 346 668 362T619 378ZM582 197Q546 197 521 175T497 118Q497 84 519 64T578 45Q617 45 642 67T667 127Q667 161 644 179T582 197Z" horiz-adv-x="806" unicode="⅞"/>
			<glyph d="M199 721Q291 721 347 667T426 533T450 362Q450 211 399 99T217 -12Q156 -12 109 18T38 100T13 213Q13 272 37 321T106 398T212 427Q259 427 301 407T373 351L374 396Q374 457 357 516T301 617T201 658Q170 658 143 646T87 611L46 661Q114 721 199 721ZM222 365Q159 365 123 319T88 210Q88 170 103 132T147 71T219 48Q271 48 304 85T353 176T369 280Q341 318 303 341T222 365Z" horiz-adv-x="511" unicode="∂"/>
			<glyph d="M373 714H477L601 0H-51ZM410 633L101 80H490Z" horiz-adv-x="664" unicode="∆"/>
			<glyph d="M68 786H650V-214H572V714H146V-214H68Z" horiz-adv-x="719" unicode="∏"/>
			<glyph d="M39 786H577V714H140L441 290L122 -142H589V-214H25V-150L347 290L39 722Z" horiz-adv-x="615" unicode="∑"/>
			<glyph d="M28 287H532V219H28Z" horiz-adv-x="600" unicode="−"/>
			<glyph d="M269 725H333L-102 -28H-166Z" horiz-adv-x="167" unicode="∕"/>
			<glyph d="M131 317Q158 317 176 298T195 253Q195 226 177 207T131 189Q105 189 86 208T67 253Q67 279 86 298T131 317Z" horiz-adv-x="278" unicode="∙"/>
			<glyph d="M409 786H485L274 -214H199L37 120L-10 98L-38 158L74 210L225 -107Z" horiz-adv-x="504" unicode="√"/>
			<glyph d="M538 410Q604 410 645 366T686 255Q686 187 646 142T539 98Q488 98 441 128T349 207L331 191Q281 145 244 122T158 99Q92 99 51 142T10 252Q10 318 49 363T155 408Q193 408 226 392T285 354T349 294Q356 301 391 336T463 391T538 410ZM538 342Q505 342 474 321T420 278T391 251Q423 221 442 205T486 178T541 166Q578 166 599 190T621 252Q621 291 599 316T538 342ZM155 341Q118 341 96 315T75 252Q75 213 97 189T158 166Q220 166 305 251Q260 292 225 316T155 341Z" horiz-adv-x="759" unicode="∞"/>
			<glyph d="M339 786Q373 786 396 770T420 730Q420 713 408 702T378 692Q365 692 357 699T341 719Q340 720 334 727T323 735Q291 735 291 640Q291 620 292 606L293 555V6Q293 -109 262 -161T167 -213Q138 -213 118 -198T98 -161Q98 -146 109 -135T135 -125Q155 -125 167 -146Q181 -167 187 -167Q200 -167 207 -144T215 -65V579Q215 689 244 737T339 786Z" horiz-adv-x="554" unicode="∫"/>
			<glyph d="M483 415H533Q526 352 494 310T403 269Q372 269 337 279T251 308Q204 325 178 332T132 340Q102 340 82 317T57 263H5Q12 325 43 368T134 411Q163 411 194 402T277 374Q323 357 352 348T408 340Q440 340 458 361T483 415ZM482 234H532Q525 171 493 130T403 89Q373 89 337 99T251 128Q205 145 178 153T131 161Q101 161 80 138T56 83H4Q14 147 44 189T133 231Q163 231 195 221T276 194T353 168T407 160Q439 160 457 180T482 234Z" horiz-adv-x="593" unicode="≈"/>
			<glyph d="M375 532L438 500L376 384H522V313H339L272 186H522V114H235L159 -32L97 0L156 114H15V186H193L260 313H15V384H298Z" horiz-adv-x="593" unicode="≠"/>
			<glyph d="M522 528V450L114 304L522 159V82L15 266V341ZM15 42H522V-30H15Z" horiz-adv-x="593" unicode="≤"/>
			<glyph d="M15 528L522 341V266L15 82V159L423 304L15 450ZM15 42H522V-30H15Z" horiz-adv-x="593" unicode="≥"/>
			<glyph d="M260 747H332L504 356L332 -35H260L89 356ZM296 671L165 356L296 41L428 356Z" horiz-adv-x="593" unicode="◊"/>
			<glyph d="M566 886Q711 886 833 814T1028 619T1100 352Q1100 207 1028 84T833 -110T566 -182Q421 -182 298 -110T104 84T32 352Q32 497 104 619T298 814T566 886ZM566 708Q469 708 387 660T258 530T210 352Q210 255 258 173T387 44T566 -4Q663 -4 744 44T874 173T922 352Q922 449 874 530T744 660T566 708ZM566 530Q614 530 655 506T720 441T744 352Q744 304 720 263T655 198T566 174Q518 174 477 198T412 263T388 352Q388 400 412 441T477 506T566 530Z" horiz-adv-x="1132" unicode="◎"/>
			<glyph d="M189 714Q232 714 254 691T276 627Q276 573 244 534T160 495Q121 495 96 519T72 583Q72 636 104 675T189 714ZM385 714H435L220 344H169ZM186 674Q154 674 134 646T115 586Q115 561 128 548T166 535Q196 535 215 563T234 622Q234 646 221 660T186 674ZM443 556Q486 556 508 533T530 469Q530 415 498 376T414 337Q375 337 350 361T326 425Q326 478 358 517T443 556ZM440 516Q408 516 388 488T369 428Q369 403 382 390T420 377Q450 377 469 405T488 464Q488 488 475 502T440 516ZM312 289Q329 289 334 288L345 285L337 246Q328 249 320 249Q305 249 298 242T287 221L284 209H323L315 171H276L239 0H192L229 171H198L206 209H237L244 240Q256 289 312 289ZM443 289Q460 289 465 288L476 285L468 246Q459 249 451 249Q436 249 429 242T418 221L415 209H454L446 171H407L370 0H323L360 171H329L337 209H368L375 240Q387 289 443 289ZM91 212Q134 212 156 189T178 125Q178 71 146 32T62 -7Q23 -7 -1 17T-26 81Q-26 134 6 173T91 212ZM87 171Q56 171 37 144T18 84Q18 60 31 47T68 34Q98 34 116 61T135 119Q135 143 122 157T87 171Z" horiz-adv-x="534" unicode=""/>
			<glyph d="M670 722H739L169 -22H98ZM292 703H348L253 280H185L255 594Q211 577 141 572L153 625Q204 631 238 649T292 703ZM929 432Q987 432 1018 403T1050 320H986Q981 378 925 378Q884 378 857 345T812 249Q829 263 851 271T898 280Q954 280 988 243T1023 150Q1023 105 1002 68T944 11T862 -9Q797 -9 762 31T727 143Q727 205 748 272T815 385T929 432ZM666 423H722L627 0H559L629 314Q585 297 515 292L527 345Q578 351 612 369T666 423ZM878 226Q842 226 818 197T795 127Q795 93 814 69T866 46Q907 46 930 76T954 150Q954 184 933 205T878 226Z" horiz-adv-x="1113" unicode=""/>
			<glyph d="M709 722H778L208 -22H137ZM267 712Q325 712 362 681T400 600Q400 565 377 539T314 503V501Q346 490 362 466T379 410Q379 374 359 341T302 289T218 270Q146 270 106 306T67 410H135Q135 370 158 348T222 326Q262 326 286 349T311 411Q311 442 289 459T223 477H204L213 526H249Q289 526 311 544T334 595Q334 622 315 638T264 655Q228 655 205 635T179 577H112Q119 641 161 676T267 712ZM968 432Q1026 432 1057 403T1089 320H1025Q1020 378 964 378Q923 378 896 345T851 249Q868 263 890 271T937 280Q993 280 1027 243T1062 150Q1062 105 1041 68T983 11T901 -9Q836 -9 801 31T766 143Q766 205 787 272T854 385T968 432ZM705 423H761Q730 282 666 0H598L669 314Q623 296 555 292L567 345Q614 351 651 370T705 423ZM917 226Q881 226 857 197T834 127Q834 93 853 69T905 46Q946 46 969 76T993 150Q993 184 972 205T917 226Z" horiz-adv-x="1152" unicode=""/>
			<glyph d="M708 722H777L207 -22H136ZM179 703H408L395 647H222L187 547Q216 564 260 564Q312 564 345 529T379 438Q379 364 333 317T213 271Q154 271 117 306T80 400H144Q144 364 161 345T217 327Q257 327 284 357T311 429Q311 468 292 489T238 511Q184 511 163 471L103 474ZM967 432Q1025 432 1056 403T1088 320H1024Q1019 378 963 378Q922 378 895 345T850 249Q867 263 889 271T936 280Q992 280 1026 243T1061 150Q1061 105 1040 68T982 11T900 -9Q835 -9 800 31T765 143Q765 205 786 272T853 385T967 432ZM704 423H760Q729 282 665 0H597L668 314Q622 296 554 292L566 345Q613 351 650 370T704 423ZM916 226Q880 226 856 197T833 127Q833 93 852 69T904 46Q945 46 968 76T992 150Q992 184 971 205T916 226Z" horiz-adv-x="1151" unicode=""/>
			<glyph d="M632 722H701L131 -22H60ZM149 703H430L418 650Q343 586 278 481T188 280H113Q139 379 201 476T341 644H136ZM891 432Q949 432 980 403T1012 320H948Q943 378 887 378Q846 378 819 345T774 249Q791 263 813 271T860 280Q916 280 950 243T985 150Q985 105 964 68T906 11T824 -9Q759 -9 724 31T689 143Q689 205 710 272T777 385T891 432ZM628 423H684Q653 282 589 0H521L592 314Q546 296 478 292L490 345Q537 351 574 370T628 423ZM840 226Q804 226 780 197T757 127Q757 93 776 69T828 46Q869 46 892 76T916 150Q916 184 895 205T840 226Z" horiz-adv-x="1075" unicode=""/>
			<glyph d="M699 722H768L198 -22H127ZM265 712Q330 712 365 672T400 560Q400 498 378 431T311 317T198 271Q140 271 109 299T77 383H141Q146 325 202 325Q243 325 270 357T315 454Q298 440 275 431T229 423Q173 423 138 459T104 553Q104 598 125 634T182 691T265 712ZM261 657Q220 657 196 627T173 553Q173 519 194 498T249 477Q285 477 308 506T332 576Q332 610 312 633T261 657ZM958 432Q1016 432 1047 403T1079 320H1015Q1010 378 954 378Q913 378 886 345T841 249Q858 263 880 271T927 280Q983 280 1017 243T1052 150Q1052 105 1031 68T973 11T891 -9Q826 -9 791 31T756 143Q756 205 777 272T844 385T958 432ZM695 423H751Q720 282 656 0H588L659 314Q613 296 545 292L557 345Q604 351 641 370T695 423ZM907 226Q871 226 847 197T824 127Q824 93 843 69T895 46Q936 46 959 76T983 150Q983 184 962 205T907 226Z" horiz-adv-x="1142" unicode=""/>
			<glyph d="M896 722H965L395 -22H324ZM292 703H348L253 280H185L255 594Q211 577 141 572L153 625Q204 631 238 649T292 703ZM518 703H574L479 280H411L481 594Q437 577 367 572L379 625Q430 631 464 649T518 703ZM1155 432Q1213 432 1244 403T1276 320H1212Q1207 378 1151 378Q1110 378 1083 345T1038 249Q1055 263 1077 271T1124 280Q1180 280 1214 243T1249 150Q1249 105 1228 68T1170 11T1088 -9Q1023 -9 988 31T953 143Q953 205 974 272T1041 385T1155 432ZM892 423H948L853 0H785L855 314Q811 297 741 292L753 345Q804 351 838 369T892 423ZM1104 226Q1068 226 1044 197T1021 127Q1021 93 1040 69T1092 46Q1133 46 1156 76T1180 150Q1180 184 1159 205T1104 226Z" horiz-adv-x="1339" unicode=""/>
			<glyph d="M971 722H1040L470 -22H399ZM529 712Q587 712 624 681T662 600Q662 565 639 539T576 503V501Q608 490 624 466T641 410Q641 374 621 341T564 289T480 270Q408 270 368 306T329 410H397Q397 370 420 348T484 326Q524 326 548 349T573 411Q573 442 551 459T485 477H466L475 526H511Q551 526 573 544T596 595Q596 622 577 638T526 655Q490 655 467 635T441 577H374Q381 641 423 676T529 712ZM292 703H348L253 280H185L255 594Q211 577 141 572L153 625Q204 631 238 649T292 703ZM1230 432Q1288 432 1319 403T1351 320H1287Q1282 378 1226 378Q1185 378 1158 345T1113 249Q1130 263 1152 271T1199 280Q1255 280 1289 243T1324 150Q1324 105 1303 68T1245 11T1163 -9Q1098 -9 1063 31T1028 143Q1028 205 1049 272T1116 385T1230 432ZM967 423H1023L928 0H860L930 314Q886 297 816 292L828 345Q879 351 913 369T967 423ZM1179 226Q1143 226 1119 197T1096 127Q1096 93 1115 69T1167 46Q1208 46 1231 76T1255 150Q1255 184 1234 205T1179 226Z" horiz-adv-x="1414" unicode=""/>
			<glyph d="M963 722H1032L462 -22H391ZM292 703H348L253 280H185L255 594Q211 577 141 572L153 625Q204 631 238 649T292 703ZM435 703H664L651 647H478L443 547Q472 564 516 564Q568 564 601 529T635 438Q635 364 589 317T469 271Q410 271 373 306T336 400H400Q400 364 417 345T473 327Q513 327 540 357T567 429Q567 468 548 489T494 511Q440 511 419 471L359 474ZM1222 432Q1280 432 1311 403T1343 320H1279Q1274 378 1218 378Q1177 378 1150 345T1105 249Q1122 263 1144 271T1191 280Q1247 280 1281 243T1316 150Q1316 105 1295 68T1237 11T1155 -9Q1090 -9 1055 31T1020 143Q1020 205 1041 272T1108 385T1222 432ZM959 423H1015L920 0H852L922 314Q878 297 808 292L820 345Q871 351 905 369T959 423ZM1171 226Q1135 226 1111 197T1088 127Q1088 93 1107 69T1159 46Q1200 46 1223 76T1247 150Q1247 184 1226 205T1171 226Z" horiz-adv-x="1406" unicode=""/>
			<glyph d="M131 317Q158 317 176 298T195 253Q195 226 177 207T131 189Q105 189 86 208T67 253Q67 279 86 298T131 317Z" horiz-adv-x="278" unicode=""/>
			<glyph d="M159 714H252L205 491L115 183H69L112 490Z" horiz-adv-x="259" unicode=""/>
			<glyph d="M68 125Q93 125 112 105T131 58Q131 33 112 13T68 -6Q41 -6 22 13T3 60Q3 86 22 105T68 125Z" horiz-adv-x="259" unicode=""/>
			<glyph d="M243 709Q284 709 318 689T371 636T391 561Q391 520 371 486T318 432T243 413Q202 413 168 432T114 486T95 561Q95 602 114 635T168 689T243 709ZM243 659Q202 659 173 631T145 561Q145 520 173 491T243 463Q284 463 312 491T341 561Q341 605 312 632T243 659Z" horiz-adv-x="400" unicode=""/>
			<glyph d="M335 709Q412 709 457 668L484 709H563L498 609Q526 544 526 442Q526 343 487 229Q449 114 379 51T221 -12Q157 -12 113 18L94 -12H7L64 74Q25 142 25 263Q25 365 65 475Q105 586 175 647T335 709ZM328 634Q268 634 220 578T144 422Q115 321 115 248Q115 195 123 163L410 597Q383 634 328 634ZM435 512L159 89Q185 63 230 63Q275 63 313 94T379 185Q437 310 437 468Q437 486 435 512Z" horiz-adv-x="556" unicode=""/>
			<glyph d="M228 501Q261 501 278 496L267 443Q251 447 235 447Q209 447 196 435T177 397L169 363H241L230 311H158L92 0H26L92 311H37L48 363H103L118 420Q130 465 155 483T228 501ZM819 369Q827 369 834 368L821 305Q814 306 806 306Q753 306 715 270T665 180Q653 120 627 0H561L638 363H702L685 285Q709 326 741 347T819 369ZM406 368Q476 368 516 329T557 223Q557 161 533 106T464 19T353 -14Q282 -14 242 26T203 138Q203 199 227 251T298 336T406 368ZM399 312Q359 312 329 286T284 221T269 143Q269 96 293 68T361 41Q403 41 432 68T476 135T491 214Q491 260 467 286T399 312Z" horiz-adv-x="839" unicode=""/>
			<glyph d="M248 714H361L261 571H195Z" unicode=""/>
			<glyph d="M359 907H411Q395 856 369 826T299 796Q281 796 266 800T236 812T213 822Q184 835 162 835Q127 835 109 793H57Q73 848 102 875T173 903Q203 903 245 883T309 863Q341 863 359 907Z" unicode=""/>
			<glyph d="M104 872H373L362 817H92Z" unicode=""/>
			<glyph d="M94 920H139Q139 878 161 857T232 836Q282 836 309 855T350 920H395Q387 854 341 817T229 781Q163 781 128 814T94 910Z" unicode=""/>
			<glyph d="M146 922H259L123 779H53ZM312 922H425L289 779H219Z" unicode=""/>
			<glyph d="M239 973Q286 973 319 939T352 860Q352 814 319 780T239 747Q209 747 183 762T141 804T126 860Q126 906 159 939T239 973ZM238 928Q210 928 190 908T171 860Q171 831 190 811T239 792Q268 792 287 811T307 860Q307 889 287 908T238 928Z" unicode=""/>
			<glyph d="M112 470H178L155 363H228L217 311H144L100 101Q95 79 95 72Q95 48 122 48Q143 48 168 51L157 -2Q134 -6 105 -6Q65 -6 46 7T28 51Q28 70 32 89L78 311H20L32 363H89ZM402 368Q472 368 512 329T553 223Q553 161 529 106T460 19T349 -14Q278 -14 238 26T198 138Q198 199 223 251T294 336T402 368ZM395 312Q354 312 324 286T279 221T264 143Q264 96 288 68T356 41Q398 41 427 68T471 135T486 214Q486 260 462 286T395 312Z" horiz-adv-x="563" unicode=""/>
			<glyph d="M160 907Q183 907 200 889T217 847Q217 823 200 805T160 788Q136 788 119 806T103 848Q103 872 120 889T160 907ZM345 907Q369 907 386 889T403 847Q403 823 386 805T345 788Q321 788 304 806T288 848Q288 873 305 890T345 907Z" unicode=""/>
			<glyph d="M270 922H383L247 779H177Z" unicode=""/>
			<glyph d="M116 922H217L284 779H217Z" unicode=""/>
			<glyph d="M203 922H289L364 779H290L239 872L152 779H70Z" unicode=""/>
			<glyph d="M105 922H181L232 829L325 922H403L268 779H182Z" unicode=""/>
			<glyph d="M409 699H459L217 282H166ZM189 697Q232 697 258 668T284 597Q284 541 250 500T162 459Q116 459 90 485T64 559Q64 618 99 657T189 697ZM186 652Q152 652 131 625T111 563Q111 536 125 520T165 504Q197 504 217 530T237 593Q237 619 223 635T186 652ZM465 520Q508 520 534 491T560 420Q560 364 526 323T438 282Q392 282 366 308T340 382Q340 441 375 480T465 520ZM462 475Q428 475 407 448T387 386Q387 359 401 343T441 327Q473 327 493 353T513 416Q513 442 499 458T462 475ZM85 234Q128 234 154 205T180 134Q180 78 146 37T58 -4Q12 -4 -14 22T-40 96Q-40 155 -4 194T85 234ZM221 225H375L366 184H262L251 132H342L334 93H242L223 0H174ZM395 225H547L538 184H435L424 132H516L508 93H415L396 0H348ZM82 189Q48 189 27 162T7 100Q7 73 21 57T61 41Q93 41 113 67T133 130Q133 156 119 172T82 189Z" horiz-adv-x="598" unicode=""/>
			<glyph d="M269 725H333L-102 -28H-166Z" horiz-adv-x="167" unicode=""/>
			<glyph d="M302 722Q348 722 372 714L358 642Q330 647 318 647Q252 647 235 584L218 517H317L303 442H203L108 0H23L119 442H31L46 517H134L141 547Q156 610 169 644T214 700T302 722ZM473 722Q497 722 514 704T531 660Q531 636 514 618T473 600Q449 600 432 618T415 662Q415 687 432 704T473 722ZM400 517H485L377 0H292Z" horiz-adv-x="519" unicode=""/>
			<glyph d="M302 722Q348 722 372 714L358 642Q330 647 318 647Q252 647 235 584L218 517H317L303 442H203L108 0H23L119 442H31L46 517H134L141 547Q156 610 169 644T214 700T302 722ZM442 714H527L377 0H292Z" horiz-adv-x="519" unicode=""/>
			<glyph d="M302 722Q348 722 372 714L358 642Q330 647 318 647Q281 647 260 627T229 565L218 517H415L435 596Q451 662 485 692T583 722Q629 722 653 714L639 642Q611 647 599 647Q561 647 541 628T511 565L499 517H598L584 442H484L389 0H304L400 442H203L108 0H23L119 442H31L46 517H134L153 596Q169 662 203 692T302 722Z" horiz-adv-x="577" unicode="ﬀ"/>
			<glyph d="M302 722Q348 722 372 714L358 642Q330 647 318 647Q252 647 235 584L218 517H317L303 442H203L108 0H23L119 442H31L46 517H134L141 547Q156 610 169 644T214 700T302 722ZM473 722Q497 722 514 704T531 660Q531 636 514 618T473 600Q449 600 432 618T415 662Q415 687 432 704T473 722ZM400 517H485L377 0H292Z" horiz-adv-x="519" unicode="ﬁ"/>
			<glyph d="M302 722Q348 722 372 714L358 642Q330 647 318 647Q252 647 235 584L218 517H317L303 442H203L108 0H23L119 442H31L46 517H134L141 547Q156 610 169 644T214 700T302 722ZM442 714H527L377 0H292Z" horiz-adv-x="519" unicode="ﬂ"/>
			<glyph d="M302 722Q348 722 372 714L358 642Q330 647 318 647Q281 647 260 627T229 565L218 517H415L435 596Q451 662 485 692T583 722Q629 722 653 714L639 642Q611 647 599 647Q561 647 541 628T511 565L499 517H598L584 442H484L389 0H304L400 442H203L108 0H23L119 442H31L46 517H134L153 596Q169 662 203 692T302 722ZM753 722Q777 722 794 704T811 660Q811 636 794 618T753 600Q729 600 712 618T695 662Q695 687 712 704T753 722ZM680 517H765L657 0H572Z" horiz-adv-x="799" unicode="ﬃ"/>
			<glyph d="M302 722Q348 722 372 714L358 642Q330 647 318 647Q281 647 260 627T229 565L218 517H415L435 596Q451 662 485 692T583 722Q629 722 653 714L639 642Q611 647 599 647Q561 647 541 628T511 565L499 517H598L584 442H484L389 0H304L400 442H203L108 0H23L119 442H31L46 517H134L153 596Q169 662 203 692T302 722ZM722 714H807L657 0H572Z" horiz-adv-x="799" unicode="ﬄ"/>
			<glyph d="M535 716Q580 716 605 690T633 623H593Q591 649 575 664T533 680Q482 680 452 642T422 554Q422 520 439 500T492 480Q521 480 545 500T581 553H622Q606 501 570 472T489 444Q438 444 410 473T382 554Q382 596 401 633T456 693T535 716ZM92 710H155L190 515L304 710H372L317 450H276L321 667H320L192 450H163L125 667H124L78 450H37Z" horiz-adv-x="573" unicode="🅪"/>
		</font>
</defs>
</svg>
